%TF.GenerationSoftware,KiCad,Pcbnew,(6.0.1)*%
%TF.CreationDate,2023-03-31T22:37:06-07:00*%
%TF.ProjectId,test_pcb,74657374-5f70-4636-922e-6b696361645f,rev?*%
%TF.SameCoordinates,Original*%
%TF.FileFunction,Copper,L1,Top*%
%TF.FilePolarity,Positive*%
%FSLAX46Y46*%
G04 Gerber Fmt 4.6, Leading zero omitted, Abs format (unit mm)*
G04 Created by KiCad (PCBNEW (6.0.1)) date 2023-03-31 22:37:06*
%MOMM*%
%LPD*%
G01*
G04 APERTURE LIST*
G04 Aperture macros list*
%AMRoundRect*
0 Rectangle with rounded corners*
0 $1 Rounding radius*
0 $2 $3 $4 $5 $6 $7 $8 $9 X,Y pos of 4 corners*
0 Add a 4 corners polygon primitive as box body*
4,1,4,$2,$3,$4,$5,$6,$7,$8,$9,$2,$3,0*
0 Add four circle primitives for the rounded corners*
1,1,$1+$1,$2,$3*
1,1,$1+$1,$4,$5*
1,1,$1+$1,$6,$7*
1,1,$1+$1,$8,$9*
0 Add four rect primitives between the rounded corners*
20,1,$1+$1,$2,$3,$4,$5,0*
20,1,$1+$1,$4,$5,$6,$7,0*
20,1,$1+$1,$6,$7,$8,$9,0*
20,1,$1+$1,$8,$9,$2,$3,0*%
G04 Aperture macros list end*
%ADD10C,0.300000*%
%TA.AperFunction,NonConductor*%
%ADD11C,0.300000*%
%TD*%
%TA.AperFunction,SMDPad,CuDef*%
%ADD12RoundRect,0.250000X-0.325000X-0.650000X0.325000X-0.650000X0.325000X0.650000X-0.325000X0.650000X0*%
%TD*%
%TA.AperFunction,SMDPad,CuDef*%
%ADD13RoundRect,0.140000X-0.140000X-0.170000X0.140000X-0.170000X0.140000X0.170000X-0.140000X0.170000X0*%
%TD*%
%TA.AperFunction,SMDPad,CuDef*%
%ADD14RoundRect,0.225000X-0.225000X-0.250000X0.225000X-0.250000X0.225000X0.250000X-0.225000X0.250000X0*%
%TD*%
%TA.AperFunction,SMDPad,CuDef*%
%ADD15RoundRect,0.250000X-0.250000X-0.475000X0.250000X-0.475000X0.250000X0.475000X-0.250000X0.475000X0*%
%TD*%
%TA.AperFunction,SMDPad,CuDef*%
%ADD16RoundRect,0.062500X0.062500X-0.337500X0.062500X0.337500X-0.062500X0.337500X-0.062500X-0.337500X0*%
%TD*%
%TA.AperFunction,SMDPad,CuDef*%
%ADD17RoundRect,0.062500X0.337500X-0.062500X0.337500X0.062500X-0.337500X0.062500X-0.337500X-0.062500X0*%
%TD*%
%TA.AperFunction,SMDPad,CuDef*%
%ADD18R,2.450000X2.450000*%
%TD*%
%TA.AperFunction,SMDPad,CuDef*%
%ADD19RoundRect,0.150000X0.150000X-0.825000X0.150000X0.825000X-0.150000X0.825000X-0.150000X-0.825000X0*%
%TD*%
%TA.AperFunction,SMDPad,CuDef*%
%ADD20R,3.810000X2.410000*%
%TD*%
%TA.AperFunction,ComponentPad*%
%ADD21R,1.600000X1.600000*%
%TD*%
%TA.AperFunction,ComponentPad*%
%ADD22O,1.600000X1.600000*%
%TD*%
%TA.AperFunction,Conductor*%
%ADD23C,0.200000*%
%TD*%
%TA.AperFunction,Conductor*%
%ADD24C,0.381000*%
%TD*%
%TA.AperFunction,Conductor*%
%ADD25C,0.355600*%
%TD*%
%TA.AperFunction,Conductor*%
%ADD26C,0.330200*%
%TD*%
%TA.AperFunction,Conductor*%
%ADD27C,0.228600*%
%TD*%
%TA.AperFunction,Conductor*%
%ADD28C,0.203200*%
%TD*%
%TA.AperFunction,Conductor*%
%ADD29C,0.304800*%
%TD*%
%TA.AperFunction,Conductor*%
%ADD30C,0.279400*%
%TD*%
%TA.AperFunction,Conductor*%
%ADD31C,0.177800*%
%TD*%
%TA.AperFunction,Conductor*%
%ADD32C,0.254000*%
%TD*%
%TA.AperFunction,Conductor*%
%ADD33C,0.250000*%
%TD*%
G04 APERTURE END LIST*
D10*
D11*
X26977052Y-49275833D02*
X27119909Y-49275833D01*
X27262766Y-49347262D01*
X27334195Y-49418690D01*
X27405623Y-49561547D01*
X27477052Y-49847262D01*
X27477052Y-50204404D01*
X27405623Y-50490119D01*
X27334195Y-50632976D01*
X27262766Y-50704404D01*
X27119909Y-50775833D01*
X26977052Y-50775833D01*
X26834195Y-50704404D01*
X26762766Y-50632976D01*
X26691338Y-50490119D01*
X26619909Y-50204404D01*
X26619909Y-49847262D01*
X26691338Y-49561547D01*
X26762766Y-49418690D01*
X26834195Y-49347262D01*
X26977052Y-49275833D01*
X28334195Y-49918690D02*
X28191338Y-49847262D01*
X28119909Y-49775833D01*
X28048480Y-49632976D01*
X28048480Y-49561547D01*
X28119909Y-49418690D01*
X28191338Y-49347262D01*
X28334195Y-49275833D01*
X28619909Y-49275833D01*
X28762766Y-49347262D01*
X28834195Y-49418690D01*
X28905623Y-49561547D01*
X28905623Y-49632976D01*
X28834195Y-49775833D01*
X28762766Y-49847262D01*
X28619909Y-49918690D01*
X28334195Y-49918690D01*
X28191338Y-49990119D01*
X28119909Y-50061547D01*
X28048480Y-50204404D01*
X28048480Y-50490119D01*
X28119909Y-50632976D01*
X28191338Y-50704404D01*
X28334195Y-50775833D01*
X28619909Y-50775833D01*
X28762766Y-50704404D01*
X28834195Y-50632976D01*
X28905623Y-50490119D01*
X28905623Y-50204404D01*
X28834195Y-50061547D01*
X28762766Y-49990119D01*
X28619909Y-49918690D01*
X29834195Y-49275833D02*
X29977052Y-49275833D01*
X30119909Y-49347262D01*
X30191338Y-49418690D01*
X30262766Y-49561547D01*
X30334195Y-49847262D01*
X30334195Y-50204404D01*
X30262766Y-50490119D01*
X30191338Y-50632976D01*
X30119909Y-50704404D01*
X29977052Y-50775833D01*
X29834195Y-50775833D01*
X29691338Y-50704404D01*
X29619909Y-50632976D01*
X29548480Y-50490119D01*
X29477052Y-50204404D01*
X29477052Y-49847262D01*
X29548480Y-49561547D01*
X29619909Y-49418690D01*
X29691338Y-49347262D01*
X29834195Y-49275833D01*
X31691338Y-49275833D02*
X30977052Y-49275833D01*
X30905623Y-49990119D01*
X30977052Y-49918690D01*
X31119909Y-49847262D01*
X31477052Y-49847262D01*
X31619909Y-49918690D01*
X31691338Y-49990119D01*
X31762766Y-50132976D01*
X31762766Y-50490119D01*
X31691338Y-50632976D01*
X31619909Y-50704404D01*
X31477052Y-50775833D01*
X31119909Y-50775833D01*
X30977052Y-50704404D01*
X30905623Y-50632976D01*
D10*
D11*
X21320652Y-50719433D02*
X20463509Y-50719433D01*
X20892080Y-50719433D02*
X20892080Y-49219433D01*
X20749223Y-49433719D01*
X20606366Y-49576576D01*
X20463509Y-49648004D01*
X21892080Y-49362290D02*
X21963509Y-49290862D01*
X22106366Y-49219433D01*
X22463509Y-49219433D01*
X22606366Y-49290862D01*
X22677795Y-49362290D01*
X22749223Y-49505147D01*
X22749223Y-49648004D01*
X22677795Y-49862290D01*
X21820652Y-50719433D01*
X22749223Y-50719433D01*
X23677795Y-49219433D02*
X23820652Y-49219433D01*
X23963509Y-49290862D01*
X24034938Y-49362290D01*
X24106366Y-49505147D01*
X24177795Y-49790862D01*
X24177795Y-50148004D01*
X24106366Y-50433719D01*
X24034938Y-50576576D01*
X23963509Y-50648004D01*
X23820652Y-50719433D01*
X23677795Y-50719433D01*
X23534938Y-50648004D01*
X23463509Y-50576576D01*
X23392080Y-50433719D01*
X23320652Y-50148004D01*
X23320652Y-49790862D01*
X23392080Y-49505147D01*
X23463509Y-49362290D01*
X23534938Y-49290862D01*
X23677795Y-49219433D01*
X25463509Y-49219433D02*
X25177795Y-49219433D01*
X25034938Y-49290862D01*
X24963509Y-49362290D01*
X24820652Y-49576576D01*
X24749223Y-49862290D01*
X24749223Y-50433719D01*
X24820652Y-50576576D01*
X24892080Y-50648004D01*
X25034938Y-50719433D01*
X25320652Y-50719433D01*
X25463509Y-50648004D01*
X25534938Y-50576576D01*
X25606366Y-50433719D01*
X25606366Y-50076576D01*
X25534938Y-49933719D01*
X25463509Y-49862290D01*
X25320652Y-49790862D01*
X25034938Y-49790862D01*
X24892080Y-49862290D01*
X24820652Y-49933719D01*
X24749223Y-50076576D01*
D10*
D11*
X29293780Y-30950727D02*
X29495810Y-31152758D01*
X29647333Y-31203266D01*
X29748348Y-31203266D01*
X30000886Y-31152758D01*
X30253424Y-31001235D01*
X30657485Y-30597174D01*
X30707993Y-30445651D01*
X30707993Y-30344636D01*
X30657485Y-30193113D01*
X30455455Y-29991083D01*
X30303932Y-29940575D01*
X30202917Y-29940575D01*
X30051394Y-29991083D01*
X29798856Y-30243621D01*
X29748348Y-30395144D01*
X29748348Y-30496159D01*
X29798856Y-30647682D01*
X30000886Y-30849712D01*
X30152409Y-30900220D01*
X30253424Y-30900220D01*
X30404947Y-30849712D01*
D10*
D11*
X42997650Y-18001197D02*
X42391558Y-17395106D01*
X42694604Y-17698152D02*
X43755264Y-16637492D01*
X43502726Y-16687999D01*
X43300695Y-16687999D01*
X43149172Y-16637492D01*
X45017955Y-17900182D02*
X44512878Y-17395106D01*
X43957294Y-17849675D01*
X44058310Y-17849675D01*
X44209833Y-17900182D01*
X44462371Y-18152720D01*
X44512878Y-18304243D01*
X44512878Y-18405258D01*
X44462371Y-18556781D01*
X44209833Y-18809319D01*
X44058310Y-18859827D01*
X43957294Y-18859827D01*
X43805772Y-18809319D01*
X43553233Y-18556781D01*
X43502726Y-18405258D01*
X43502726Y-18304243D01*
D10*
D11*
X48935731Y-47717016D02*
X49642838Y-48424123D01*
X48127609Y-49030215D01*
D10*
D11*
X40058772Y-40252090D02*
X40008265Y-40100567D01*
X40008265Y-39999552D01*
X40058772Y-39848029D01*
X40109280Y-39797522D01*
X40260803Y-39747014D01*
X40361818Y-39747014D01*
X40513341Y-39797522D01*
X40715371Y-39999552D01*
X40765879Y-40151075D01*
X40765879Y-40252090D01*
X40715371Y-40403613D01*
X40664864Y-40454121D01*
X40513341Y-40504628D01*
X40412326Y-40504628D01*
X40260803Y-40454121D01*
X40058772Y-40252090D01*
X39907249Y-40201583D01*
X39806234Y-40201583D01*
X39654711Y-40252090D01*
X39452681Y-40454121D01*
X39402173Y-40605644D01*
X39402173Y-40706659D01*
X39452681Y-40858182D01*
X39654711Y-41060212D01*
X39806234Y-41110720D01*
X39907249Y-41110720D01*
X40058772Y-41060212D01*
X40260803Y-40858182D01*
X40311310Y-40706659D01*
X40311310Y-40605644D01*
X40260803Y-40454121D01*
D10*
D11*
X54815668Y-42643020D02*
X54209576Y-42036929D01*
X54512622Y-42339975D02*
X55573282Y-41279315D01*
X55320744Y-41329822D01*
X55118713Y-41329822D01*
X54967190Y-41279315D01*
X56532927Y-42238959D02*
X56633942Y-42339975D01*
X56684450Y-42491498D01*
X56684450Y-42592513D01*
X56633942Y-42744036D01*
X56482419Y-42996574D01*
X56229881Y-43249112D01*
X55977343Y-43400635D01*
X55825820Y-43451142D01*
X55724805Y-43451142D01*
X55573282Y-43400635D01*
X55472267Y-43299620D01*
X55421759Y-43148097D01*
X55421759Y-43047081D01*
X55472267Y-42895559D01*
X55623790Y-42643020D01*
X55876328Y-42390482D01*
X56128866Y-42238959D01*
X56280389Y-42188452D01*
X56381404Y-42188452D01*
X56532927Y-42238959D01*
D10*
D11*
X52301196Y-27556190D02*
X51695104Y-26950099D01*
X51998150Y-27253145D02*
X53058810Y-26192485D01*
X52806272Y-26242992D01*
X52604241Y-26242992D01*
X52452718Y-26192485D01*
X53917440Y-27758221D02*
X53210333Y-28465328D01*
X54068962Y-27101622D02*
X53058810Y-27606698D01*
X53715409Y-28263297D01*
D10*
D11*
X45763569Y-33842368D02*
X45157477Y-33236277D01*
X45460523Y-33539323D02*
X46521183Y-32478663D01*
X46268645Y-32529170D01*
X46066614Y-32529170D01*
X45915091Y-32478663D01*
X46773721Y-34852521D02*
X46167630Y-34246429D01*
X46470675Y-34549475D02*
X47531335Y-33488815D01*
X47278797Y-33539323D01*
X47076767Y-33539323D01*
X46925244Y-33488815D01*
D10*
D11*
X36334300Y-24413099D02*
X35728208Y-23807008D01*
X36031254Y-24110054D02*
X37091914Y-23049394D01*
X36839376Y-23099901D01*
X36637345Y-23099901D01*
X36485822Y-23049394D01*
X37698005Y-23857516D02*
X37799021Y-23857516D01*
X37950544Y-23908023D01*
X38203082Y-24160561D01*
X38253589Y-24312084D01*
X38253589Y-24413099D01*
X38203082Y-24564622D01*
X38102066Y-24665638D01*
X37900036Y-24766653D01*
X36687853Y-24766653D01*
X37344452Y-25423252D01*
D10*
D11*
X61479018Y-36734012D02*
X60872926Y-36127921D01*
X61175972Y-36430967D02*
X62236632Y-35370307D01*
X61984094Y-35420814D01*
X61782063Y-35420814D01*
X61630540Y-35370307D01*
X62893231Y-36026906D02*
X63549830Y-36683505D01*
X62792216Y-36734012D01*
X62943739Y-36885535D01*
X62994246Y-37037058D01*
X62994246Y-37138073D01*
X62943739Y-37289596D01*
X62691201Y-37542134D01*
X62539678Y-37592642D01*
X62438662Y-37592642D01*
X62287140Y-37542134D01*
X61984094Y-37239089D01*
X61933586Y-37087566D01*
X61933586Y-36986551D01*
D10*
D11*
X51160738Y-79623233D02*
X52160738Y-79623233D01*
X51517880Y-81123233D01*
D10*
D11*
X39605280Y-80621690D02*
X39462423Y-80550262D01*
X39390995Y-80478833D01*
X39319566Y-80335976D01*
X39319566Y-80264547D01*
X39390995Y-80121690D01*
X39462423Y-80050262D01*
X39605280Y-79978833D01*
X39890995Y-79978833D01*
X40033852Y-80050262D01*
X40105280Y-80121690D01*
X40176709Y-80264547D01*
X40176709Y-80335976D01*
X40105280Y-80478833D01*
X40033852Y-80550262D01*
X39890995Y-80621690D01*
X39605280Y-80621690D01*
X39462423Y-80693119D01*
X39390995Y-80764547D01*
X39319566Y-80907404D01*
X39319566Y-81193119D01*
X39390995Y-81335976D01*
X39462423Y-81407404D01*
X39605280Y-81478833D01*
X39890995Y-81478833D01*
X40033852Y-81407404D01*
X40105280Y-81335976D01*
X40176709Y-81193119D01*
X40176709Y-80907404D01*
X40105280Y-80764547D01*
X40033852Y-80693119D01*
X39890995Y-80621690D01*
D10*
D11*
X25416223Y-81656633D02*
X25701938Y-81656633D01*
X25844795Y-81585204D01*
X25916223Y-81513776D01*
X26059080Y-81299490D01*
X26130509Y-81013776D01*
X26130509Y-80442347D01*
X26059080Y-80299490D01*
X25987652Y-80228062D01*
X25844795Y-80156633D01*
X25559080Y-80156633D01*
X25416223Y-80228062D01*
X25344795Y-80299490D01*
X25273366Y-80442347D01*
X25273366Y-80799490D01*
X25344795Y-80942347D01*
X25416223Y-81013776D01*
X25559080Y-81085204D01*
X25844795Y-81085204D01*
X25987652Y-81013776D01*
X26059080Y-80942347D01*
X26130509Y-80799490D01*
D10*
D11*
X51730623Y-71877633D02*
X50873480Y-71877633D01*
X51302052Y-71877633D02*
X51302052Y-70377633D01*
X51159195Y-70591919D01*
X51016338Y-70734776D01*
X50873480Y-70806204D01*
X52659195Y-70377633D02*
X52802052Y-70377633D01*
X52944909Y-70449062D01*
X53016338Y-70520490D01*
X53087766Y-70663347D01*
X53159195Y-70949062D01*
X53159195Y-71306204D01*
X53087766Y-71591919D01*
X53016338Y-71734776D01*
X52944909Y-71806204D01*
X52802052Y-71877633D01*
X52659195Y-71877633D01*
X52516338Y-71806204D01*
X52444909Y-71734776D01*
X52373480Y-71591919D01*
X52302052Y-71306204D01*
X52302052Y-70949062D01*
X52373480Y-70663347D01*
X52444909Y-70520490D01*
X52516338Y-70449062D01*
X52659195Y-70377633D01*
D10*
D11*
X39106823Y-72055433D02*
X38249680Y-72055433D01*
X38678252Y-72055433D02*
X38678252Y-70555433D01*
X38535395Y-70769719D01*
X38392538Y-70912576D01*
X38249680Y-70984004D01*
X40535395Y-72055433D02*
X39678252Y-72055433D01*
X40106823Y-72055433D02*
X40106823Y-70555433D01*
X39963966Y-70769719D01*
X39821109Y-70912576D01*
X39678252Y-70984004D01*
D10*
D11*
X25771823Y-72055433D02*
X24914680Y-72055433D01*
X25343252Y-72055433D02*
X25343252Y-70555433D01*
X25200395Y-70769719D01*
X25057538Y-70912576D01*
X24914680Y-70984004D01*
X26343252Y-70698290D02*
X26414680Y-70626862D01*
X26557538Y-70555433D01*
X26914680Y-70555433D01*
X27057538Y-70626862D01*
X27128966Y-70698290D01*
X27200395Y-70841147D01*
X27200395Y-70984004D01*
X27128966Y-71198290D01*
X26271823Y-72055433D01*
X27200395Y-72055433D01*
D10*
D11*
X52264023Y-62987633D02*
X51406880Y-62987633D01*
X51835452Y-62987633D02*
X51835452Y-61487633D01*
X51692595Y-61701919D01*
X51549738Y-61844776D01*
X51406880Y-61916204D01*
X52764023Y-61487633D02*
X53692595Y-61487633D01*
X53192595Y-62059062D01*
X53406880Y-62059062D01*
X53549738Y-62130490D01*
X53621166Y-62201919D01*
X53692595Y-62344776D01*
X53692595Y-62701919D01*
X53621166Y-62844776D01*
X53549738Y-62916204D01*
X53406880Y-62987633D01*
X52978309Y-62987633D01*
X52835452Y-62916204D01*
X52764023Y-62844776D01*
D10*
D11*
X39284623Y-62987633D02*
X38427480Y-62987633D01*
X38856052Y-62987633D02*
X38856052Y-61487633D01*
X38713195Y-61701919D01*
X38570338Y-61844776D01*
X38427480Y-61916204D01*
X40570338Y-61987633D02*
X40570338Y-62987633D01*
X40213195Y-61416204D02*
X39856052Y-62487633D01*
X40784623Y-62487633D01*
D10*
D11*
X25949623Y-62809833D02*
X25092480Y-62809833D01*
X25521052Y-62809833D02*
X25521052Y-61309833D01*
X25378195Y-61524119D01*
X25235338Y-61666976D01*
X25092480Y-61738404D01*
X27306766Y-61309833D02*
X26592480Y-61309833D01*
X26521052Y-62024119D01*
X26592480Y-61952690D01*
X26735338Y-61881262D01*
X27092480Y-61881262D01*
X27235338Y-61952690D01*
X27306766Y-62024119D01*
X27378195Y-62166976D01*
X27378195Y-62524119D01*
X27306766Y-62666976D01*
X27235338Y-62738404D01*
X27092480Y-62809833D01*
X26735338Y-62809833D01*
X26592480Y-62738404D01*
X26521052Y-62666976D01*
D10*
D11*
X36578252Y-57276833D02*
X36721109Y-57276833D01*
X36863966Y-57348262D01*
X36935395Y-57419690D01*
X37006823Y-57562547D01*
X37078252Y-57848262D01*
X37078252Y-58205404D01*
X37006823Y-58491119D01*
X36935395Y-58633976D01*
X36863966Y-58705404D01*
X36721109Y-58776833D01*
X36578252Y-58776833D01*
X36435395Y-58705404D01*
X36363966Y-58633976D01*
X36292538Y-58491119D01*
X36221109Y-58205404D01*
X36221109Y-57848262D01*
X36292538Y-57562547D01*
X36363966Y-57419690D01*
X36435395Y-57348262D01*
X36578252Y-57276833D01*
X38363966Y-57776833D02*
X38363966Y-58776833D01*
X38006823Y-57205404D02*
X37649680Y-58276833D01*
X38578252Y-58276833D01*
X39435395Y-57276833D02*
X39578252Y-57276833D01*
X39721109Y-57348262D01*
X39792538Y-57419690D01*
X39863966Y-57562547D01*
X39935395Y-57848262D01*
X39935395Y-58205404D01*
X39863966Y-58491119D01*
X39792538Y-58633976D01*
X39721109Y-58705404D01*
X39578252Y-58776833D01*
X39435395Y-58776833D01*
X39292538Y-58705404D01*
X39221109Y-58633976D01*
X39149680Y-58491119D01*
X39078252Y-58205404D01*
X39078252Y-57848262D01*
X39149680Y-57562547D01*
X39221109Y-57419690D01*
X39292538Y-57348262D01*
X39435395Y-57276833D01*
X40506823Y-57419690D02*
X40578252Y-57348262D01*
X40721109Y-57276833D01*
X41078252Y-57276833D01*
X41221109Y-57348262D01*
X41292538Y-57419690D01*
X41363966Y-57562547D01*
X41363966Y-57705404D01*
X41292538Y-57919690D01*
X40435395Y-58776833D01*
X41363966Y-58776833D01*
D10*
D11*
X31777652Y-59054833D02*
X31920509Y-59054833D01*
X32063366Y-59126262D01*
X32134795Y-59197690D01*
X32206223Y-59340547D01*
X32277652Y-59626262D01*
X32277652Y-59983404D01*
X32206223Y-60269119D01*
X32134795Y-60411976D01*
X32063366Y-60483404D01*
X31920509Y-60554833D01*
X31777652Y-60554833D01*
X31634795Y-60483404D01*
X31563366Y-60411976D01*
X31491938Y-60269119D01*
X31420509Y-59983404D01*
X31420509Y-59626262D01*
X31491938Y-59340547D01*
X31563366Y-59197690D01*
X31634795Y-59126262D01*
X31777652Y-59054833D01*
X33563366Y-59054833D02*
X33277652Y-59054833D01*
X33134795Y-59126262D01*
X33063366Y-59197690D01*
X32920509Y-59411976D01*
X32849080Y-59697690D01*
X32849080Y-60269119D01*
X32920509Y-60411976D01*
X32991938Y-60483404D01*
X33134795Y-60554833D01*
X33420509Y-60554833D01*
X33563366Y-60483404D01*
X33634795Y-60411976D01*
X33706223Y-60269119D01*
X33706223Y-59911976D01*
X33634795Y-59769119D01*
X33563366Y-59697690D01*
X33420509Y-59626262D01*
X33134795Y-59626262D01*
X32991938Y-59697690D01*
X32920509Y-59769119D01*
X32849080Y-59911976D01*
X34634795Y-59054833D02*
X34777652Y-59054833D01*
X34920509Y-59126262D01*
X34991938Y-59197690D01*
X35063366Y-59340547D01*
X35134795Y-59626262D01*
X35134795Y-59983404D01*
X35063366Y-60269119D01*
X34991938Y-60411976D01*
X34920509Y-60483404D01*
X34777652Y-60554833D01*
X34634795Y-60554833D01*
X34491938Y-60483404D01*
X34420509Y-60411976D01*
X34349080Y-60269119D01*
X34277652Y-59983404D01*
X34277652Y-59626262D01*
X34349080Y-59340547D01*
X34420509Y-59197690D01*
X34491938Y-59126262D01*
X34634795Y-59054833D01*
X35634795Y-59054833D02*
X36563366Y-59054833D01*
X36063366Y-59626262D01*
X36277652Y-59626262D01*
X36420509Y-59697690D01*
X36491938Y-59769119D01*
X36563366Y-59911976D01*
X36563366Y-60269119D01*
X36491938Y-60411976D01*
X36420509Y-60483404D01*
X36277652Y-60554833D01*
X35849080Y-60554833D01*
X35706223Y-60483404D01*
X35634795Y-60411976D01*
D12*
%TO.P,REF\u002A\u002A,1*%
%TO.N,N/C*%
X23146138Y-52565062D03*
%TO.P,REF\u002A\u002A,2*%
X26096138Y-52565062D03*
%TD*%
%TO.P,REF\u002A\u002A,1*%
%TO.N,N/C*%
X23146138Y-59165062D03*
%TO.P,REF\u002A\u002A,2*%
X26096138Y-59165062D03*
%TD*%
%TO.P,REF\u002A\u002A,1*%
%TO.N,N/C*%
X23146138Y-55865062D03*
%TO.P,REF\u002A\u002A,2*%
X26096138Y-55865062D03*
%TD*%
D13*
%TO.P,REF\u002A\u002A,2*%
%TO.N,N/C*%
X39476738Y-56486462D03*
%TO.P,REF\u002A\u002A,1*%
X38516738Y-56486462D03*
%TD*%
%TO.P,REF\u002A\u002A,2*%
%TO.N,N/C*%
X39376738Y-54186462D03*
%TO.P,REF\u002A\u002A,1*%
X38416738Y-54186462D03*
%TD*%
%TO.P,REF\u002A\u002A,2*%
%TO.N,N/C*%
X39376738Y-52186462D03*
%TO.P,REF\u002A\u002A,1*%
X38416738Y-52186462D03*
%TD*%
D14*
%TO.P,REF\u002A\u002A,2*%
%TO.N,N/C*%
X34971738Y-57786462D03*
%TO.P,REF\u002A\u002A,1*%
X33421738Y-57786462D03*
%TD*%
%TO.P,REF\u002A\u002A,2*%
%TO.N,N/C*%
X34771738Y-54886462D03*
%TO.P,REF\u002A\u002A,1*%
X33221738Y-54886462D03*
%TD*%
%TO.P,REF\u002A\u002A,2*%
%TO.N,N/C*%
X34671738Y-52286462D03*
%TO.P,REF\u002A\u002A,1*%
X33121738Y-52286462D03*
%TD*%
D15*
%TO.P,REF\u002A\u002A,2*%
%TO.N,N/C*%
X30446738Y-59286462D03*
%TO.P,REF\u002A\u002A,1*%
X28546738Y-59286462D03*
%TD*%
%TO.P,REF\u002A\u002A,2*%
%TO.N,N/C*%
X30246738Y-55686462D03*
%TO.P,REF\u002A\u002A,1*%
X28346738Y-55686462D03*
%TD*%
%TO.P,REF\u002A\u002A,2*%
%TO.N,N/C*%
X30146738Y-52286462D03*
%TO.P,REF\u002A\u002A,1*%
X28246738Y-52286462D03*
%TD*%
D16*
%TO.P,REF\u002A\u002A,1*%
%TO.N,N/C*%
X62825919Y-59573355D03*
%TO.P,REF\u002A\u002A,2*%
X63325919Y-59573355D03*
%TO.P,REF\u002A\u002A,3*%
X63825919Y-59573355D03*
%TO.P,REF\u002A\u002A,4*%
X64325919Y-59573355D03*
D17*
%TO.P,REF\u002A\u002A,5*%
X65525919Y-58373355D03*
%TO.P,REF\u002A\u002A,6*%
X65525919Y-57873355D03*
%TO.P,REF\u002A\u002A,7*%
X65525919Y-57373355D03*
%TO.P,REF\u002A\u002A,8*%
X65525919Y-56873355D03*
D16*
%TO.P,REF\u002A\u002A,9*%
X64325919Y-55673355D03*
%TO.P,REF\u002A\u002A,10*%
X63825919Y-55673355D03*
%TO.P,REF\u002A\u002A,11*%
X63325919Y-55673355D03*
%TO.P,REF\u002A\u002A,12*%
X62825919Y-55673355D03*
D17*
%TO.P,REF\u002A\u002A,13*%
X61625919Y-56873355D03*
%TO.P,REF\u002A\u002A,14*%
X61625919Y-57373355D03*
%TO.P,REF\u002A\u002A,15*%
X61625919Y-57873355D03*
%TO.P,REF\u002A\u002A,16*%
X61625919Y-58373355D03*
D18*
%TO.P,REF\u002A\u002A,17*%
X63575919Y-57623355D03*
%TD*%
D19*
%TO.P,REF\u002A\u002A,1*%
%TO.N,N/C*%
X61670919Y-70258355D03*
%TO.P,REF\u002A\u002A,2*%
X62940919Y-70258355D03*
%TO.P,REF\u002A\u002A,3*%
X64210919Y-70258355D03*
%TO.P,REF\u002A\u002A,4*%
X65480919Y-70258355D03*
%TO.P,REF\u002A\u002A,5*%
X65480919Y-65308355D03*
%TO.P,REF\u002A\u002A,6*%
X64210919Y-65308355D03*
%TO.P,REF\u002A\u002A,7*%
X62940919Y-65308355D03*
%TO.P,REF\u002A\u002A,8*%
X61670919Y-65308355D03*
D20*
%TO.P,REF\u002A\u002A,9*%
X63575919Y-67783355D03*
%TD*%
D21*
%TO.P,REF\u002A\u002A,1*%
%TO.N,N/C*%
X61035919Y-85563355D03*
D22*
%TO.P,REF\u002A\u002A,2*%
X63575919Y-85563355D03*
%TO.P,REF\u002A\u002A,3*%
X66115919Y-85563355D03*
%TO.P,REF\u002A\u002A,4*%
X68655919Y-85563355D03*
%TO.P,REF\u002A\u002A,5*%
X68655919Y-77943355D03*
%TO.P,REF\u002A\u002A,6*%
X66115919Y-77943355D03*
%TO.P,REF\u002A\u002A,7*%
X63575919Y-77943355D03*
%TO.P,REF\u002A\u002A,8*%
X61035919Y-77943355D03*
%TD*%
D23*
%TO.N,*%
X26196138Y-59265062D02*
X26096138Y-59165062D01*
D24*
X38722401Y-14993408D02*
X47523052Y-23794059D01*
D25*
X45457594Y-27404122D02*
X53899035Y-35845563D01*
D26*
X56233901Y-34803853D02*
X64675342Y-43245293D01*
D25*
X46517264Y-26452215D02*
X54958705Y-34893656D01*
X45960489Y-26901228D02*
X54401928Y-35342669D01*
X47020159Y-25949321D02*
X55461600Y-34390762D01*
D26*
X56718834Y-34354841D02*
X65160275Y-42796281D01*
D25*
X44954700Y-27907017D02*
X53396140Y-36348457D01*
X44451806Y-28409911D02*
X52893246Y-36851351D01*
D26*
X55784887Y-35288787D02*
X64226330Y-43730228D01*
D25*
X48025947Y-24943531D02*
X56467388Y-33384973D01*
D27*
X25485505Y-27942938D02*
X33926945Y-36384378D01*
X25162215Y-28266227D02*
X33603655Y-36707667D01*
D28*
X34663326Y-37012996D02*
X43104767Y-45454437D01*
D29*
X28772278Y-24656164D02*
X37213718Y-33097604D01*
X29203331Y-24225112D02*
X37644771Y-32666552D01*
X30496488Y-22931955D02*
X38937927Y-31373396D01*
X30065435Y-23363007D02*
X38506875Y-31804447D01*
X29634383Y-23794059D02*
X38075822Y-32235500D01*
X28341226Y-25087216D02*
X36782665Y-33528657D01*
X31789644Y-21638798D02*
X40231084Y-30080238D01*
X32220697Y-21207746D02*
X40662137Y-29649186D01*
D26*
X55299955Y-35737800D02*
X63741396Y-44179241D01*
X54850941Y-36222733D02*
X63292383Y-44664175D01*
X54366007Y-36671747D02*
X62807448Y-45113187D01*
D29*
X30927540Y-22500903D02*
X39368980Y-30942343D01*
X31358592Y-22069850D02*
X39800031Y-30511291D01*
D26*
X53916993Y-37156681D02*
X62358436Y-45598121D01*
D30*
X38470955Y-33097605D02*
X46912396Y-41539045D01*
X39261217Y-32307341D02*
X47702658Y-40748783D01*
X40446611Y-31121948D02*
X48888052Y-39563389D01*
X40051480Y-31517080D02*
X48492920Y-39958520D01*
X41236874Y-30331686D02*
X49678315Y-38773127D01*
D27*
X23545769Y-29882673D02*
X31987209Y-38324113D01*
D30*
X38866086Y-32702473D02*
X47307527Y-41143914D01*
D27*
X23222480Y-30205962D02*
X31663919Y-38647403D01*
X24192348Y-29236095D02*
X32633788Y-37677535D01*
D30*
X39656349Y-31912211D02*
X48097790Y-40353652D01*
D27*
X23869059Y-29559384D02*
X32310498Y-38000825D01*
D30*
X40841743Y-30726817D02*
X49283183Y-39168257D01*
D25*
X47523053Y-25446428D02*
X55964492Y-33887867D01*
D26*
X57167848Y-33869906D02*
X65609289Y-42311348D01*
D24*
X38183587Y-15532224D02*
X46984238Y-24332875D01*
X36567141Y-17148670D02*
X45367792Y-25949321D01*
X37105956Y-16609856D02*
X45906607Y-25410507D01*
X36028325Y-17687485D02*
X44828976Y-26488136D01*
X34950695Y-18765116D02*
X43751346Y-27565767D01*
X35489510Y-18226301D02*
X44290161Y-27026952D01*
X37644771Y-16071038D02*
X46445422Y-24871689D01*
D27*
X20959456Y-32468987D02*
X29400895Y-40910428D01*
X20636166Y-32792276D02*
X29077606Y-41233716D01*
D31*
X43751346Y-46567989D02*
X52192785Y-55009430D01*
X44002793Y-46316542D02*
X52444231Y-54757983D01*
X43499898Y-46819435D02*
X51941338Y-55260876D01*
D32*
X48421079Y-41574967D02*
X56862519Y-50016407D01*
X46984238Y-43011808D02*
X55425679Y-51453249D01*
X48061867Y-41934177D02*
X56503309Y-50375619D01*
X48780289Y-41215756D02*
X57221730Y-49657197D01*
X47343448Y-42652597D02*
X55784889Y-51094038D01*
X47702658Y-42293387D02*
X56144099Y-50734828D01*
X49139499Y-40856546D02*
X57580940Y-49297987D01*
X49498708Y-40497336D02*
X57940150Y-48938778D01*
X50217130Y-39778915D02*
X58658571Y-48220356D01*
D27*
X22899190Y-30529251D02*
X31340631Y-38970692D01*
D32*
X49857920Y-40138126D02*
X58299360Y-48579566D01*
D27*
X22575902Y-30852541D02*
X31017342Y-39293981D01*
X22252612Y-31175830D02*
X30694052Y-39617270D01*
X21929323Y-31499119D02*
X30370764Y-39940558D01*
D32*
X46625028Y-43371018D02*
X55066468Y-51812460D01*
D31*
X39728191Y-50591144D02*
X48169631Y-59032584D01*
X40482532Y-49836801D02*
X48923972Y-58278242D01*
D28*
X31789644Y-39886678D02*
X40231085Y-48328119D01*
X31214907Y-40461414D02*
X39656349Y-48902856D01*
X33801220Y-37875101D02*
X42242663Y-46316542D01*
X32077012Y-39599309D02*
X40518453Y-48040751D01*
X30352803Y-41323519D02*
X38794244Y-49764960D01*
X30927538Y-40748783D02*
X39368981Y-49190224D01*
X34088589Y-37587732D02*
X42530031Y-46029174D01*
D32*
X50576340Y-39419705D02*
X59017781Y-47861146D01*
D28*
X32364379Y-39311942D02*
X40805822Y-47753383D01*
D31*
X40985427Y-49333908D02*
X49426866Y-57775349D01*
X40231084Y-50088249D02*
X48672526Y-58529690D01*
D28*
X31502275Y-40174047D02*
X39943717Y-48615487D01*
X30640171Y-41036150D02*
X39081612Y-49477591D01*
D31*
X40733980Y-49585355D02*
X49175419Y-58026796D01*
X39979637Y-50339696D02*
X48421078Y-58781137D01*
X41488320Y-48831013D02*
X49929760Y-57272454D01*
D28*
X34375957Y-37300365D02*
X42817399Y-45741805D01*
D31*
X43248451Y-47070883D02*
X51689892Y-55512324D01*
X41739767Y-48579566D02*
X50181209Y-57021007D01*
X41991215Y-48328118D02*
X50432655Y-56769559D01*
X42494110Y-47825225D02*
X50935549Y-56266666D01*
D27*
X21606034Y-31822408D02*
X30047473Y-40263849D01*
D31*
X41236874Y-49082461D02*
X49678314Y-57523901D01*
X42997003Y-47322330D02*
X51438443Y-55763771D01*
D27*
X21282745Y-32145698D02*
X29724185Y-40587138D01*
D31*
X42242663Y-48076672D02*
X50684102Y-56518113D01*
X42745557Y-47573778D02*
X51186997Y-56015218D01*
D28*
X32651748Y-39024573D02*
X41093190Y-47466015D01*
X33513853Y-38162468D02*
X41955294Y-46603910D01*
X32939116Y-38737206D02*
X41380558Y-47178646D01*
X33226485Y-38449837D02*
X41667926Y-46891278D01*
D30*
X37680692Y-33887867D02*
X46122133Y-42329308D01*
D27*
X24838926Y-28589516D02*
X33280367Y-37030957D01*
X24515637Y-28912805D02*
X32957076Y-37354246D01*
D30*
X38075824Y-33492736D02*
X46517263Y-41934177D01*
X37285561Y-34283000D02*
X45727000Y-42724439D01*
D31*
X46682338Y-86743862D02*
X58620338Y-86743862D01*
X46682338Y-86388262D02*
X58620338Y-86388262D01*
X46682338Y-87099462D02*
X58620338Y-87099462D01*
X46682338Y-87455062D02*
X58620338Y-87455062D01*
X46682338Y-87810662D02*
X58620338Y-87810662D01*
X46682338Y-88166262D02*
X58620338Y-88166262D01*
X46682338Y-84610262D02*
X58620338Y-84610262D01*
X46682338Y-84254662D02*
X58620338Y-84254662D01*
X46682338Y-84965862D02*
X58620338Y-84965862D01*
X46682338Y-85321462D02*
X58620338Y-85321462D01*
X46682338Y-85677062D02*
X58620338Y-85677062D01*
X46682338Y-86032662D02*
X58620338Y-86032662D01*
X46682338Y-83543462D02*
X58620338Y-83543462D01*
X46682338Y-83187862D02*
X58620338Y-83187862D01*
X46682338Y-83899062D02*
X58620338Y-83899062D01*
X46682338Y-82832262D02*
X58620338Y-82832262D01*
X46682338Y-82476662D02*
X58620338Y-82476662D01*
X46682338Y-82121062D02*
X58620338Y-82121062D01*
D28*
X33499738Y-85397662D02*
X45437738Y-85397662D01*
X33499738Y-86616862D02*
X45437738Y-86616862D01*
X33499738Y-86210462D02*
X45437738Y-86210462D01*
X33499738Y-85804062D02*
X45437738Y-85804062D01*
X33499738Y-88242462D02*
X45437738Y-88242462D01*
X33499738Y-87023262D02*
X45437738Y-87023262D01*
X33499738Y-87836062D02*
X45437738Y-87836062D01*
X33499738Y-87429662D02*
X45437738Y-87429662D01*
X33499738Y-83772062D02*
X45437738Y-83772062D01*
X33499738Y-84991262D02*
X45437738Y-84991262D01*
X33499738Y-84584862D02*
X45437738Y-84584862D01*
X33499738Y-84178462D02*
X45437738Y-84178462D01*
X33499738Y-82959262D02*
X45437738Y-82959262D01*
X33499738Y-83365662D02*
X45437738Y-83365662D01*
X33499738Y-82552862D02*
X45437738Y-82552862D01*
X33499738Y-82146462D02*
X45437738Y-82146462D01*
D27*
X20596538Y-87709062D02*
X32534538Y-87709062D01*
X20596538Y-88166262D02*
X32534538Y-88166262D01*
X20596538Y-88623462D02*
X32534538Y-88623462D01*
X20596538Y-89080662D02*
X32534538Y-89080662D01*
X20596538Y-85880262D02*
X32534538Y-85880262D01*
X20596538Y-86337462D02*
X32534538Y-86337462D01*
X20596538Y-86794662D02*
X32534538Y-86794662D01*
X20596538Y-87251862D02*
X32534538Y-87251862D01*
X20596538Y-84051462D02*
X32534538Y-84051462D01*
X20596538Y-84508662D02*
X32534538Y-84508662D01*
X20596538Y-84965862D02*
X32534538Y-84965862D01*
X20596538Y-85423062D02*
X32534538Y-85423062D01*
X20596538Y-83137062D02*
X32534538Y-83137062D01*
X20596538Y-83594262D02*
X32534538Y-83594262D01*
X20596538Y-82679862D02*
X32534538Y-82679862D01*
X20596538Y-82222662D02*
X32534538Y-82222662D01*
D32*
X46453738Y-78184062D02*
X58391738Y-78184062D01*
X46453738Y-77168062D02*
X58391738Y-77168062D01*
X46453738Y-77676062D02*
X58391738Y-77676062D01*
X46453738Y-76660062D02*
X58391738Y-76660062D01*
X46453738Y-76152062D02*
X58391738Y-76152062D01*
X46453738Y-75136062D02*
X58391738Y-75136062D01*
X46453738Y-75644062D02*
X58391738Y-75644062D01*
X46453738Y-74628062D02*
X58391738Y-74628062D01*
X46453738Y-74120062D02*
X58391738Y-74120062D01*
X46453738Y-73612062D02*
X58391738Y-73612062D01*
X46453738Y-73104062D02*
X58391738Y-73104062D01*
X46453738Y-72596062D02*
X58391738Y-72596062D01*
D30*
X33423538Y-78361862D02*
X45361538Y-78361862D01*
X33423538Y-77244262D02*
X45361538Y-77244262D01*
X33423538Y-77803062D02*
X45361538Y-77803062D01*
X33423538Y-76126662D02*
X45361538Y-76126662D01*
X33423538Y-76685462D02*
X45361538Y-76685462D01*
X33423538Y-75009062D02*
X45361538Y-75009062D01*
X33423538Y-75567862D02*
X45361538Y-75567862D01*
X33423538Y-73891462D02*
X45361538Y-73891462D01*
X33423538Y-74450262D02*
X45361538Y-74450262D01*
X33423538Y-73332662D02*
X45361538Y-73332662D01*
X33423538Y-72773862D02*
X45361538Y-72773862D01*
D29*
X20596538Y-78184062D02*
X32534538Y-78184062D01*
X20596538Y-77574462D02*
X32534538Y-77574462D01*
X20596538Y-76964862D02*
X32534538Y-76964862D01*
X20596538Y-76355262D02*
X32534538Y-76355262D01*
X20596538Y-75745662D02*
X32534538Y-75745662D01*
X20596538Y-75136062D02*
X32534538Y-75136062D01*
X20596538Y-74526462D02*
X32534538Y-74526462D01*
X20596538Y-73916862D02*
X32534538Y-73916862D01*
X20596538Y-73307262D02*
X32534538Y-73307262D01*
X20596538Y-72697662D02*
X32534538Y-72697662D01*
D26*
X47190338Y-67973262D02*
X59128338Y-67973262D01*
X47215738Y-67312862D02*
X59153738Y-67312862D01*
X47215738Y-68633662D02*
X59153738Y-68633662D01*
X47190338Y-66652462D02*
X59128338Y-66652462D01*
X47215738Y-65992062D02*
X59153738Y-65992062D01*
X47190338Y-65331662D02*
X59128338Y-65331662D01*
X47215738Y-64671262D02*
X59153738Y-64671262D01*
X47190338Y-64010862D02*
X59128338Y-64010862D01*
D25*
X34337938Y-69141662D02*
X46275938Y-69141662D01*
X34337938Y-68430462D02*
X46275938Y-68430462D01*
X34337938Y-67008062D02*
X46275938Y-67008062D01*
X34337938Y-67719262D02*
X46275938Y-67719262D01*
X34414138Y-65585662D02*
X46352138Y-65585662D01*
X34414138Y-66296862D02*
X46352138Y-66296862D01*
X34414138Y-64163262D02*
X46352138Y-64163262D01*
X34414138Y-64874462D02*
X46352138Y-64874462D01*
D24*
X20799738Y-66754062D02*
X33245738Y-66754062D01*
X20799738Y-67516062D02*
X33245738Y-67516062D01*
X20799738Y-69040062D02*
X33245738Y-69040062D01*
X20799738Y-68278062D02*
X33245738Y-68278062D01*
X20799738Y-65230062D02*
X33245738Y-65230062D01*
X20799738Y-65992062D02*
X33245738Y-65992062D01*
X20799738Y-63706062D02*
X33245738Y-63706062D01*
X20799738Y-64468062D02*
X33245738Y-64468062D01*
D23*
X36271738Y-56486462D02*
X34971738Y-57786462D01*
X38516738Y-56486462D02*
X36271738Y-56486462D01*
X37716738Y-54886462D02*
X34771738Y-54886462D01*
X38416738Y-54186462D02*
X37716738Y-54886462D01*
D33*
X34771738Y-52186462D02*
X34671738Y-52286462D01*
X38416738Y-52186462D02*
X34771738Y-52186462D01*
D23*
X31896738Y-54886462D02*
X33221738Y-54886462D01*
X31096738Y-55686462D02*
X31896738Y-54886462D01*
X30246738Y-55686462D02*
X31096738Y-55686462D01*
X31946738Y-57786462D02*
X30446738Y-59286462D01*
X33421738Y-57786462D02*
X31946738Y-57786462D01*
D33*
X33121738Y-52286462D02*
X30146738Y-52286462D01*
D23*
X28146738Y-55886462D02*
X28346738Y-55686462D01*
D33*
X28246738Y-52286462D02*
X27946738Y-52586462D01*
X62955918Y-65293355D02*
X62940918Y-65308355D01*
X62955918Y-61903355D02*
X62955918Y-65293355D01*
X63325918Y-61533355D02*
X62955918Y-61903355D01*
X63325919Y-59573355D02*
X63325918Y-61533355D01*
X64210919Y-63358355D02*
X64210919Y-65308355D01*
X63825919Y-62973356D02*
X64210919Y-63358355D01*
X63825919Y-59573356D02*
X63825919Y-62973356D01*
X65480919Y-62528356D02*
X65480919Y-65308356D01*
X64355919Y-61403356D02*
X65480919Y-62528356D01*
X64355918Y-59603355D02*
X64355919Y-61403356D01*
X64325918Y-59573356D02*
X64355918Y-59603355D01*
X61670918Y-61988355D02*
X61670918Y-65308356D01*
X61955919Y-61703355D02*
X61670918Y-61988355D01*
X62055919Y-61703355D02*
X61955919Y-61703355D01*
X62855918Y-60903356D02*
X62055919Y-61703355D01*
X62825919Y-59573356D02*
X62855918Y-59603355D01*
X62855918Y-59603355D02*
X62855918Y-60903356D01*
X61035919Y-73148355D02*
X61670918Y-72513355D01*
X61670918Y-72513355D02*
X61670918Y-70258355D01*
X61035919Y-77943355D02*
X61035919Y-73148355D01*
X62940919Y-72513355D02*
X62940919Y-70258355D01*
X63575919Y-73148355D02*
X62940919Y-72513355D01*
X63575919Y-77943355D02*
X63575919Y-73148355D01*
X68655919Y-75688355D02*
X68655919Y-77943356D01*
X65480919Y-72513355D02*
X68655919Y-75688355D01*
X65480919Y-70258355D02*
X65480919Y-72513355D01*
X64210919Y-73498356D02*
X66115918Y-75403355D01*
X66115918Y-75403355D02*
X66115919Y-77943356D01*
X64210919Y-70258356D02*
X64210919Y-73498356D01*
%TD*%
M02*
