%TF.GenerationSoftware,KiCad,Pcbnew,(6.0.1)*%
%TF.CreationDate,2023-03-31T22:37:06-07:00*%
%TF.ProjectId,test_pcb,74657374-5f70-4636-922e-6b696361645f,rev?*%
%TF.SameCoordinates,Original*%
%TF.FileFunction,Paste,Top*%
%TF.FilePolarity,Positive*%
%FSLAX46Y46*%
G04 Gerber Fmt 4.6, Leading zero omitted, Abs format (unit mm)*
G04 Created by KiCad (PCBNEW (6.0.1)) date 2023-03-31 22:37:06*
%MOMM*%
%LPD*%
G01*
G04 APERTURE LIST*
G04 Aperture macros list*
%AMRoundRect*
0 Rectangle with rounded corners*
0 $1 Rounding radius*
0 $2 $3 $4 $5 $6 $7 $8 $9 X,Y pos of 4 corners*
0 Add a 4 corners polygon primitive as box body*
4,1,4,$2,$3,$4,$5,$6,$7,$8,$9,$2,$3,0*
0 Add four circle primitives for the rounded corners*
1,1,$1+$1,$2,$3*
1,1,$1+$1,$4,$5*
1,1,$1+$1,$6,$7*
1,1,$1+$1,$8,$9*
0 Add four rect primitives between the rounded corners*
20,1,$1+$1,$2,$3,$4,$5,0*
20,1,$1+$1,$4,$5,$6,$7,0*
20,1,$1+$1,$6,$7,$8,$9,0*
20,1,$1+$1,$8,$9,$2,$3,0*%
G04 Aperture macros list end*
%ADD10RoundRect,0.250000X-0.325000X-0.650000X0.325000X-0.650000X0.325000X0.650000X-0.325000X0.650000X0*%
%ADD11RoundRect,0.140000X-0.140000X-0.170000X0.140000X-0.170000X0.140000X0.170000X-0.140000X0.170000X0*%
%ADD12RoundRect,0.225000X-0.225000X-0.250000X0.225000X-0.250000X0.225000X0.250000X-0.225000X0.250000X0*%
%ADD13RoundRect,0.250000X-0.250000X-0.475000X0.250000X-0.475000X0.250000X0.475000X-0.250000X0.475000X0*%
%ADD14RoundRect,0.247500X0.247500X-0.247500X0.247500X0.247500X-0.247500X0.247500X-0.247500X-0.247500X0*%
%ADD15RoundRect,0.062500X0.062500X-0.337500X0.062500X0.337500X-0.062500X0.337500X-0.062500X-0.337500X0*%
%ADD16RoundRect,0.062500X0.337500X-0.062500X0.337500X0.062500X-0.337500X0.062500X-0.337500X-0.062500X0*%
%ADD17RoundRect,0.242500X0.527500X-0.242500X0.527500X0.242500X-0.527500X0.242500X-0.527500X-0.242500X0*%
%ADD18RoundRect,0.150000X0.150000X-0.825000X0.150000X0.825000X-0.150000X0.825000X-0.150000X-0.825000X0*%
G04 APERTURE END LIST*
D10*
%TO.C,REF\u002A\u002A*%
X23146138Y-52565062D03*
X26096138Y-52565062D03*
%TD*%
%TO.C,REF\u002A\u002A*%
X23146138Y-59165062D03*
X26096138Y-59165062D03*
%TD*%
%TO.C,REF\u002A\u002A*%
X23146138Y-55865062D03*
X26096138Y-55865062D03*
%TD*%
D11*
%TO.C,REF\u002A\u002A*%
X39476738Y-56486462D03*
X38516738Y-56486462D03*
%TD*%
%TO.C,REF\u002A\u002A*%
X39376738Y-54186462D03*
X38416738Y-54186462D03*
%TD*%
%TO.C,REF\u002A\u002A*%
X39376738Y-52186462D03*
X38416738Y-52186462D03*
%TD*%
D12*
%TO.C,REF\u002A\u002A*%
X34971738Y-57786462D03*
X33421738Y-57786462D03*
%TD*%
%TO.C,REF\u002A\u002A*%
X34771738Y-54886462D03*
X33221738Y-54886462D03*
%TD*%
%TO.C,REF\u002A\u002A*%
X34671738Y-52286462D03*
X33121738Y-52286462D03*
%TD*%
D13*
%TO.C,REF\u002A\u002A*%
X30446738Y-59286462D03*
X28546738Y-59286462D03*
%TD*%
%TO.C,REF\u002A\u002A*%
X30246738Y-55686462D03*
X28346738Y-55686462D03*
%TD*%
%TO.C,REF\u002A\u002A*%
X30146738Y-52286462D03*
X28246738Y-52286462D03*
%TD*%
D14*
%TO.C,REF\u002A\u002A*%
X62965919Y-57013355D03*
X62965919Y-58233355D03*
X64185919Y-57013355D03*
X64185919Y-58233355D03*
D15*
X62825919Y-59573355D03*
X63325919Y-59573355D03*
X63825919Y-59573355D03*
X64325919Y-59573355D03*
D16*
X65525919Y-58373355D03*
X65525919Y-57873355D03*
X65525919Y-57373355D03*
X65525919Y-56873355D03*
D15*
X64325919Y-55673355D03*
X63825919Y-55673355D03*
X63325919Y-55673355D03*
X62825919Y-55673355D03*
D16*
X61625919Y-56873355D03*
X61625919Y-57373355D03*
X61625919Y-57873355D03*
X61625919Y-58373355D03*
%TD*%
D17*
%TO.C,REF\u002A\u002A*%
X62625919Y-67183355D03*
X62625919Y-68383355D03*
X64525919Y-68383355D03*
X64525919Y-67183355D03*
D18*
X61670919Y-70258355D03*
X62940919Y-70258355D03*
X64210919Y-70258355D03*
X65480919Y-70258355D03*
X65480919Y-65308355D03*
X64210919Y-65308355D03*
X62940919Y-65308355D03*
X61670919Y-65308355D03*
%TD*%
M02*
