G04 #@! TF.GenerationSoftware,KiCad,Pcbnew,6.0.7+dfsg-1build1*
G04 #@! TF.CreationDate,2023-03-30T21:09:48-07:00*
G04 #@! TF.ProjectId,moduleDriver,6d6f6475-6c65-4447-9269-7665722e6b69,rev?*
G04 #@! TF.SameCoordinates,Original*
G04 #@! TF.FileFunction,Soldermask,Bot*
G04 #@! TF.FilePolarity,Negative*
%FSLAX46Y46*%
G04 Gerber Fmt 4.6, Leading zero omitted, Abs format (unit mm)*
G04 Created by KiCad (PCBNEW 6.0.7+dfsg-1build1) date 2023-03-30 21:09:48*
%MOMM*%
%LPD*%
G01*
G04 APERTURE LIST*
G04 Aperture macros list*
%AMRoundRect*
0 Rectangle with rounded corners*
0 $1 Rounding radius*
0 $2 $3 $4 $5 $6 $7 $8 $9 X,Y pos of 4 corners*
0 Add a 4 corners polygon primitive as box body*
4,1,4,$2,$3,$4,$5,$6,$7,$8,$9,$2,$3,0*
0 Add four circle primitives for the rounded corners*
1,1,$1+$1,$2,$3*
1,1,$1+$1,$4,$5*
1,1,$1+$1,$6,$7*
1,1,$1+$1,$8,$9*
0 Add four rect primitives between the rounded corners*
20,1,$1+$1,$2,$3,$4,$5,0*
20,1,$1+$1,$4,$5,$6,$7,0*
20,1,$1+$1,$6,$7,$8,$9,0*
20,1,$1+$1,$8,$9,$2,$3,0*%
G04 Aperture macros list end*
%ADD10R,1.700000X1.700000*%
%ADD11O,1.700000X1.700000*%
%ADD12RoundRect,0.250000X0.725000X-0.600000X0.725000X0.600000X-0.725000X0.600000X-0.725000X-0.600000X0*%
%ADD13O,1.950000X1.700000*%
%ADD14O,1.500000X1.500000*%
%ADD15O,1.800000X1.800000*%
%ADD16C,3.200000*%
%ADD17R,2.500000X2.500000*%
%ADD18C,2.500000*%
G04 APERTURE END LIST*
D10*
X136056500Y-121651000D03*
D11*
X136056500Y-119111000D03*
X136056500Y-116571000D03*
D12*
X129921000Y-124751250D03*
D13*
X129921000Y-122251250D03*
X129921000Y-119751250D03*
X129921000Y-117251250D03*
X129921000Y-114751250D03*
D14*
X93353000Y-100437500D03*
X93353000Y-95587500D03*
D15*
X90323000Y-95287500D03*
X90323000Y-100737500D03*
D11*
X119923000Y-97428400D03*
D10*
X119923000Y-94888400D03*
D11*
X119923000Y-92348400D03*
D10*
X98921000Y-121651000D03*
D11*
X98921000Y-119111000D03*
X98921000Y-116571000D03*
D10*
X93575000Y-75173750D03*
D11*
X93575000Y-72633750D03*
X93575000Y-70093750D03*
D10*
X104267000Y-121651000D03*
D11*
X104267000Y-119111000D03*
X104267000Y-116571000D03*
D10*
X135056500Y-83830400D03*
D11*
X135056500Y-81290400D03*
X135056500Y-78750400D03*
D16*
X137000000Y-53000000D03*
D17*
X135636000Y-60833000D03*
D18*
X130556000Y-60833000D03*
D16*
X137000000Y-127000000D03*
X103000000Y-53000000D03*
X103000000Y-127000000D03*
D17*
X125476000Y-60833000D03*
D18*
X120396000Y-60833000D03*
D12*
X124104400Y-81273750D03*
D13*
X124104400Y-78773750D03*
X124104400Y-76273750D03*
X124104400Y-73773750D03*
X124104400Y-71273750D03*
D10*
X130200400Y-75173750D03*
D11*
X130200400Y-72633750D03*
X130200400Y-70093750D03*
D10*
X93575000Y-121651000D03*
D11*
X93575000Y-119111000D03*
X93575000Y-116571000D03*
D12*
X101329000Y-81273750D03*
D13*
X101329000Y-78773750D03*
X101329000Y-76273750D03*
X101329000Y-73773750D03*
X101329000Y-71273750D03*
D12*
X109140000Y-124751250D03*
D13*
X109140000Y-122251250D03*
X109140000Y-119751250D03*
X109140000Y-117251250D03*
X109140000Y-114751250D03*
M02*
