G04 #@! TF.GenerationSoftware,KiCad,Pcbnew,6.0.7+dfsg-1build1*
G04 #@! TF.CreationDate,2023-03-30T21:09:48-07:00*
G04 #@! TF.ProjectId,moduleDriver,6d6f6475-6c65-4447-9269-7665722e6b69,rev?*
G04 #@! TF.SameCoordinates,Original*
G04 #@! TF.FileFunction,Legend,Top*
G04 #@! TF.FilePolarity,Positive*
%FSLAX46Y46*%
G04 Gerber Fmt 4.6, Leading zero omitted, Abs format (unit mm)*
G04 Created by KiCad (PCBNEW 6.0.7+dfsg-1build1) date 2023-03-30 21:09:48*
%MOMM*%
%LPD*%
G01*
G04 APERTURE LIST*
G04 Aperture macros list*
%AMRoundRect*
0 Rectangle with rounded corners*
0 $1 Rounding radius*
0 $2 $3 $4 $5 $6 $7 $8 $9 X,Y pos of 4 corners*
0 Add a 4 corners polygon primitive as box body*
4,1,4,$2,$3,$4,$5,$6,$7,$8,$9,$2,$3,0*
0 Add four circle primitives for the rounded corners*
1,1,$1+$1,$2,$3*
1,1,$1+$1,$4,$5*
1,1,$1+$1,$6,$7*
1,1,$1+$1,$8,$9*
0 Add four rect primitives between the rounded corners*
20,1,$1+$1,$2,$3,$4,$5,0*
20,1,$1+$1,$4,$5,$6,$7,0*
20,1,$1+$1,$6,$7,$8,$9,0*
20,1,$1+$1,$8,$9,$2,$3,0*%
G04 Aperture macros list end*
%ADD10C,0.150000*%
%ADD11C,0.120000*%
%ADD12C,0.010000*%
%ADD13R,1.700000X1.700000*%
%ADD14O,1.700000X1.700000*%
%ADD15RoundRect,0.250000X0.725000X-0.600000X0.725000X0.600000X-0.725000X0.600000X-0.725000X-0.600000X0*%
%ADD16O,1.950000X1.700000*%
%ADD17RoundRect,0.150000X0.150000X-0.725000X0.150000X0.725000X-0.150000X0.725000X-0.150000X-0.725000X0*%
%ADD18RoundRect,0.200000X-0.275000X0.200000X-0.275000X-0.200000X0.275000X-0.200000X0.275000X0.200000X0*%
%ADD19O,1.500000X1.500000*%
%ADD20O,1.800000X1.800000*%
%ADD21R,1.700000X3.500000*%
%ADD22RoundRect,0.200000X0.200000X0.275000X-0.200000X0.275000X-0.200000X-0.275000X0.200000X-0.275000X0*%
%ADD23RoundRect,0.200000X0.275000X-0.200000X0.275000X0.200000X-0.275000X0.200000X-0.275000X-0.200000X0*%
%ADD24RoundRect,0.225000X-0.225000X-0.250000X0.225000X-0.250000X0.225000X0.250000X-0.225000X0.250000X0*%
%ADD25R,0.900000X1.200000*%
%ADD26C,3.200000*%
%ADD27RoundRect,0.250000X-1.000000X1.500000X-1.000000X-1.500000X1.000000X-1.500000X1.000000X1.500000X0*%
%ADD28R,2.500000X2.500000*%
%ADD29C,2.500000*%
%ADD30RoundRect,0.218750X0.218750X0.256250X-0.218750X0.256250X-0.218750X-0.256250X0.218750X-0.256250X0*%
%ADD31RoundRect,0.125000X-0.587500X-0.125000X0.587500X-0.125000X0.587500X0.125000X-0.587500X0.125000X0*%
%ADD32R,1.200000X2.200000*%
%ADD33R,5.800000X6.400000*%
%ADD34RoundRect,0.200000X-0.200000X-0.275000X0.200000X-0.275000X0.200000X0.275000X-0.200000X0.275000X0*%
%ADD35RoundRect,0.150000X-0.150000X0.725000X-0.150000X-0.725000X0.150000X-0.725000X0.150000X0.725000X0*%
%ADD36RoundRect,0.225000X0.225000X0.250000X-0.225000X0.250000X-0.225000X-0.250000X0.225000X-0.250000X0*%
G04 APERTURE END LIST*
D10*
X102565200Y-59385200D02*
X102057200Y-58826400D01*
X102565200Y-58724800D02*
X103886000Y-58724800D01*
X101142800Y-61366400D02*
X101650800Y-61722000D01*
X104698800Y-61823600D02*
X104190800Y-62230000D01*
X117856000Y-56533000D02*
X117856000Y-50444400D01*
X101650800Y-61823600D02*
X101142800Y-62230000D01*
X104190800Y-62230000D02*
X104190800Y-61366400D01*
X103886000Y-58724800D02*
X103784400Y-58724800D01*
X128016000Y-56533000D02*
X128016000Y-50444400D01*
X104800400Y-62230000D02*
X104800400Y-61366400D01*
X105664000Y-61823600D02*
X104698800Y-61823600D01*
X101955600Y-58013600D02*
X101955600Y-59385200D01*
X102057200Y-58724800D02*
X102565200Y-58064400D01*
X101142800Y-62230000D02*
X101142800Y-61366400D01*
X101752400Y-62230000D02*
X101752400Y-61366400D01*
X102565200Y-58064400D02*
X102565200Y-59385200D01*
X104190800Y-61823600D02*
X103530400Y-61823600D01*
X104190800Y-61366400D02*
X104698800Y-61722000D01*
X102616000Y-61823600D02*
X101650800Y-61823600D01*
X101142800Y-61823600D02*
X100482400Y-61823600D01*
X101092000Y-58724800D02*
X102057200Y-58724800D01*
X97474819Y-76184465D02*
X96374819Y-76184465D01*
X97160533Y-75817798D01*
X96374819Y-75451131D01*
X97474819Y-75451131D01*
X96374819Y-74717798D02*
X96374819Y-74508274D01*
X96427200Y-74403512D01*
X96531961Y-74298751D01*
X96741485Y-74246370D01*
X97108152Y-74246370D01*
X97317676Y-74298751D01*
X97422438Y-74403512D01*
X97474819Y-74508274D01*
X97474819Y-74717798D01*
X97422438Y-74822560D01*
X97317676Y-74927322D01*
X97108152Y-74979703D01*
X96741485Y-74979703D01*
X96531961Y-74927322D01*
X96427200Y-74822560D01*
X96374819Y-74717798D01*
X97474819Y-73774941D02*
X96374819Y-73774941D01*
X96374819Y-73513036D01*
X96427200Y-73355893D01*
X96531961Y-73251131D01*
X96636723Y-73198751D01*
X96846247Y-73146370D01*
X97003390Y-73146370D01*
X97212914Y-73198751D01*
X97317676Y-73251131D01*
X97422438Y-73355893D01*
X97474819Y-73513036D01*
X97474819Y-73774941D01*
X96374819Y-72674941D02*
X97265295Y-72674941D01*
X97370057Y-72622560D01*
X97422438Y-72570179D01*
X97474819Y-72465417D01*
X97474819Y-72255893D01*
X97422438Y-72151131D01*
X97370057Y-72098751D01*
X97265295Y-72046370D01*
X96374819Y-72046370D01*
X97474819Y-70998751D02*
X97474819Y-71522560D01*
X96374819Y-71522560D01*
X96898628Y-70632084D02*
X96898628Y-70265417D01*
X97474819Y-70108274D02*
X97474819Y-70632084D01*
X96374819Y-70632084D01*
X96374819Y-70108274D01*
X97474819Y-69060655D02*
X97474819Y-69689227D01*
X97474819Y-69374941D02*
X96374819Y-69374941D01*
X96531961Y-69479703D01*
X96636723Y-69584465D01*
X96689104Y-69689227D01*
X139334019Y-122661715D02*
X138234019Y-122661715D01*
X139019733Y-122295048D01*
X138234019Y-121928381D01*
X139334019Y-121928381D01*
X138234019Y-121195048D02*
X138234019Y-120985524D01*
X138286400Y-120880762D01*
X138391161Y-120776001D01*
X138600685Y-120723620D01*
X138967352Y-120723620D01*
X139176876Y-120776001D01*
X139281638Y-120880762D01*
X139334019Y-120985524D01*
X139334019Y-121195048D01*
X139281638Y-121299810D01*
X139176876Y-121404572D01*
X138967352Y-121456953D01*
X138600685Y-121456953D01*
X138391161Y-121404572D01*
X138286400Y-121299810D01*
X138234019Y-121195048D01*
X139334019Y-120252191D02*
X138234019Y-120252191D01*
X138234019Y-119990286D01*
X138286400Y-119833143D01*
X138391161Y-119728381D01*
X138495923Y-119676001D01*
X138705447Y-119623620D01*
X138862590Y-119623620D01*
X139072114Y-119676001D01*
X139176876Y-119728381D01*
X139281638Y-119833143D01*
X139334019Y-119990286D01*
X139334019Y-120252191D01*
X138234019Y-119152191D02*
X139124495Y-119152191D01*
X139229257Y-119099810D01*
X139281638Y-119047429D01*
X139334019Y-118942667D01*
X139334019Y-118733143D01*
X139281638Y-118628381D01*
X139229257Y-118576001D01*
X139124495Y-118523620D01*
X138234019Y-118523620D01*
X139334019Y-117476001D02*
X139334019Y-117999810D01*
X138234019Y-117999810D01*
X138757828Y-117109334D02*
X138757828Y-116742667D01*
X139334019Y-116585524D02*
X139334019Y-117109334D01*
X138234019Y-117109334D01*
X138234019Y-116585524D01*
X138600685Y-115642667D02*
X139334019Y-115642667D01*
X138181638Y-115904572D02*
X138967352Y-116166477D01*
X138967352Y-115485524D01*
X103165857Y-102318419D02*
X103165857Y-103104133D01*
X103113476Y-103261276D01*
X103008714Y-103366038D01*
X102851571Y-103418419D01*
X102746810Y-103418419D01*
X104213476Y-103418419D02*
X103689667Y-103418419D01*
X103689667Y-102318419D01*
X105208714Y-103313657D02*
X105156333Y-103366038D01*
X104999190Y-103418419D01*
X104894429Y-103418419D01*
X104737286Y-103366038D01*
X104632524Y-103261276D01*
X104580143Y-103156514D01*
X104527762Y-102946990D01*
X104527762Y-102789847D01*
X104580143Y-102580323D01*
X104632524Y-102475561D01*
X104737286Y-102370800D01*
X104894429Y-102318419D01*
X104999190Y-102318419D01*
X105156333Y-102370800D01*
X105208714Y-102423180D01*
X105994429Y-102318419D02*
X105994429Y-103104133D01*
X105942048Y-103261276D01*
X105837286Y-103366038D01*
X105680143Y-103418419D01*
X105575381Y-103418419D01*
X107042048Y-103418419D02*
X106518238Y-103418419D01*
X106518238Y-102318419D01*
X108037286Y-103313657D02*
X107984905Y-103366038D01*
X107827762Y-103418419D01*
X107723000Y-103418419D01*
X107565857Y-103366038D01*
X107461095Y-103261276D01*
X107408714Y-103156514D01*
X107356333Y-102946990D01*
X107356333Y-102789847D01*
X107408714Y-102580323D01*
X107461095Y-102475561D01*
X107565857Y-102370800D01*
X107723000Y-102318419D01*
X107827762Y-102318419D01*
X107984905Y-102370800D01*
X108037286Y-102423180D01*
X108823000Y-102318419D02*
X108823000Y-103104133D01*
X108770619Y-103261276D01*
X108665857Y-103366038D01*
X108508714Y-103418419D01*
X108403952Y-103418419D01*
X109870619Y-103418419D02*
X109346810Y-103418419D01*
X109346810Y-102318419D01*
X110865857Y-103313657D02*
X110813476Y-103366038D01*
X110656333Y-103418419D01*
X110551571Y-103418419D01*
X110394429Y-103366038D01*
X110289667Y-103261276D01*
X110237286Y-103156514D01*
X110184905Y-102946990D01*
X110184905Y-102789847D01*
X110237286Y-102580323D01*
X110289667Y-102475561D01*
X110394429Y-102370800D01*
X110551571Y-102318419D01*
X110656333Y-102318419D01*
X110813476Y-102370800D01*
X110865857Y-102423180D01*
X111651571Y-102318419D02*
X111651571Y-103104133D01*
X111599190Y-103261276D01*
X111494429Y-103366038D01*
X111337286Y-103418419D01*
X111232524Y-103418419D01*
X112699190Y-103418419D02*
X112175381Y-103418419D01*
X112175381Y-102318419D01*
X113694429Y-103313657D02*
X113642048Y-103366038D01*
X113484905Y-103418419D01*
X113380143Y-103418419D01*
X113223000Y-103366038D01*
X113118238Y-103261276D01*
X113065857Y-103156514D01*
X113013476Y-102946990D01*
X113013476Y-102789847D01*
X113065857Y-102580323D01*
X113118238Y-102475561D01*
X113223000Y-102370800D01*
X113380143Y-102318419D01*
X113484905Y-102318419D01*
X113642048Y-102370800D01*
X113694429Y-102423180D01*
X129660285Y-128602410D02*
X129922190Y-129335744D01*
X130184095Y-128602410D01*
X131179333Y-129335744D02*
X130550761Y-129335744D01*
X130865047Y-129335744D02*
X130865047Y-128235744D01*
X130760285Y-128392886D01*
X130655523Y-128497648D01*
X130550761Y-128550029D01*
X131528419Y-83950639D02*
X131528419Y-83741115D01*
X131580800Y-83636353D01*
X131685561Y-83531591D01*
X131895085Y-83479210D01*
X132261752Y-83479210D01*
X132471276Y-83531591D01*
X132576038Y-83636353D01*
X132628419Y-83741115D01*
X132628419Y-83950639D01*
X132576038Y-84055401D01*
X132471276Y-84160162D01*
X132261752Y-84212543D01*
X131895085Y-84212543D01*
X131685561Y-84160162D01*
X131580800Y-84055401D01*
X131528419Y-83950639D01*
X131528419Y-83007781D02*
X132418895Y-83007781D01*
X132523657Y-82955401D01*
X132576038Y-82903020D01*
X132628419Y-82798258D01*
X132628419Y-82588734D01*
X132576038Y-82483972D01*
X132523657Y-82431591D01*
X132418895Y-82379210D01*
X131528419Y-82379210D01*
X131528419Y-82012543D02*
X131528419Y-81383972D01*
X132628419Y-81698258D02*
X131528419Y-81698258D01*
X132628419Y-81017305D02*
X131528419Y-81017305D01*
X131528419Y-80598258D01*
X131580800Y-80493496D01*
X131633180Y-80441115D01*
X131737942Y-80388734D01*
X131895085Y-80388734D01*
X131999847Y-80441115D01*
X132052228Y-80493496D01*
X132104609Y-80598258D01*
X132104609Y-81017305D01*
X131528419Y-79917305D02*
X132418895Y-79917305D01*
X132523657Y-79864924D01*
X132576038Y-79812543D01*
X132628419Y-79707781D01*
X132628419Y-79498258D01*
X132576038Y-79393496D01*
X132523657Y-79341115D01*
X132418895Y-79288734D01*
X131528419Y-79288734D01*
X131528419Y-78922067D02*
X131528419Y-78293496D01*
X132628419Y-78607781D02*
X131528419Y-78607781D01*
X133695219Y-76184465D02*
X132595219Y-76184465D01*
X133380933Y-75817798D01*
X132595219Y-75451131D01*
X133695219Y-75451131D01*
X132595219Y-74717798D02*
X132595219Y-74508274D01*
X132647600Y-74403512D01*
X132752361Y-74298751D01*
X132961885Y-74246370D01*
X133328552Y-74246370D01*
X133538076Y-74298751D01*
X133642838Y-74403512D01*
X133695219Y-74508274D01*
X133695219Y-74717798D01*
X133642838Y-74822560D01*
X133538076Y-74927322D01*
X133328552Y-74979703D01*
X132961885Y-74979703D01*
X132752361Y-74927322D01*
X132647600Y-74822560D01*
X132595219Y-74717798D01*
X133695219Y-73774941D02*
X132595219Y-73774941D01*
X132595219Y-73513036D01*
X132647600Y-73355893D01*
X132752361Y-73251131D01*
X132857123Y-73198751D01*
X133066647Y-73146370D01*
X133223790Y-73146370D01*
X133433314Y-73198751D01*
X133538076Y-73251131D01*
X133642838Y-73355893D01*
X133695219Y-73513036D01*
X133695219Y-73774941D01*
X132595219Y-72674941D02*
X133485695Y-72674941D01*
X133590457Y-72622560D01*
X133642838Y-72570179D01*
X133695219Y-72465417D01*
X133695219Y-72255893D01*
X133642838Y-72151131D01*
X133590457Y-72098751D01*
X133485695Y-72046370D01*
X132595219Y-72046370D01*
X133695219Y-70998751D02*
X133695219Y-71522560D01*
X132595219Y-71522560D01*
X133119028Y-70632084D02*
X133119028Y-70265417D01*
X133695219Y-70108274D02*
X133695219Y-70632084D01*
X132595219Y-70632084D01*
X132595219Y-70108274D01*
X132699980Y-69689227D02*
X132647600Y-69636846D01*
X132595219Y-69532084D01*
X132595219Y-69270179D01*
X132647600Y-69165417D01*
X132699980Y-69113036D01*
X132804742Y-69060655D01*
X132909504Y-69060655D01*
X133066647Y-69113036D01*
X133695219Y-69741608D01*
X133695219Y-69060655D01*
X122356647Y-53497619D02*
X121728076Y-53497619D01*
X122042361Y-53497619D02*
X122042361Y-52397619D01*
X121937600Y-52554761D01*
X121832838Y-52659523D01*
X121728076Y-52711904D01*
X122775695Y-52502380D02*
X122828076Y-52450000D01*
X122932838Y-52397619D01*
X123194742Y-52397619D01*
X123299504Y-52450000D01*
X123351885Y-52502380D01*
X123404266Y-52607142D01*
X123404266Y-52711904D01*
X123351885Y-52869047D01*
X122723314Y-53497619D01*
X123404266Y-53497619D01*
X123718552Y-52397619D02*
X124085219Y-53497619D01*
X124451885Y-52397619D01*
X102091619Y-122661714D02*
X100991619Y-122661714D01*
X101777333Y-122295047D01*
X100991619Y-121928380D01*
X102091619Y-121928380D01*
X100991619Y-121195047D02*
X100991619Y-120985523D01*
X101044000Y-120880761D01*
X101148761Y-120776000D01*
X101358285Y-120723619D01*
X101724952Y-120723619D01*
X101934476Y-120776000D01*
X102039238Y-120880761D01*
X102091619Y-120985523D01*
X102091619Y-121195047D01*
X102039238Y-121299809D01*
X101934476Y-121404571D01*
X101724952Y-121456952D01*
X101358285Y-121456952D01*
X101148761Y-121404571D01*
X101044000Y-121299809D01*
X100991619Y-121195047D01*
X102091619Y-120252190D02*
X100991619Y-120252190D01*
X100991619Y-119990285D01*
X101044000Y-119833142D01*
X101148761Y-119728380D01*
X101253523Y-119676000D01*
X101463047Y-119623619D01*
X101620190Y-119623619D01*
X101829714Y-119676000D01*
X101934476Y-119728380D01*
X102039238Y-119833142D01*
X102091619Y-119990285D01*
X102091619Y-120252190D01*
X100991619Y-119152190D02*
X101882095Y-119152190D01*
X101986857Y-119099809D01*
X102039238Y-119047428D01*
X102091619Y-118942666D01*
X102091619Y-118733142D01*
X102039238Y-118628380D01*
X101986857Y-118576000D01*
X101882095Y-118523619D01*
X100991619Y-118523619D01*
X102091619Y-117476000D02*
X102091619Y-117999809D01*
X100991619Y-117999809D01*
X101515428Y-117109333D02*
X101515428Y-116742666D01*
X102091619Y-116585523D02*
X102091619Y-117109333D01*
X100991619Y-117109333D01*
X100991619Y-116585523D01*
X100991619Y-116218857D02*
X100991619Y-115537904D01*
X101410666Y-115904571D01*
X101410666Y-115747428D01*
X101463047Y-115642666D01*
X101515428Y-115590285D01*
X101620190Y-115537904D01*
X101882095Y-115537904D01*
X101986857Y-115590285D01*
X102039238Y-115642666D01*
X102091619Y-115747428D01*
X102091619Y-116061714D01*
X102039238Y-116166476D01*
X101986857Y-116218857D01*
X103480142Y-100929219D02*
X103113476Y-100405409D01*
X102851571Y-100929219D02*
X102851571Y-99829219D01*
X103270619Y-99829219D01*
X103375380Y-99881600D01*
X103427761Y-99933980D01*
X103480142Y-100038742D01*
X103480142Y-100195885D01*
X103427761Y-100300647D01*
X103375380Y-100353028D01*
X103270619Y-100405409D01*
X102851571Y-100405409D01*
X104423000Y-100929219D02*
X104423000Y-100353028D01*
X104370619Y-100248266D01*
X104265857Y-100195885D01*
X104056333Y-100195885D01*
X103951571Y-100248266D01*
X104423000Y-100876838D02*
X104318238Y-100929219D01*
X104056333Y-100929219D01*
X103951571Y-100876838D01*
X103899190Y-100772076D01*
X103899190Y-100667314D01*
X103951571Y-100562552D01*
X104056333Y-100510171D01*
X104318238Y-100510171D01*
X104423000Y-100457790D01*
X104894428Y-100876838D02*
X104999190Y-100929219D01*
X105208714Y-100929219D01*
X105313476Y-100876838D01*
X105365857Y-100772076D01*
X105365857Y-100719695D01*
X105313476Y-100614933D01*
X105208714Y-100562552D01*
X105051571Y-100562552D01*
X104946809Y-100510171D01*
X104894428Y-100405409D01*
X104894428Y-100353028D01*
X104946809Y-100248266D01*
X105051571Y-100195885D01*
X105208714Y-100195885D01*
X105313476Y-100248266D01*
X105837285Y-100195885D02*
X105837285Y-101295885D01*
X105837285Y-100248266D02*
X105942047Y-100195885D01*
X106151571Y-100195885D01*
X106256333Y-100248266D01*
X106308714Y-100300647D01*
X106361095Y-100405409D01*
X106361095Y-100719695D01*
X106308714Y-100824457D01*
X106256333Y-100876838D01*
X106151571Y-100929219D01*
X105942047Y-100929219D01*
X105837285Y-100876838D01*
X106832523Y-100929219D02*
X106832523Y-99829219D01*
X106832523Y-100248266D02*
X106937285Y-100195885D01*
X107146809Y-100195885D01*
X107251571Y-100248266D01*
X107303952Y-100300647D01*
X107356333Y-100405409D01*
X107356333Y-100719695D01*
X107303952Y-100824457D01*
X107251571Y-100876838D01*
X107146809Y-100929219D01*
X106937285Y-100929219D01*
X106832523Y-100876838D01*
X108246809Y-100876838D02*
X108142047Y-100929219D01*
X107932523Y-100929219D01*
X107827761Y-100876838D01*
X107775380Y-100772076D01*
X107775380Y-100353028D01*
X107827761Y-100248266D01*
X107932523Y-100195885D01*
X108142047Y-100195885D01*
X108246809Y-100248266D01*
X108299190Y-100353028D01*
X108299190Y-100457790D01*
X107775380Y-100562552D01*
X108770619Y-100929219D02*
X108770619Y-100195885D01*
X108770619Y-100405409D02*
X108823000Y-100300647D01*
X108875380Y-100248266D01*
X108980142Y-100195885D01*
X109084904Y-100195885D01*
X109451571Y-100929219D02*
X109451571Y-100195885D01*
X109451571Y-100405409D02*
X109503952Y-100300647D01*
X109556333Y-100248266D01*
X109661095Y-100195885D01*
X109765857Y-100195885D01*
X110027761Y-100195885D02*
X110289666Y-100929219D01*
X110551571Y-100195885D02*
X110289666Y-100929219D01*
X110184904Y-101191123D01*
X110132523Y-101243504D01*
X110027761Y-101295885D01*
X111808714Y-100929219D02*
X111808714Y-99829219D01*
X112227761Y-99829219D01*
X112332523Y-99881600D01*
X112384904Y-99933980D01*
X112437285Y-100038742D01*
X112437285Y-100195885D01*
X112384904Y-100300647D01*
X112332523Y-100353028D01*
X112227761Y-100405409D01*
X111808714Y-100405409D01*
X112908714Y-100929219D02*
X112908714Y-100195885D01*
X112908714Y-99829219D02*
X112856333Y-99881600D01*
X112908714Y-99933980D01*
X112961095Y-99881600D01*
X112908714Y-99829219D01*
X112908714Y-99933980D01*
X114270619Y-100929219D02*
X114270619Y-99829219D01*
X114689666Y-99829219D01*
X114794428Y-99881600D01*
X114846809Y-99933980D01*
X114899190Y-100038742D01*
X114899190Y-100195885D01*
X114846809Y-100300647D01*
X114794428Y-100353028D01*
X114689666Y-100405409D01*
X114270619Y-100405409D01*
X115370619Y-100929219D02*
X115370619Y-100195885D01*
X115370619Y-99829219D02*
X115318238Y-99881600D01*
X115370619Y-99933980D01*
X115423000Y-99881600D01*
X115370619Y-99829219D01*
X115370619Y-99933980D01*
X116365857Y-100876838D02*
X116261095Y-100929219D01*
X116051571Y-100929219D01*
X115946809Y-100876838D01*
X115894428Y-100824457D01*
X115842047Y-100719695D01*
X115842047Y-100405409D01*
X115894428Y-100300647D01*
X115946809Y-100248266D01*
X116051571Y-100195885D01*
X116261095Y-100195885D01*
X116365857Y-100248266D01*
X116994428Y-100929219D02*
X116889666Y-100876838D01*
X116837285Y-100824457D01*
X116784904Y-100719695D01*
X116784904Y-100405409D01*
X116837285Y-100300647D01*
X116889666Y-100248266D01*
X116994428Y-100195885D01*
X117151571Y-100195885D01*
X117256333Y-100248266D01*
X117308714Y-100300647D01*
X117361095Y-100405409D01*
X117361095Y-100719695D01*
X117308714Y-100824457D01*
X117256333Y-100876838D01*
X117151571Y-100929219D01*
X116994428Y-100929219D01*
X119456333Y-99776838D02*
X118513476Y-101191123D01*
X120661095Y-100929219D02*
X120661095Y-99829219D01*
X121080142Y-99829219D01*
X121184904Y-99881600D01*
X121237285Y-99933980D01*
X121289666Y-100038742D01*
X121289666Y-100195885D01*
X121237285Y-100300647D01*
X121184904Y-100353028D01*
X121080142Y-100405409D01*
X120661095Y-100405409D01*
X121761095Y-100929219D02*
X121761095Y-100195885D01*
X121761095Y-99829219D02*
X121708714Y-99881600D01*
X121761095Y-99933980D01*
X121813476Y-99881600D01*
X121761095Y-99829219D01*
X121761095Y-99933980D01*
X122756333Y-100876838D02*
X122651571Y-100929219D01*
X122442047Y-100929219D01*
X122337285Y-100876838D01*
X122284904Y-100824457D01*
X122232523Y-100719695D01*
X122232523Y-100405409D01*
X122284904Y-100300647D01*
X122337285Y-100248266D01*
X122442047Y-100195885D01*
X122651571Y-100195885D01*
X122756333Y-100248266D01*
X123384904Y-100929219D02*
X123280142Y-100876838D01*
X123227761Y-100824457D01*
X123175380Y-100719695D01*
X123175380Y-100405409D01*
X123227761Y-100300647D01*
X123280142Y-100248266D01*
X123384904Y-100195885D01*
X123542047Y-100195885D01*
X123646809Y-100248266D01*
X123699190Y-100300647D01*
X123751571Y-100405409D01*
X123751571Y-100719695D01*
X123699190Y-100824457D01*
X123646809Y-100876838D01*
X123542047Y-100929219D01*
X123384904Y-100929219D01*
X124956333Y-99829219D02*
X125218238Y-100929219D01*
X125427761Y-100143504D01*
X125637285Y-100929219D01*
X125899190Y-99829219D01*
X132257904Y-52450000D02*
X132153142Y-52397619D01*
X131996000Y-52397619D01*
X131838857Y-52450000D01*
X131734095Y-52554761D01*
X131681714Y-52659523D01*
X131629333Y-52869047D01*
X131629333Y-53026190D01*
X131681714Y-53235714D01*
X131734095Y-53340476D01*
X131838857Y-53445238D01*
X131996000Y-53497619D01*
X132100761Y-53497619D01*
X132257904Y-53445238D01*
X132310285Y-53392857D01*
X132310285Y-53026190D01*
X132100761Y-53026190D01*
X132781714Y-53497619D02*
X132781714Y-52397619D01*
X133410285Y-53497619D01*
X133410285Y-52397619D01*
X133934095Y-53497619D02*
X133934095Y-52397619D01*
X134196000Y-52397619D01*
X134353142Y-52450000D01*
X134457904Y-52554761D01*
X134510285Y-52659523D01*
X134562666Y-52869047D01*
X134562666Y-53026190D01*
X134510285Y-53235714D01*
X134457904Y-53340476D01*
X134353142Y-53445238D01*
X134196000Y-53497619D01*
X133934095Y-53497619D01*
X96745619Y-122792667D02*
X95645619Y-122792667D01*
X96745619Y-122164096D01*
X95645619Y-122164096D01*
X96169428Y-121640286D02*
X96169428Y-121273620D01*
X96745619Y-121116477D02*
X96745619Y-121640286D01*
X95645619Y-121640286D01*
X95645619Y-121116477D01*
X95645619Y-120435524D02*
X95645619Y-120226001D01*
X95698000Y-120121239D01*
X95802761Y-120016477D01*
X96012285Y-119964096D01*
X96378952Y-119964096D01*
X96588476Y-120016477D01*
X96693238Y-120121239D01*
X96745619Y-120226001D01*
X96745619Y-120435524D01*
X96693238Y-120540286D01*
X96588476Y-120645048D01*
X96378952Y-120697429D01*
X96012285Y-120697429D01*
X95802761Y-120645048D01*
X95698000Y-120540286D01*
X95645619Y-120435524D01*
X96745619Y-119492667D02*
X95645619Y-119492667D01*
X95645619Y-119073620D01*
X95698000Y-118968858D01*
X95750380Y-118916477D01*
X95855142Y-118864096D01*
X96012285Y-118864096D01*
X96117047Y-118916477D01*
X96169428Y-118968858D01*
X96221809Y-119073620D01*
X96221809Y-119492667D01*
X96745619Y-118392667D02*
X95645619Y-118392667D01*
X95645619Y-117973620D02*
X96745619Y-117240286D01*
X95645619Y-117240286D02*
X96745619Y-117973620D01*
X96169428Y-116821239D02*
X96169428Y-116454572D01*
X96745619Y-116297429D02*
X96745619Y-116821239D01*
X95645619Y-116821239D01*
X95645619Y-116297429D01*
X96745619Y-115302191D02*
X96745619Y-115826001D01*
X95645619Y-115826001D01*
X98739695Y-85892419D02*
X98739695Y-84792419D01*
X99211123Y-85892419D02*
X99211123Y-85316228D01*
X99158742Y-85211466D01*
X99053980Y-85159085D01*
X98896838Y-85159085D01*
X98792076Y-85211466D01*
X98739695Y-85263847D01*
X99577790Y-85159085D02*
X99996838Y-85159085D01*
X99734933Y-84792419D02*
X99734933Y-85735276D01*
X99787314Y-85840038D01*
X99892076Y-85892419D01*
X99996838Y-85892419D01*
X100206361Y-85159085D02*
X100625409Y-85159085D01*
X100363504Y-84792419D02*
X100363504Y-85735276D01*
X100415885Y-85840038D01*
X100520647Y-85892419D01*
X100625409Y-85892419D01*
X100992076Y-85159085D02*
X100992076Y-86259085D01*
X100992076Y-85211466D02*
X101096838Y-85159085D01*
X101306361Y-85159085D01*
X101411123Y-85211466D01*
X101463504Y-85263847D01*
X101515885Y-85368609D01*
X101515885Y-85682895D01*
X101463504Y-85787657D01*
X101411123Y-85840038D01*
X101306361Y-85892419D01*
X101096838Y-85892419D01*
X100992076Y-85840038D01*
X101934933Y-85840038D02*
X102039695Y-85892419D01*
X102249219Y-85892419D01*
X102353980Y-85840038D01*
X102406361Y-85735276D01*
X102406361Y-85682895D01*
X102353980Y-85578133D01*
X102249219Y-85525752D01*
X102092076Y-85525752D01*
X101987314Y-85473371D01*
X101934933Y-85368609D01*
X101934933Y-85316228D01*
X101987314Y-85211466D01*
X102092076Y-85159085D01*
X102249219Y-85159085D01*
X102353980Y-85211466D01*
X102877790Y-85787657D02*
X102930171Y-85840038D01*
X102877790Y-85892419D01*
X102825409Y-85840038D01*
X102877790Y-85787657D01*
X102877790Y-85892419D01*
X102877790Y-85211466D02*
X102930171Y-85263847D01*
X102877790Y-85316228D01*
X102825409Y-85263847D01*
X102877790Y-85211466D01*
X102877790Y-85316228D01*
X104187314Y-84740038D02*
X103244457Y-86154323D01*
X105339695Y-84740038D02*
X104396838Y-86154323D01*
X106177790Y-85159085D02*
X106177790Y-86049561D01*
X106125409Y-86154323D01*
X106073028Y-86206704D01*
X105968266Y-86259085D01*
X105811123Y-86259085D01*
X105706361Y-86206704D01*
X106177790Y-85840038D02*
X106073028Y-85892419D01*
X105863504Y-85892419D01*
X105758742Y-85840038D01*
X105706361Y-85787657D01*
X105653980Y-85682895D01*
X105653980Y-85368609D01*
X105706361Y-85263847D01*
X105758742Y-85211466D01*
X105863504Y-85159085D01*
X106073028Y-85159085D01*
X106177790Y-85211466D01*
X106701600Y-85892419D02*
X106701600Y-85159085D01*
X106701600Y-84792419D02*
X106649219Y-84844800D01*
X106701600Y-84897180D01*
X106753980Y-84844800D01*
X106701600Y-84792419D01*
X106701600Y-84897180D01*
X107068266Y-85159085D02*
X107487314Y-85159085D01*
X107225409Y-84792419D02*
X107225409Y-85735276D01*
X107277790Y-85840038D01*
X107382552Y-85892419D01*
X107487314Y-85892419D01*
X107853980Y-85892419D02*
X107853980Y-84792419D01*
X108325409Y-85892419D02*
X108325409Y-85316228D01*
X108273028Y-85211466D01*
X108168266Y-85159085D01*
X108011123Y-85159085D01*
X107906361Y-85211466D01*
X107853980Y-85263847D01*
X109320647Y-85159085D02*
X109320647Y-85892419D01*
X108849219Y-85159085D02*
X108849219Y-85735276D01*
X108901600Y-85840038D01*
X109006361Y-85892419D01*
X109163504Y-85892419D01*
X109268266Y-85840038D01*
X109320647Y-85787657D01*
X109844457Y-85892419D02*
X109844457Y-84792419D01*
X109844457Y-85211466D02*
X109949219Y-85159085D01*
X110158742Y-85159085D01*
X110263504Y-85211466D01*
X110315885Y-85263847D01*
X110368266Y-85368609D01*
X110368266Y-85682895D01*
X110315885Y-85787657D01*
X110263504Y-85840038D01*
X110158742Y-85892419D01*
X109949219Y-85892419D01*
X109844457Y-85840038D01*
X110839695Y-85787657D02*
X110892076Y-85840038D01*
X110839695Y-85892419D01*
X110787314Y-85840038D01*
X110839695Y-85787657D01*
X110839695Y-85892419D01*
X111834933Y-85840038D02*
X111730171Y-85892419D01*
X111520647Y-85892419D01*
X111415885Y-85840038D01*
X111363504Y-85787657D01*
X111311123Y-85682895D01*
X111311123Y-85368609D01*
X111363504Y-85263847D01*
X111415885Y-85211466D01*
X111520647Y-85159085D01*
X111730171Y-85159085D01*
X111834933Y-85211466D01*
X112463504Y-85892419D02*
X112358742Y-85840038D01*
X112306361Y-85787657D01*
X112253980Y-85682895D01*
X112253980Y-85368609D01*
X112306361Y-85263847D01*
X112358742Y-85211466D01*
X112463504Y-85159085D01*
X112620647Y-85159085D01*
X112725409Y-85211466D01*
X112777790Y-85263847D01*
X112830171Y-85368609D01*
X112830171Y-85682895D01*
X112777790Y-85787657D01*
X112725409Y-85840038D01*
X112620647Y-85892419D01*
X112463504Y-85892419D01*
X113301600Y-85892419D02*
X113301600Y-85159085D01*
X113301600Y-85263847D02*
X113353980Y-85211466D01*
X113458742Y-85159085D01*
X113615885Y-85159085D01*
X113720647Y-85211466D01*
X113773028Y-85316228D01*
X113773028Y-85892419D01*
X113773028Y-85316228D02*
X113825409Y-85211466D01*
X113930171Y-85159085D01*
X114087314Y-85159085D01*
X114192076Y-85211466D01*
X114244457Y-85316228D01*
X114244457Y-85892419D01*
X115553980Y-84740038D02*
X114611123Y-86154323D01*
X115920647Y-85892419D02*
X115920647Y-85159085D01*
X115920647Y-85368609D02*
X115973028Y-85263847D01*
X116025409Y-85211466D01*
X116130171Y-85159085D01*
X116234933Y-85159085D01*
X116444457Y-85159085D02*
X116863504Y-85159085D01*
X116601600Y-84792419D02*
X116601600Y-85735276D01*
X116653980Y-85840038D01*
X116758742Y-85892419D01*
X116863504Y-85892419D01*
X117230171Y-85892419D02*
X117230171Y-85159085D01*
X117230171Y-84792419D02*
X117177790Y-84844800D01*
X117230171Y-84897180D01*
X117282552Y-84844800D01*
X117230171Y-84792419D01*
X117230171Y-84897180D01*
X117596838Y-85159085D02*
X118015885Y-85159085D01*
X117753980Y-84792419D02*
X117753980Y-85735276D01*
X117806361Y-85840038D01*
X117911123Y-85892419D01*
X118015885Y-85892419D01*
X118382552Y-85892419D02*
X118382552Y-85159085D01*
X118382552Y-85263847D02*
X118434933Y-85211466D01*
X118539695Y-85159085D01*
X118696838Y-85159085D01*
X118801600Y-85211466D01*
X118853980Y-85316228D01*
X118853980Y-85892419D01*
X118853980Y-85316228D02*
X118906361Y-85211466D01*
X119011123Y-85159085D01*
X119168266Y-85159085D01*
X119273028Y-85211466D01*
X119325409Y-85316228D01*
X119325409Y-85892419D01*
X120320647Y-85159085D02*
X120320647Y-85892419D01*
X119849219Y-85159085D02*
X119849219Y-85735276D01*
X119901600Y-85840038D01*
X120006361Y-85892419D01*
X120163504Y-85892419D01*
X120268266Y-85840038D01*
X120320647Y-85787657D01*
X120792076Y-85840038D02*
X120896838Y-85892419D01*
X121106361Y-85892419D01*
X121211123Y-85840038D01*
X121263504Y-85735276D01*
X121263504Y-85682895D01*
X121211123Y-85578133D01*
X121106361Y-85525752D01*
X120949219Y-85525752D01*
X120844457Y-85473371D01*
X120792076Y-85368609D01*
X120792076Y-85316228D01*
X120844457Y-85211466D01*
X120949219Y-85159085D01*
X121106361Y-85159085D01*
X121211123Y-85211466D01*
X121682552Y-85840038D02*
X121787314Y-85892419D01*
X121996838Y-85892419D01*
X122101600Y-85840038D01*
X122153980Y-85735276D01*
X122153980Y-85682895D01*
X122101600Y-85578133D01*
X121996838Y-85525752D01*
X121839695Y-85525752D01*
X121734933Y-85473371D01*
X121682552Y-85368609D01*
X121682552Y-85316228D01*
X121734933Y-85211466D01*
X121839695Y-85159085D01*
X121996838Y-85159085D01*
X122101600Y-85211466D01*
X123411123Y-84740038D02*
X122468266Y-86154323D01*
X123725409Y-85840038D02*
X123830171Y-85892419D01*
X124039695Y-85892419D01*
X124144457Y-85840038D01*
X124196838Y-85735276D01*
X124196838Y-85682895D01*
X124144457Y-85578133D01*
X124039695Y-85525752D01*
X123882552Y-85525752D01*
X123777790Y-85473371D01*
X123725409Y-85368609D01*
X123725409Y-85316228D01*
X123777790Y-85211466D01*
X123882552Y-85159085D01*
X124039695Y-85159085D01*
X124144457Y-85211466D01*
X124668266Y-85159085D02*
X124668266Y-86259085D01*
X124668266Y-85211466D02*
X124773028Y-85159085D01*
X124982552Y-85159085D01*
X125087314Y-85211466D01*
X125139695Y-85263847D01*
X125192076Y-85368609D01*
X125192076Y-85682895D01*
X125139695Y-85787657D01*
X125087314Y-85840038D01*
X124982552Y-85892419D01*
X124773028Y-85892419D01*
X124668266Y-85840038D01*
X125820647Y-85892419D02*
X125715885Y-85840038D01*
X125663504Y-85735276D01*
X125663504Y-84792419D01*
X126239695Y-85892419D02*
X126239695Y-85159085D01*
X126239695Y-84792419D02*
X126187314Y-84844800D01*
X126239695Y-84897180D01*
X126292076Y-84844800D01*
X126239695Y-84792419D01*
X126239695Y-84897180D01*
X126606361Y-85159085D02*
X127025409Y-85159085D01*
X126763504Y-84792419D02*
X126763504Y-85735276D01*
X126815885Y-85840038D01*
X126920647Y-85892419D01*
X127025409Y-85892419D01*
X127234933Y-85159085D02*
X127653980Y-85159085D01*
X127392076Y-85892419D02*
X127392076Y-84949561D01*
X127444457Y-84844800D01*
X127549219Y-84792419D01*
X127653980Y-84792419D01*
X128177790Y-85892419D02*
X128073028Y-85840038D01*
X128020647Y-85735276D01*
X128020647Y-84792419D01*
X129068266Y-85892419D02*
X129068266Y-85316228D01*
X129015885Y-85211466D01*
X128911123Y-85159085D01*
X128701600Y-85159085D01*
X128596838Y-85211466D01*
X129068266Y-85840038D02*
X128963504Y-85892419D01*
X128701600Y-85892419D01*
X128596838Y-85840038D01*
X128544457Y-85735276D01*
X128544457Y-85630514D01*
X128596838Y-85525752D01*
X128701600Y-85473371D01*
X128963504Y-85473371D01*
X129068266Y-85420990D01*
X129592076Y-85159085D02*
X129592076Y-86259085D01*
X129592076Y-85211466D02*
X129696838Y-85159085D01*
X129906361Y-85159085D01*
X130011123Y-85211466D01*
X130063504Y-85263847D01*
X130115885Y-85368609D01*
X130115885Y-85682895D01*
X130063504Y-85787657D01*
X130011123Y-85840038D01*
X129906361Y-85892419D01*
X129696838Y-85892419D01*
X129592076Y-85840038D01*
X91531219Y-121247429D02*
X90431219Y-121247429D01*
X91531219Y-120723620D02*
X90431219Y-120723620D01*
X91531219Y-120095048D01*
X90431219Y-120095048D01*
X91531219Y-119571239D02*
X90431219Y-119571239D01*
X90431219Y-119152191D01*
X90483600Y-119047429D01*
X90535980Y-118995048D01*
X90640742Y-118942667D01*
X90797885Y-118942667D01*
X90902647Y-118995048D01*
X90955028Y-119047429D01*
X91007409Y-119152191D01*
X91007409Y-119571239D01*
X90431219Y-118471239D02*
X91321695Y-118471239D01*
X91426457Y-118418858D01*
X91478838Y-118366477D01*
X91531219Y-118261715D01*
X91531219Y-118052191D01*
X91478838Y-117947429D01*
X91426457Y-117895048D01*
X91321695Y-117842667D01*
X90431219Y-117842667D01*
X90431219Y-117476001D02*
X90431219Y-116847429D01*
X91531219Y-117161715D02*
X90431219Y-117161715D01*
X105536630Y-77035654D02*
X106346154Y-77035654D01*
X106441392Y-76988035D01*
X106489011Y-76940416D01*
X106536630Y-76845178D01*
X106536630Y-76654702D01*
X106489011Y-76559464D01*
X106441392Y-76511845D01*
X106346154Y-76464226D01*
X105536630Y-76464226D01*
X105536630Y-76083273D02*
X105536630Y-75464226D01*
X105917583Y-75797559D01*
X105917583Y-75654702D01*
X105965202Y-75559464D01*
X106012821Y-75511845D01*
X106108059Y-75464226D01*
X106346154Y-75464226D01*
X106441392Y-75511845D01*
X106489011Y-75559464D01*
X106536630Y-75654702D01*
X106536630Y-75940416D01*
X106489011Y-76035654D01*
X106441392Y-76083273D01*
D11*
X134726500Y-120381000D02*
X134726500Y-115241000D01*
X137386500Y-121651000D02*
X137386500Y-122981000D01*
X137386500Y-120381000D02*
X134726500Y-120381000D01*
X137386500Y-115241000D02*
X134726500Y-115241000D01*
X137386500Y-120381000D02*
X137386500Y-115241000D01*
X137386500Y-122981000D02*
X136056500Y-122981000D01*
X129721000Y-127301250D02*
X129721000Y-126551250D01*
X133431000Y-127311250D02*
X133431000Y-112191250D01*
X128221000Y-124001250D02*
X128221000Y-115501250D01*
X128221000Y-112201250D02*
X127471000Y-112201250D01*
X127471000Y-115501250D02*
X127471000Y-124001250D01*
X127471000Y-124001250D02*
X128221000Y-124001250D01*
X129721000Y-112951250D02*
X132671000Y-112951250D01*
X128221000Y-114001250D02*
X128221000Y-112201250D01*
X127171000Y-127601250D02*
X128421000Y-127601250D01*
X127461000Y-112191250D02*
X127461000Y-127311250D01*
X132671000Y-126551250D02*
X132671000Y-119751250D01*
X128221000Y-125501250D02*
X127471000Y-125501250D01*
X128221000Y-127301250D02*
X128221000Y-125501250D01*
X132671000Y-112951250D02*
X132671000Y-119751250D01*
X128221000Y-115501250D02*
X127471000Y-115501250D01*
X129721000Y-126551250D02*
X132671000Y-126551250D01*
X127461000Y-127311250D02*
X133431000Y-127311250D01*
X127471000Y-125501250D02*
X127471000Y-127301250D01*
X127471000Y-112201250D02*
X127471000Y-114001250D01*
X129721000Y-112201250D02*
X129721000Y-112951250D01*
X127471000Y-114001250D02*
X128221000Y-114001250D01*
X127171000Y-126351250D02*
X127171000Y-127601250D01*
X127471000Y-127301250D02*
X128221000Y-127301250D01*
X133431000Y-112191250D02*
X127461000Y-112191250D01*
X106924250Y-72663750D02*
X107644250Y-72663750D01*
X119644250Y-72663750D02*
X118924250Y-72663750D01*
X106924250Y-76273750D02*
X106924250Y-79883750D01*
X106924250Y-79883750D02*
X107644250Y-79883750D01*
X119644250Y-76273750D02*
X119644250Y-72663750D01*
X119644250Y-76273750D02*
X119644250Y-79883750D01*
X107644250Y-79883750D02*
X107644250Y-81923750D01*
X106924250Y-76273750D02*
X106924250Y-72663750D01*
X119644250Y-79883750D02*
X118924250Y-79883750D01*
X138393700Y-79505542D02*
X138393700Y-79980058D01*
X137348700Y-79505542D02*
X137348700Y-79980058D01*
X114123000Y-108512500D02*
X114523000Y-108512500D01*
X88823000Y-87512500D02*
X89123000Y-87512500D01*
X98923000Y-87512500D02*
X99323000Y-87512500D01*
X131923000Y-87512500D02*
X132323000Y-87512500D01*
X126823000Y-108512500D02*
X127223000Y-108512500D01*
X129423000Y-87512500D02*
X129823000Y-87512500D01*
X111623000Y-108512500D02*
X112023000Y-108512500D01*
X96323000Y-87512500D02*
X96723000Y-87512500D01*
X111623000Y-87512500D02*
X112023000Y-87512500D01*
X126823000Y-87512500D02*
X127223000Y-87512500D01*
X137023000Y-108512500D02*
X137423000Y-108512500D01*
X134423000Y-108512500D02*
X134823000Y-108512500D01*
X91223000Y-87512500D02*
X91623000Y-87512500D01*
X124323000Y-108512500D02*
X124723000Y-108512500D01*
X91490000Y-105505500D02*
X88823000Y-105505500D01*
X121723000Y-87512500D02*
X122123000Y-87512500D01*
X103923000Y-87512500D02*
X104323000Y-87512500D01*
X101423000Y-108512500D02*
X101823000Y-108512500D01*
X88823000Y-108512500D02*
X88823000Y-87512500D01*
X114123000Y-87512500D02*
X114523000Y-87512500D01*
X101423000Y-87512500D02*
X101823000Y-87512500D01*
X139823000Y-87512500D02*
X139823000Y-94312500D01*
X106523000Y-108512500D02*
X106923000Y-108512500D01*
X91490000Y-108512500D02*
X91490000Y-105505500D01*
X119223000Y-87512500D02*
X119623000Y-87512500D01*
X139823000Y-96912500D02*
X139823000Y-96512500D01*
X109023000Y-87512500D02*
X109423000Y-87512500D01*
X131923000Y-108512500D02*
X132323000Y-108512500D01*
X139823000Y-99512500D02*
X139823000Y-99112500D01*
X96323000Y-108512500D02*
X96723000Y-108512500D01*
X116623000Y-87512500D02*
X117023000Y-87512500D01*
X91223000Y-108512500D02*
X91623000Y-108512500D01*
X93823000Y-87512500D02*
X94223000Y-87512500D01*
X124323000Y-87512500D02*
X124723000Y-87512500D01*
X103923000Y-108512500D02*
X104323000Y-108512500D01*
X134423000Y-87512500D02*
X134823000Y-87512500D01*
X129423000Y-108512500D02*
X129823000Y-108512500D01*
X137023000Y-87512500D02*
X137423000Y-87512500D01*
X109023000Y-108512500D02*
X109423000Y-108512500D01*
X106523000Y-87512500D02*
X106923000Y-87512500D01*
X119223000Y-108512500D02*
X119623000Y-108512500D01*
X88823000Y-108512500D02*
X89123000Y-108512500D01*
X93823000Y-108512500D02*
X94223000Y-108512500D01*
X139823000Y-101712500D02*
X139823000Y-108512500D01*
X116623000Y-108512500D02*
X117023000Y-108512500D01*
X98923000Y-108512500D02*
X99323000Y-108512500D01*
X121723000Y-108512500D02*
X122123000Y-108512500D01*
X104631258Y-64124100D02*
X104156742Y-64124100D01*
X104631258Y-63079100D02*
X104156742Y-63079100D01*
X104531900Y-113470458D02*
X104531900Y-112995942D01*
X105576900Y-113470458D02*
X105576900Y-112995942D01*
X100251000Y-121651000D02*
X100251000Y-122981000D01*
X100251000Y-120381000D02*
X100251000Y-115241000D01*
X100251000Y-115241000D02*
X97591000Y-115241000D01*
X100251000Y-122981000D02*
X98921000Y-122981000D01*
X100251000Y-120381000D02*
X97591000Y-120381000D01*
X97591000Y-120381000D02*
X97591000Y-115241000D01*
X94905000Y-68763750D02*
X92245000Y-68763750D01*
X94905000Y-73903750D02*
X92245000Y-73903750D01*
X92245000Y-73903750D02*
X92245000Y-68763750D01*
X94905000Y-75173750D02*
X94905000Y-76503750D01*
X94905000Y-76503750D02*
X93575000Y-76503750D01*
X94905000Y-73903750D02*
X94905000Y-68763750D01*
X105597000Y-120381000D02*
X105597000Y-115241000D01*
X105597000Y-120381000D02*
X102937000Y-120381000D01*
X105597000Y-122981000D02*
X104267000Y-122981000D01*
X105597000Y-115241000D02*
X102937000Y-115241000D01*
X102937000Y-120381000D02*
X102937000Y-115241000D01*
X105597000Y-121651000D02*
X105597000Y-122981000D01*
X138393700Y-82630742D02*
X138393700Y-83105258D01*
X137348700Y-82630742D02*
X137348700Y-83105258D01*
X93709258Y-78979500D02*
X93234742Y-78979500D01*
X93709258Y-80024500D02*
X93234742Y-80024500D01*
X133726500Y-82560400D02*
X133726500Y-77420400D01*
X136386500Y-82560400D02*
X136386500Y-77420400D01*
X136386500Y-77420400D02*
X133726500Y-77420400D01*
X136386500Y-82560400D02*
X133726500Y-82560400D01*
X136386500Y-83830400D02*
X136386500Y-85160400D01*
X136386500Y-85160400D02*
X135056500Y-85160400D01*
X92620220Y-53541200D02*
X92901380Y-53541200D01*
X92620220Y-54561200D02*
X92901380Y-54561200D01*
X100620000Y-59724800D02*
X104520000Y-59724800D01*
X100620000Y-57724800D02*
X100620000Y-59724800D01*
X100620000Y-57724800D02*
X104520000Y-57724800D01*
X115241063Y-57462000D02*
X113555500Y-57462000D01*
X115241063Y-57462000D02*
X116305500Y-58526437D01*
X107785500Y-65982000D02*
X110535500Y-65982000D01*
X114555500Y-56222000D02*
X114555500Y-57222000D01*
X115055500Y-56722000D02*
X114055500Y-56722000D01*
X107785500Y-58526437D02*
X107785500Y-65982000D01*
X116305500Y-58526437D02*
X116305500Y-65982000D01*
X108849937Y-57462000D02*
X107785500Y-58526437D01*
X108849937Y-57462000D02*
X110535500Y-57462000D01*
X116305500Y-65982000D02*
X113555500Y-65982000D01*
D10*
X131191000Y-57793000D02*
X129921000Y-57793000D01*
X136271000Y-57793000D02*
X135001000Y-57793000D01*
X136906000Y-56603000D02*
X136271000Y-57793000D01*
D11*
X128016000Y-65133000D02*
X128016000Y-56533000D01*
D10*
X129921000Y-57793000D02*
X129286000Y-56603000D01*
D11*
X138176000Y-56533000D02*
X138176000Y-65133000D01*
X128016000Y-56533000D02*
X138176000Y-56533000D01*
D10*
X135001000Y-57793000D02*
X134366000Y-56603000D01*
X131826000Y-56603000D02*
X131191000Y-57793000D01*
D11*
X138176000Y-65133000D02*
X128016000Y-65133000D01*
X103594000Y-62558600D02*
X105879000Y-62558600D01*
X105879000Y-61088600D02*
X103594000Y-61088600D01*
X105879000Y-62558600D02*
X105879000Y-61088600D01*
X94589600Y-127193200D02*
X95339600Y-127193200D01*
X94589600Y-124073200D02*
X95339600Y-124073200D01*
X94589600Y-127193200D02*
X93839600Y-127193200D01*
X94589600Y-124073200D02*
X92739600Y-124073200D01*
X102906300Y-113470458D02*
X102906300Y-112995942D01*
X103951300Y-113470458D02*
X103951300Y-112995942D01*
X93709258Y-78500500D02*
X93234742Y-78500500D01*
X93709258Y-77455500D02*
X93234742Y-77455500D01*
X128016000Y-56533000D02*
X128016000Y-65133000D01*
D10*
X124841000Y-57793000D02*
X124206000Y-56603000D01*
X126746000Y-56603000D02*
X126111000Y-57793000D01*
X119761000Y-57793000D02*
X119126000Y-56603000D01*
D11*
X128016000Y-65133000D02*
X117856000Y-65133000D01*
D10*
X121031000Y-57793000D02*
X119761000Y-57793000D01*
D11*
X117856000Y-56533000D02*
X128016000Y-56533000D01*
D10*
X126111000Y-57793000D02*
X124841000Y-57793000D01*
D11*
X117856000Y-65133000D02*
X117856000Y-56533000D01*
D10*
X121666000Y-56603000D02*
X121031000Y-57793000D01*
D11*
X121654400Y-68723750D02*
X121654400Y-70523750D01*
X122404400Y-82023750D02*
X121654400Y-82023750D01*
X121354400Y-82873750D02*
X121354400Y-84123750D01*
X123904400Y-83073750D02*
X126854400Y-83073750D01*
X123904400Y-83823750D02*
X123904400Y-83073750D01*
X123904400Y-69473750D02*
X126854400Y-69473750D01*
X121644400Y-83833750D02*
X127614400Y-83833750D01*
X122404400Y-72023750D02*
X121654400Y-72023750D01*
X121654400Y-72023750D02*
X121654400Y-80523750D01*
X121654400Y-80523750D02*
X122404400Y-80523750D01*
X127614400Y-83833750D02*
X127614400Y-68713750D01*
X126854400Y-69473750D02*
X126854400Y-76273750D01*
X122404400Y-70523750D02*
X122404400Y-68723750D01*
X123904400Y-68723750D02*
X123904400Y-69473750D01*
X122404400Y-83823750D02*
X122404400Y-82023750D01*
X121354400Y-84123750D02*
X122604400Y-84123750D01*
X122404400Y-80523750D02*
X122404400Y-72023750D01*
X121654400Y-82023750D02*
X121654400Y-83823750D01*
X122404400Y-68723750D02*
X121654400Y-68723750D01*
X121654400Y-83823750D02*
X122404400Y-83823750D01*
X121654400Y-70523750D02*
X122404400Y-70523750D01*
X127614400Y-68713750D02*
X121644400Y-68713750D01*
X126854400Y-83073750D02*
X126854400Y-76273750D01*
X121644400Y-68713750D02*
X121644400Y-83833750D01*
X101583258Y-64124100D02*
X101108742Y-64124100D01*
X101583258Y-63079100D02*
X101108742Y-63079100D01*
X131530400Y-68763750D02*
X128870400Y-68763750D01*
X128870400Y-73903750D02*
X128870400Y-68763750D01*
X131530400Y-73903750D02*
X128870400Y-73903750D01*
X131530400Y-73903750D02*
X131530400Y-68763750D01*
X131530400Y-76503750D02*
X130200400Y-76503750D01*
X131530400Y-75173750D02*
X131530400Y-76503750D01*
X91382500Y-58168000D02*
X91382500Y-57068000D01*
X97742500Y-58168000D02*
X97742500Y-55338000D01*
X91112500Y-59668000D02*
X91112500Y-58168000D01*
X91112500Y-58168000D02*
X91382500Y-58168000D01*
X98012500Y-58168000D02*
X97742500Y-58168000D01*
X98012500Y-59668000D02*
X98012500Y-58168000D01*
X98009942Y-124140700D02*
X98484458Y-124140700D01*
X98009942Y-125185700D02*
X98484458Y-125185700D01*
X135819242Y-113523500D02*
X136293758Y-113523500D01*
X135819242Y-114568500D02*
X136293758Y-114568500D01*
X126439000Y-116141250D02*
X125719000Y-116141250D01*
X126439000Y-119751250D02*
X126439000Y-123361250D01*
X113719000Y-116141250D02*
X114439000Y-116141250D01*
X113719000Y-119751250D02*
X113719000Y-123361250D01*
X126439000Y-123361250D02*
X125719000Y-123361250D01*
X113719000Y-123361250D02*
X114439000Y-123361250D01*
X125719000Y-116141250D02*
X125719000Y-114101250D01*
X126439000Y-119751250D02*
X126439000Y-116141250D01*
X113719000Y-119751250D02*
X113719000Y-116141250D01*
X94905000Y-120381000D02*
X94905000Y-115241000D01*
X94905000Y-121651000D02*
X94905000Y-122981000D01*
X92245000Y-120381000D02*
X92245000Y-115241000D01*
X94905000Y-115241000D02*
X92245000Y-115241000D01*
X94905000Y-120381000D02*
X92245000Y-120381000D01*
X94905000Y-122981000D02*
X93575000Y-122981000D01*
X98387780Y-126093200D02*
X98106620Y-126093200D01*
X98387780Y-127113200D02*
X98106620Y-127113200D01*
X99629000Y-72023750D02*
X98879000Y-72023750D01*
X98879000Y-68723750D02*
X98879000Y-70523750D01*
X98869000Y-68713750D02*
X98869000Y-83833750D01*
X101129000Y-83823750D02*
X101129000Y-83073750D01*
X98879000Y-72023750D02*
X98879000Y-80523750D01*
X99629000Y-82023750D02*
X98879000Y-82023750D01*
X98869000Y-83833750D02*
X104839000Y-83833750D01*
X98579000Y-84123750D02*
X99829000Y-84123750D01*
X98879000Y-80523750D02*
X99629000Y-80523750D01*
X98579000Y-82873750D02*
X98579000Y-84123750D01*
X104839000Y-83833750D02*
X104839000Y-68713750D01*
X99629000Y-70523750D02*
X99629000Y-68723750D01*
X98879000Y-82023750D02*
X98879000Y-83823750D01*
X101129000Y-68723750D02*
X101129000Y-69473750D01*
X98879000Y-70523750D02*
X99629000Y-70523750D01*
X101129000Y-69473750D02*
X104079000Y-69473750D01*
X101129000Y-83073750D02*
X104079000Y-83073750D01*
X104079000Y-83073750D02*
X104079000Y-76273750D01*
X104839000Y-68713750D02*
X98869000Y-68713750D01*
X104079000Y-69473750D02*
X104079000Y-76273750D01*
X99629000Y-68723750D02*
X98879000Y-68723750D01*
X98879000Y-83823750D02*
X99629000Y-83823750D01*
X99629000Y-80523750D02*
X99629000Y-72023750D01*
X99629000Y-83823750D02*
X99629000Y-82023750D01*
X106390000Y-127601250D02*
X107640000Y-127601250D01*
X106690000Y-127301250D02*
X107440000Y-127301250D01*
X112650000Y-127311250D02*
X112650000Y-112191250D01*
X107440000Y-124001250D02*
X107440000Y-115501250D01*
X106690000Y-115501250D02*
X106690000Y-124001250D01*
X112650000Y-112191250D02*
X106680000Y-112191250D01*
X106690000Y-125501250D02*
X106690000Y-127301250D01*
X111890000Y-112951250D02*
X111890000Y-119751250D01*
X106690000Y-124001250D02*
X107440000Y-124001250D01*
X106690000Y-112201250D02*
X106690000Y-114001250D01*
X107440000Y-115501250D02*
X106690000Y-115501250D01*
X108940000Y-126551250D02*
X111890000Y-126551250D01*
X108940000Y-112951250D02*
X111890000Y-112951250D01*
X108940000Y-127301250D02*
X108940000Y-126551250D01*
X108940000Y-112201250D02*
X108940000Y-112951250D01*
X106680000Y-127311250D02*
X112650000Y-127311250D01*
X107440000Y-125501250D02*
X106690000Y-125501250D01*
X107440000Y-114001250D02*
X107440000Y-112201250D01*
X106680000Y-112191250D02*
X106680000Y-127311250D01*
X107440000Y-127301250D02*
X107440000Y-125501250D01*
X107440000Y-112201250D02*
X106690000Y-112201250D01*
X106690000Y-114001250D02*
X107440000Y-114001250D01*
X111890000Y-126551250D02*
X111890000Y-119751250D01*
X106390000Y-126351250D02*
X106390000Y-127601250D01*
G36*
X111045217Y-55692220D02*
G01*
X111064034Y-55697860D01*
X111070100Y-55710253D01*
X111070355Y-55715847D01*
X111071444Y-55731430D01*
X111078941Y-55733876D01*
X111099192Y-55723193D01*
X111111222Y-55715894D01*
X111149173Y-55700263D01*
X111194501Y-55692534D01*
X111242029Y-55691940D01*
X111286578Y-55697713D01*
X111322971Y-55709084D01*
X111346030Y-55725288D01*
X111350577Y-55745555D01*
X111348282Y-55751043D01*
X111331553Y-55773826D01*
X111305610Y-55801847D01*
X111300918Y-55806377D01*
X111276190Y-55827205D01*
X111254855Y-55833935D01*
X111225018Y-55829238D01*
X111213065Y-55826117D01*
X111175868Y-55818621D01*
X111149714Y-55821992D01*
X111127627Y-55833881D01*
X111107395Y-55849835D01*
X111092494Y-55869900D01*
X111082139Y-55897902D01*
X111075544Y-55937667D01*
X111071924Y-55993023D01*
X111070495Y-56067794D01*
X111070355Y-56112940D01*
X111070355Y-56307022D01*
X110944613Y-56307022D01*
X110944613Y-55690883D01*
X111007484Y-55690883D01*
X111045217Y-55692220D01*
G37*
D12*
X111045217Y-55692220D02*
X111064034Y-55697860D01*
X111070100Y-55710253D01*
X111070355Y-55715847D01*
X111071444Y-55731430D01*
X111078941Y-55733876D01*
X111099192Y-55723193D01*
X111111222Y-55715894D01*
X111149173Y-55700263D01*
X111194501Y-55692534D01*
X111242029Y-55691940D01*
X111286578Y-55697713D01*
X111322971Y-55709084D01*
X111346030Y-55725288D01*
X111350577Y-55745555D01*
X111348282Y-55751043D01*
X111331553Y-55773826D01*
X111305610Y-55801847D01*
X111300918Y-55806377D01*
X111276190Y-55827205D01*
X111254855Y-55833935D01*
X111225018Y-55829238D01*
X111213065Y-55826117D01*
X111175868Y-55818621D01*
X111149714Y-55821992D01*
X111127627Y-55833881D01*
X111107395Y-55849835D01*
X111092494Y-55869900D01*
X111082139Y-55897902D01*
X111075544Y-55937667D01*
X111071924Y-55993023D01*
X111070495Y-56067794D01*
X111070355Y-56112940D01*
X111070355Y-56307022D01*
X110944613Y-56307022D01*
X110944613Y-55690883D01*
X111007484Y-55690883D01*
X111045217Y-55692220D01*
G36*
X113673828Y-55690686D02*
G01*
X113722168Y-55700215D01*
X113749687Y-55714325D01*
X113778637Y-55737768D01*
X113737449Y-55789771D01*
X113712055Y-55821264D01*
X113694811Y-55836628D01*
X113677675Y-55838976D01*
X113652600Y-55831417D01*
X113640830Y-55827141D01*
X113592843Y-55820831D01*
X113548897Y-55834356D01*
X113516633Y-55864910D01*
X113511392Y-55874652D01*
X113505685Y-55900458D01*
X113501279Y-55948017D01*
X113498384Y-56013958D01*
X113497204Y-56094910D01*
X113497187Y-56106426D01*
X113497187Y-56307022D01*
X113358870Y-56307022D01*
X113358870Y-55690883D01*
X113428029Y-55690883D01*
X113467906Y-55691925D01*
X113488680Y-55696558D01*
X113496362Y-55707049D01*
X113497187Y-55716945D01*
X113497187Y-55743006D01*
X113530318Y-55716945D01*
X113568308Y-55699165D01*
X113619343Y-55690374D01*
X113673828Y-55690686D01*
G37*
X113673828Y-55690686D02*
X113722168Y-55700215D01*
X113749687Y-55714325D01*
X113778637Y-55737768D01*
X113737449Y-55789771D01*
X113712055Y-55821264D01*
X113694811Y-55836628D01*
X113677675Y-55838976D01*
X113652600Y-55831417D01*
X113640830Y-55827141D01*
X113592843Y-55820831D01*
X113548897Y-55834356D01*
X113516633Y-55864910D01*
X113511392Y-55874652D01*
X113505685Y-55900458D01*
X113501279Y-55948017D01*
X113498384Y-56013958D01*
X113497204Y-56094910D01*
X113497187Y-56106426D01*
X113497187Y-56307022D01*
X113358870Y-56307022D01*
X113358870Y-55690883D01*
X113428029Y-55690883D01*
X113467906Y-55691925D01*
X113488680Y-55696558D01*
X113496362Y-55707049D01*
X113497187Y-55716945D01*
X113497187Y-55743006D01*
X113530318Y-55716945D01*
X113568308Y-55699165D01*
X113619343Y-55690374D01*
X113673828Y-55690686D01*
G36*
X112323961Y-54899701D02*
G01*
X112357602Y-54831730D01*
X112407591Y-54782864D01*
X112473929Y-54753099D01*
X112488174Y-54749648D01*
X112573783Y-54741545D01*
X112649335Y-54755255D01*
X112712936Y-54789892D01*
X112762696Y-54844572D01*
X112786141Y-54889042D01*
X112796207Y-54928321D01*
X112802729Y-54984316D01*
X112805524Y-55048821D01*
X112804409Y-55113629D01*
X112799199Y-55170534D01*
X112793114Y-55200927D01*
X112772587Y-55242506D01*
X112737036Y-55286668D01*
X112694192Y-55325287D01*
X112651784Y-55350234D01*
X112650750Y-55350630D01*
X112598126Y-55361531D01*
X112535761Y-55361801D01*
X112476497Y-55351876D01*
X112453613Y-55343922D01*
X112394675Y-55310500D01*
X112352463Y-55266711D01*
X112324729Y-55208738D01*
X112309224Y-55132765D01*
X112305716Y-55092971D01*
X112306163Y-55042966D01*
X112440949Y-55042966D01*
X112445490Y-55115932D01*
X112458559Y-55171534D01*
X112479329Y-55207061D01*
X112494125Y-55217220D01*
X112532037Y-55224304D01*
X112577100Y-55222207D01*
X112616060Y-55212012D01*
X112626277Y-55206404D01*
X112653232Y-55173738D01*
X112671024Y-55123745D01*
X112678597Y-55062905D01*
X112674898Y-54997697D01*
X112666630Y-54958453D01*
X112642893Y-54913005D01*
X112605422Y-54884596D01*
X112560293Y-54874773D01*
X112513584Y-54885087D01*
X112477705Y-54910312D01*
X112458850Y-54931125D01*
X112447845Y-54951639D01*
X112442599Y-54979403D01*
X112441022Y-55021962D01*
X112440949Y-55042966D01*
X112306163Y-55042966D01*
X112306667Y-54986780D01*
X112323961Y-54899701D01*
G37*
X112323961Y-54899701D02*
X112357602Y-54831730D01*
X112407591Y-54782864D01*
X112473929Y-54753099D01*
X112488174Y-54749648D01*
X112573783Y-54741545D01*
X112649335Y-54755255D01*
X112712936Y-54789892D01*
X112762696Y-54844572D01*
X112786141Y-54889042D01*
X112796207Y-54928321D01*
X112802729Y-54984316D01*
X112805524Y-55048821D01*
X112804409Y-55113629D01*
X112799199Y-55170534D01*
X112793114Y-55200927D01*
X112772587Y-55242506D01*
X112737036Y-55286668D01*
X112694192Y-55325287D01*
X112651784Y-55350234D01*
X112650750Y-55350630D01*
X112598126Y-55361531D01*
X112535761Y-55361801D01*
X112476497Y-55351876D01*
X112453613Y-55343922D01*
X112394675Y-55310500D01*
X112352463Y-55266711D01*
X112324729Y-55208738D01*
X112309224Y-55132765D01*
X112305716Y-55092971D01*
X112306163Y-55042966D01*
X112440949Y-55042966D01*
X112445490Y-55115932D01*
X112458559Y-55171534D01*
X112479329Y-55207061D01*
X112494125Y-55217220D01*
X112532037Y-55224304D01*
X112577100Y-55222207D01*
X112616060Y-55212012D01*
X112626277Y-55206404D01*
X112653232Y-55173738D01*
X112671024Y-55123745D01*
X112678597Y-55062905D01*
X112674898Y-54997697D01*
X112666630Y-54958453D01*
X112642893Y-54913005D01*
X112605422Y-54884596D01*
X112560293Y-54874773D01*
X112513584Y-54885087D01*
X112477705Y-54910312D01*
X112458850Y-54931125D01*
X112447845Y-54951639D01*
X112442599Y-54979403D01*
X112441022Y-55021962D01*
X112440949Y-55042966D01*
X112306163Y-55042966D01*
X112306667Y-54986780D01*
X112323961Y-54899701D01*
G36*
X111348909Y-55951763D02*
G01*
X111355059Y-55870181D01*
X111367840Y-55808930D01*
X111389102Y-55763649D01*
X111420695Y-55729979D01*
X111451366Y-55710214D01*
X111494219Y-55696320D01*
X111547517Y-55691554D01*
X111602093Y-55695436D01*
X111648781Y-55707482D01*
X111673449Y-55721893D01*
X111699068Y-55745078D01*
X111699068Y-55451973D01*
X111837385Y-55451973D01*
X111837385Y-56307022D01*
X111768227Y-56307022D01*
X111728085Y-56305845D01*
X111707179Y-56300972D01*
X111699651Y-56290386D01*
X111699068Y-56283229D01*
X111697799Y-56268876D01*
X111689794Y-56266123D01*
X111668758Y-56274971D01*
X111652400Y-56283229D01*
X111589596Y-56302797D01*
X111521325Y-56303929D01*
X111465821Y-56289335D01*
X111414135Y-56254077D01*
X111374735Y-56202035D01*
X111353160Y-56140650D01*
X111352611Y-56137218D01*
X111349406Y-56099771D01*
X111347812Y-56046013D01*
X111347940Y-56005355D01*
X111485294Y-56005355D01*
X111488476Y-56059394D01*
X111495714Y-56103935D01*
X111505513Y-56129088D01*
X111542584Y-56163460D01*
X111586599Y-56175782D01*
X111631989Y-56165818D01*
X111670776Y-56136095D01*
X111685465Y-56116105D01*
X111694054Y-56092250D01*
X111698077Y-56057430D01*
X111699068Y-56005130D01*
X111697295Y-55953339D01*
X111692610Y-55907834D01*
X111685970Y-55877381D01*
X111684863Y-55874652D01*
X111658082Y-55842200D01*
X111618994Y-55824383D01*
X111575258Y-55821506D01*
X111534535Y-55833874D01*
X111504486Y-55861793D01*
X111501369Y-55867348D01*
X111491612Y-55901222D01*
X111486296Y-55949928D01*
X111485294Y-56005355D01*
X111347940Y-56005355D01*
X111348005Y-55984740D01*
X111348909Y-55951763D01*
G37*
X111348909Y-55951763D02*
X111355059Y-55870181D01*
X111367840Y-55808930D01*
X111389102Y-55763649D01*
X111420695Y-55729979D01*
X111451366Y-55710214D01*
X111494219Y-55696320D01*
X111547517Y-55691554D01*
X111602093Y-55695436D01*
X111648781Y-55707482D01*
X111673449Y-55721893D01*
X111699068Y-55745078D01*
X111699068Y-55451973D01*
X111837385Y-55451973D01*
X111837385Y-56307022D01*
X111768227Y-56307022D01*
X111728085Y-56305845D01*
X111707179Y-56300972D01*
X111699651Y-56290386D01*
X111699068Y-56283229D01*
X111697799Y-56268876D01*
X111689794Y-56266123D01*
X111668758Y-56274971D01*
X111652400Y-56283229D01*
X111589596Y-56302797D01*
X111521325Y-56303929D01*
X111465821Y-56289335D01*
X111414135Y-56254077D01*
X111374735Y-56202035D01*
X111353160Y-56140650D01*
X111352611Y-56137218D01*
X111349406Y-56099771D01*
X111347812Y-56046013D01*
X111347940Y-56005355D01*
X111485294Y-56005355D01*
X111488476Y-56059394D01*
X111495714Y-56103935D01*
X111505513Y-56129088D01*
X111542584Y-56163460D01*
X111586599Y-56175782D01*
X111631989Y-56165818D01*
X111670776Y-56136095D01*
X111685465Y-56116105D01*
X111694054Y-56092250D01*
X111698077Y-56057430D01*
X111699068Y-56005130D01*
X111697295Y-55953339D01*
X111692610Y-55907834D01*
X111685970Y-55877381D01*
X111684863Y-55874652D01*
X111658082Y-55842200D01*
X111618994Y-55824383D01*
X111575258Y-55821506D01*
X111534535Y-55833874D01*
X111504486Y-55861793D01*
X111501369Y-55867348D01*
X111491612Y-55901222D01*
X111486296Y-55949928D01*
X111485294Y-56005355D01*
X111347940Y-56005355D01*
X111348005Y-55984740D01*
X111348909Y-55951763D01*
G36*
X113031940Y-54943542D02*
G01*
X113033128Y-55035763D01*
X113037470Y-55105810D01*
X113046131Y-55156581D01*
X113060277Y-55190972D01*
X113081073Y-55211879D01*
X113109683Y-55222200D01*
X113145108Y-55224836D01*
X113182209Y-55221882D01*
X113210391Y-55211089D01*
X113230816Y-55189560D01*
X113244652Y-55154399D01*
X113253064Y-55102710D01*
X113257216Y-55031594D01*
X113258276Y-54943542D01*
X113258276Y-54747814D01*
X113396593Y-54747814D01*
X113396593Y-55351379D01*
X113327435Y-55351379D01*
X113285743Y-55349689D01*
X113264274Y-55343756D01*
X113258276Y-55332493D01*
X113254664Y-55322461D01*
X113240287Y-55324583D01*
X113211309Y-55338780D01*
X113144892Y-55360680D01*
X113074448Y-55359128D01*
X113006950Y-55335347D01*
X112974806Y-55316562D01*
X112950288Y-55296222D01*
X112932377Y-55270773D01*
X112920052Y-55236658D01*
X112912296Y-55190321D01*
X112908089Y-55128207D01*
X112906413Y-55046761D01*
X112906197Y-54983778D01*
X112906197Y-54747814D01*
X113031940Y-54747814D01*
X113031940Y-54943542D01*
G37*
X113031940Y-54943542D02*
X113033128Y-55035763D01*
X113037470Y-55105810D01*
X113046131Y-55156581D01*
X113060277Y-55190972D01*
X113081073Y-55211879D01*
X113109683Y-55222200D01*
X113145108Y-55224836D01*
X113182209Y-55221882D01*
X113210391Y-55211089D01*
X113230816Y-55189560D01*
X113244652Y-55154399D01*
X113253064Y-55102710D01*
X113257216Y-55031594D01*
X113258276Y-54943542D01*
X113258276Y-54747814D01*
X113396593Y-54747814D01*
X113396593Y-55351379D01*
X113327435Y-55351379D01*
X113285743Y-55349689D01*
X113264274Y-55343756D01*
X113258276Y-55332493D01*
X113254664Y-55322461D01*
X113240287Y-55324583D01*
X113211309Y-55338780D01*
X113144892Y-55360680D01*
X113074448Y-55359128D01*
X113006950Y-55335347D01*
X112974806Y-55316562D01*
X112950288Y-55296222D01*
X112932377Y-55270773D01*
X112920052Y-55236658D01*
X112912296Y-55190321D01*
X112908089Y-55128207D01*
X112906413Y-55046761D01*
X112906197Y-54983778D01*
X112906197Y-54747814D01*
X113031940Y-54747814D01*
X113031940Y-54943542D01*
G36*
X109174625Y-54947256D02*
G01*
X109182211Y-54903207D01*
X109195892Y-54868448D01*
X109216708Y-54837751D01*
X109224426Y-54828636D01*
X109272684Y-54783221D01*
X109324445Y-54756693D01*
X109387745Y-54745579D01*
X109418612Y-54744671D01*
X109500312Y-54754348D01*
X109566094Y-54783431D01*
X109616033Y-54831993D01*
X109650199Y-54900108D01*
X109668666Y-54987851D01*
X109669990Y-55001551D01*
X109671027Y-55098139D01*
X109657580Y-55182802D01*
X109630465Y-55251421D01*
X109615946Y-55273494D01*
X109565372Y-55320211D01*
X109500964Y-55350468D01*
X109428907Y-55363024D01*
X109355388Y-55356639D01*
X109299501Y-55336972D01*
X109251441Y-55303829D01*
X109212161Y-55260375D01*
X109211481Y-55259358D01*
X109195529Y-55232538D01*
X109185163Y-55205568D01*
X109178885Y-55171532D01*
X109175200Y-55123510D01*
X109173576Y-55084131D01*
X109172901Y-55048419D01*
X109298618Y-55048419D01*
X109299847Y-55083970D01*
X109304307Y-55131294D01*
X109312176Y-55161665D01*
X109326366Y-55183272D01*
X109339656Y-55195894D01*
X109386771Y-55222322D01*
X109436068Y-55225853D01*
X109481980Y-55206839D01*
X109504935Y-55185531D01*
X109521477Y-55164059D01*
X109531152Y-55143513D01*
X109535399Y-55116774D01*
X109535653Y-55076723D01*
X109534345Y-55039838D01*
X109531530Y-54987147D01*
X109527068Y-54952972D01*
X109519025Y-54930680D01*
X109505470Y-54913642D01*
X109494728Y-54903903D01*
X109449796Y-54878323D01*
X109401324Y-54877047D01*
X109360679Y-54892199D01*
X109326006Y-54923842D01*
X109305349Y-54975820D01*
X109298618Y-55048419D01*
X109172901Y-55048419D01*
X109172094Y-55005821D01*
X109174625Y-54947256D01*
G37*
X109174625Y-54947256D02*
X109182211Y-54903207D01*
X109195892Y-54868448D01*
X109216708Y-54837751D01*
X109224426Y-54828636D01*
X109272684Y-54783221D01*
X109324445Y-54756693D01*
X109387745Y-54745579D01*
X109418612Y-54744671D01*
X109500312Y-54754348D01*
X109566094Y-54783431D01*
X109616033Y-54831993D01*
X109650199Y-54900108D01*
X109668666Y-54987851D01*
X109669990Y-55001551D01*
X109671027Y-55098139D01*
X109657580Y-55182802D01*
X109630465Y-55251421D01*
X109615946Y-55273494D01*
X109565372Y-55320211D01*
X109500964Y-55350468D01*
X109428907Y-55363024D01*
X109355388Y-55356639D01*
X109299501Y-55336972D01*
X109251441Y-55303829D01*
X109212161Y-55260375D01*
X109211481Y-55259358D01*
X109195529Y-55232538D01*
X109185163Y-55205568D01*
X109178885Y-55171532D01*
X109175200Y-55123510D01*
X109173576Y-55084131D01*
X109172901Y-55048419D01*
X109298618Y-55048419D01*
X109299847Y-55083970D01*
X109304307Y-55131294D01*
X109312176Y-55161665D01*
X109326366Y-55183272D01*
X109339656Y-55195894D01*
X109386771Y-55222322D01*
X109436068Y-55225853D01*
X109481980Y-55206839D01*
X109504935Y-55185531D01*
X109521477Y-55164059D01*
X109531152Y-55143513D01*
X109535399Y-55116774D01*
X109535653Y-55076723D01*
X109534345Y-55039838D01*
X109531530Y-54987147D01*
X109527068Y-54952972D01*
X109519025Y-54930680D01*
X109505470Y-54913642D01*
X109494728Y-54903903D01*
X109449796Y-54878323D01*
X109401324Y-54877047D01*
X109360679Y-54892199D01*
X109326006Y-54923842D01*
X109305349Y-54975820D01*
X109298618Y-55048419D01*
X109172901Y-55048419D01*
X109172094Y-55005821D01*
X109174625Y-54947256D01*
G36*
X114467271Y-54853391D02*
G01*
X114513274Y-54797979D01*
X114571394Y-54760209D01*
X114639753Y-54742096D01*
X114716471Y-54745657D01*
X114748669Y-54753479D01*
X114810398Y-54782121D01*
X114863183Y-54825867D01*
X114899714Y-54878317D01*
X114904733Y-54890093D01*
X114911618Y-54920940D01*
X114916437Y-54966571D01*
X114918078Y-55012692D01*
X114918078Y-55099893D01*
X114735751Y-55099893D01*
X114660552Y-55100178D01*
X114607576Y-55101904D01*
X114573898Y-55106381D01*
X114556593Y-55114920D01*
X114552736Y-55128830D01*
X114559402Y-55149422D01*
X114571343Y-55173515D01*
X114604653Y-55213725D01*
X114650941Y-55233758D01*
X114707517Y-55233105D01*
X114771604Y-55211301D01*
X114826990Y-55184393D01*
X114872948Y-55220732D01*
X114918906Y-55257072D01*
X114875669Y-55297019D01*
X114817947Y-55334763D01*
X114746959Y-55357520D01*
X114670602Y-55363888D01*
X114596772Y-55352468D01*
X114584860Y-55348593D01*
X114519972Y-55314706D01*
X114471703Y-55264186D01*
X114439038Y-55195525D01*
X114420958Y-55107214D01*
X114420748Y-55105321D01*
X114419129Y-55009078D01*
X114425673Y-54974742D01*
X114553425Y-54974742D01*
X114565157Y-54980022D01*
X114597011Y-54984067D01*
X114643970Y-54986376D01*
X114673727Y-54986725D01*
X114729221Y-54986506D01*
X114763919Y-54985116D01*
X114782174Y-54981451D01*
X114788339Y-54974410D01*
X114786768Y-54962890D01*
X114785451Y-54958433D01*
X114762955Y-54916555D01*
X114727576Y-54882804D01*
X114696353Y-54867973D01*
X114654874Y-54868868D01*
X114612842Y-54887364D01*
X114577585Y-54917986D01*
X114556427Y-54955262D01*
X114553425Y-54974742D01*
X114425673Y-54974742D01*
X114435263Y-54924429D01*
X114467271Y-54853391D01*
G37*
X114467271Y-54853391D02*
X114513274Y-54797979D01*
X114571394Y-54760209D01*
X114639753Y-54742096D01*
X114716471Y-54745657D01*
X114748669Y-54753479D01*
X114810398Y-54782121D01*
X114863183Y-54825867D01*
X114899714Y-54878317D01*
X114904733Y-54890093D01*
X114911618Y-54920940D01*
X114916437Y-54966571D01*
X114918078Y-55012692D01*
X114918078Y-55099893D01*
X114735751Y-55099893D01*
X114660552Y-55100178D01*
X114607576Y-55101904D01*
X114573898Y-55106381D01*
X114556593Y-55114920D01*
X114552736Y-55128830D01*
X114559402Y-55149422D01*
X114571343Y-55173515D01*
X114604653Y-55213725D01*
X114650941Y-55233758D01*
X114707517Y-55233105D01*
X114771604Y-55211301D01*
X114826990Y-55184393D01*
X114872948Y-55220732D01*
X114918906Y-55257072D01*
X114875669Y-55297019D01*
X114817947Y-55334763D01*
X114746959Y-55357520D01*
X114670602Y-55363888D01*
X114596772Y-55352468D01*
X114584860Y-55348593D01*
X114519972Y-55314706D01*
X114471703Y-55264186D01*
X114439038Y-55195525D01*
X114420958Y-55107214D01*
X114420748Y-55105321D01*
X114419129Y-55009078D01*
X114425673Y-54974742D01*
X114553425Y-54974742D01*
X114565157Y-54980022D01*
X114597011Y-54984067D01*
X114643970Y-54986376D01*
X114673727Y-54986725D01*
X114729221Y-54986506D01*
X114763919Y-54985116D01*
X114782174Y-54981451D01*
X114788339Y-54974410D01*
X114786768Y-54962890D01*
X114785451Y-54958433D01*
X114762955Y-54916555D01*
X114727576Y-54882804D01*
X114696353Y-54867973D01*
X114654874Y-54868868D01*
X114612842Y-54887364D01*
X114577585Y-54917986D01*
X114556427Y-54955262D01*
X114553425Y-54974742D01*
X114425673Y-54974742D01*
X114435263Y-54924429D01*
X114467271Y-54853391D01*
G36*
X109831791Y-54747814D02*
G01*
X109873313Y-54749456D01*
X109894735Y-54755287D01*
X109900947Y-54766661D01*
X109900949Y-54766998D01*
X109903831Y-54778138D01*
X109916543Y-54776873D01*
X109941816Y-54764633D01*
X110000704Y-54745907D01*
X110066958Y-54743939D01*
X110129814Y-54758384D01*
X110156326Y-54771482D01*
X110189020Y-54794306D01*
X110212848Y-54819196D01*
X110229167Y-54850449D01*
X110239333Y-54892366D01*
X110244701Y-54949244D01*
X110246629Y-55025384D01*
X110246742Y-55058117D01*
X110246412Y-55129856D01*
X110245046Y-55181127D01*
X110242073Y-55216604D01*
X110236924Y-55240963D01*
X110229030Y-55258880D01*
X110220816Y-55271102D01*
X110168386Y-55323105D01*
X110106643Y-55354384D01*
X110040037Y-55363792D01*
X109973015Y-55350180D01*
X109951781Y-55340554D01*
X109900949Y-55314059D01*
X109900949Y-55729252D01*
X109938048Y-55710068D01*
X109986930Y-55695225D01*
X110047012Y-55691422D01*
X110107009Y-55698443D01*
X110152317Y-55714213D01*
X110189898Y-55744247D01*
X110222009Y-55787224D01*
X110224423Y-55791636D01*
X110234606Y-55812421D01*
X110242043Y-55833370D01*
X110247162Y-55858748D01*
X110250392Y-55892818D01*
X110252160Y-55939841D01*
X110252896Y-56004082D01*
X110253029Y-56076376D01*
X110253029Y-56307022D01*
X110114712Y-56307022D01*
X110114712Y-55881733D01*
X110076024Y-55849179D01*
X110035835Y-55823140D01*
X109997776Y-55818405D01*
X109959507Y-55830589D01*
X109939111Y-55842520D01*
X109923931Y-55859513D01*
X109913135Y-55885195D01*
X109905890Y-55923191D01*
X109901365Y-55977126D01*
X109898729Y-56050625D01*
X109897801Y-56099547D01*
X109894662Y-56300735D01*
X109828647Y-56304536D01*
X109762633Y-56308336D01*
X109762633Y-55059850D01*
X109900949Y-55059850D01*
X109904476Y-55129454D01*
X109916358Y-55177769D01*
X109938553Y-55207831D01*
X109973014Y-55222671D01*
X110007831Y-55225636D01*
X110047244Y-55222228D01*
X110073402Y-55208817D01*
X110089759Y-55191096D01*
X110102636Y-55172035D01*
X110110301Y-55150801D01*
X110113712Y-55121049D01*
X110113824Y-55076436D01*
X110112676Y-55039080D01*
X110110041Y-54982804D01*
X110106117Y-54945858D01*
X110099510Y-54922423D01*
X110088824Y-54906680D01*
X110078740Y-54897580D01*
X110036603Y-54877737D01*
X109986733Y-54874532D01*
X109958097Y-54881368D01*
X109929745Y-54905664D01*
X109910964Y-54952928D01*
X109901861Y-55022824D01*
X109900949Y-55059850D01*
X109762633Y-55059850D01*
X109762633Y-54747814D01*
X109831791Y-54747814D01*
G37*
X109831791Y-54747814D02*
X109873313Y-54749456D01*
X109894735Y-54755287D01*
X109900947Y-54766661D01*
X109900949Y-54766998D01*
X109903831Y-54778138D01*
X109916543Y-54776873D01*
X109941816Y-54764633D01*
X110000704Y-54745907D01*
X110066958Y-54743939D01*
X110129814Y-54758384D01*
X110156326Y-54771482D01*
X110189020Y-54794306D01*
X110212848Y-54819196D01*
X110229167Y-54850449D01*
X110239333Y-54892366D01*
X110244701Y-54949244D01*
X110246629Y-55025384D01*
X110246742Y-55058117D01*
X110246412Y-55129856D01*
X110245046Y-55181127D01*
X110242073Y-55216604D01*
X110236924Y-55240963D01*
X110229030Y-55258880D01*
X110220816Y-55271102D01*
X110168386Y-55323105D01*
X110106643Y-55354384D01*
X110040037Y-55363792D01*
X109973015Y-55350180D01*
X109951781Y-55340554D01*
X109900949Y-55314059D01*
X109900949Y-55729252D01*
X109938048Y-55710068D01*
X109986930Y-55695225D01*
X110047012Y-55691422D01*
X110107009Y-55698443D01*
X110152317Y-55714213D01*
X110189898Y-55744247D01*
X110222009Y-55787224D01*
X110224423Y-55791636D01*
X110234606Y-55812421D01*
X110242043Y-55833370D01*
X110247162Y-55858748D01*
X110250392Y-55892818D01*
X110252160Y-55939841D01*
X110252896Y-56004082D01*
X110253029Y-56076376D01*
X110253029Y-56307022D01*
X110114712Y-56307022D01*
X110114712Y-55881733D01*
X110076024Y-55849179D01*
X110035835Y-55823140D01*
X109997776Y-55818405D01*
X109959507Y-55830589D01*
X109939111Y-55842520D01*
X109923931Y-55859513D01*
X109913135Y-55885195D01*
X109905890Y-55923191D01*
X109901365Y-55977126D01*
X109898729Y-56050625D01*
X109897801Y-56099547D01*
X109894662Y-56300735D01*
X109828647Y-56304536D01*
X109762633Y-56308336D01*
X109762633Y-55059850D01*
X109900949Y-55059850D01*
X109904476Y-55129454D01*
X109916358Y-55177769D01*
X109938553Y-55207831D01*
X109973014Y-55222671D01*
X110007831Y-55225636D01*
X110047244Y-55222228D01*
X110073402Y-55208817D01*
X110089759Y-55191096D01*
X110102636Y-55172035D01*
X110110301Y-55150801D01*
X110113712Y-55121049D01*
X110113824Y-55076436D01*
X110112676Y-55039080D01*
X110110041Y-54982804D01*
X110106117Y-54945858D01*
X110099510Y-54922423D01*
X110088824Y-54906680D01*
X110078740Y-54897580D01*
X110036603Y-54877737D01*
X109986733Y-54874532D01*
X109958097Y-54881368D01*
X109929745Y-54905664D01*
X109910964Y-54952928D01*
X109901861Y-55022824D01*
X109900949Y-55059850D01*
X109762633Y-55059850D01*
X109762633Y-54747814D01*
X109831791Y-54747814D01*
G36*
X113838033Y-54747230D02*
G01*
X113881284Y-54760445D01*
X113909131Y-54777141D01*
X113918202Y-54790345D01*
X113915705Y-54805997D01*
X113899504Y-54830585D01*
X113885805Y-54848000D01*
X113857565Y-54879483D01*
X113836348Y-54892729D01*
X113818261Y-54891864D01*
X113764608Y-54878210D01*
X113725203Y-54878830D01*
X113693205Y-54894304D01*
X113682463Y-54903361D01*
X113648078Y-54935227D01*
X113648078Y-55351379D01*
X113509761Y-55351379D01*
X113509761Y-54747814D01*
X113578920Y-54747814D01*
X113620442Y-54749456D01*
X113641864Y-54755287D01*
X113648075Y-54766661D01*
X113648078Y-54766998D01*
X113651012Y-54778913D01*
X113664277Y-54777359D01*
X113682657Y-54768763D01*
X113720619Y-54752768D01*
X113751445Y-54743145D01*
X113791109Y-54740678D01*
X113838033Y-54747230D01*
G37*
X113838033Y-54747230D02*
X113881284Y-54760445D01*
X113909131Y-54777141D01*
X113918202Y-54790345D01*
X113915705Y-54805997D01*
X113899504Y-54830585D01*
X113885805Y-54848000D01*
X113857565Y-54879483D01*
X113836348Y-54892729D01*
X113818261Y-54891864D01*
X113764608Y-54878210D01*
X113725203Y-54878830D01*
X113693205Y-54894304D01*
X113682463Y-54903361D01*
X113648078Y-54935227D01*
X113648078Y-55351379D01*
X113509761Y-55351379D01*
X113509761Y-54747814D01*
X113578920Y-54747814D01*
X113620442Y-54749456D01*
X113641864Y-54755287D01*
X113648075Y-54766661D01*
X113648078Y-54766998D01*
X113651012Y-54778913D01*
X113664277Y-54777359D01*
X113682657Y-54768763D01*
X113720619Y-54752768D01*
X113751445Y-54743145D01*
X113791109Y-54740678D01*
X113838033Y-54747230D01*
G36*
X112775236Y-56024444D02*
G01*
X112806197Y-55985780D01*
X112824949Y-55969064D01*
X112843306Y-55958078D01*
X112867192Y-55951380D01*
X112902530Y-55947526D01*
X112955242Y-55945073D01*
X112976150Y-55944368D01*
X113107385Y-55940079D01*
X113107193Y-55900358D01*
X113102110Y-55858605D01*
X113083735Y-55833358D01*
X113046612Y-55817230D01*
X113045616Y-55816942D01*
X112992983Y-55810600D01*
X112941479Y-55818884D01*
X112903203Y-55839027D01*
X112887845Y-55848973D01*
X112871303Y-55847597D01*
X112845848Y-55833187D01*
X112830901Y-55823017D01*
X112801664Y-55801288D01*
X112783553Y-55785000D01*
X112780647Y-55780337D01*
X112792613Y-55756205D01*
X112827969Y-55727385D01*
X112843326Y-55717661D01*
X112887474Y-55700914D01*
X112946971Y-55691427D01*
X113013060Y-55689295D01*
X113076984Y-55694617D01*
X113129984Y-55707490D01*
X113145304Y-55714310D01*
X113175001Y-55732174D01*
X113197793Y-55752293D01*
X113214656Y-55778162D01*
X113226571Y-55813273D01*
X113234515Y-55861120D01*
X113239467Y-55925196D01*
X113242404Y-56008994D01*
X113243520Y-56064968D01*
X113247625Y-56307022D01*
X113177505Y-56307022D01*
X113134966Y-56305238D01*
X113113049Y-56299142D01*
X113107385Y-56288906D01*
X113104394Y-56277837D01*
X113091024Y-56279954D01*
X113072806Y-56288829D01*
X113027197Y-56302433D01*
X112968580Y-56306099D01*
X112906927Y-56300103D01*
X112852211Y-56284721D01*
X112847303Y-56282586D01*
X112797296Y-56247455D01*
X112764329Y-56198619D01*
X112749160Y-56141533D01*
X112750319Y-56121024D01*
X112874081Y-56121024D01*
X112884986Y-56148625D01*
X112917318Y-56168404D01*
X112969483Y-56179019D01*
X112997360Y-56180428D01*
X113043820Y-56176820D01*
X113074702Y-56162797D01*
X113082237Y-56156131D01*
X113102649Y-56119866D01*
X113107385Y-56086973D01*
X113107385Y-56042963D01*
X113046086Y-56042963D01*
X112974829Y-56046595D01*
X112924849Y-56058018D01*
X112893269Y-56078024D01*
X112886199Y-56086943D01*
X112874081Y-56121024D01*
X112750319Y-56121024D01*
X112752544Y-56081656D01*
X112775236Y-56024444D01*
G37*
X112775236Y-56024444D02*
X112806197Y-55985780D01*
X112824949Y-55969064D01*
X112843306Y-55958078D01*
X112867192Y-55951380D01*
X112902530Y-55947526D01*
X112955242Y-55945073D01*
X112976150Y-55944368D01*
X113107385Y-55940079D01*
X113107193Y-55900358D01*
X113102110Y-55858605D01*
X113083735Y-55833358D01*
X113046612Y-55817230D01*
X113045616Y-55816942D01*
X112992983Y-55810600D01*
X112941479Y-55818884D01*
X112903203Y-55839027D01*
X112887845Y-55848973D01*
X112871303Y-55847597D01*
X112845848Y-55833187D01*
X112830901Y-55823017D01*
X112801664Y-55801288D01*
X112783553Y-55785000D01*
X112780647Y-55780337D01*
X112792613Y-55756205D01*
X112827969Y-55727385D01*
X112843326Y-55717661D01*
X112887474Y-55700914D01*
X112946971Y-55691427D01*
X113013060Y-55689295D01*
X113076984Y-55694617D01*
X113129984Y-55707490D01*
X113145304Y-55714310D01*
X113175001Y-55732174D01*
X113197793Y-55752293D01*
X113214656Y-55778162D01*
X113226571Y-55813273D01*
X113234515Y-55861120D01*
X113239467Y-55925196D01*
X113242404Y-56008994D01*
X113243520Y-56064968D01*
X113247625Y-56307022D01*
X113177505Y-56307022D01*
X113134966Y-56305238D01*
X113113049Y-56299142D01*
X113107385Y-56288906D01*
X113104394Y-56277837D01*
X113091024Y-56279954D01*
X113072806Y-56288829D01*
X113027197Y-56302433D01*
X112968580Y-56306099D01*
X112906927Y-56300103D01*
X112852211Y-56284721D01*
X112847303Y-56282586D01*
X112797296Y-56247455D01*
X112764329Y-56198619D01*
X112749160Y-56141533D01*
X112750319Y-56121024D01*
X112874081Y-56121024D01*
X112884986Y-56148625D01*
X112917318Y-56168404D01*
X112969483Y-56179019D01*
X112997360Y-56180428D01*
X113043820Y-56176820D01*
X113074702Y-56162797D01*
X113082237Y-56156131D01*
X113102649Y-56119866D01*
X113107385Y-56086973D01*
X113107385Y-56042963D01*
X113046086Y-56042963D01*
X112974829Y-56046595D01*
X112924849Y-56058018D01*
X112893269Y-56078024D01*
X112886199Y-56086943D01*
X112874081Y-56121024D01*
X112750319Y-56121024D01*
X112752544Y-56081656D01*
X112775236Y-56024444D01*
G36*
X112052590Y-54745652D02*
G01*
X112100207Y-54754682D01*
X112149607Y-54773570D01*
X112154885Y-54775977D01*
X112192347Y-54795676D01*
X112218290Y-54813981D01*
X112226676Y-54825708D01*
X112218690Y-54844832D01*
X112199293Y-54873050D01*
X112190683Y-54883584D01*
X112155201Y-54925047D01*
X112109458Y-54898058D01*
X112065923Y-54880078D01*
X112015623Y-54870467D01*
X111967385Y-54869860D01*
X111930040Y-54878891D01*
X111921078Y-54884527D01*
X111904010Y-54910371D01*
X111901936Y-54940141D01*
X111914707Y-54963397D01*
X111922261Y-54967908D01*
X111944898Y-54973509D01*
X111984688Y-54980092D01*
X112033739Y-54986383D01*
X112042788Y-54987370D01*
X112121569Y-55000998D01*
X112178709Y-55024146D01*
X112216603Y-55058952D01*
X112237652Y-55107554D01*
X112244208Y-55166918D01*
X112235150Y-55234398D01*
X112205737Y-55287388D01*
X112155851Y-55325983D01*
X112085373Y-55350281D01*
X112007138Y-55359867D01*
X111943339Y-55359752D01*
X111891589Y-55351045D01*
X111856246Y-55339025D01*
X111811590Y-55318080D01*
X111770320Y-55293774D01*
X111755652Y-55283076D01*
X111717930Y-55252284D01*
X111763425Y-55206249D01*
X111808920Y-55160213D01*
X111860645Y-55194443D01*
X111912525Y-55220152D01*
X111967924Y-55233599D01*
X112021178Y-55235018D01*
X112066622Y-55224643D01*
X112098589Y-55202707D01*
X112108911Y-55184198D01*
X112107362Y-55154514D01*
X112081713Y-55131815D01*
X112032033Y-55116140D01*
X111977604Y-55108895D01*
X111893837Y-55095073D01*
X111831606Y-55068996D01*
X111790080Y-55029899D01*
X111768426Y-54977020D01*
X111765426Y-54914326D01*
X111780244Y-54848842D01*
X111814027Y-54799344D01*
X111867078Y-54765608D01*
X111939699Y-54747407D01*
X111993501Y-54743839D01*
X112052590Y-54745652D01*
G37*
X112052590Y-54745652D02*
X112100207Y-54754682D01*
X112149607Y-54773570D01*
X112154885Y-54775977D01*
X112192347Y-54795676D01*
X112218290Y-54813981D01*
X112226676Y-54825708D01*
X112218690Y-54844832D01*
X112199293Y-54873050D01*
X112190683Y-54883584D01*
X112155201Y-54925047D01*
X112109458Y-54898058D01*
X112065923Y-54880078D01*
X112015623Y-54870467D01*
X111967385Y-54869860D01*
X111930040Y-54878891D01*
X111921078Y-54884527D01*
X111904010Y-54910371D01*
X111901936Y-54940141D01*
X111914707Y-54963397D01*
X111922261Y-54967908D01*
X111944898Y-54973509D01*
X111984688Y-54980092D01*
X112033739Y-54986383D01*
X112042788Y-54987370D01*
X112121569Y-55000998D01*
X112178709Y-55024146D01*
X112216603Y-55058952D01*
X112237652Y-55107554D01*
X112244208Y-55166918D01*
X112235150Y-55234398D01*
X112205737Y-55287388D01*
X112155851Y-55325983D01*
X112085373Y-55350281D01*
X112007138Y-55359867D01*
X111943339Y-55359752D01*
X111891589Y-55351045D01*
X111856246Y-55339025D01*
X111811590Y-55318080D01*
X111770320Y-55293774D01*
X111755652Y-55283076D01*
X111717930Y-55252284D01*
X111763425Y-55206249D01*
X111808920Y-55160213D01*
X111860645Y-55194443D01*
X111912525Y-55220152D01*
X111967924Y-55233599D01*
X112021178Y-55235018D01*
X112066622Y-55224643D01*
X112098589Y-55202707D01*
X112108911Y-55184198D01*
X112107362Y-55154514D01*
X112081713Y-55131815D01*
X112032033Y-55116140D01*
X111977604Y-55108895D01*
X111893837Y-55095073D01*
X111831606Y-55068996D01*
X111790080Y-55029899D01*
X111768426Y-54977020D01*
X111765426Y-54914326D01*
X111780244Y-54848842D01*
X111814027Y-54799344D01*
X111867078Y-54765608D01*
X111939699Y-54747407D01*
X111993501Y-54743839D01*
X112052590Y-54745652D01*
G36*
X114255799Y-54753080D02*
G01*
X114328653Y-54784030D01*
X114351600Y-54799095D01*
X114380927Y-54822248D01*
X114399337Y-54840453D01*
X114402534Y-54846383D01*
X114393508Y-54859540D01*
X114370410Y-54881867D01*
X114351917Y-54897450D01*
X114301301Y-54938126D01*
X114261333Y-54904495D01*
X114230447Y-54882784D01*
X114200332Y-54875290D01*
X114165865Y-54877120D01*
X114111134Y-54890728D01*
X114073459Y-54918972D01*
X114050564Y-54964633D01*
X114040170Y-55030489D01*
X114040168Y-55030531D01*
X114041067Y-55104139D01*
X114055036Y-55158146D01*
X114082901Y-55194916D01*
X114101898Y-55207368D01*
X114152349Y-55222873D01*
X114206236Y-55222883D01*
X114253119Y-55207838D01*
X114264217Y-55200487D01*
X114292049Y-55181711D01*
X114313809Y-55178634D01*
X114337277Y-55192609D01*
X114363222Y-55217710D01*
X114404289Y-55260080D01*
X114358694Y-55297664D01*
X114288247Y-55340082D01*
X114208806Y-55360985D01*
X114125788Y-55359472D01*
X114071267Y-55345611D01*
X114007543Y-55311335D01*
X113956578Y-55257412D01*
X113933424Y-55219349D01*
X113914672Y-55164736D01*
X113905288Y-55095569D01*
X113905216Y-55020607D01*
X113914397Y-54948609D01*
X113932772Y-54888337D01*
X113935666Y-54882158D01*
X113978525Y-54821551D01*
X114036552Y-54777424D01*
X114105164Y-54750693D01*
X114179774Y-54742273D01*
X114255799Y-54753080D01*
G37*
X114255799Y-54753080D02*
X114328653Y-54784030D01*
X114351600Y-54799095D01*
X114380927Y-54822248D01*
X114399337Y-54840453D01*
X114402534Y-54846383D01*
X114393508Y-54859540D01*
X114370410Y-54881867D01*
X114351917Y-54897450D01*
X114301301Y-54938126D01*
X114261333Y-54904495D01*
X114230447Y-54882784D01*
X114200332Y-54875290D01*
X114165865Y-54877120D01*
X114111134Y-54890728D01*
X114073459Y-54918972D01*
X114050564Y-54964633D01*
X114040170Y-55030489D01*
X114040168Y-55030531D01*
X114041067Y-55104139D01*
X114055036Y-55158146D01*
X114082901Y-55194916D01*
X114101898Y-55207368D01*
X114152349Y-55222873D01*
X114206236Y-55222883D01*
X114253119Y-55207838D01*
X114264217Y-55200487D01*
X114292049Y-55181711D01*
X114313809Y-55178634D01*
X114337277Y-55192609D01*
X114363222Y-55217710D01*
X114404289Y-55260080D01*
X114358694Y-55297664D01*
X114288247Y-55340082D01*
X114208806Y-55360985D01*
X114125788Y-55359472D01*
X114071267Y-55345611D01*
X114007543Y-55311335D01*
X113956578Y-55257412D01*
X113933424Y-55219349D01*
X113914672Y-55164736D01*
X113905288Y-55095569D01*
X113905216Y-55020607D01*
X113914397Y-54948609D01*
X113932772Y-54888337D01*
X113935666Y-54882158D01*
X113978525Y-54821551D01*
X114036552Y-54777424D01*
X114105164Y-54750693D01*
X114179774Y-54742273D01*
X114255799Y-54753080D01*
G36*
X112415537Y-50579218D02*
G01*
X112472385Y-50880770D01*
X112891911Y-51053712D01*
X113143557Y-50882595D01*
X113214031Y-50834950D01*
X113277736Y-50792410D01*
X113331699Y-50756915D01*
X113372946Y-50730410D01*
X113398507Y-50714836D01*
X113405468Y-50711478D01*
X113418008Y-50720114D01*
X113444804Y-50743992D01*
X113482853Y-50780059D01*
X113529152Y-50825267D01*
X113580696Y-50876564D01*
X113634482Y-50930901D01*
X113687508Y-50985228D01*
X113736768Y-51036495D01*
X113779260Y-51081651D01*
X113811980Y-51117646D01*
X113831924Y-51141430D01*
X113836692Y-51149390D01*
X113829830Y-51164065D01*
X113810593Y-51196214D01*
X113781003Y-51242692D01*
X113743083Y-51300356D01*
X113698855Y-51366060D01*
X113673227Y-51403536D01*
X113626514Y-51471968D01*
X113585005Y-51533720D01*
X113550713Y-51585719D01*
X113525653Y-51624892D01*
X113511837Y-51648165D01*
X113509761Y-51653055D01*
X113514468Y-51666955D01*
X113527296Y-51699350D01*
X113546311Y-51745685D01*
X113569576Y-51801406D01*
X113595157Y-51861958D01*
X113621118Y-51922786D01*
X113645523Y-51979336D01*
X113666436Y-52027052D01*
X113681922Y-52061381D01*
X113690045Y-52077768D01*
X113690525Y-52078412D01*
X113703280Y-52081541D01*
X113737250Y-52088521D01*
X113788913Y-52098667D01*
X113854749Y-52111292D01*
X113931237Y-52125709D01*
X113975863Y-52134023D01*
X114057594Y-52149584D01*
X114131416Y-52164392D01*
X114193594Y-52177636D01*
X114240395Y-52188505D01*
X114268082Y-52196189D01*
X114273647Y-52198627D01*
X114279099Y-52215130D01*
X114283497Y-52252400D01*
X114286845Y-52306080D01*
X114289147Y-52371812D01*
X114290405Y-52445237D01*
X114290621Y-52521996D01*
X114289800Y-52597732D01*
X114287944Y-52668086D01*
X114285055Y-52728700D01*
X114281138Y-52775216D01*
X114276195Y-52803275D01*
X114273230Y-52809116D01*
X114255507Y-52816117D01*
X114217954Y-52826127D01*
X114165537Y-52837969D01*
X114103225Y-52850467D01*
X114081473Y-52854510D01*
X113976597Y-52873720D01*
X113893753Y-52889191D01*
X113830203Y-52901537D01*
X113783210Y-52911373D01*
X113750036Y-52919314D01*
X113727944Y-52925976D01*
X113714197Y-52931973D01*
X113706057Y-52937919D01*
X113704918Y-52939094D01*
X113693550Y-52958026D01*
X113676208Y-52994869D01*
X113654623Y-53045113D01*
X113630527Y-53104246D01*
X113605652Y-53167756D01*
X113581730Y-53231132D01*
X113560492Y-53289862D01*
X113543670Y-53339435D01*
X113532995Y-53375339D01*
X113530200Y-53393062D01*
X113530433Y-53393683D01*
X113539904Y-53408170D01*
X113561391Y-53440044D01*
X113592636Y-53485989D01*
X113631380Y-53542685D01*
X113675366Y-53606817D01*
X113687892Y-53625042D01*
X113732557Y-53691114D01*
X113771861Y-53751400D01*
X113803661Y-53802435D01*
X113825818Y-53840760D01*
X113836190Y-53862911D01*
X113836692Y-53865632D01*
X113827978Y-53879936D01*
X113803898Y-53908272D01*
X113767549Y-53947596D01*
X113722026Y-53994861D01*
X113670425Y-54047023D01*
X113615840Y-54101035D01*
X113561367Y-54153853D01*
X113510102Y-54202431D01*
X113465140Y-54243723D01*
X113429577Y-54274685D01*
X113406508Y-54292270D01*
X113400127Y-54295141D01*
X113385272Y-54288378D01*
X113354859Y-54270139D01*
X113313841Y-54243497D01*
X113282282Y-54222052D01*
X113225098Y-54182703D01*
X113157379Y-54136371D01*
X113089453Y-54090113D01*
X113052934Y-54065355D01*
X112929325Y-53981747D01*
X112825564Y-54037850D01*
X112778293Y-54062428D01*
X112738096Y-54081531D01*
X112710899Y-54092427D01*
X112703975Y-54093943D01*
X112695650Y-54082749D01*
X112679227Y-54051117D01*
X112655930Y-54001965D01*
X112626987Y-53938210D01*
X112593623Y-53862771D01*
X112557064Y-53778564D01*
X112518537Y-53688508D01*
X112479267Y-53595521D01*
X112440481Y-53502520D01*
X112403403Y-53412423D01*
X112369262Y-53328148D01*
X112339281Y-53252613D01*
X112314689Y-53188734D01*
X112296709Y-53139431D01*
X112286570Y-53107621D01*
X112284939Y-53096696D01*
X112297864Y-53082761D01*
X112326162Y-53060140D01*
X112363919Y-53033533D01*
X112367088Y-53031428D01*
X112464673Y-52953314D01*
X112543359Y-52862182D01*
X112602464Y-52760945D01*
X112641305Y-52652518D01*
X112659201Y-52539814D01*
X112655470Y-52425748D01*
X112629430Y-52313234D01*
X112580398Y-52205185D01*
X112565973Y-52181545D01*
X112490942Y-52086087D01*
X112402303Y-52009432D01*
X112303122Y-51951980D01*
X112196468Y-51914129D01*
X112085409Y-51896278D01*
X111973012Y-51898825D01*
X111862346Y-51922170D01*
X111756479Y-51966710D01*
X111658478Y-52032845D01*
X111628163Y-52059687D01*
X111551011Y-52143712D01*
X111494791Y-52232166D01*
X111456226Y-52331315D01*
X111434747Y-52429503D01*
X111429445Y-52539897D01*
X111447125Y-52650840D01*
X111485992Y-52758581D01*
X111544250Y-52859369D01*
X111620104Y-52949456D01*
X111711756Y-53025092D01*
X111723801Y-53033064D01*
X111761962Y-53059174D01*
X111790972Y-53081795D01*
X111804841Y-53096239D01*
X111805042Y-53096696D01*
X111802065Y-53112321D01*
X111790262Y-53147782D01*
X111770859Y-53200162D01*
X111745085Y-53266545D01*
X111714164Y-53344014D01*
X111679324Y-53429650D01*
X111641790Y-53520537D01*
X111602790Y-53613759D01*
X111563550Y-53706397D01*
X111525297Y-53795535D01*
X111489256Y-53878255D01*
X111456656Y-53951641D01*
X111428721Y-54012775D01*
X111406678Y-54058741D01*
X111391755Y-54086621D01*
X111385745Y-54093943D01*
X111367382Y-54088241D01*
X111333021Y-54072949D01*
X111288589Y-54050799D01*
X111264156Y-54037850D01*
X111160395Y-53981747D01*
X111036786Y-54065355D01*
X110973687Y-54108187D01*
X110904603Y-54155322D01*
X110839866Y-54199703D01*
X110807439Y-54222052D01*
X110761832Y-54252677D01*
X110723213Y-54276947D01*
X110696621Y-54291787D01*
X110687983Y-54294924D01*
X110675412Y-54286461D01*
X110647589Y-54262836D01*
X110607212Y-54226502D01*
X110556978Y-54179911D01*
X110499585Y-54125517D01*
X110463287Y-54090592D01*
X110399783Y-54028196D01*
X110344900Y-53972388D01*
X110300859Y-53925554D01*
X110269878Y-53890082D01*
X110254175Y-53868361D01*
X110252668Y-53863952D01*
X110259659Y-53847185D01*
X110278979Y-53813282D01*
X110308482Y-53765676D01*
X110346028Y-53707799D01*
X110389473Y-53643084D01*
X110401828Y-53625042D01*
X110446846Y-53559467D01*
X110487233Y-53500428D01*
X110520733Y-53451242D01*
X110545087Y-53415228D01*
X110558037Y-53395702D01*
X110559288Y-53393683D01*
X110557417Y-53378122D01*
X110547486Y-53343909D01*
X110531226Y-53295555D01*
X110510368Y-53237571D01*
X110486646Y-53174470D01*
X110461789Y-53110763D01*
X110437531Y-53050961D01*
X110415602Y-52999576D01*
X110397735Y-52961119D01*
X110385660Y-52940102D01*
X110384802Y-52939094D01*
X110377419Y-52933088D01*
X110364948Y-52927148D01*
X110344653Y-52920660D01*
X110313795Y-52913009D01*
X110269639Y-52903580D01*
X110209447Y-52891759D01*
X110130480Y-52876929D01*
X110030003Y-52858477D01*
X110008248Y-52854510D01*
X109943771Y-52842053D01*
X109887562Y-52829866D01*
X109844586Y-52819126D01*
X109819813Y-52811009D01*
X109816491Y-52809116D01*
X109811017Y-52792338D01*
X109806567Y-52754845D01*
X109803145Y-52700994D01*
X109800754Y-52635144D01*
X109799396Y-52561653D01*
X109799074Y-52484880D01*
X109799792Y-52409183D01*
X109801552Y-52338920D01*
X109804357Y-52278450D01*
X109808211Y-52232130D01*
X109813116Y-52204319D01*
X109816073Y-52198627D01*
X109832536Y-52192886D01*
X109870022Y-52183545D01*
X109924798Y-52171415D01*
X109993128Y-52157307D01*
X110071279Y-52142030D01*
X110113857Y-52134023D01*
X110194644Y-52118921D01*
X110266686Y-52105240D01*
X110326462Y-52093667D01*
X110370452Y-52084887D01*
X110395134Y-52079587D01*
X110399196Y-52078412D01*
X110406062Y-52065165D01*
X110420575Y-52033257D01*
X110440802Y-51987247D01*
X110464807Y-51931692D01*
X110490655Y-51871153D01*
X110516413Y-51810186D01*
X110540146Y-51753351D01*
X110559919Y-51705206D01*
X110573797Y-51670310D01*
X110579847Y-51653221D01*
X110579959Y-51652474D01*
X110573101Y-51638993D01*
X110553875Y-51607970D01*
X110524301Y-51562489D01*
X110486400Y-51505632D01*
X110442193Y-51440483D01*
X110416494Y-51403062D01*
X110369666Y-51334447D01*
X110328074Y-51272152D01*
X110293748Y-51219329D01*
X110268716Y-51179127D01*
X110255008Y-51154700D01*
X110253029Y-51149224D01*
X110261539Y-51136478D01*
X110285066Y-51109263D01*
X110320605Y-51070628D01*
X110365150Y-51023623D01*
X110415696Y-50971295D01*
X110469237Y-50916695D01*
X110522768Y-50862870D01*
X110573284Y-50812870D01*
X110617779Y-50769743D01*
X110653248Y-50736539D01*
X110676686Y-50716306D01*
X110684527Y-50711478D01*
X110697293Y-50718267D01*
X110727829Y-50737342D01*
X110773163Y-50766761D01*
X110830329Y-50804581D01*
X110896357Y-50848861D01*
X110946163Y-50882595D01*
X111197809Y-51053712D01*
X111407572Y-50967241D01*
X111617336Y-50880770D01*
X111674184Y-50579218D01*
X111731033Y-50277666D01*
X112358688Y-50277666D01*
X112415537Y-50579218D01*
G37*
X112415537Y-50579218D02*
X112472385Y-50880770D01*
X112891911Y-51053712D01*
X113143557Y-50882595D01*
X113214031Y-50834950D01*
X113277736Y-50792410D01*
X113331699Y-50756915D01*
X113372946Y-50730410D01*
X113398507Y-50714836D01*
X113405468Y-50711478D01*
X113418008Y-50720114D01*
X113444804Y-50743992D01*
X113482853Y-50780059D01*
X113529152Y-50825267D01*
X113580696Y-50876564D01*
X113634482Y-50930901D01*
X113687508Y-50985228D01*
X113736768Y-51036495D01*
X113779260Y-51081651D01*
X113811980Y-51117646D01*
X113831924Y-51141430D01*
X113836692Y-51149390D01*
X113829830Y-51164065D01*
X113810593Y-51196214D01*
X113781003Y-51242692D01*
X113743083Y-51300356D01*
X113698855Y-51366060D01*
X113673227Y-51403536D01*
X113626514Y-51471968D01*
X113585005Y-51533720D01*
X113550713Y-51585719D01*
X113525653Y-51624892D01*
X113511837Y-51648165D01*
X113509761Y-51653055D01*
X113514468Y-51666955D01*
X113527296Y-51699350D01*
X113546311Y-51745685D01*
X113569576Y-51801406D01*
X113595157Y-51861958D01*
X113621118Y-51922786D01*
X113645523Y-51979336D01*
X113666436Y-52027052D01*
X113681922Y-52061381D01*
X113690045Y-52077768D01*
X113690525Y-52078412D01*
X113703280Y-52081541D01*
X113737250Y-52088521D01*
X113788913Y-52098667D01*
X113854749Y-52111292D01*
X113931237Y-52125709D01*
X113975863Y-52134023D01*
X114057594Y-52149584D01*
X114131416Y-52164392D01*
X114193594Y-52177636D01*
X114240395Y-52188505D01*
X114268082Y-52196189D01*
X114273647Y-52198627D01*
X114279099Y-52215130D01*
X114283497Y-52252400D01*
X114286845Y-52306080D01*
X114289147Y-52371812D01*
X114290405Y-52445237D01*
X114290621Y-52521996D01*
X114289800Y-52597732D01*
X114287944Y-52668086D01*
X114285055Y-52728700D01*
X114281138Y-52775216D01*
X114276195Y-52803275D01*
X114273230Y-52809116D01*
X114255507Y-52816117D01*
X114217954Y-52826127D01*
X114165537Y-52837969D01*
X114103225Y-52850467D01*
X114081473Y-52854510D01*
X113976597Y-52873720D01*
X113893753Y-52889191D01*
X113830203Y-52901537D01*
X113783210Y-52911373D01*
X113750036Y-52919314D01*
X113727944Y-52925976D01*
X113714197Y-52931973D01*
X113706057Y-52937919D01*
X113704918Y-52939094D01*
X113693550Y-52958026D01*
X113676208Y-52994869D01*
X113654623Y-53045113D01*
X113630527Y-53104246D01*
X113605652Y-53167756D01*
X113581730Y-53231132D01*
X113560492Y-53289862D01*
X113543670Y-53339435D01*
X113532995Y-53375339D01*
X113530200Y-53393062D01*
X113530433Y-53393683D01*
X113539904Y-53408170D01*
X113561391Y-53440044D01*
X113592636Y-53485989D01*
X113631380Y-53542685D01*
X113675366Y-53606817D01*
X113687892Y-53625042D01*
X113732557Y-53691114D01*
X113771861Y-53751400D01*
X113803661Y-53802435D01*
X113825818Y-53840760D01*
X113836190Y-53862911D01*
X113836692Y-53865632D01*
X113827978Y-53879936D01*
X113803898Y-53908272D01*
X113767549Y-53947596D01*
X113722026Y-53994861D01*
X113670425Y-54047023D01*
X113615840Y-54101035D01*
X113561367Y-54153853D01*
X113510102Y-54202431D01*
X113465140Y-54243723D01*
X113429577Y-54274685D01*
X113406508Y-54292270D01*
X113400127Y-54295141D01*
X113385272Y-54288378D01*
X113354859Y-54270139D01*
X113313841Y-54243497D01*
X113282282Y-54222052D01*
X113225098Y-54182703D01*
X113157379Y-54136371D01*
X113089453Y-54090113D01*
X113052934Y-54065355D01*
X112929325Y-53981747D01*
X112825564Y-54037850D01*
X112778293Y-54062428D01*
X112738096Y-54081531D01*
X112710899Y-54092427D01*
X112703975Y-54093943D01*
X112695650Y-54082749D01*
X112679227Y-54051117D01*
X112655930Y-54001965D01*
X112626987Y-53938210D01*
X112593623Y-53862771D01*
X112557064Y-53778564D01*
X112518537Y-53688508D01*
X112479267Y-53595521D01*
X112440481Y-53502520D01*
X112403403Y-53412423D01*
X112369262Y-53328148D01*
X112339281Y-53252613D01*
X112314689Y-53188734D01*
X112296709Y-53139431D01*
X112286570Y-53107621D01*
X112284939Y-53096696D01*
X112297864Y-53082761D01*
X112326162Y-53060140D01*
X112363919Y-53033533D01*
X112367088Y-53031428D01*
X112464673Y-52953314D01*
X112543359Y-52862182D01*
X112602464Y-52760945D01*
X112641305Y-52652518D01*
X112659201Y-52539814D01*
X112655470Y-52425748D01*
X112629430Y-52313234D01*
X112580398Y-52205185D01*
X112565973Y-52181545D01*
X112490942Y-52086087D01*
X112402303Y-52009432D01*
X112303122Y-51951980D01*
X112196468Y-51914129D01*
X112085409Y-51896278D01*
X111973012Y-51898825D01*
X111862346Y-51922170D01*
X111756479Y-51966710D01*
X111658478Y-52032845D01*
X111628163Y-52059687D01*
X111551011Y-52143712D01*
X111494791Y-52232166D01*
X111456226Y-52331315D01*
X111434747Y-52429503D01*
X111429445Y-52539897D01*
X111447125Y-52650840D01*
X111485992Y-52758581D01*
X111544250Y-52859369D01*
X111620104Y-52949456D01*
X111711756Y-53025092D01*
X111723801Y-53033064D01*
X111761962Y-53059174D01*
X111790972Y-53081795D01*
X111804841Y-53096239D01*
X111805042Y-53096696D01*
X111802065Y-53112321D01*
X111790262Y-53147782D01*
X111770859Y-53200162D01*
X111745085Y-53266545D01*
X111714164Y-53344014D01*
X111679324Y-53429650D01*
X111641790Y-53520537D01*
X111602790Y-53613759D01*
X111563550Y-53706397D01*
X111525297Y-53795535D01*
X111489256Y-53878255D01*
X111456656Y-53951641D01*
X111428721Y-54012775D01*
X111406678Y-54058741D01*
X111391755Y-54086621D01*
X111385745Y-54093943D01*
X111367382Y-54088241D01*
X111333021Y-54072949D01*
X111288589Y-54050799D01*
X111264156Y-54037850D01*
X111160395Y-53981747D01*
X111036786Y-54065355D01*
X110973687Y-54108187D01*
X110904603Y-54155322D01*
X110839866Y-54199703D01*
X110807439Y-54222052D01*
X110761832Y-54252677D01*
X110723213Y-54276947D01*
X110696621Y-54291787D01*
X110687983Y-54294924D01*
X110675412Y-54286461D01*
X110647589Y-54262836D01*
X110607212Y-54226502D01*
X110556978Y-54179911D01*
X110499585Y-54125517D01*
X110463287Y-54090592D01*
X110399783Y-54028196D01*
X110344900Y-53972388D01*
X110300859Y-53925554D01*
X110269878Y-53890082D01*
X110254175Y-53868361D01*
X110252668Y-53863952D01*
X110259659Y-53847185D01*
X110278979Y-53813282D01*
X110308482Y-53765676D01*
X110346028Y-53707799D01*
X110389473Y-53643084D01*
X110401828Y-53625042D01*
X110446846Y-53559467D01*
X110487233Y-53500428D01*
X110520733Y-53451242D01*
X110545087Y-53415228D01*
X110558037Y-53395702D01*
X110559288Y-53393683D01*
X110557417Y-53378122D01*
X110547486Y-53343909D01*
X110531226Y-53295555D01*
X110510368Y-53237571D01*
X110486646Y-53174470D01*
X110461789Y-53110763D01*
X110437531Y-53050961D01*
X110415602Y-52999576D01*
X110397735Y-52961119D01*
X110385660Y-52940102D01*
X110384802Y-52939094D01*
X110377419Y-52933088D01*
X110364948Y-52927148D01*
X110344653Y-52920660D01*
X110313795Y-52913009D01*
X110269639Y-52903580D01*
X110209447Y-52891759D01*
X110130480Y-52876929D01*
X110030003Y-52858477D01*
X110008248Y-52854510D01*
X109943771Y-52842053D01*
X109887562Y-52829866D01*
X109844586Y-52819126D01*
X109819813Y-52811009D01*
X109816491Y-52809116D01*
X109811017Y-52792338D01*
X109806567Y-52754845D01*
X109803145Y-52700994D01*
X109800754Y-52635144D01*
X109799396Y-52561653D01*
X109799074Y-52484880D01*
X109799792Y-52409183D01*
X109801552Y-52338920D01*
X109804357Y-52278450D01*
X109808211Y-52232130D01*
X109813116Y-52204319D01*
X109816073Y-52198627D01*
X109832536Y-52192886D01*
X109870022Y-52183545D01*
X109924798Y-52171415D01*
X109993128Y-52157307D01*
X110071279Y-52142030D01*
X110113857Y-52134023D01*
X110194644Y-52118921D01*
X110266686Y-52105240D01*
X110326462Y-52093667D01*
X110370452Y-52084887D01*
X110395134Y-52079587D01*
X110399196Y-52078412D01*
X110406062Y-52065165D01*
X110420575Y-52033257D01*
X110440802Y-51987247D01*
X110464807Y-51931692D01*
X110490655Y-51871153D01*
X110516413Y-51810186D01*
X110540146Y-51753351D01*
X110559919Y-51705206D01*
X110573797Y-51670310D01*
X110579847Y-51653221D01*
X110579959Y-51652474D01*
X110573101Y-51638993D01*
X110553875Y-51607970D01*
X110524301Y-51562489D01*
X110486400Y-51505632D01*
X110442193Y-51440483D01*
X110416494Y-51403062D01*
X110369666Y-51334447D01*
X110328074Y-51272152D01*
X110293748Y-51219329D01*
X110268716Y-51179127D01*
X110255008Y-51154700D01*
X110253029Y-51149224D01*
X110261539Y-51136478D01*
X110285066Y-51109263D01*
X110320605Y-51070628D01*
X110365150Y-51023623D01*
X110415696Y-50971295D01*
X110469237Y-50916695D01*
X110522768Y-50862870D01*
X110573284Y-50812870D01*
X110617779Y-50769743D01*
X110653248Y-50736539D01*
X110676686Y-50716306D01*
X110684527Y-50711478D01*
X110697293Y-50718267D01*
X110727829Y-50737342D01*
X110773163Y-50766761D01*
X110830329Y-50804581D01*
X110896357Y-50848861D01*
X110946163Y-50882595D01*
X111197809Y-51053712D01*
X111407572Y-50967241D01*
X111617336Y-50880770D01*
X111674184Y-50579218D01*
X111731033Y-50277666D01*
X112358688Y-50277666D01*
X112415537Y-50579218D01*
G36*
X110357863Y-56013045D02*
G01*
X110401625Y-55970847D01*
X110407674Y-55967008D01*
X110433666Y-55954509D01*
X110465838Y-55946940D01*
X110510813Y-55943261D01*
X110564242Y-55942416D01*
X110680553Y-55942369D01*
X110680553Y-55893611D01*
X110675620Y-55855781D01*
X110663030Y-55830436D01*
X110661556Y-55829087D01*
X110633539Y-55818000D01*
X110591247Y-55813703D01*
X110544509Y-55815815D01*
X110503155Y-55823956D01*
X110478616Y-55836165D01*
X110465320Y-55845946D01*
X110451279Y-55847813D01*
X110431902Y-55839800D01*
X110402597Y-55819939D01*
X110358770Y-55786263D01*
X110354748Y-55783109D01*
X110356809Y-55771436D01*
X110374005Y-55752022D01*
X110400140Y-55730448D01*
X110429021Y-55712296D01*
X110438095Y-55708009D01*
X110471193Y-55699456D01*
X110519693Y-55693355D01*
X110573878Y-55690908D01*
X110576412Y-55690903D01*
X110654363Y-55695755D01*
X110713518Y-55711539D01*
X110758550Y-55740148D01*
X110790327Y-55777619D01*
X110800207Y-55793611D01*
X110807500Y-55810363D01*
X110812599Y-55831792D01*
X110815894Y-55861816D01*
X110817776Y-55904354D01*
X110818636Y-55963322D01*
X110818866Y-56042640D01*
X110818870Y-56063684D01*
X110818870Y-56307022D01*
X110758514Y-56307022D01*
X110720016Y-56304326D01*
X110691550Y-56297495D01*
X110684418Y-56293283D01*
X110664921Y-56286013D01*
X110645007Y-56293283D01*
X110612220Y-56302360D01*
X110564595Y-56306013D01*
X110511809Y-56304428D01*
X110463537Y-56297789D01*
X110435355Y-56289272D01*
X110380820Y-56254263D01*
X110346738Y-56205679D01*
X110331416Y-56141082D01*
X110331274Y-56139423D01*
X110332618Y-56110766D01*
X110454217Y-56110766D01*
X110464847Y-56143361D01*
X110482163Y-56161705D01*
X110516921Y-56175579D01*
X110562800Y-56181117D01*
X110609585Y-56178391D01*
X110647059Y-56167474D01*
X110657558Y-56160469D01*
X110675905Y-56128104D01*
X110680553Y-56091311D01*
X110680553Y-56042963D01*
X110610991Y-56042963D01*
X110544906Y-56048050D01*
X110494809Y-56062463D01*
X110463644Y-56084929D01*
X110454217Y-56110766D01*
X110332618Y-56110766D01*
X110334586Y-56068847D01*
X110357863Y-56013045D01*
G37*
X110357863Y-56013045D02*
X110401625Y-55970847D01*
X110407674Y-55967008D01*
X110433666Y-55954509D01*
X110465838Y-55946940D01*
X110510813Y-55943261D01*
X110564242Y-55942416D01*
X110680553Y-55942369D01*
X110680553Y-55893611D01*
X110675620Y-55855781D01*
X110663030Y-55830436D01*
X110661556Y-55829087D01*
X110633539Y-55818000D01*
X110591247Y-55813703D01*
X110544509Y-55815815D01*
X110503155Y-55823956D01*
X110478616Y-55836165D01*
X110465320Y-55845946D01*
X110451279Y-55847813D01*
X110431902Y-55839800D01*
X110402597Y-55819939D01*
X110358770Y-55786263D01*
X110354748Y-55783109D01*
X110356809Y-55771436D01*
X110374005Y-55752022D01*
X110400140Y-55730448D01*
X110429021Y-55712296D01*
X110438095Y-55708009D01*
X110471193Y-55699456D01*
X110519693Y-55693355D01*
X110573878Y-55690908D01*
X110576412Y-55690903D01*
X110654363Y-55695755D01*
X110713518Y-55711539D01*
X110758550Y-55740148D01*
X110790327Y-55777619D01*
X110800207Y-55793611D01*
X110807500Y-55810363D01*
X110812599Y-55831792D01*
X110815894Y-55861816D01*
X110817776Y-55904354D01*
X110818636Y-55963322D01*
X110818866Y-56042640D01*
X110818870Y-56063684D01*
X110818870Y-56307022D01*
X110758514Y-56307022D01*
X110720016Y-56304326D01*
X110691550Y-56297495D01*
X110684418Y-56293283D01*
X110664921Y-56286013D01*
X110645007Y-56293283D01*
X110612220Y-56302360D01*
X110564595Y-56306013D01*
X110511809Y-56304428D01*
X110463537Y-56297789D01*
X110435355Y-56289272D01*
X110380820Y-56254263D01*
X110346738Y-56205679D01*
X110331416Y-56141082D01*
X110331274Y-56139423D01*
X110332618Y-56110766D01*
X110454217Y-56110766D01*
X110464847Y-56143361D01*
X110482163Y-56161705D01*
X110516921Y-56175579D01*
X110562800Y-56181117D01*
X110609585Y-56178391D01*
X110647059Y-56167474D01*
X110657558Y-56160469D01*
X110675905Y-56128104D01*
X110680553Y-56091311D01*
X110680553Y-56042963D01*
X110610991Y-56042963D01*
X110544906Y-56048050D01*
X110494809Y-56062463D01*
X110463644Y-56084929D01*
X110454217Y-56110766D01*
X110332618Y-56110766D01*
X110334586Y-56068847D01*
X110357863Y-56013045D01*
G36*
X110372535Y-54849225D02*
G01*
X110404766Y-54809839D01*
X110464356Y-54767131D01*
X110534405Y-54744309D01*
X110608912Y-54742246D01*
X110681874Y-54761814D01*
X110694405Y-54767714D01*
X110737774Y-54799483D01*
X110778783Y-54845846D01*
X110809405Y-54896896D01*
X110818114Y-54920366D01*
X110826061Y-54962291D01*
X110830799Y-55012957D01*
X110831374Y-55033879D01*
X110831444Y-55099893D01*
X110451490Y-55099893D01*
X110459590Y-55134473D01*
X110479469Y-55175370D01*
X110514226Y-55210714D01*
X110555575Y-55233482D01*
X110581924Y-55238210D01*
X110617657Y-55232473D01*
X110660291Y-55218082D01*
X110674774Y-55211462D01*
X110728333Y-55184713D01*
X110774040Y-55219576D01*
X110800415Y-55243155D01*
X110814449Y-55262617D01*
X110815159Y-55268329D01*
X110802622Y-55282173D01*
X110775145Y-55303212D01*
X110750207Y-55319625D01*
X110682909Y-55349130D01*
X110607463Y-55362484D01*
X110532685Y-55359012D01*
X110473078Y-55340863D01*
X110411632Y-55301984D01*
X110367965Y-55250795D01*
X110340647Y-55184567D01*
X110328251Y-55100571D01*
X110327152Y-55062136D01*
X110331551Y-54974061D01*
X110332091Y-54971499D01*
X110457991Y-54971499D01*
X110461458Y-54979758D01*
X110475710Y-54984313D01*
X110505103Y-54986265D01*
X110553998Y-54986717D01*
X110572825Y-54986725D01*
X110630106Y-54986043D01*
X110666432Y-54983564D01*
X110685969Y-54978643D01*
X110692883Y-54970634D01*
X110693128Y-54968062D01*
X110685237Y-54947623D01*
X110665488Y-54918989D01*
X110656998Y-54908963D01*
X110625479Y-54880608D01*
X110592624Y-54869459D01*
X110574922Y-54868527D01*
X110527034Y-54880181D01*
X110486874Y-54911485D01*
X110461400Y-54956952D01*
X110460948Y-54958433D01*
X110457991Y-54971499D01*
X110332091Y-54971499D01*
X110346181Y-54904710D01*
X110372535Y-54849225D01*
G37*
X110372535Y-54849225D02*
X110404766Y-54809839D01*
X110464356Y-54767131D01*
X110534405Y-54744309D01*
X110608912Y-54742246D01*
X110681874Y-54761814D01*
X110694405Y-54767714D01*
X110737774Y-54799483D01*
X110778783Y-54845846D01*
X110809405Y-54896896D01*
X110818114Y-54920366D01*
X110826061Y-54962291D01*
X110830799Y-55012957D01*
X110831374Y-55033879D01*
X110831444Y-55099893D01*
X110451490Y-55099893D01*
X110459590Y-55134473D01*
X110479469Y-55175370D01*
X110514226Y-55210714D01*
X110555575Y-55233482D01*
X110581924Y-55238210D01*
X110617657Y-55232473D01*
X110660291Y-55218082D01*
X110674774Y-55211462D01*
X110728333Y-55184713D01*
X110774040Y-55219576D01*
X110800415Y-55243155D01*
X110814449Y-55262617D01*
X110815159Y-55268329D01*
X110802622Y-55282173D01*
X110775145Y-55303212D01*
X110750207Y-55319625D01*
X110682909Y-55349130D01*
X110607463Y-55362484D01*
X110532685Y-55359012D01*
X110473078Y-55340863D01*
X110411632Y-55301984D01*
X110367965Y-55250795D01*
X110340647Y-55184567D01*
X110328251Y-55100571D01*
X110327152Y-55062136D01*
X110331551Y-54974061D01*
X110332091Y-54971499D01*
X110457991Y-54971499D01*
X110461458Y-54979758D01*
X110475710Y-54984313D01*
X110505103Y-54986265D01*
X110553998Y-54986717D01*
X110572825Y-54986725D01*
X110630106Y-54986043D01*
X110666432Y-54983564D01*
X110685969Y-54978643D01*
X110692883Y-54970634D01*
X110693128Y-54968062D01*
X110685237Y-54947623D01*
X110665488Y-54918989D01*
X110656998Y-54908963D01*
X110625479Y-54880608D01*
X110592624Y-54869459D01*
X110574922Y-54868527D01*
X110527034Y-54880181D01*
X110486874Y-54911485D01*
X110461400Y-54956952D01*
X110460948Y-54958433D01*
X110457991Y-54971499D01*
X110332091Y-54971499D01*
X110346181Y-54904710D01*
X110372535Y-54849225D01*
G36*
X112320097Y-55693437D02*
G01*
X112369828Y-55697171D01*
X112499864Y-56086973D01*
X112520251Y-56017814D01*
X112532519Y-55975074D01*
X112548658Y-55917315D01*
X112566085Y-55853825D01*
X112575299Y-55819770D01*
X112609961Y-55690883D01*
X112752964Y-55690883D01*
X112710219Y-55826057D01*
X112689169Y-55892542D01*
X112663740Y-55972739D01*
X112637183Y-56056393D01*
X112613475Y-56130982D01*
X112559475Y-56300735D01*
X112501171Y-56304528D01*
X112442868Y-56308322D01*
X112411252Y-56203934D01*
X112391755Y-56139089D01*
X112370477Y-56067600D01*
X112351881Y-56004463D01*
X112351147Y-56001950D01*
X112337257Y-55959169D01*
X112325002Y-55929979D01*
X112316419Y-55918941D01*
X112314655Y-55920218D01*
X112308464Y-55937330D01*
X112296701Y-55973987D01*
X112280798Y-56025578D01*
X112262187Y-56087494D01*
X112252116Y-56121552D01*
X112197580Y-56307022D01*
X112081837Y-56307022D01*
X111989310Y-56014671D01*
X111963317Y-55932662D01*
X111939639Y-55858187D01*
X111919393Y-55794744D01*
X111903699Y-55745832D01*
X111893675Y-55714949D01*
X111890628Y-55705926D01*
X111893040Y-55696687D01*
X111911981Y-55692641D01*
X111951396Y-55693046D01*
X111957566Y-55693352D01*
X112030659Y-55697171D01*
X112078530Y-55873210D01*
X112096126Y-55937411D01*
X112111850Y-55993849D01*
X112124319Y-56037622D01*
X112132147Y-56063830D01*
X112133593Y-56068103D01*
X112139587Y-56063190D01*
X112151674Y-56037732D01*
X112168466Y-55995197D01*
X112188576Y-55939050D01*
X112205576Y-55888330D01*
X112270367Y-55689704D01*
X112320097Y-55693437D01*
G37*
X112320097Y-55693437D02*
X112369828Y-55697171D01*
X112499864Y-56086973D01*
X112520251Y-56017814D01*
X112532519Y-55975074D01*
X112548658Y-55917315D01*
X112566085Y-55853825D01*
X112575299Y-55819770D01*
X112609961Y-55690883D01*
X112752964Y-55690883D01*
X112710219Y-55826057D01*
X112689169Y-55892542D01*
X112663740Y-55972739D01*
X112637183Y-56056393D01*
X112613475Y-56130982D01*
X112559475Y-56300735D01*
X112501171Y-56304528D01*
X112442868Y-56308322D01*
X112411252Y-56203934D01*
X112391755Y-56139089D01*
X112370477Y-56067600D01*
X112351881Y-56004463D01*
X112351147Y-56001950D01*
X112337257Y-55959169D01*
X112325002Y-55929979D01*
X112316419Y-55918941D01*
X112314655Y-55920218D01*
X112308464Y-55937330D01*
X112296701Y-55973987D01*
X112280798Y-56025578D01*
X112262187Y-56087494D01*
X112252116Y-56121552D01*
X112197580Y-56307022D01*
X112081837Y-56307022D01*
X111989310Y-56014671D01*
X111963317Y-55932662D01*
X111939639Y-55858187D01*
X111919393Y-55794744D01*
X111903699Y-55745832D01*
X111893675Y-55714949D01*
X111890628Y-55705926D01*
X111893040Y-55696687D01*
X111911981Y-55692641D01*
X111951396Y-55693046D01*
X111957566Y-55693352D01*
X112030659Y-55697171D01*
X112078530Y-55873210D01*
X112096126Y-55937411D01*
X112111850Y-55993849D01*
X112124319Y-56037622D01*
X112132147Y-56063830D01*
X112133593Y-56068103D01*
X112139587Y-56063190D01*
X112151674Y-56037732D01*
X112168466Y-55995197D01*
X112188576Y-55939050D01*
X112205576Y-55888330D01*
X112270367Y-55689704D01*
X112320097Y-55693437D01*
G36*
X113802628Y-55820149D02*
G01*
X113839043Y-55760463D01*
X113890870Y-55719749D01*
X113958563Y-55697379D01*
X113995235Y-55693071D01*
X114071154Y-55694170D01*
X114131258Y-55709797D01*
X114181594Y-55742048D01*
X114205966Y-55766140D01*
X114245918Y-55823095D01*
X114268815Y-55889165D01*
X114276681Y-55970382D01*
X114276721Y-55976948D01*
X114276791Y-56042963D01*
X113896837Y-56042963D01*
X113904936Y-56077542D01*
X113919560Y-56108859D01*
X113945154Y-56141491D01*
X113950508Y-56146700D01*
X113996516Y-56174894D01*
X114048983Y-56179675D01*
X114109376Y-56161126D01*
X114119613Y-56156131D01*
X114151012Y-56140945D01*
X114172043Y-56132294D01*
X114175712Y-56131493D01*
X114188521Y-56139263D01*
X114212951Y-56158272D01*
X114225352Y-56168660D01*
X114251049Y-56192521D01*
X114259488Y-56208277D01*
X114253631Y-56222771D01*
X114250501Y-56226734D01*
X114229298Y-56244079D01*
X114194311Y-56265159D01*
X114169910Y-56277465D01*
X114100645Y-56299146D01*
X114023961Y-56306171D01*
X113951338Y-56297847D01*
X113930999Y-56291886D01*
X113868049Y-56258152D01*
X113821388Y-56206245D01*
X113790746Y-56135659D01*
X113775855Y-56045892D01*
X113774220Y-55998953D01*
X113778994Y-55930613D01*
X113899563Y-55930613D01*
X113911225Y-55935665D01*
X113942571Y-55939629D01*
X113988144Y-55941968D01*
X114019019Y-55942369D01*
X114074554Y-55941983D01*
X114109606Y-55940175D01*
X114128835Y-55935973D01*
X114136903Y-55928403D01*
X114138474Y-55917418D01*
X114127694Y-55883581D01*
X114100553Y-55850140D01*
X114064850Y-55824472D01*
X114029133Y-55813972D01*
X113980621Y-55823286D01*
X113938626Y-55850213D01*
X113909509Y-55889027D01*
X113899563Y-55930613D01*
X113778994Y-55930613D01*
X113781172Y-55899436D01*
X113802628Y-55820149D01*
G37*
X113802628Y-55820149D02*
X113839043Y-55760463D01*
X113890870Y-55719749D01*
X113958563Y-55697379D01*
X113995235Y-55693071D01*
X114071154Y-55694170D01*
X114131258Y-55709797D01*
X114181594Y-55742048D01*
X114205966Y-55766140D01*
X114245918Y-55823095D01*
X114268815Y-55889165D01*
X114276681Y-55970382D01*
X114276721Y-55976948D01*
X114276791Y-56042963D01*
X113896837Y-56042963D01*
X113904936Y-56077542D01*
X113919560Y-56108859D01*
X113945154Y-56141491D01*
X113950508Y-56146700D01*
X113996516Y-56174894D01*
X114048983Y-56179675D01*
X114109376Y-56161126D01*
X114119613Y-56156131D01*
X114151012Y-56140945D01*
X114172043Y-56132294D01*
X114175712Y-56131493D01*
X114188521Y-56139263D01*
X114212951Y-56158272D01*
X114225352Y-56168660D01*
X114251049Y-56192521D01*
X114259488Y-56208277D01*
X114253631Y-56222771D01*
X114250501Y-56226734D01*
X114229298Y-56244079D01*
X114194311Y-56265159D01*
X114169910Y-56277465D01*
X114100645Y-56299146D01*
X114023961Y-56306171D01*
X113951338Y-56297847D01*
X113930999Y-56291886D01*
X113868049Y-56258152D01*
X113821388Y-56206245D01*
X113790746Y-56135659D01*
X113775855Y-56045892D01*
X113774220Y-55998953D01*
X113778994Y-55930613D01*
X113899563Y-55930613D01*
X113911225Y-55935665D01*
X113942571Y-55939629D01*
X113988144Y-55941968D01*
X114019019Y-55942369D01*
X114074554Y-55941983D01*
X114109606Y-55940175D01*
X114128835Y-55935973D01*
X114136903Y-55928403D01*
X114138474Y-55917418D01*
X114127694Y-55883581D01*
X114100553Y-55850140D01*
X114064850Y-55824472D01*
X114029133Y-55813972D01*
X113980621Y-55823286D01*
X113938626Y-55850213D01*
X113909509Y-55889027D01*
X113899563Y-55930613D01*
X113778994Y-55930613D01*
X113781172Y-55899436D01*
X113802628Y-55820149D01*
G36*
X111284561Y-54758202D02*
G01*
X111315856Y-54773150D01*
X111346164Y-54794741D01*
X111369255Y-54819591D01*
X111386073Y-54851287D01*
X111397567Y-54893414D01*
X111404682Y-54949558D01*
X111408366Y-55023306D01*
X111409565Y-55118244D01*
X111409584Y-55128185D01*
X111409860Y-55351379D01*
X111271543Y-55351379D01*
X111271543Y-55145618D01*
X111271445Y-55069389D01*
X111270764Y-55014139D01*
X111268922Y-54975701D01*
X111265340Y-54949906D01*
X111259441Y-54932584D01*
X111250646Y-54919568D01*
X111238393Y-54906707D01*
X111195526Y-54879073D01*
X111148730Y-54873945D01*
X111104149Y-54891417D01*
X111088645Y-54904421D01*
X111077263Y-54916647D01*
X111069092Y-54929740D01*
X111063599Y-54947815D01*
X111060253Y-54974987D01*
X111058522Y-55015370D01*
X111057876Y-55073079D01*
X111057781Y-55143332D01*
X111057781Y-55351379D01*
X110919464Y-55351379D01*
X110919464Y-54747814D01*
X110988623Y-54747814D01*
X111030145Y-54749456D01*
X111051567Y-54755287D01*
X111057778Y-54766661D01*
X111057781Y-54766998D01*
X111060663Y-54778138D01*
X111073374Y-54776874D01*
X111098647Y-54764634D01*
X111155968Y-54746624D01*
X111221536Y-54744621D01*
X111284561Y-54758202D01*
G37*
X111284561Y-54758202D02*
X111315856Y-54773150D01*
X111346164Y-54794741D01*
X111369255Y-54819591D01*
X111386073Y-54851287D01*
X111397567Y-54893414D01*
X111404682Y-54949558D01*
X111408366Y-55023306D01*
X111409565Y-55118244D01*
X111409584Y-55128185D01*
X111409860Y-55351379D01*
X111271543Y-55351379D01*
X111271543Y-55145618D01*
X111271445Y-55069389D01*
X111270764Y-55014139D01*
X111268922Y-54975701D01*
X111265340Y-54949906D01*
X111259441Y-54932584D01*
X111250646Y-54919568D01*
X111238393Y-54906707D01*
X111195526Y-54879073D01*
X111148730Y-54873945D01*
X111104149Y-54891417D01*
X111088645Y-54904421D01*
X111077263Y-54916647D01*
X111069092Y-54929740D01*
X111063599Y-54947815D01*
X111060253Y-54974987D01*
X111058522Y-55015370D01*
X111057876Y-55073079D01*
X111057781Y-55143332D01*
X111057781Y-55351379D01*
X110919464Y-55351379D01*
X110919464Y-54747814D01*
X110988623Y-54747814D01*
X111030145Y-54749456D01*
X111051567Y-54755287D01*
X111057778Y-54766661D01*
X111057781Y-54766998D01*
X111060663Y-54778138D01*
X111073374Y-54776874D01*
X111098647Y-54764634D01*
X111155968Y-54746624D01*
X111221536Y-54744621D01*
X111284561Y-54758202D01*
D11*
X102831000Y-61088600D02*
X100546000Y-61088600D01*
X100546000Y-62558600D02*
X102831000Y-62558600D01*
X102831000Y-62558600D02*
X102831000Y-61088600D01*
X135819242Y-112008750D02*
X136293758Y-112008750D01*
X135819242Y-113053750D02*
X136293758Y-113053750D01*
X96406580Y-54561200D02*
X96125420Y-54561200D01*
X96406580Y-53541200D02*
X96125420Y-53541200D01*
%LPC*%
D13*
X136056500Y-121651000D03*
D14*
X136056500Y-119111000D03*
X136056500Y-116571000D03*
D15*
X129921000Y-124751250D03*
D16*
X129921000Y-122251250D03*
X129921000Y-119751250D03*
X129921000Y-117251250D03*
X129921000Y-114751250D03*
D17*
X108204250Y-81048750D03*
X109474250Y-81048750D03*
X110744250Y-81048750D03*
X112014250Y-81048750D03*
X113284250Y-81048750D03*
X114554250Y-81048750D03*
X115824250Y-81048750D03*
X117094250Y-81048750D03*
X118364250Y-81048750D03*
X118364250Y-71498750D03*
X117094250Y-71498750D03*
X115824250Y-71498750D03*
X114554250Y-71498750D03*
X113284250Y-71498750D03*
X112014250Y-71498750D03*
X110744250Y-71498750D03*
X109474250Y-71498750D03*
X108204250Y-71498750D03*
D18*
X137871200Y-78917800D03*
X137871200Y-80567800D03*
D19*
X93353000Y-100437500D03*
X93353000Y-95587500D03*
D20*
X90323000Y-95287500D03*
X90323000Y-100737500D03*
D21*
X90193000Y-107802500D03*
X92733000Y-107802500D03*
X95273000Y-107802500D03*
X97813000Y-107802500D03*
X100353000Y-107802500D03*
X102893000Y-107802500D03*
X105433000Y-107802500D03*
X107973000Y-107802500D03*
X110513000Y-107802500D03*
X113053000Y-107802500D03*
X115593000Y-107802500D03*
X118133000Y-107802500D03*
X120673000Y-107802500D03*
X123213000Y-107802500D03*
X125753000Y-107802500D03*
X128293000Y-107802500D03*
X130833000Y-107802500D03*
X133373000Y-107802500D03*
X135913000Y-107802500D03*
X138453000Y-107802500D03*
X138453000Y-88222500D03*
X135913000Y-88222500D03*
X133373000Y-88222500D03*
X130833000Y-88222500D03*
X128293000Y-88222500D03*
X125753000Y-88222500D03*
X123213000Y-88222500D03*
X120673000Y-88222500D03*
X118133000Y-88222500D03*
X115593000Y-88222500D03*
X113053000Y-88222500D03*
X110513000Y-88222500D03*
X107973000Y-88222500D03*
X105433000Y-88222500D03*
X102893000Y-88222500D03*
X100353000Y-88222500D03*
X97813000Y-88222500D03*
X95273000Y-88222500D03*
X92733000Y-88222500D03*
X90193000Y-88222500D03*
D14*
X119923000Y-97428400D03*
D13*
X119923000Y-94888400D03*
D14*
X119923000Y-92348400D03*
D22*
X105219000Y-63601600D03*
X103569000Y-63601600D03*
D23*
X105054400Y-114058200D03*
X105054400Y-112408200D03*
D13*
X98921000Y-121651000D03*
D14*
X98921000Y-119111000D03*
X98921000Y-116571000D03*
D13*
X93575000Y-75173750D03*
D14*
X93575000Y-72633750D03*
X93575000Y-70093750D03*
D13*
X104267000Y-121651000D03*
D14*
X104267000Y-119111000D03*
X104267000Y-116571000D03*
D18*
X137871200Y-82043000D03*
X137871200Y-83693000D03*
D22*
X94297000Y-79502000D03*
X92647000Y-79502000D03*
D13*
X135056500Y-83830400D03*
D14*
X135056500Y-81290400D03*
X135056500Y-78750400D03*
D24*
X91985800Y-54051200D03*
X93535800Y-54051200D03*
D25*
X101220000Y-58724800D03*
X104520000Y-58724800D03*
D26*
X137000000Y-53000000D03*
D27*
X112045500Y-58472000D03*
X112045500Y-64972000D03*
D28*
X135636000Y-60833000D03*
D29*
X130556000Y-60833000D03*
D26*
X137000000Y-127000000D03*
D30*
X105181500Y-61823600D03*
X103606500Y-61823600D03*
D26*
X103000000Y-53000000D03*
X103000000Y-127000000D03*
D31*
X93452100Y-124683200D03*
X93452100Y-125633200D03*
X93452100Y-126583200D03*
X95727100Y-126583200D03*
X95727100Y-125633200D03*
X95727100Y-124683200D03*
D23*
X103428800Y-114058200D03*
X103428800Y-112408200D03*
D22*
X94297000Y-77978000D03*
X92647000Y-77978000D03*
D28*
X125476000Y-60833000D03*
D29*
X120396000Y-60833000D03*
D15*
X124104400Y-81273750D03*
D16*
X124104400Y-78773750D03*
X124104400Y-76273750D03*
X124104400Y-73773750D03*
X124104400Y-71273750D03*
D22*
X102171000Y-63601600D03*
X100521000Y-63601600D03*
D13*
X130200400Y-75173750D03*
D14*
X130200400Y-72633750D03*
X130200400Y-70093750D03*
D32*
X96842500Y-56438000D03*
D33*
X94562500Y-62738000D03*
D32*
X92282500Y-56438000D03*
D34*
X97422200Y-124663200D03*
X99072200Y-124663200D03*
X135231500Y-114046000D03*
X136881500Y-114046000D03*
D35*
X125159000Y-114976250D03*
X123889000Y-114976250D03*
X122619000Y-114976250D03*
X121349000Y-114976250D03*
X120079000Y-114976250D03*
X118809000Y-114976250D03*
X117539000Y-114976250D03*
X116269000Y-114976250D03*
X114999000Y-114976250D03*
X114999000Y-124526250D03*
X116269000Y-124526250D03*
X117539000Y-124526250D03*
X118809000Y-124526250D03*
X120079000Y-124526250D03*
X121349000Y-124526250D03*
X122619000Y-124526250D03*
X123889000Y-124526250D03*
X125159000Y-124526250D03*
D13*
X93575000Y-121651000D03*
D14*
X93575000Y-119111000D03*
X93575000Y-116571000D03*
D36*
X99022200Y-126603200D03*
X97472200Y-126603200D03*
D15*
X101329000Y-81273750D03*
D16*
X101329000Y-78773750D03*
X101329000Y-76273750D03*
X101329000Y-73773750D03*
X101329000Y-71273750D03*
D15*
X109140000Y-124751250D03*
D16*
X109140000Y-122251250D03*
X109140000Y-119751250D03*
X109140000Y-117251250D03*
X109140000Y-114751250D03*
D30*
X102133500Y-61823600D03*
X100558500Y-61823600D03*
D34*
X135231500Y-112531250D03*
X136881500Y-112531250D03*
D36*
X97041000Y-54051200D03*
X95491000Y-54051200D03*
M02*
