G04 #@! TF.GenerationSoftware,KiCad,Pcbnew,6.0.7+dfsg-1build1*
G04 #@! TF.CreationDate,2023-03-30T21:09:48-07:00*
G04 #@! TF.ProjectId,moduleDriver,6d6f6475-6c65-4447-9269-7665722e6b69,rev?*
G04 #@! TF.SameCoordinates,Original*
G04 #@! TF.FileFunction,Legend,Bot*
G04 #@! TF.FilePolarity,Positive*
%FSLAX46Y46*%
G04 Gerber Fmt 4.6, Leading zero omitted, Abs format (unit mm)*
G04 Created by KiCad (PCBNEW 6.0.7+dfsg-1build1) date 2023-03-30 21:09:48*
%MOMM*%
%LPD*%
G01*
G04 APERTURE LIST*
G04 Aperture macros list*
%AMRoundRect*
0 Rectangle with rounded corners*
0 $1 Rounding radius*
0 $2 $3 $4 $5 $6 $7 $8 $9 X,Y pos of 4 corners*
0 Add a 4 corners polygon primitive as box body*
4,1,4,$2,$3,$4,$5,$6,$7,$8,$9,$2,$3,0*
0 Add four circle primitives for the rounded corners*
1,1,$1+$1,$2,$3*
1,1,$1+$1,$4,$5*
1,1,$1+$1,$6,$7*
1,1,$1+$1,$8,$9*
0 Add four rect primitives between the rounded corners*
20,1,$1+$1,$2,$3,$4,$5,0*
20,1,$1+$1,$4,$5,$6,$7,0*
20,1,$1+$1,$6,$7,$8,$9,0*
20,1,$1+$1,$8,$9,$2,$3,0*%
G04 Aperture macros list end*
%ADD10C,0.150000*%
%ADD11R,1.700000X1.700000*%
%ADD12O,1.700000X1.700000*%
%ADD13RoundRect,0.250000X0.725000X-0.600000X0.725000X0.600000X-0.725000X0.600000X-0.725000X-0.600000X0*%
%ADD14O,1.950000X1.700000*%
%ADD15O,1.500000X1.500000*%
%ADD16O,1.800000X1.800000*%
%ADD17C,3.200000*%
%ADD18R,2.500000X2.500000*%
%ADD19C,2.500000*%
G04 APERTURE END LIST*
D10*
X109142380Y-88976319D02*
X109142380Y-87876319D01*
X108880476Y-87876319D01*
X108723333Y-87928700D01*
X108618571Y-88033461D01*
X108566190Y-88138223D01*
X108513809Y-88347747D01*
X108513809Y-88504890D01*
X108566190Y-88714414D01*
X108618571Y-88819176D01*
X108723333Y-88923938D01*
X108880476Y-88976319D01*
X109142380Y-88976319D01*
X107623333Y-88923938D02*
X107728095Y-88976319D01*
X107937619Y-88976319D01*
X108042380Y-88923938D01*
X108094761Y-88819176D01*
X108094761Y-88400128D01*
X108042380Y-88295366D01*
X107937619Y-88242985D01*
X107728095Y-88242985D01*
X107623333Y-88295366D01*
X107570952Y-88400128D01*
X107570952Y-88504890D01*
X108094761Y-88609652D01*
X107151904Y-88923938D02*
X107047142Y-88976319D01*
X106837619Y-88976319D01*
X106732857Y-88923938D01*
X106680476Y-88819176D01*
X106680476Y-88766795D01*
X106732857Y-88662033D01*
X106837619Y-88609652D01*
X106994761Y-88609652D01*
X107099523Y-88557271D01*
X107151904Y-88452509D01*
X107151904Y-88400128D01*
X107099523Y-88295366D01*
X106994761Y-88242985D01*
X106837619Y-88242985D01*
X106732857Y-88295366D01*
X106209047Y-88976319D02*
X106209047Y-88242985D01*
X106209047Y-87876319D02*
X106261428Y-87928700D01*
X106209047Y-87981080D01*
X106156666Y-87928700D01*
X106209047Y-87876319D01*
X106209047Y-87981080D01*
X105213809Y-88242985D02*
X105213809Y-89133461D01*
X105266190Y-89238223D01*
X105318571Y-89290604D01*
X105423333Y-89342985D01*
X105580476Y-89342985D01*
X105685238Y-89290604D01*
X105213809Y-88923938D02*
X105318571Y-88976319D01*
X105528095Y-88976319D01*
X105632857Y-88923938D01*
X105685238Y-88871557D01*
X105737619Y-88766795D01*
X105737619Y-88452509D01*
X105685238Y-88347747D01*
X105632857Y-88295366D01*
X105528095Y-88242985D01*
X105318571Y-88242985D01*
X105213809Y-88295366D01*
X104690000Y-88242985D02*
X104690000Y-88976319D01*
X104690000Y-88347747D02*
X104637619Y-88295366D01*
X104532857Y-88242985D01*
X104375714Y-88242985D01*
X104270952Y-88295366D01*
X104218571Y-88400128D01*
X104218571Y-88976319D01*
X103275714Y-88923938D02*
X103380476Y-88976319D01*
X103590000Y-88976319D01*
X103694761Y-88923938D01*
X103747142Y-88819176D01*
X103747142Y-88400128D01*
X103694761Y-88295366D01*
X103590000Y-88242985D01*
X103380476Y-88242985D01*
X103275714Y-88295366D01*
X103223333Y-88400128D01*
X103223333Y-88504890D01*
X103747142Y-88609652D01*
X102280476Y-88976319D02*
X102280476Y-87876319D01*
X102280476Y-88923938D02*
X102385238Y-88976319D01*
X102594761Y-88976319D01*
X102699523Y-88923938D01*
X102751904Y-88871557D01*
X102804285Y-88766795D01*
X102804285Y-88452509D01*
X102751904Y-88347747D01*
X102699523Y-88295366D01*
X102594761Y-88242985D01*
X102385238Y-88242985D01*
X102280476Y-88295366D01*
X101075714Y-88242985D02*
X100656666Y-88242985D01*
X100918571Y-88976319D02*
X100918571Y-88033461D01*
X100866190Y-87928700D01*
X100761428Y-87876319D01*
X100656666Y-87876319D01*
X100132857Y-88976319D02*
X100237619Y-88923938D01*
X100290000Y-88871557D01*
X100342380Y-88766795D01*
X100342380Y-88452509D01*
X100290000Y-88347747D01*
X100237619Y-88295366D01*
X100132857Y-88242985D01*
X99975714Y-88242985D01*
X99870952Y-88295366D01*
X99818571Y-88347747D01*
X99766190Y-88452509D01*
X99766190Y-88766795D01*
X99818571Y-88871557D01*
X99870952Y-88923938D01*
X99975714Y-88976319D01*
X100132857Y-88976319D01*
X99294761Y-88976319D02*
X99294761Y-88242985D01*
X99294761Y-88452509D02*
X99242380Y-88347747D01*
X99190000Y-88295366D01*
X99085238Y-88242985D01*
X98980476Y-88242985D01*
X116004285Y-90747319D02*
X116004285Y-89647319D01*
X115532857Y-90747319D02*
X115532857Y-90171128D01*
X115585238Y-90066366D01*
X115690000Y-90013985D01*
X115847142Y-90013985D01*
X115951904Y-90066366D01*
X116004285Y-90118747D01*
X115166190Y-90013985D02*
X114747142Y-90013985D01*
X115009047Y-89647319D02*
X115009047Y-90590176D01*
X114956666Y-90694938D01*
X114851904Y-90747319D01*
X114747142Y-90747319D01*
X114537619Y-90013985D02*
X114118571Y-90013985D01*
X114380476Y-89647319D02*
X114380476Y-90590176D01*
X114328095Y-90694938D01*
X114223333Y-90747319D01*
X114118571Y-90747319D01*
X113751904Y-90013985D02*
X113751904Y-91113985D01*
X113751904Y-90066366D02*
X113647142Y-90013985D01*
X113437619Y-90013985D01*
X113332857Y-90066366D01*
X113280476Y-90118747D01*
X113228095Y-90223509D01*
X113228095Y-90537795D01*
X113280476Y-90642557D01*
X113332857Y-90694938D01*
X113437619Y-90747319D01*
X113647142Y-90747319D01*
X113751904Y-90694938D01*
X112809047Y-90694938D02*
X112704285Y-90747319D01*
X112494761Y-90747319D01*
X112389999Y-90694938D01*
X112337619Y-90590176D01*
X112337619Y-90537795D01*
X112389999Y-90433033D01*
X112494761Y-90380652D01*
X112651904Y-90380652D01*
X112756666Y-90328271D01*
X112809047Y-90223509D01*
X112809047Y-90171128D01*
X112756666Y-90066366D01*
X112651904Y-90013985D01*
X112494761Y-90013985D01*
X112389999Y-90066366D01*
X111866190Y-90642557D02*
X111813809Y-90694938D01*
X111866190Y-90747319D01*
X111918571Y-90694938D01*
X111866190Y-90642557D01*
X111866190Y-90747319D01*
X111866190Y-90066366D02*
X111813809Y-90118747D01*
X111866190Y-90171128D01*
X111918571Y-90118747D01*
X111866190Y-90066366D01*
X111866190Y-90171128D01*
X110556666Y-89594938D02*
X111499523Y-91009223D01*
X109404285Y-89594938D02*
X110347142Y-91009223D01*
X109142380Y-90013985D02*
X108932857Y-90747319D01*
X108723333Y-90223509D01*
X108513809Y-90747319D01*
X108304285Y-90013985D01*
X107990000Y-90013985D02*
X107780476Y-90747319D01*
X107570952Y-90223509D01*
X107361428Y-90747319D01*
X107151904Y-90013985D01*
X106837619Y-90013985D02*
X106628095Y-90747319D01*
X106418571Y-90223509D01*
X106209047Y-90747319D01*
X105999523Y-90013985D01*
X105580476Y-90642557D02*
X105528095Y-90694938D01*
X105580476Y-90747319D01*
X105632857Y-90694938D01*
X105580476Y-90642557D01*
X105580476Y-90747319D01*
X105056666Y-90013985D02*
X105056666Y-91113985D01*
X105056666Y-90066366D02*
X104951904Y-90013985D01*
X104742380Y-90013985D01*
X104637619Y-90066366D01*
X104585238Y-90118747D01*
X104532857Y-90223509D01*
X104532857Y-90537795D01*
X104585238Y-90642557D01*
X104637619Y-90694938D01*
X104742380Y-90747319D01*
X104951904Y-90747319D01*
X105056666Y-90694938D01*
X104061428Y-90747319D02*
X104061428Y-90013985D01*
X104061428Y-90223509D02*
X104009047Y-90118747D01*
X103956666Y-90066366D01*
X103851904Y-90013985D01*
X103747142Y-90013985D01*
X103380476Y-90747319D02*
X103380476Y-90013985D01*
X103380476Y-89647319D02*
X103432857Y-89699700D01*
X103380476Y-89752080D01*
X103328095Y-89699700D01*
X103380476Y-89647319D01*
X103380476Y-89752080D01*
X102856666Y-90013985D02*
X102856666Y-90747319D01*
X102856666Y-90118747D02*
X102804285Y-90066366D01*
X102699523Y-90013985D01*
X102542380Y-90013985D01*
X102437619Y-90066366D01*
X102385238Y-90171128D01*
X102385238Y-90747319D01*
X102018571Y-90013985D02*
X101599523Y-90013985D01*
X101861428Y-89647319D02*
X101861428Y-90590176D01*
X101809047Y-90694938D01*
X101704285Y-90747319D01*
X101599523Y-90747319D01*
X100761428Y-90747319D02*
X100761428Y-90171128D01*
X100813809Y-90066366D01*
X100918571Y-90013985D01*
X101128095Y-90013985D01*
X101232857Y-90066366D01*
X100761428Y-90694938D02*
X100866190Y-90747319D01*
X101128095Y-90747319D01*
X101232857Y-90694938D01*
X101285238Y-90590176D01*
X101285238Y-90485414D01*
X101232857Y-90380652D01*
X101128095Y-90328271D01*
X100866190Y-90328271D01*
X100761428Y-90275890D01*
X100237619Y-90747319D02*
X100237619Y-89647319D01*
X100237619Y-90066366D02*
X100132857Y-90013985D01*
X99923333Y-90013985D01*
X99818571Y-90066366D01*
X99766190Y-90118747D01*
X99713809Y-90223509D01*
X99713809Y-90537795D01*
X99766190Y-90642557D01*
X99818571Y-90694938D01*
X99923333Y-90747319D01*
X100132857Y-90747319D01*
X100237619Y-90694938D01*
X99085238Y-90747319D02*
X99190000Y-90694938D01*
X99242380Y-90590176D01*
X99242380Y-89647319D01*
X98247142Y-90694938D02*
X98351904Y-90747319D01*
X98561428Y-90747319D01*
X98666190Y-90694938D01*
X98718571Y-90590176D01*
X98718571Y-90171128D01*
X98666190Y-90066366D01*
X98561428Y-90013985D01*
X98351904Y-90013985D01*
X98247142Y-90066366D01*
X98194761Y-90171128D01*
X98194761Y-90275890D01*
X98718571Y-90380652D01*
X97775714Y-90694938D02*
X97670952Y-90747319D01*
X97461428Y-90747319D01*
X97356666Y-90694938D01*
X97304285Y-90590176D01*
X97304285Y-90537795D01*
X97356666Y-90433033D01*
X97461428Y-90380652D01*
X97618571Y-90380652D01*
X97723333Y-90328271D01*
X97775714Y-90223509D01*
X97775714Y-90171128D01*
X97723333Y-90066366D01*
X97618571Y-90013985D01*
X97461428Y-90013985D01*
X97356666Y-90066366D01*
X96832857Y-90642557D02*
X96780476Y-90694938D01*
X96832857Y-90747319D01*
X96885238Y-90694938D01*
X96832857Y-90642557D01*
X96832857Y-90747319D01*
X95837619Y-90694938D02*
X95942380Y-90747319D01*
X96151904Y-90747319D01*
X96256666Y-90694938D01*
X96309047Y-90642557D01*
X96361428Y-90537795D01*
X96361428Y-90223509D01*
X96309047Y-90118747D01*
X96256666Y-90066366D01*
X96151904Y-90013985D01*
X95942380Y-90013985D01*
X95837619Y-90066366D01*
X95209047Y-90747319D02*
X95313809Y-90694938D01*
X95366190Y-90642557D01*
X95418571Y-90537795D01*
X95418571Y-90223509D01*
X95366190Y-90118747D01*
X95313809Y-90066366D01*
X95209047Y-90013985D01*
X95051904Y-90013985D01*
X94947142Y-90066366D01*
X94894761Y-90118747D01*
X94842380Y-90223509D01*
X94842380Y-90537795D01*
X94894761Y-90642557D01*
X94947142Y-90694938D01*
X95051904Y-90747319D01*
X95209047Y-90747319D01*
X94370952Y-90747319D02*
X94370952Y-90013985D01*
X94370952Y-90118747D02*
X94318571Y-90066366D01*
X94213809Y-90013985D01*
X94056666Y-90013985D01*
X93951904Y-90066366D01*
X93899523Y-90171128D01*
X93899523Y-90747319D01*
X93899523Y-90171128D02*
X93847142Y-90066366D01*
X93742380Y-90013985D01*
X93585238Y-90013985D01*
X93480476Y-90066366D01*
X93428095Y-90171128D01*
X93428095Y-90747319D01*
X92118571Y-89594938D02*
X93061428Y-91009223D01*
X117916190Y-92518319D02*
X117916190Y-91784985D01*
X117916190Y-91889747D02*
X117863809Y-91837366D01*
X117759047Y-91784985D01*
X117601904Y-91784985D01*
X117497142Y-91837366D01*
X117444761Y-91942128D01*
X117444761Y-92518319D01*
X117444761Y-91942128D02*
X117392380Y-91837366D01*
X117287619Y-91784985D01*
X117130476Y-91784985D01*
X117025714Y-91837366D01*
X116973333Y-91942128D01*
X116973333Y-92518319D01*
X116292380Y-92518319D02*
X116397142Y-92465938D01*
X116449523Y-92413557D01*
X116501904Y-92308795D01*
X116501904Y-91994509D01*
X116449523Y-91889747D01*
X116397142Y-91837366D01*
X116292380Y-91784985D01*
X116135238Y-91784985D01*
X116030476Y-91837366D01*
X115978095Y-91889747D01*
X115925714Y-91994509D01*
X115925714Y-92308795D01*
X115978095Y-92413557D01*
X116030476Y-92465938D01*
X116135238Y-92518319D01*
X116292380Y-92518319D01*
X114982857Y-92518319D02*
X114982857Y-91418319D01*
X114982857Y-92465938D02*
X115087619Y-92518319D01*
X115297142Y-92518319D01*
X115401904Y-92465938D01*
X115454285Y-92413557D01*
X115506666Y-92308795D01*
X115506666Y-91994509D01*
X115454285Y-91889747D01*
X115401904Y-91837366D01*
X115297142Y-91784985D01*
X115087619Y-91784985D01*
X114982857Y-91837366D01*
X114040000Y-92465938D02*
X114144761Y-92518319D01*
X114354285Y-92518319D01*
X114459047Y-92465938D01*
X114511428Y-92361176D01*
X114511428Y-91942128D01*
X114459047Y-91837366D01*
X114354285Y-91784985D01*
X114144761Y-91784985D01*
X114040000Y-91837366D01*
X113987619Y-91942128D01*
X113987619Y-92046890D01*
X114511428Y-92151652D01*
X113359047Y-92518319D02*
X113463809Y-92465938D01*
X113516190Y-92361176D01*
X113516190Y-91418319D01*
X112154285Y-91365938D02*
X113097142Y-92780223D01*
X111316190Y-91418319D02*
X111525714Y-91418319D01*
X111630476Y-91470700D01*
X111682857Y-91523080D01*
X111787619Y-91680223D01*
X111840000Y-91889747D01*
X111840000Y-92308795D01*
X111787619Y-92413557D01*
X111735238Y-92465938D01*
X111630476Y-92518319D01*
X111420952Y-92518319D01*
X111316190Y-92465938D01*
X111263809Y-92413557D01*
X111211428Y-92308795D01*
X111211428Y-92046890D01*
X111263809Y-91942128D01*
X111316190Y-91889747D01*
X111420952Y-91837366D01*
X111630476Y-91837366D01*
X111735238Y-91889747D01*
X111787619Y-91942128D01*
X111840000Y-92046890D01*
X110687619Y-92518319D02*
X110478095Y-92518319D01*
X110373333Y-92465938D01*
X110320952Y-92413557D01*
X110216190Y-92256414D01*
X110163809Y-92046890D01*
X110163809Y-91627842D01*
X110216190Y-91523080D01*
X110268571Y-91470700D01*
X110373333Y-91418319D01*
X110582857Y-91418319D01*
X110687619Y-91470700D01*
X110740000Y-91523080D01*
X110792380Y-91627842D01*
X110792380Y-91889747D01*
X110740000Y-91994509D01*
X110687619Y-92046890D01*
X110582857Y-92099271D01*
X110373333Y-92099271D01*
X110268571Y-92046890D01*
X110216190Y-91994509D01*
X110163809Y-91889747D01*
X109220952Y-91784985D02*
X109220952Y-92518319D01*
X109482857Y-91365938D02*
X109744761Y-92151652D01*
X109063809Y-92151652D01*
X108173333Y-91418319D02*
X108382857Y-91418319D01*
X108487619Y-91470700D01*
X108540000Y-91523080D01*
X108644761Y-91680223D01*
X108697142Y-91889747D01*
X108697142Y-92308795D01*
X108644761Y-92413557D01*
X108592380Y-92465938D01*
X108487619Y-92518319D01*
X108278095Y-92518319D01*
X108173333Y-92465938D01*
X108120952Y-92413557D01*
X108068571Y-92308795D01*
X108068571Y-92046890D01*
X108120952Y-91942128D01*
X108173333Y-91889747D01*
X108278095Y-91837366D01*
X108487619Y-91837366D01*
X108592380Y-91889747D01*
X108644761Y-91942128D01*
X108697142Y-92046890D01*
X107125714Y-91784985D02*
X107125714Y-92518319D01*
X107387619Y-91365938D02*
X107649523Y-92151652D01*
X106968571Y-92151652D01*
X106549523Y-92099271D02*
X105711428Y-92099271D01*
X105240000Y-92465938D02*
X105135238Y-92518319D01*
X104925714Y-92518319D01*
X104820952Y-92465938D01*
X104768571Y-92361176D01*
X104768571Y-92308795D01*
X104820952Y-92204033D01*
X104925714Y-92151652D01*
X105082857Y-92151652D01*
X105187619Y-92099271D01*
X105240000Y-91994509D01*
X105240000Y-91942128D01*
X105187619Y-91837366D01*
X105082857Y-91784985D01*
X104925714Y-91784985D01*
X104820952Y-91837366D01*
X104297142Y-91784985D02*
X104297142Y-92884985D01*
X104297142Y-91837366D02*
X104192380Y-91784985D01*
X103982857Y-91784985D01*
X103878095Y-91837366D01*
X103825714Y-91889747D01*
X103773333Y-91994509D01*
X103773333Y-92308795D01*
X103825714Y-92413557D01*
X103878095Y-92465938D01*
X103982857Y-92518319D01*
X104192380Y-92518319D01*
X104297142Y-92465938D01*
X103144761Y-92518319D02*
X103249523Y-92465938D01*
X103301904Y-92361176D01*
X103301904Y-91418319D01*
X102725714Y-92518319D02*
X102725714Y-91784985D01*
X102725714Y-91418319D02*
X102778095Y-91470700D01*
X102725714Y-91523080D01*
X102673333Y-91470700D01*
X102725714Y-91418319D01*
X102725714Y-91523080D01*
X102359047Y-91784985D02*
X101940000Y-91784985D01*
X102201904Y-91418319D02*
X102201904Y-92361176D01*
X102149523Y-92465938D01*
X102044761Y-92518319D01*
X101940000Y-92518319D01*
X101573333Y-92099271D02*
X100735238Y-92099271D01*
X100368571Y-91784985D02*
X99949523Y-91784985D01*
X100211428Y-92518319D02*
X100211428Y-91575461D01*
X100159047Y-91470700D01*
X100054285Y-91418319D01*
X99949523Y-91418319D01*
X99425714Y-92518319D02*
X99530476Y-92465938D01*
X99582857Y-92361176D01*
X99582857Y-91418319D01*
X98535238Y-92518319D02*
X98535238Y-91942128D01*
X98587619Y-91837366D01*
X98692380Y-91784985D01*
X98901904Y-91784985D01*
X99006666Y-91837366D01*
X98535238Y-92465938D02*
X98640000Y-92518319D01*
X98901904Y-92518319D01*
X99006666Y-92465938D01*
X99059047Y-92361176D01*
X99059047Y-92256414D01*
X99006666Y-92151652D01*
X98901904Y-92099271D01*
X98640000Y-92099271D01*
X98535238Y-92046890D01*
X98011428Y-91784985D02*
X98011428Y-92884985D01*
X98011428Y-91837366D02*
X97906666Y-91784985D01*
X97697142Y-91784985D01*
X97592380Y-91837366D01*
X97540000Y-91889747D01*
X97487619Y-91994509D01*
X97487619Y-92308795D01*
X97540000Y-92413557D01*
X97592380Y-92465938D01*
X97697142Y-92518319D01*
X97906666Y-92518319D01*
X98011428Y-92465938D01*
X97016190Y-92099271D02*
X96178095Y-92099271D01*
X95182857Y-92518319D02*
X95182857Y-91418319D01*
X95182857Y-92465938D02*
X95287619Y-92518319D01*
X95497142Y-92518319D01*
X95601904Y-92465938D01*
X95654285Y-92413557D01*
X95706666Y-92308795D01*
X95706666Y-91994509D01*
X95654285Y-91889747D01*
X95601904Y-91837366D01*
X95497142Y-91784985D01*
X95287619Y-91784985D01*
X95182857Y-91837366D01*
X94659047Y-92518319D02*
X94659047Y-91784985D01*
X94659047Y-91418319D02*
X94711428Y-91470700D01*
X94659047Y-91523080D01*
X94606666Y-91470700D01*
X94659047Y-91418319D01*
X94659047Y-91523080D01*
X94187619Y-92465938D02*
X94082857Y-92518319D01*
X93873333Y-92518319D01*
X93768571Y-92465938D01*
X93716190Y-92361176D01*
X93716190Y-92308795D01*
X93768571Y-92204033D01*
X93873333Y-92151652D01*
X94030476Y-92151652D01*
X94135238Y-92099271D01*
X94187619Y-91994509D01*
X94187619Y-91942128D01*
X94135238Y-91837366D01*
X94030476Y-91784985D01*
X93873333Y-91784985D01*
X93768571Y-91837366D01*
X93244761Y-91784985D02*
X93244761Y-92884985D01*
X93244761Y-91837366D02*
X93140000Y-91784985D01*
X92930476Y-91784985D01*
X92825714Y-91837366D01*
X92773333Y-91889747D01*
X92720952Y-91994509D01*
X92720952Y-92308795D01*
X92773333Y-92413557D01*
X92825714Y-92465938D01*
X92930476Y-92518319D01*
X93140000Y-92518319D01*
X93244761Y-92465938D01*
X92092380Y-92518319D02*
X92197142Y-92465938D01*
X92249523Y-92361176D01*
X92249523Y-91418319D01*
X91201904Y-92518319D02*
X91201904Y-91942128D01*
X91254285Y-91837366D01*
X91359047Y-91784985D01*
X91568571Y-91784985D01*
X91673333Y-91837366D01*
X91201904Y-92465938D02*
X91306666Y-92518319D01*
X91568571Y-92518319D01*
X91673333Y-92465938D01*
X91725714Y-92361176D01*
X91725714Y-92256414D01*
X91673333Y-92151652D01*
X91568571Y-92099271D01*
X91306666Y-92099271D01*
X91201904Y-92046890D01*
X90782857Y-91784985D02*
X90520952Y-92518319D01*
X90259047Y-91784985D02*
X90520952Y-92518319D01*
X90625714Y-92780223D01*
X90678095Y-92832604D01*
X90782857Y-92884985D01*
X111840000Y-94289319D02*
X111840000Y-93189319D01*
X111840000Y-93608366D02*
X111735238Y-93555985D01*
X111525714Y-93555985D01*
X111420952Y-93608366D01*
X111368571Y-93660747D01*
X111316190Y-93765509D01*
X111316190Y-94079795D01*
X111368571Y-94184557D01*
X111420952Y-94236938D01*
X111525714Y-94289319D01*
X111735238Y-94289319D01*
X111840000Y-94236938D01*
X110949523Y-93555985D02*
X110687619Y-94289319D01*
X110425714Y-93555985D02*
X110687619Y-94289319D01*
X110792380Y-94551223D01*
X110844761Y-94603604D01*
X110949523Y-94655985D01*
X109168571Y-94289319D02*
X109168571Y-93189319D01*
X108906666Y-93189319D01*
X108749523Y-93241700D01*
X108644761Y-93346461D01*
X108592380Y-93451223D01*
X108540000Y-93660747D01*
X108540000Y-93817890D01*
X108592380Y-94027414D01*
X108644761Y-94132176D01*
X108749523Y-94236938D01*
X108906666Y-94289319D01*
X109168571Y-94289319D01*
X107597142Y-94289319D02*
X107597142Y-93713128D01*
X107649523Y-93608366D01*
X107754285Y-93555985D01*
X107963809Y-93555985D01*
X108068571Y-93608366D01*
X107597142Y-94236938D02*
X107701904Y-94289319D01*
X107963809Y-94289319D01*
X108068571Y-94236938D01*
X108120952Y-94132176D01*
X108120952Y-94027414D01*
X108068571Y-93922652D01*
X107963809Y-93870271D01*
X107701904Y-93870271D01*
X107597142Y-93817890D01*
X107178095Y-93555985D02*
X106916190Y-94289319D01*
X106654285Y-93555985D01*
X106235238Y-94289319D02*
X106235238Y-93555985D01*
X106235238Y-93189319D02*
X106287619Y-93241700D01*
X106235238Y-93294080D01*
X106182857Y-93241700D01*
X106235238Y-93189319D01*
X106235238Y-93294080D01*
X105240000Y-94289319D02*
X105240000Y-93189319D01*
X105240000Y-94236938D02*
X105344761Y-94289319D01*
X105554285Y-94289319D01*
X105659047Y-94236938D01*
X105711428Y-94184557D01*
X105763809Y-94079795D01*
X105763809Y-93765509D01*
X105711428Y-93660747D01*
X105659047Y-93608366D01*
X105554285Y-93555985D01*
X105344761Y-93555985D01*
X105240000Y-93608366D01*
X103878095Y-94289319D02*
X103878095Y-93189319D01*
X103249523Y-94289319D02*
X103720952Y-93660747D01*
X103249523Y-93189319D02*
X103878095Y-93817890D01*
X102778095Y-94289319D02*
X102778095Y-93555985D01*
X102778095Y-93189319D02*
X102830476Y-93241700D01*
X102778095Y-93294080D01*
X102725714Y-93241700D01*
X102778095Y-93189319D01*
X102778095Y-93294080D01*
X102254285Y-93555985D02*
X102254285Y-94289319D01*
X102254285Y-93660747D02*
X102201904Y-93608366D01*
X102097142Y-93555985D01*
X101940000Y-93555985D01*
X101835238Y-93608366D01*
X101782857Y-93713128D01*
X101782857Y-94289319D01*
X100787619Y-93555985D02*
X100787619Y-94446461D01*
X100840000Y-94551223D01*
X100892380Y-94603604D01*
X100997142Y-94655985D01*
X101154285Y-94655985D01*
X101259047Y-94603604D01*
X100787619Y-94236938D02*
X100892380Y-94289319D01*
X101101904Y-94289319D01*
X101206666Y-94236938D01*
X101259047Y-94184557D01*
X101311428Y-94079795D01*
X101311428Y-93765509D01*
X101259047Y-93660747D01*
X101206666Y-93608366D01*
X101101904Y-93555985D01*
X100892380Y-93555985D01*
X100787619Y-93608366D01*
X100316190Y-94236938D02*
X100211428Y-94289319D01*
X100001904Y-94289319D01*
X99897142Y-94236938D01*
X99844761Y-94132176D01*
X99844761Y-94079795D01*
X99897142Y-93975033D01*
X100001904Y-93922652D01*
X100159047Y-93922652D01*
X100263809Y-93870271D01*
X100316190Y-93765509D01*
X100316190Y-93713128D01*
X100263809Y-93608366D01*
X100159047Y-93555985D01*
X100001904Y-93555985D01*
X99897142Y-93608366D01*
X99373333Y-94289319D02*
X99373333Y-93555985D01*
X99373333Y-93660747D02*
X99320952Y-93608366D01*
X99216190Y-93555985D01*
X99059047Y-93555985D01*
X98954285Y-93608366D01*
X98901904Y-93713128D01*
X98901904Y-94289319D01*
X98901904Y-93713128D02*
X98849523Y-93608366D01*
X98744761Y-93555985D01*
X98587619Y-93555985D01*
X98482857Y-93608366D01*
X98430476Y-93713128D01*
X98430476Y-94289319D01*
X97435238Y-94289319D02*
X97435238Y-93713128D01*
X97487619Y-93608366D01*
X97592380Y-93555985D01*
X97801904Y-93555985D01*
X97906666Y-93608366D01*
X97435238Y-94236938D02*
X97540000Y-94289319D01*
X97801904Y-94289319D01*
X97906666Y-94236938D01*
X97959047Y-94132176D01*
X97959047Y-94027414D01*
X97906666Y-93922652D01*
X97801904Y-93870271D01*
X97540000Y-93870271D01*
X97435238Y-93817890D01*
X96911428Y-93555985D02*
X96911428Y-94289319D01*
X96911428Y-93660747D02*
X96859047Y-93608366D01*
X96754285Y-93555985D01*
X96597142Y-93555985D01*
X96492380Y-93608366D01*
X96440000Y-93713128D01*
X96440000Y-94289319D01*
G36*
X115942000Y-122386400D02*
G01*
X115542000Y-122386400D01*
X115542000Y-122786400D01*
X115942000Y-122786400D01*
X115942000Y-122386400D01*
G37*
G36*
X115142000Y-114786400D02*
G01*
X114742000Y-114786400D01*
X114742000Y-115186400D01*
X115142000Y-115186400D01*
X115142000Y-114786400D01*
G37*
G36*
X113942000Y-115586400D02*
G01*
X113542000Y-115586400D01*
X113542000Y-115986400D01*
X113942000Y-115986400D01*
X113942000Y-115586400D01*
G37*
G36*
X115542000Y-114786400D02*
G01*
X115142000Y-114786400D01*
X115142000Y-115186400D01*
X115542000Y-115186400D01*
X115542000Y-114786400D01*
G37*
G36*
X123142000Y-117186400D02*
G01*
X122742000Y-117186400D01*
X122742000Y-117586400D01*
X123142000Y-117586400D01*
X123142000Y-117186400D01*
G37*
G36*
X124742000Y-123586400D02*
G01*
X124342000Y-123586400D01*
X124342000Y-123986400D01*
X124742000Y-123986400D01*
X124742000Y-123586400D01*
G37*
G36*
X114742000Y-125186400D02*
G01*
X114342000Y-125186400D01*
X114342000Y-125586400D01*
X114742000Y-125586400D01*
X114742000Y-125186400D01*
G37*
G36*
X119942000Y-117586400D02*
G01*
X119542000Y-117586400D01*
X119542000Y-117986400D01*
X119942000Y-117986400D01*
X119942000Y-117586400D01*
G37*
G36*
X114742000Y-120386400D02*
G01*
X114342000Y-120386400D01*
X114342000Y-120786400D01*
X114742000Y-120786400D01*
X114742000Y-120386400D01*
G37*
G36*
X124342000Y-117186400D02*
G01*
X123942000Y-117186400D01*
X123942000Y-117586400D01*
X124342000Y-117586400D01*
X124342000Y-117186400D01*
G37*
G36*
X119942000Y-122786400D02*
G01*
X119542000Y-122786400D01*
X119542000Y-123186400D01*
X119942000Y-123186400D01*
X119942000Y-122786400D01*
G37*
G36*
X117942000Y-122386400D02*
G01*
X117542000Y-122386400D01*
X117542000Y-122786400D01*
X117942000Y-122786400D01*
X117942000Y-122386400D01*
G37*
G36*
X116342000Y-123586400D02*
G01*
X115942000Y-123586400D01*
X115942000Y-123986400D01*
X116342000Y-123986400D01*
X116342000Y-123586400D01*
G37*
G36*
X124342000Y-124786400D02*
G01*
X123942000Y-124786400D01*
X123942000Y-125186400D01*
X124342000Y-125186400D01*
X124342000Y-124786400D01*
G37*
G36*
X114742000Y-123586400D02*
G01*
X114342000Y-123586400D01*
X114342000Y-123986400D01*
X114742000Y-123986400D01*
X114742000Y-123586400D01*
G37*
G36*
X115942000Y-124386400D02*
G01*
X115542000Y-124386400D01*
X115542000Y-124786400D01*
X115942000Y-124786400D01*
X115942000Y-124386400D01*
G37*
G36*
X122342000Y-121186400D02*
G01*
X121942000Y-121186400D01*
X121942000Y-121586400D01*
X122342000Y-121586400D01*
X122342000Y-121186400D01*
G37*
G36*
X123142000Y-113586400D02*
G01*
X122742000Y-113586400D01*
X122742000Y-113986400D01*
X123142000Y-113986400D01*
X123142000Y-113586400D01*
G37*
G36*
X120342000Y-117186400D02*
G01*
X119942000Y-117186400D01*
X119942000Y-117586400D01*
X120342000Y-117586400D01*
X120342000Y-117186400D01*
G37*
G36*
X125142000Y-116386400D02*
G01*
X124742000Y-116386400D01*
X124742000Y-116786400D01*
X125142000Y-116786400D01*
X125142000Y-116386400D01*
G37*
G36*
X123942000Y-118786400D02*
G01*
X123542000Y-118786400D01*
X123542000Y-119186400D01*
X123942000Y-119186400D01*
X123942000Y-118786400D01*
G37*
G36*
X125942000Y-114386400D02*
G01*
X125542000Y-114386400D01*
X125542000Y-114786400D01*
X125942000Y-114786400D01*
X125942000Y-114386400D01*
G37*
G36*
X115542000Y-118786400D02*
G01*
X115142000Y-118786400D01*
X115142000Y-119186400D01*
X115542000Y-119186400D01*
X115542000Y-118786400D01*
G37*
G36*
X121942000Y-121986400D02*
G01*
X121542000Y-121986400D01*
X121542000Y-122386400D01*
X121942000Y-122386400D01*
X121942000Y-121986400D01*
G37*
G36*
X124342000Y-123986400D02*
G01*
X123942000Y-123986400D01*
X123942000Y-124386400D01*
X124342000Y-124386400D01*
X124342000Y-123986400D01*
G37*
G36*
X114342000Y-118786400D02*
G01*
X113942000Y-118786400D01*
X113942000Y-119186400D01*
X114342000Y-119186400D01*
X114342000Y-118786400D01*
G37*
G36*
X122342000Y-119586400D02*
G01*
X121942000Y-119586400D01*
X121942000Y-119986400D01*
X122342000Y-119986400D01*
X122342000Y-119586400D01*
G37*
G36*
X115142000Y-117986400D02*
G01*
X114742000Y-117986400D01*
X114742000Y-118386400D01*
X115142000Y-118386400D01*
X115142000Y-117986400D01*
G37*
G36*
X115542000Y-123586400D02*
G01*
X115142000Y-123586400D01*
X115142000Y-123986400D01*
X115542000Y-123986400D01*
X115542000Y-123586400D01*
G37*
G36*
X125942000Y-124786400D02*
G01*
X125542000Y-124786400D01*
X125542000Y-125186400D01*
X125942000Y-125186400D01*
X125942000Y-124786400D01*
G37*
G36*
X115942000Y-113186400D02*
G01*
X115542000Y-113186400D01*
X115542000Y-113586400D01*
X115942000Y-113586400D01*
X115942000Y-113186400D01*
G37*
G36*
X122342000Y-114386400D02*
G01*
X121942000Y-114386400D01*
X121942000Y-114786400D01*
X122342000Y-114786400D01*
X122342000Y-114386400D01*
G37*
G36*
X125542000Y-117186400D02*
G01*
X125142000Y-117186400D01*
X125142000Y-117586400D01*
X125542000Y-117586400D01*
X125542000Y-117186400D01*
G37*
G36*
X117942000Y-125186400D02*
G01*
X117542000Y-125186400D01*
X117542000Y-125586400D01*
X117942000Y-125586400D01*
X117942000Y-125186400D01*
G37*
G36*
X115942000Y-119986400D02*
G01*
X115542000Y-119986400D01*
X115542000Y-120386400D01*
X115942000Y-120386400D01*
X115942000Y-119986400D01*
G37*
G36*
X118342000Y-113986400D02*
G01*
X117942000Y-113986400D01*
X117942000Y-114386400D01*
X118342000Y-114386400D01*
X118342000Y-113986400D01*
G37*
G36*
X121542000Y-116386400D02*
G01*
X121142000Y-116386400D01*
X121142000Y-116786400D01*
X121542000Y-116786400D01*
X121542000Y-116386400D01*
G37*
G36*
X118342000Y-114386400D02*
G01*
X117942000Y-114386400D01*
X117942000Y-114786400D01*
X118342000Y-114786400D01*
X118342000Y-114386400D01*
G37*
G36*
X117542000Y-113186400D02*
G01*
X117142000Y-113186400D01*
X117142000Y-113586400D01*
X117542000Y-113586400D01*
X117542000Y-113186400D01*
G37*
G36*
X119942000Y-119586400D02*
G01*
X119542000Y-119586400D01*
X119542000Y-119986400D01*
X119942000Y-119986400D01*
X119942000Y-119586400D01*
G37*
G36*
X126342000Y-123586400D02*
G01*
X125942000Y-123586400D01*
X125942000Y-123986400D01*
X126342000Y-123986400D01*
X126342000Y-123586400D01*
G37*
G36*
X126742000Y-116386400D02*
G01*
X126342000Y-116386400D01*
X126342000Y-116786400D01*
X126742000Y-116786400D01*
X126742000Y-116386400D01*
G37*
G36*
X121542000Y-118386400D02*
G01*
X121142000Y-118386400D01*
X121142000Y-118786400D01*
X121542000Y-118786400D01*
X121542000Y-118386400D01*
G37*
G36*
X126742000Y-125586400D02*
G01*
X126342000Y-125586400D01*
X126342000Y-125986400D01*
X126742000Y-125986400D01*
X126742000Y-125586400D01*
G37*
G36*
X121942000Y-123986400D02*
G01*
X121542000Y-123986400D01*
X121542000Y-124386400D01*
X121942000Y-124386400D01*
X121942000Y-123986400D01*
G37*
G36*
X123542000Y-125186400D02*
G01*
X123142000Y-125186400D01*
X123142000Y-125586400D01*
X123542000Y-125586400D01*
X123542000Y-125186400D01*
G37*
G36*
X118342000Y-120386400D02*
G01*
X117942000Y-120386400D01*
X117942000Y-120786400D01*
X118342000Y-120786400D01*
X118342000Y-120386400D01*
G37*
G36*
X126742000Y-113586400D02*
G01*
X126342000Y-113586400D01*
X126342000Y-113986400D01*
X126742000Y-113986400D01*
X126742000Y-113586400D01*
G37*
G36*
X115142000Y-118386400D02*
G01*
X114742000Y-118386400D01*
X114742000Y-118786400D01*
X115142000Y-118786400D01*
X115142000Y-118386400D01*
G37*
G36*
X123142000Y-123986400D02*
G01*
X122742000Y-123986400D01*
X122742000Y-124386400D01*
X123142000Y-124386400D01*
X123142000Y-123986400D01*
G37*
G36*
X122342000Y-123986400D02*
G01*
X121942000Y-123986400D01*
X121942000Y-124386400D01*
X122342000Y-124386400D01*
X122342000Y-123986400D01*
G37*
G36*
X117542000Y-115986400D02*
G01*
X117142000Y-115986400D01*
X117142000Y-116386400D01*
X117542000Y-116386400D01*
X117542000Y-115986400D01*
G37*
G36*
X118342000Y-117986400D02*
G01*
X117942000Y-117986400D01*
X117942000Y-118386400D01*
X118342000Y-118386400D01*
X118342000Y-117986400D01*
G37*
G36*
X125142000Y-113986400D02*
G01*
X124742000Y-113986400D01*
X124742000Y-114386400D01*
X125142000Y-114386400D01*
X125142000Y-113986400D01*
G37*
G36*
X123542000Y-115586400D02*
G01*
X123142000Y-115586400D01*
X123142000Y-115986400D01*
X123542000Y-115986400D01*
X123542000Y-115586400D01*
G37*
G36*
X126342000Y-119586400D02*
G01*
X125942000Y-119586400D01*
X125942000Y-119986400D01*
X126342000Y-119986400D01*
X126342000Y-119586400D01*
G37*
G36*
X116742000Y-121186400D02*
G01*
X116342000Y-121186400D01*
X116342000Y-121586400D01*
X116742000Y-121586400D01*
X116742000Y-121186400D01*
G37*
G36*
X115542000Y-113986400D02*
G01*
X115142000Y-113986400D01*
X115142000Y-114386400D01*
X115542000Y-114386400D01*
X115542000Y-113986400D01*
G37*
G36*
X122342000Y-115986400D02*
G01*
X121942000Y-115986400D01*
X121942000Y-116386400D01*
X122342000Y-116386400D01*
X122342000Y-115986400D01*
G37*
G36*
X115142000Y-121186400D02*
G01*
X114742000Y-121186400D01*
X114742000Y-121586400D01*
X115142000Y-121586400D01*
X115142000Y-121186400D01*
G37*
G36*
X122742000Y-121986400D02*
G01*
X122342000Y-121986400D01*
X122342000Y-122386400D01*
X122742000Y-122386400D01*
X122742000Y-121986400D01*
G37*
G36*
X122742000Y-119986400D02*
G01*
X122342000Y-119986400D01*
X122342000Y-120386400D01*
X122742000Y-120386400D01*
X122742000Y-119986400D01*
G37*
G36*
X122342000Y-113586400D02*
G01*
X121942000Y-113586400D01*
X121942000Y-113986400D01*
X122342000Y-113986400D01*
X122342000Y-113586400D01*
G37*
G36*
X124342000Y-125586400D02*
G01*
X123942000Y-125586400D01*
X123942000Y-125986400D01*
X124342000Y-125986400D01*
X124342000Y-125586400D01*
G37*
G36*
X124342000Y-113586400D02*
G01*
X123942000Y-113586400D01*
X123942000Y-113986400D01*
X124342000Y-113986400D01*
X124342000Y-113586400D01*
G37*
G36*
X122742000Y-122786400D02*
G01*
X122342000Y-122786400D01*
X122342000Y-123186400D01*
X122742000Y-123186400D01*
X122742000Y-122786400D01*
G37*
G36*
X113942000Y-113586400D02*
G01*
X113542000Y-113586400D01*
X113542000Y-113986400D01*
X113942000Y-113986400D01*
X113942000Y-113586400D01*
G37*
G36*
X121942000Y-118386400D02*
G01*
X121542000Y-118386400D01*
X121542000Y-118786400D01*
X121942000Y-118786400D01*
X121942000Y-118386400D01*
G37*
G36*
X125542000Y-125186400D02*
G01*
X125142000Y-125186400D01*
X125142000Y-125586400D01*
X125542000Y-125586400D01*
X125542000Y-125186400D01*
G37*
G36*
X113942000Y-121586400D02*
G01*
X113542000Y-121586400D01*
X113542000Y-121986400D01*
X113942000Y-121986400D01*
X113942000Y-121586400D01*
G37*
G36*
X117142000Y-117186400D02*
G01*
X116742000Y-117186400D01*
X116742000Y-117586400D01*
X117142000Y-117586400D01*
X117142000Y-117186400D01*
G37*
G36*
X123542000Y-114386400D02*
G01*
X123142000Y-114386400D01*
X123142000Y-114786400D01*
X123542000Y-114786400D01*
X123542000Y-114386400D01*
G37*
G36*
X122342000Y-116786400D02*
G01*
X121942000Y-116786400D01*
X121942000Y-117186400D01*
X122342000Y-117186400D01*
X122342000Y-116786400D01*
G37*
G36*
X123142000Y-120786400D02*
G01*
X122742000Y-120786400D01*
X122742000Y-121186400D01*
X123142000Y-121186400D01*
X123142000Y-120786400D01*
G37*
G36*
X119542000Y-115186400D02*
G01*
X119142000Y-115186400D01*
X119142000Y-115586400D01*
X119542000Y-115586400D01*
X119542000Y-115186400D01*
G37*
G36*
X126742000Y-114386400D02*
G01*
X126342000Y-114386400D01*
X126342000Y-114786400D01*
X126742000Y-114786400D01*
X126742000Y-114386400D01*
G37*
G36*
X118742000Y-119586400D02*
G01*
X118342000Y-119586400D01*
X118342000Y-119986400D01*
X118742000Y-119986400D01*
X118742000Y-119586400D01*
G37*
G36*
X122742000Y-120786400D02*
G01*
X122342000Y-120786400D01*
X122342000Y-121186400D01*
X122742000Y-121186400D01*
X122742000Y-120786400D01*
G37*
G36*
X125142000Y-119586400D02*
G01*
X124742000Y-119586400D01*
X124742000Y-119986400D01*
X125142000Y-119986400D01*
X125142000Y-119586400D01*
G37*
G36*
X115542000Y-123186400D02*
G01*
X115142000Y-123186400D01*
X115142000Y-123586400D01*
X115542000Y-123586400D01*
X115542000Y-123186400D01*
G37*
G36*
X116342000Y-113986400D02*
G01*
X115942000Y-113986400D01*
X115942000Y-114386400D01*
X116342000Y-114386400D01*
X116342000Y-113986400D01*
G37*
G36*
X120342000Y-123586400D02*
G01*
X119942000Y-123586400D01*
X119942000Y-123986400D01*
X120342000Y-123986400D01*
X120342000Y-123586400D01*
G37*
G36*
X119942000Y-116386400D02*
G01*
X119542000Y-116386400D01*
X119542000Y-116786400D01*
X119942000Y-116786400D01*
X119942000Y-116386400D01*
G37*
G36*
X114742000Y-125586400D02*
G01*
X114342000Y-125586400D01*
X114342000Y-125986400D01*
X114742000Y-125986400D01*
X114742000Y-125586400D01*
G37*
G36*
X114742000Y-119186400D02*
G01*
X114342000Y-119186400D01*
X114342000Y-119586400D01*
X114742000Y-119586400D01*
X114742000Y-119186400D01*
G37*
G36*
X118342000Y-119186400D02*
G01*
X117942000Y-119186400D01*
X117942000Y-119586400D01*
X118342000Y-119586400D01*
X118342000Y-119186400D01*
G37*
G36*
X115942000Y-118786400D02*
G01*
X115542000Y-118786400D01*
X115542000Y-119186400D01*
X115942000Y-119186400D01*
X115942000Y-118786400D01*
G37*
G36*
X125942000Y-116386400D02*
G01*
X125542000Y-116386400D01*
X125542000Y-116786400D01*
X125942000Y-116786400D01*
X125942000Y-116386400D01*
G37*
G36*
X122342000Y-117186400D02*
G01*
X121942000Y-117186400D01*
X121942000Y-117586400D01*
X122342000Y-117586400D01*
X122342000Y-117186400D01*
G37*
G36*
X125542000Y-119186400D02*
G01*
X125142000Y-119186400D01*
X125142000Y-119586400D01*
X125542000Y-119586400D01*
X125542000Y-119186400D01*
G37*
G36*
X120342000Y-122386400D02*
G01*
X119942000Y-122386400D01*
X119942000Y-122786400D01*
X120342000Y-122786400D01*
X120342000Y-122386400D01*
G37*
G36*
X121942000Y-121186400D02*
G01*
X121542000Y-121186400D01*
X121542000Y-121586400D01*
X121942000Y-121586400D01*
X121942000Y-121186400D01*
G37*
G36*
X123542000Y-119586400D02*
G01*
X123142000Y-119586400D01*
X123142000Y-119986400D01*
X123542000Y-119986400D01*
X123542000Y-119586400D01*
G37*
G36*
X124342000Y-121186400D02*
G01*
X123942000Y-121186400D01*
X123942000Y-121586400D01*
X124342000Y-121586400D01*
X124342000Y-121186400D01*
G37*
G36*
X115942000Y-116786400D02*
G01*
X115542000Y-116786400D01*
X115542000Y-117186400D01*
X115942000Y-117186400D01*
X115942000Y-116786400D01*
G37*
G36*
X122742000Y-114786400D02*
G01*
X122342000Y-114786400D01*
X122342000Y-115186400D01*
X122742000Y-115186400D01*
X122742000Y-114786400D01*
G37*
G36*
X121142000Y-119186400D02*
G01*
X120742000Y-119186400D01*
X120742000Y-119586400D01*
X121142000Y-119586400D01*
X121142000Y-119186400D01*
G37*
G36*
X126742000Y-117186400D02*
G01*
X126342000Y-117186400D01*
X126342000Y-117586400D01*
X126742000Y-117586400D01*
X126742000Y-117186400D01*
G37*
G36*
X122742000Y-118786400D02*
G01*
X122342000Y-118786400D01*
X122342000Y-119186400D01*
X122742000Y-119186400D01*
X122742000Y-118786400D01*
G37*
G36*
X118742000Y-118786400D02*
G01*
X118342000Y-118786400D01*
X118342000Y-119186400D01*
X118742000Y-119186400D01*
X118742000Y-118786400D01*
G37*
G36*
X123942000Y-122386400D02*
G01*
X123542000Y-122386400D01*
X123542000Y-122786400D01*
X123942000Y-122786400D01*
X123942000Y-122386400D01*
G37*
G36*
X117542000Y-121986400D02*
G01*
X117142000Y-121986400D01*
X117142000Y-122386400D01*
X117542000Y-122386400D01*
X117542000Y-121986400D01*
G37*
G36*
X120342000Y-117586400D02*
G01*
X119942000Y-117586400D01*
X119942000Y-117986400D01*
X120342000Y-117986400D01*
X120342000Y-117586400D01*
G37*
G36*
X123542000Y-113986400D02*
G01*
X123142000Y-113986400D01*
X123142000Y-114386400D01*
X123542000Y-114386400D01*
X123542000Y-113986400D01*
G37*
G36*
X113942000Y-124386400D02*
G01*
X113542000Y-124386400D01*
X113542000Y-124786400D01*
X113942000Y-124786400D01*
X113942000Y-124386400D01*
G37*
G36*
X116342000Y-113586400D02*
G01*
X115942000Y-113586400D01*
X115942000Y-113986400D01*
X116342000Y-113986400D01*
X116342000Y-113586400D01*
G37*
G36*
X118342000Y-119986400D02*
G01*
X117942000Y-119986400D01*
X117942000Y-120386400D01*
X118342000Y-120386400D01*
X118342000Y-119986400D01*
G37*
G36*
X116742000Y-124386400D02*
G01*
X116342000Y-124386400D01*
X116342000Y-124786400D01*
X116742000Y-124786400D01*
X116742000Y-124386400D01*
G37*
G36*
X117942000Y-121586400D02*
G01*
X117542000Y-121586400D01*
X117542000Y-121986400D01*
X117942000Y-121986400D01*
X117942000Y-121586400D01*
G37*
G36*
X121542000Y-121986400D02*
G01*
X121142000Y-121986400D01*
X121142000Y-122386400D01*
X121542000Y-122386400D01*
X121542000Y-121986400D01*
G37*
G36*
X114742000Y-122386400D02*
G01*
X114342000Y-122386400D01*
X114342000Y-122786400D01*
X114742000Y-122786400D01*
X114742000Y-122386400D01*
G37*
G36*
X124342000Y-116386400D02*
G01*
X123942000Y-116386400D01*
X123942000Y-116786400D01*
X124342000Y-116786400D01*
X124342000Y-116386400D01*
G37*
G36*
X121142000Y-125586400D02*
G01*
X120742000Y-125586400D01*
X120742000Y-125986400D01*
X121142000Y-125986400D01*
X121142000Y-125586400D01*
G37*
G36*
X125542000Y-122386400D02*
G01*
X125142000Y-122386400D01*
X125142000Y-122786400D01*
X125542000Y-122786400D01*
X125542000Y-122386400D01*
G37*
G36*
X114342000Y-113186400D02*
G01*
X113942000Y-113186400D01*
X113942000Y-113586400D01*
X114342000Y-113586400D01*
X114342000Y-113186400D01*
G37*
G36*
X115542000Y-125586400D02*
G01*
X115142000Y-125586400D01*
X115142000Y-125986400D01*
X115542000Y-125986400D01*
X115542000Y-125586400D01*
G37*
G36*
X117542000Y-116786400D02*
G01*
X117142000Y-116786400D01*
X117142000Y-117186400D01*
X117542000Y-117186400D01*
X117542000Y-116786400D01*
G37*
G36*
X123542000Y-119186400D02*
G01*
X123142000Y-119186400D01*
X123142000Y-119586400D01*
X123542000Y-119586400D01*
X123542000Y-119186400D01*
G37*
G36*
X115542000Y-114386400D02*
G01*
X115142000Y-114386400D01*
X115142000Y-114786400D01*
X115542000Y-114786400D01*
X115542000Y-114386400D01*
G37*
G36*
X117142000Y-120386400D02*
G01*
X116742000Y-120386400D01*
X116742000Y-120786400D01*
X117142000Y-120786400D01*
X117142000Y-120386400D01*
G37*
G36*
X115142000Y-119986400D02*
G01*
X114742000Y-119986400D01*
X114742000Y-120386400D01*
X115142000Y-120386400D01*
X115142000Y-119986400D01*
G37*
G36*
X119142000Y-122786400D02*
G01*
X118742000Y-122786400D01*
X118742000Y-123186400D01*
X119142000Y-123186400D01*
X119142000Y-122786400D01*
G37*
G36*
X124342000Y-125186400D02*
G01*
X123942000Y-125186400D01*
X123942000Y-125586400D01*
X124342000Y-125586400D01*
X124342000Y-125186400D01*
G37*
G36*
X120342000Y-116386400D02*
G01*
X119942000Y-116386400D01*
X119942000Y-116786400D01*
X120342000Y-116786400D01*
X120342000Y-116386400D01*
G37*
G36*
X121942000Y-117986400D02*
G01*
X121542000Y-117986400D01*
X121542000Y-118386400D01*
X121942000Y-118386400D01*
X121942000Y-117986400D01*
G37*
G36*
X123542000Y-121586400D02*
G01*
X123142000Y-121586400D01*
X123142000Y-121986400D01*
X123542000Y-121986400D01*
X123542000Y-121586400D01*
G37*
G36*
X115142000Y-122386400D02*
G01*
X114742000Y-122386400D01*
X114742000Y-122786400D01*
X115142000Y-122786400D01*
X115142000Y-122386400D01*
G37*
G36*
X117142000Y-115586400D02*
G01*
X116742000Y-115586400D01*
X116742000Y-115986400D01*
X117142000Y-115986400D01*
X117142000Y-115586400D01*
G37*
G36*
X125942000Y-121986400D02*
G01*
X125542000Y-121986400D01*
X125542000Y-122386400D01*
X125942000Y-122386400D01*
X125942000Y-121986400D01*
G37*
G36*
X121942000Y-115586400D02*
G01*
X121542000Y-115586400D01*
X121542000Y-115986400D01*
X121942000Y-115986400D01*
X121942000Y-115586400D01*
G37*
G36*
X117542000Y-125586400D02*
G01*
X117142000Y-125586400D01*
X117142000Y-125986400D01*
X117542000Y-125986400D01*
X117542000Y-125586400D01*
G37*
G36*
X125142000Y-116786400D02*
G01*
X124742000Y-116786400D01*
X124742000Y-117186400D01*
X125142000Y-117186400D01*
X125142000Y-116786400D01*
G37*
G36*
X122742000Y-115186400D02*
G01*
X122342000Y-115186400D01*
X122342000Y-115586400D01*
X122742000Y-115586400D01*
X122742000Y-115186400D01*
G37*
G36*
X117142000Y-119186400D02*
G01*
X116742000Y-119186400D01*
X116742000Y-119586400D01*
X117142000Y-119586400D01*
X117142000Y-119186400D01*
G37*
G36*
X119542000Y-114386400D02*
G01*
X119142000Y-114386400D01*
X119142000Y-114786400D01*
X119542000Y-114786400D01*
X119542000Y-114386400D01*
G37*
G36*
X119942000Y-125986400D02*
G01*
X119542000Y-125986400D01*
X119542000Y-126386400D01*
X119942000Y-126386400D01*
X119942000Y-125986400D01*
G37*
G36*
X120342000Y-125986400D02*
G01*
X119942000Y-125986400D01*
X119942000Y-126386400D01*
X120342000Y-126386400D01*
X120342000Y-125986400D01*
G37*
G36*
X125542000Y-118786400D02*
G01*
X125142000Y-118786400D01*
X125142000Y-119186400D01*
X125542000Y-119186400D01*
X125542000Y-118786400D01*
G37*
G36*
X124342000Y-115586400D02*
G01*
X123942000Y-115586400D01*
X123942000Y-115986400D01*
X124342000Y-115986400D01*
X124342000Y-115586400D01*
G37*
G36*
X123142000Y-117986400D02*
G01*
X122742000Y-117986400D01*
X122742000Y-118386400D01*
X123142000Y-118386400D01*
X123142000Y-117986400D01*
G37*
G36*
X115142000Y-113186400D02*
G01*
X114742000Y-113186400D01*
X114742000Y-113586400D01*
X115142000Y-113586400D01*
X115142000Y-113186400D01*
G37*
G36*
X123142000Y-122786400D02*
G01*
X122742000Y-122786400D01*
X122742000Y-123186400D01*
X123142000Y-123186400D01*
X123142000Y-122786400D01*
G37*
G36*
X121942000Y-115186400D02*
G01*
X121542000Y-115186400D01*
X121542000Y-115586400D01*
X121942000Y-115586400D01*
X121942000Y-115186400D01*
G37*
G36*
X123542000Y-123186400D02*
G01*
X123142000Y-123186400D01*
X123142000Y-123586400D01*
X123542000Y-123586400D01*
X123542000Y-123186400D01*
G37*
G36*
X119542000Y-123986400D02*
G01*
X119142000Y-123986400D01*
X119142000Y-124386400D01*
X119542000Y-124386400D01*
X119542000Y-123986400D01*
G37*
G36*
X120742000Y-114786400D02*
G01*
X120342000Y-114786400D01*
X120342000Y-115186400D01*
X120742000Y-115186400D01*
X120742000Y-114786400D01*
G37*
G36*
X126742000Y-122786400D02*
G01*
X126342000Y-122786400D01*
X126342000Y-123186400D01*
X126742000Y-123186400D01*
X126742000Y-122786400D01*
G37*
G36*
X118742000Y-115586400D02*
G01*
X118342000Y-115586400D01*
X118342000Y-115986400D01*
X118742000Y-115986400D01*
X118742000Y-115586400D01*
G37*
G36*
X118742000Y-117986400D02*
G01*
X118342000Y-117986400D01*
X118342000Y-118386400D01*
X118742000Y-118386400D01*
X118742000Y-117986400D01*
G37*
G36*
X121542000Y-120386400D02*
G01*
X121142000Y-120386400D01*
X121142000Y-120786400D01*
X121542000Y-120786400D01*
X121542000Y-120386400D01*
G37*
G36*
X121942000Y-119186400D02*
G01*
X121542000Y-119186400D01*
X121542000Y-119586400D01*
X121942000Y-119586400D01*
X121942000Y-119186400D01*
G37*
G36*
X118342000Y-122386400D02*
G01*
X117942000Y-122386400D01*
X117942000Y-122786400D01*
X118342000Y-122786400D01*
X118342000Y-122386400D01*
G37*
G36*
X123542000Y-124386400D02*
G01*
X123142000Y-124386400D01*
X123142000Y-124786400D01*
X123542000Y-124786400D01*
X123542000Y-124386400D01*
G37*
G36*
X114742000Y-114786400D02*
G01*
X114342000Y-114786400D01*
X114342000Y-115186400D01*
X114742000Y-115186400D01*
X114742000Y-114786400D01*
G37*
G36*
X116742000Y-120386400D02*
G01*
X116342000Y-120386400D01*
X116342000Y-120786400D01*
X116742000Y-120786400D01*
X116742000Y-120386400D01*
G37*
G36*
X124742000Y-119186400D02*
G01*
X124342000Y-119186400D01*
X124342000Y-119586400D01*
X124742000Y-119586400D01*
X124742000Y-119186400D01*
G37*
G36*
X121142000Y-117986400D02*
G01*
X120742000Y-117986400D01*
X120742000Y-118386400D01*
X121142000Y-118386400D01*
X121142000Y-117986400D01*
G37*
G36*
X113942000Y-123186400D02*
G01*
X113542000Y-123186400D01*
X113542000Y-123586400D01*
X113942000Y-123586400D01*
X113942000Y-123186400D01*
G37*
G36*
X117542000Y-124786400D02*
G01*
X117142000Y-124786400D01*
X117142000Y-125186400D01*
X117542000Y-125186400D01*
X117542000Y-124786400D01*
G37*
G36*
X115542000Y-123986400D02*
G01*
X115142000Y-123986400D01*
X115142000Y-124386400D01*
X115542000Y-124386400D01*
X115542000Y-123986400D01*
G37*
G36*
X125542000Y-116386400D02*
G01*
X125142000Y-116386400D01*
X125142000Y-116786400D01*
X125542000Y-116786400D01*
X125542000Y-116386400D01*
G37*
G36*
X124742000Y-119586400D02*
G01*
X124342000Y-119586400D01*
X124342000Y-119986400D01*
X124742000Y-119986400D01*
X124742000Y-119586400D01*
G37*
G36*
X124342000Y-118786400D02*
G01*
X123942000Y-118786400D01*
X123942000Y-119186400D01*
X124342000Y-119186400D01*
X124342000Y-118786400D01*
G37*
G36*
X113942000Y-121186400D02*
G01*
X113542000Y-121186400D01*
X113542000Y-121586400D01*
X113942000Y-121586400D01*
X113942000Y-121186400D01*
G37*
G36*
X116742000Y-125986400D02*
G01*
X116342000Y-125986400D01*
X116342000Y-126386400D01*
X116742000Y-126386400D01*
X116742000Y-125986400D01*
G37*
G36*
X114342000Y-118386400D02*
G01*
X113942000Y-118386400D01*
X113942000Y-118786400D01*
X114342000Y-118786400D01*
X114342000Y-118386400D01*
G37*
G36*
X123542000Y-114786400D02*
G01*
X123142000Y-114786400D01*
X123142000Y-115186400D01*
X123542000Y-115186400D01*
X123542000Y-114786400D01*
G37*
G36*
X117142000Y-124386400D02*
G01*
X116742000Y-124386400D01*
X116742000Y-124786400D01*
X117142000Y-124786400D01*
X117142000Y-124386400D01*
G37*
G36*
X120742000Y-125586400D02*
G01*
X120342000Y-125586400D01*
X120342000Y-125986400D01*
X120742000Y-125986400D01*
X120742000Y-125586400D01*
G37*
G36*
X114742000Y-123186400D02*
G01*
X114342000Y-123186400D01*
X114342000Y-123586400D01*
X114742000Y-123586400D01*
X114742000Y-123186400D01*
G37*
G36*
X120342000Y-113186400D02*
G01*
X119942000Y-113186400D01*
X119942000Y-113586400D01*
X120342000Y-113586400D01*
X120342000Y-113186400D01*
G37*
G36*
X119942000Y-114786400D02*
G01*
X119542000Y-114786400D01*
X119542000Y-115186400D01*
X119942000Y-115186400D01*
X119942000Y-114786400D01*
G37*
G36*
X123142000Y-125586400D02*
G01*
X122742000Y-125586400D01*
X122742000Y-125986400D01*
X123142000Y-125986400D01*
X123142000Y-125586400D01*
G37*
G36*
X114742000Y-123986400D02*
G01*
X114342000Y-123986400D01*
X114342000Y-124386400D01*
X114742000Y-124386400D01*
X114742000Y-123986400D01*
G37*
G36*
X122342000Y-123186400D02*
G01*
X121942000Y-123186400D01*
X121942000Y-123586400D01*
X122342000Y-123586400D01*
X122342000Y-123186400D01*
G37*
G36*
X126342000Y-115586400D02*
G01*
X125942000Y-115586400D01*
X125942000Y-115986400D01*
X126342000Y-115986400D01*
X126342000Y-115586400D01*
G37*
G36*
X117142000Y-124786400D02*
G01*
X116742000Y-124786400D01*
X116742000Y-125186400D01*
X117142000Y-125186400D01*
X117142000Y-124786400D01*
G37*
G36*
X123542000Y-125986400D02*
G01*
X123142000Y-125986400D01*
X123142000Y-126386400D01*
X123542000Y-126386400D01*
X123542000Y-125986400D01*
G37*
G36*
X124742000Y-122386400D02*
G01*
X124342000Y-122386400D01*
X124342000Y-122786400D01*
X124742000Y-122786400D01*
X124742000Y-122386400D01*
G37*
G36*
X114342000Y-124386400D02*
G01*
X113942000Y-124386400D01*
X113942000Y-124786400D01*
X114342000Y-124786400D01*
X114342000Y-124386400D01*
G37*
G36*
X120742000Y-124786400D02*
G01*
X120342000Y-124786400D01*
X120342000Y-125186400D01*
X120742000Y-125186400D01*
X120742000Y-124786400D01*
G37*
G36*
X123542000Y-122386400D02*
G01*
X123142000Y-122386400D01*
X123142000Y-122786400D01*
X123542000Y-122786400D01*
X123542000Y-122386400D01*
G37*
G36*
X123942000Y-119986400D02*
G01*
X123542000Y-119986400D01*
X123542000Y-120386400D01*
X123942000Y-120386400D01*
X123942000Y-119986400D01*
G37*
G36*
X114742000Y-117186400D02*
G01*
X114342000Y-117186400D01*
X114342000Y-117586400D01*
X114742000Y-117586400D01*
X114742000Y-117186400D01*
G37*
G36*
X115142000Y-115586400D02*
G01*
X114742000Y-115586400D01*
X114742000Y-115986400D01*
X115142000Y-115986400D01*
X115142000Y-115586400D01*
G37*
G36*
X126342000Y-116786400D02*
G01*
X125942000Y-116786400D01*
X125942000Y-117186400D01*
X126342000Y-117186400D01*
X126342000Y-116786400D01*
G37*
G36*
X125942000Y-118786400D02*
G01*
X125542000Y-118786400D01*
X125542000Y-119186400D01*
X125942000Y-119186400D01*
X125942000Y-118786400D01*
G37*
G36*
X113942000Y-113186400D02*
G01*
X113542000Y-113186400D01*
X113542000Y-113586400D01*
X113942000Y-113586400D01*
X113942000Y-113186400D01*
G37*
G36*
X124342000Y-121986400D02*
G01*
X123942000Y-121986400D01*
X123942000Y-122386400D01*
X124342000Y-122386400D01*
X124342000Y-121986400D01*
G37*
G36*
X115942000Y-121586400D02*
G01*
X115542000Y-121586400D01*
X115542000Y-121986400D01*
X115942000Y-121986400D01*
X115942000Y-121586400D01*
G37*
G36*
X122342000Y-119186400D02*
G01*
X121942000Y-119186400D01*
X121942000Y-119586400D01*
X122342000Y-119586400D01*
X122342000Y-119186400D01*
G37*
G36*
X126742000Y-121186400D02*
G01*
X126342000Y-121186400D01*
X126342000Y-121586400D01*
X126742000Y-121586400D01*
X126742000Y-121186400D01*
G37*
G36*
X125542000Y-124386400D02*
G01*
X125142000Y-124386400D01*
X125142000Y-124786400D01*
X125542000Y-124786400D01*
X125542000Y-124386400D01*
G37*
G36*
X114742000Y-116386400D02*
G01*
X114342000Y-116386400D01*
X114342000Y-116786400D01*
X114742000Y-116786400D01*
X114742000Y-116386400D01*
G37*
G36*
X126742000Y-121986400D02*
G01*
X126342000Y-121986400D01*
X126342000Y-122386400D01*
X126742000Y-122386400D01*
X126742000Y-121986400D01*
G37*
G36*
X123942000Y-122786400D02*
G01*
X123542000Y-122786400D01*
X123542000Y-123186400D01*
X123942000Y-123186400D01*
X123942000Y-122786400D01*
G37*
G36*
X113942000Y-114386400D02*
G01*
X113542000Y-114386400D01*
X113542000Y-114786400D01*
X113942000Y-114786400D01*
X113942000Y-114386400D01*
G37*
G36*
X116342000Y-116786400D02*
G01*
X115942000Y-116786400D01*
X115942000Y-117186400D01*
X116342000Y-117186400D01*
X116342000Y-116786400D01*
G37*
G36*
X121942000Y-116386400D02*
G01*
X121542000Y-116386400D01*
X121542000Y-116786400D01*
X121942000Y-116786400D01*
X121942000Y-116386400D01*
G37*
G36*
X117542000Y-116386400D02*
G01*
X117142000Y-116386400D01*
X117142000Y-116786400D01*
X117542000Y-116786400D01*
X117542000Y-116386400D01*
G37*
G36*
X126342000Y-113186400D02*
G01*
X125942000Y-113186400D01*
X125942000Y-113586400D01*
X126342000Y-113586400D01*
X126342000Y-113186400D01*
G37*
G36*
X116742000Y-118786400D02*
G01*
X116342000Y-118786400D01*
X116342000Y-119186400D01*
X116742000Y-119186400D01*
X116742000Y-118786400D01*
G37*
G36*
X115542000Y-119586400D02*
G01*
X115142000Y-119586400D01*
X115142000Y-119986400D01*
X115542000Y-119986400D01*
X115542000Y-119586400D01*
G37*
G36*
X123542000Y-118786400D02*
G01*
X123142000Y-118786400D01*
X123142000Y-119186400D01*
X123542000Y-119186400D01*
X123542000Y-118786400D01*
G37*
G36*
X124342000Y-114386400D02*
G01*
X123942000Y-114386400D01*
X123942000Y-114786400D01*
X124342000Y-114786400D01*
X124342000Y-114386400D01*
G37*
G36*
X116342000Y-114786400D02*
G01*
X115942000Y-114786400D01*
X115942000Y-115186400D01*
X116342000Y-115186400D01*
X116342000Y-114786400D01*
G37*
G36*
X114342000Y-125986400D02*
G01*
X113942000Y-125986400D01*
X113942000Y-126386400D01*
X114342000Y-126386400D01*
X114342000Y-125986400D01*
G37*
G36*
X121142000Y-115586400D02*
G01*
X120742000Y-115586400D01*
X120742000Y-115986400D01*
X121142000Y-115986400D01*
X121142000Y-115586400D01*
G37*
G36*
X117942000Y-115586400D02*
G01*
X117542000Y-115586400D01*
X117542000Y-115986400D01*
X117942000Y-115986400D01*
X117942000Y-115586400D01*
G37*
G36*
X125942000Y-119186400D02*
G01*
X125542000Y-119186400D01*
X125542000Y-119586400D01*
X125942000Y-119586400D01*
X125942000Y-119186400D01*
G37*
G36*
X116742000Y-122786400D02*
G01*
X116342000Y-122786400D01*
X116342000Y-123186400D01*
X116742000Y-123186400D01*
X116742000Y-122786400D01*
G37*
G36*
X123542000Y-119986400D02*
G01*
X123142000Y-119986400D01*
X123142000Y-120386400D01*
X123542000Y-120386400D01*
X123542000Y-119986400D01*
G37*
G36*
X115142000Y-114386400D02*
G01*
X114742000Y-114386400D01*
X114742000Y-114786400D01*
X115142000Y-114786400D01*
X115142000Y-114386400D01*
G37*
G36*
X113942000Y-119586400D02*
G01*
X113542000Y-119586400D01*
X113542000Y-119986400D01*
X113942000Y-119986400D01*
X113942000Y-119586400D01*
G37*
G36*
X121942000Y-119986400D02*
G01*
X121542000Y-119986400D01*
X121542000Y-120386400D01*
X121942000Y-120386400D01*
X121942000Y-119986400D01*
G37*
G36*
X123142000Y-119586400D02*
G01*
X122742000Y-119586400D01*
X122742000Y-119986400D01*
X123142000Y-119986400D01*
X123142000Y-119586400D01*
G37*
G36*
X116342000Y-124386400D02*
G01*
X115942000Y-124386400D01*
X115942000Y-124786400D01*
X116342000Y-124786400D01*
X116342000Y-124386400D01*
G37*
G36*
X114742000Y-114386400D02*
G01*
X114342000Y-114386400D01*
X114342000Y-114786400D01*
X114742000Y-114786400D01*
X114742000Y-114386400D01*
G37*
G36*
X125942000Y-121586400D02*
G01*
X125542000Y-121586400D01*
X125542000Y-121986400D01*
X125942000Y-121986400D01*
X125942000Y-121586400D01*
G37*
G36*
X119142000Y-115986400D02*
G01*
X118742000Y-115986400D01*
X118742000Y-116386400D01*
X119142000Y-116386400D01*
X119142000Y-115986400D01*
G37*
G36*
X113942000Y-115186400D02*
G01*
X113542000Y-115186400D01*
X113542000Y-115586400D01*
X113942000Y-115586400D01*
X113942000Y-115186400D01*
G37*
G36*
X125542000Y-123586400D02*
G01*
X125142000Y-123586400D01*
X125142000Y-123986400D01*
X125542000Y-123986400D01*
X125542000Y-123586400D01*
G37*
G36*
X123942000Y-117186400D02*
G01*
X123542000Y-117186400D01*
X123542000Y-117586400D01*
X123942000Y-117586400D01*
X123942000Y-117186400D01*
G37*
G36*
X118742000Y-125186400D02*
G01*
X118342000Y-125186400D01*
X118342000Y-125586400D01*
X118742000Y-125586400D01*
X118742000Y-125186400D01*
G37*
G36*
X115542000Y-117186400D02*
G01*
X115142000Y-117186400D01*
X115142000Y-117586400D01*
X115542000Y-117586400D01*
X115542000Y-117186400D01*
G37*
G36*
X113942000Y-114786400D02*
G01*
X113542000Y-114786400D01*
X113542000Y-115186400D01*
X113942000Y-115186400D01*
X113942000Y-114786400D01*
G37*
G36*
X119142000Y-115186400D02*
G01*
X118742000Y-115186400D01*
X118742000Y-115586400D01*
X119142000Y-115586400D01*
X119142000Y-115186400D01*
G37*
G36*
X126742000Y-123986400D02*
G01*
X126342000Y-123986400D01*
X126342000Y-124386400D01*
X126742000Y-124386400D01*
X126742000Y-123986400D01*
G37*
G36*
X123542000Y-124786400D02*
G01*
X123142000Y-124786400D01*
X123142000Y-125186400D01*
X123542000Y-125186400D01*
X123542000Y-124786400D01*
G37*
G36*
X121942000Y-124786400D02*
G01*
X121542000Y-124786400D01*
X121542000Y-125186400D01*
X121942000Y-125186400D01*
X121942000Y-124786400D01*
G37*
G36*
X126742000Y-115586400D02*
G01*
X126342000Y-115586400D01*
X126342000Y-115986400D01*
X126742000Y-115986400D01*
X126742000Y-115586400D01*
G37*
G36*
X115942000Y-115586400D02*
G01*
X115542000Y-115586400D01*
X115542000Y-115986400D01*
X115942000Y-115986400D01*
X115942000Y-115586400D01*
G37*
G36*
X119142000Y-117586400D02*
G01*
X118742000Y-117586400D01*
X118742000Y-117986400D01*
X119142000Y-117986400D01*
X119142000Y-117586400D01*
G37*
G36*
X121142000Y-125986400D02*
G01*
X120742000Y-125986400D01*
X120742000Y-126386400D01*
X121142000Y-126386400D01*
X121142000Y-125986400D01*
G37*
G36*
X125942000Y-123586400D02*
G01*
X125542000Y-123586400D01*
X125542000Y-123986400D01*
X125942000Y-123986400D01*
X125942000Y-123586400D01*
G37*
G36*
X115942000Y-122786400D02*
G01*
X115542000Y-122786400D01*
X115542000Y-123186400D01*
X115942000Y-123186400D01*
X115942000Y-122786400D01*
G37*
G36*
X115142000Y-125186400D02*
G01*
X114742000Y-125186400D01*
X114742000Y-125586400D01*
X115142000Y-125586400D01*
X115142000Y-125186400D01*
G37*
G36*
X119542000Y-117586400D02*
G01*
X119142000Y-117586400D01*
X119142000Y-117986400D01*
X119542000Y-117986400D01*
X119542000Y-117586400D01*
G37*
G36*
X118742000Y-113186400D02*
G01*
X118342000Y-113186400D01*
X118342000Y-113586400D01*
X118742000Y-113586400D01*
X118742000Y-113186400D01*
G37*
G36*
X120342000Y-125186400D02*
G01*
X119942000Y-125186400D01*
X119942000Y-125586400D01*
X120342000Y-125586400D01*
X120342000Y-125186400D01*
G37*
G36*
X115942000Y-120386400D02*
G01*
X115542000Y-120386400D01*
X115542000Y-120786400D01*
X115942000Y-120786400D01*
X115942000Y-120386400D01*
G37*
G36*
X121942000Y-122386400D02*
G01*
X121542000Y-122386400D01*
X121542000Y-122786400D01*
X121942000Y-122786400D01*
X121942000Y-122386400D01*
G37*
G36*
X115142000Y-123986400D02*
G01*
X114742000Y-123986400D01*
X114742000Y-124386400D01*
X115142000Y-124386400D01*
X115142000Y-123986400D01*
G37*
G36*
X117142000Y-122786400D02*
G01*
X116742000Y-122786400D01*
X116742000Y-123186400D01*
X117142000Y-123186400D01*
X117142000Y-122786400D01*
G37*
G36*
X114742000Y-119986400D02*
G01*
X114342000Y-119986400D01*
X114342000Y-120386400D01*
X114742000Y-120386400D01*
X114742000Y-119986400D01*
G37*
G36*
X114742000Y-115586400D02*
G01*
X114342000Y-115586400D01*
X114342000Y-115986400D01*
X114742000Y-115986400D01*
X114742000Y-115586400D01*
G37*
G36*
X125942000Y-125186400D02*
G01*
X125542000Y-125186400D01*
X125542000Y-125586400D01*
X125942000Y-125586400D01*
X125942000Y-125186400D01*
G37*
G36*
X119942000Y-116786400D02*
G01*
X119542000Y-116786400D01*
X119542000Y-117186400D01*
X119942000Y-117186400D01*
X119942000Y-116786400D01*
G37*
G36*
X125542000Y-113986400D02*
G01*
X125142000Y-113986400D01*
X125142000Y-114386400D01*
X125542000Y-114386400D01*
X125542000Y-113986400D01*
G37*
G36*
X125142000Y-124386400D02*
G01*
X124742000Y-124386400D01*
X124742000Y-124786400D01*
X125142000Y-124786400D01*
X125142000Y-124386400D01*
G37*
G36*
X125542000Y-114386400D02*
G01*
X125142000Y-114386400D01*
X125142000Y-114786400D01*
X125542000Y-114786400D01*
X125542000Y-114386400D01*
G37*
G36*
X120742000Y-123586400D02*
G01*
X120342000Y-123586400D01*
X120342000Y-123986400D01*
X120742000Y-123986400D01*
X120742000Y-123586400D01*
G37*
G36*
X122742000Y-115986400D02*
G01*
X122342000Y-115986400D01*
X122342000Y-116386400D01*
X122742000Y-116386400D01*
X122742000Y-115986400D01*
G37*
G36*
X124342000Y-113186400D02*
G01*
X123942000Y-113186400D01*
X123942000Y-113586400D01*
X124342000Y-113586400D01*
X124342000Y-113186400D01*
G37*
G36*
X119942000Y-121586400D02*
G01*
X119542000Y-121586400D01*
X119542000Y-121986400D01*
X119942000Y-121986400D01*
X119942000Y-121586400D01*
G37*
G36*
X115942000Y-121186400D02*
G01*
X115542000Y-121186400D01*
X115542000Y-121586400D01*
X115942000Y-121586400D01*
X115942000Y-121186400D01*
G37*
G36*
X119142000Y-113186400D02*
G01*
X118742000Y-113186400D01*
X118742000Y-113586400D01*
X119142000Y-113586400D01*
X119142000Y-113186400D01*
G37*
G36*
X119942000Y-123586400D02*
G01*
X119542000Y-123586400D01*
X119542000Y-123986400D01*
X119942000Y-123986400D01*
X119942000Y-123586400D01*
G37*
G36*
X115142000Y-120786400D02*
G01*
X114742000Y-120786400D01*
X114742000Y-121186400D01*
X115142000Y-121186400D01*
X115142000Y-120786400D01*
G37*
G36*
X125142000Y-123586400D02*
G01*
X124742000Y-123586400D01*
X124742000Y-123986400D01*
X125142000Y-123986400D01*
X125142000Y-123586400D01*
G37*
G36*
X120742000Y-121186400D02*
G01*
X120342000Y-121186400D01*
X120342000Y-121586400D01*
X120742000Y-121586400D01*
X120742000Y-121186400D01*
G37*
G36*
X116342000Y-125186400D02*
G01*
X115942000Y-125186400D01*
X115942000Y-125586400D01*
X116342000Y-125586400D01*
X116342000Y-125186400D01*
G37*
G36*
X119142000Y-123186400D02*
G01*
X118742000Y-123186400D01*
X118742000Y-123586400D01*
X119142000Y-123586400D01*
X119142000Y-123186400D01*
G37*
G36*
X126742000Y-117586400D02*
G01*
X126342000Y-117586400D01*
X126342000Y-117986400D01*
X126742000Y-117986400D01*
X126742000Y-117586400D01*
G37*
G36*
X119142000Y-122386400D02*
G01*
X118742000Y-122386400D01*
X118742000Y-122786400D01*
X119142000Y-122786400D01*
X119142000Y-122386400D01*
G37*
G36*
X114342000Y-121986400D02*
G01*
X113942000Y-121986400D01*
X113942000Y-122386400D01*
X114342000Y-122386400D01*
X114342000Y-121986400D01*
G37*
G36*
X120742000Y-124386400D02*
G01*
X120342000Y-124386400D01*
X120342000Y-124786400D01*
X120742000Y-124786400D01*
X120742000Y-124386400D01*
G37*
G36*
X116742000Y-118386400D02*
G01*
X116342000Y-118386400D01*
X116342000Y-118786400D01*
X116742000Y-118786400D01*
X116742000Y-118386400D01*
G37*
G36*
X119142000Y-119986400D02*
G01*
X118742000Y-119986400D01*
X118742000Y-120386400D01*
X119142000Y-120386400D01*
X119142000Y-119986400D01*
G37*
G36*
X113942000Y-119986400D02*
G01*
X113542000Y-119986400D01*
X113542000Y-120386400D01*
X113942000Y-120386400D01*
X113942000Y-119986400D01*
G37*
G36*
X124342000Y-119586400D02*
G01*
X123942000Y-119586400D01*
X123942000Y-119986400D01*
X124342000Y-119986400D01*
X124342000Y-119586400D01*
G37*
G36*
X126342000Y-118386400D02*
G01*
X125942000Y-118386400D01*
X125942000Y-118786400D01*
X126342000Y-118786400D01*
X126342000Y-118386400D01*
G37*
G36*
X122742000Y-117586400D02*
G01*
X122342000Y-117586400D01*
X122342000Y-117986400D01*
X122742000Y-117986400D01*
X122742000Y-117586400D01*
G37*
G36*
X121142000Y-124786400D02*
G01*
X120742000Y-124786400D01*
X120742000Y-125186400D01*
X121142000Y-125186400D01*
X121142000Y-124786400D01*
G37*
G36*
X121542000Y-119586400D02*
G01*
X121142000Y-119586400D01*
X121142000Y-119986400D01*
X121542000Y-119986400D01*
X121542000Y-119586400D01*
G37*
G36*
X117142000Y-115186400D02*
G01*
X116742000Y-115186400D01*
X116742000Y-115586400D01*
X117142000Y-115586400D01*
X117142000Y-115186400D01*
G37*
G36*
X120342000Y-116786400D02*
G01*
X119942000Y-116786400D01*
X119942000Y-117186400D01*
X120342000Y-117186400D01*
X120342000Y-116786400D01*
G37*
G36*
X120742000Y-117186400D02*
G01*
X120342000Y-117186400D01*
X120342000Y-117586400D01*
X120742000Y-117586400D01*
X120742000Y-117186400D01*
G37*
G36*
X117942000Y-117986400D02*
G01*
X117542000Y-117986400D01*
X117542000Y-118386400D01*
X117942000Y-118386400D01*
X117942000Y-117986400D01*
G37*
G36*
X120342000Y-121586400D02*
G01*
X119942000Y-121586400D01*
X119942000Y-121986400D01*
X120342000Y-121986400D01*
X120342000Y-121586400D01*
G37*
G36*
X122742000Y-120386400D02*
G01*
X122342000Y-120386400D01*
X122342000Y-120786400D01*
X122742000Y-120786400D01*
X122742000Y-120386400D01*
G37*
G36*
X116342000Y-122386400D02*
G01*
X115942000Y-122386400D01*
X115942000Y-122786400D01*
X116342000Y-122786400D01*
X116342000Y-122386400D01*
G37*
G36*
X120742000Y-119186400D02*
G01*
X120342000Y-119186400D01*
X120342000Y-119586400D01*
X120742000Y-119586400D01*
X120742000Y-119186400D01*
G37*
G36*
X114742000Y-113186400D02*
G01*
X114342000Y-113186400D01*
X114342000Y-113586400D01*
X114742000Y-113586400D01*
X114742000Y-113186400D01*
G37*
G36*
X119142000Y-121986400D02*
G01*
X118742000Y-121986400D01*
X118742000Y-122386400D01*
X119142000Y-122386400D01*
X119142000Y-121986400D01*
G37*
G36*
X125542000Y-113186400D02*
G01*
X125142000Y-113186400D01*
X125142000Y-113586400D01*
X125542000Y-113586400D01*
X125542000Y-113186400D01*
G37*
G36*
X116742000Y-117586400D02*
G01*
X116342000Y-117586400D01*
X116342000Y-117986400D01*
X116742000Y-117986400D01*
X116742000Y-117586400D01*
G37*
G36*
X124742000Y-115586400D02*
G01*
X124342000Y-115586400D01*
X124342000Y-115986400D01*
X124742000Y-115986400D01*
X124742000Y-115586400D01*
G37*
G36*
X125142000Y-124786400D02*
G01*
X124742000Y-124786400D01*
X124742000Y-125186400D01*
X125142000Y-125186400D01*
X125142000Y-124786400D01*
G37*
G36*
X121542000Y-119986400D02*
G01*
X121142000Y-119986400D01*
X121142000Y-120386400D01*
X121542000Y-120386400D01*
X121542000Y-119986400D01*
G37*
G36*
X121142000Y-116386400D02*
G01*
X120742000Y-116386400D01*
X120742000Y-116786400D01*
X121142000Y-116786400D01*
X121142000Y-116386400D01*
G37*
G36*
X119542000Y-118386400D02*
G01*
X119142000Y-118386400D01*
X119142000Y-118786400D01*
X119542000Y-118786400D01*
X119542000Y-118386400D01*
G37*
G36*
X126342000Y-120786400D02*
G01*
X125942000Y-120786400D01*
X125942000Y-121186400D01*
X126342000Y-121186400D01*
X126342000Y-120786400D01*
G37*
G36*
X124342000Y-123586400D02*
G01*
X123942000Y-123586400D01*
X123942000Y-123986400D01*
X124342000Y-123986400D01*
X124342000Y-123586400D01*
G37*
G36*
X117142000Y-118386400D02*
G01*
X116742000Y-118386400D01*
X116742000Y-118786400D01*
X117142000Y-118786400D01*
X117142000Y-118386400D01*
G37*
G36*
X126742000Y-123586400D02*
G01*
X126342000Y-123586400D01*
X126342000Y-123986400D01*
X126742000Y-123986400D01*
X126742000Y-123586400D01*
G37*
G36*
X124742000Y-117986400D02*
G01*
X124342000Y-117986400D01*
X124342000Y-118386400D01*
X124742000Y-118386400D01*
X124742000Y-117986400D01*
G37*
G36*
X115142000Y-124386400D02*
G01*
X114742000Y-124386400D01*
X114742000Y-124786400D01*
X115142000Y-124786400D01*
X115142000Y-124386400D01*
G37*
G36*
X117142000Y-123986400D02*
G01*
X116742000Y-123986400D01*
X116742000Y-124386400D01*
X117142000Y-124386400D01*
X117142000Y-123986400D01*
G37*
G36*
X116342000Y-122786400D02*
G01*
X115942000Y-122786400D01*
X115942000Y-123186400D01*
X116342000Y-123186400D01*
X116342000Y-122786400D01*
G37*
G36*
X125142000Y-114786400D02*
G01*
X124742000Y-114786400D01*
X124742000Y-115186400D01*
X125142000Y-115186400D01*
X125142000Y-114786400D01*
G37*
G36*
X123942000Y-117586400D02*
G01*
X123542000Y-117586400D01*
X123542000Y-117986400D01*
X123942000Y-117986400D01*
X123942000Y-117586400D01*
G37*
G36*
X123542000Y-121986400D02*
G01*
X123142000Y-121986400D01*
X123142000Y-122386400D01*
X123542000Y-122386400D01*
X123542000Y-121986400D01*
G37*
G36*
X122742000Y-121586400D02*
G01*
X122342000Y-121586400D01*
X122342000Y-121986400D01*
X122742000Y-121986400D01*
X122742000Y-121586400D01*
G37*
G36*
X115542000Y-115586400D02*
G01*
X115142000Y-115586400D01*
X115142000Y-115986400D01*
X115542000Y-115986400D01*
X115542000Y-115586400D01*
G37*
G36*
X121542000Y-121586400D02*
G01*
X121142000Y-121586400D01*
X121142000Y-121986400D01*
X121542000Y-121986400D01*
X121542000Y-121586400D01*
G37*
G36*
X119942000Y-117186400D02*
G01*
X119542000Y-117186400D01*
X119542000Y-117586400D01*
X119942000Y-117586400D01*
X119942000Y-117186400D01*
G37*
G36*
X115142000Y-117586400D02*
G01*
X114742000Y-117586400D01*
X114742000Y-117986400D01*
X115142000Y-117986400D01*
X115142000Y-117586400D01*
G37*
G36*
X124742000Y-121186400D02*
G01*
X124342000Y-121186400D01*
X124342000Y-121586400D01*
X124742000Y-121586400D01*
X124742000Y-121186400D01*
G37*
G36*
X124742000Y-113186400D02*
G01*
X124342000Y-113186400D01*
X124342000Y-113586400D01*
X124742000Y-113586400D01*
X124742000Y-113186400D01*
G37*
G36*
X123142000Y-121986400D02*
G01*
X122742000Y-121986400D01*
X122742000Y-122386400D01*
X123142000Y-122386400D01*
X123142000Y-121986400D01*
G37*
G36*
X121542000Y-125986400D02*
G01*
X121142000Y-125986400D01*
X121142000Y-126386400D01*
X121542000Y-126386400D01*
X121542000Y-125986400D01*
G37*
G36*
X114342000Y-119986400D02*
G01*
X113942000Y-119986400D01*
X113942000Y-120386400D01*
X114342000Y-120386400D01*
X114342000Y-119986400D01*
G37*
G36*
X122342000Y-121986400D02*
G01*
X121942000Y-121986400D01*
X121942000Y-122386400D01*
X122342000Y-122386400D01*
X122342000Y-121986400D01*
G37*
G36*
X116742000Y-119586400D02*
G01*
X116342000Y-119586400D01*
X116342000Y-119986400D01*
X116742000Y-119986400D01*
X116742000Y-119586400D01*
G37*
G36*
X117142000Y-117586400D02*
G01*
X116742000Y-117586400D01*
X116742000Y-117986400D01*
X117142000Y-117986400D01*
X117142000Y-117586400D01*
G37*
G36*
X118742000Y-123986400D02*
G01*
X118342000Y-123986400D01*
X118342000Y-124386400D01*
X118742000Y-124386400D01*
X118742000Y-123986400D01*
G37*
G36*
X118342000Y-121186400D02*
G01*
X117942000Y-121186400D01*
X117942000Y-121586400D01*
X118342000Y-121586400D01*
X118342000Y-121186400D01*
G37*
G36*
X121142000Y-117186400D02*
G01*
X120742000Y-117186400D01*
X120742000Y-117586400D01*
X121142000Y-117586400D01*
X121142000Y-117186400D01*
G37*
G36*
X121142000Y-114786400D02*
G01*
X120742000Y-114786400D01*
X120742000Y-115186400D01*
X121142000Y-115186400D01*
X121142000Y-114786400D01*
G37*
G36*
X114742000Y-116786400D02*
G01*
X114342000Y-116786400D01*
X114342000Y-117186400D01*
X114742000Y-117186400D01*
X114742000Y-116786400D01*
G37*
G36*
X123542000Y-117186400D02*
G01*
X123142000Y-117186400D01*
X123142000Y-117586400D01*
X123542000Y-117586400D01*
X123542000Y-117186400D01*
G37*
G36*
X121942000Y-116786400D02*
G01*
X121542000Y-116786400D01*
X121542000Y-117186400D01*
X121942000Y-117186400D01*
X121942000Y-116786400D01*
G37*
G36*
X123542000Y-123986400D02*
G01*
X123142000Y-123986400D01*
X123142000Y-124386400D01*
X123542000Y-124386400D01*
X123542000Y-123986400D01*
G37*
G36*
X117942000Y-117186400D02*
G01*
X117542000Y-117186400D01*
X117542000Y-117586400D01*
X117942000Y-117586400D01*
X117942000Y-117186400D01*
G37*
G36*
X120342000Y-113586400D02*
G01*
X119942000Y-113586400D01*
X119942000Y-113986400D01*
X120342000Y-113986400D01*
X120342000Y-113586400D01*
G37*
G36*
X118342000Y-125586400D02*
G01*
X117942000Y-125586400D01*
X117942000Y-125986400D01*
X118342000Y-125986400D01*
X118342000Y-125586400D01*
G37*
G36*
X120342000Y-124386400D02*
G01*
X119942000Y-124386400D01*
X119942000Y-124786400D01*
X120342000Y-124786400D01*
X120342000Y-124386400D01*
G37*
G36*
X114342000Y-117186400D02*
G01*
X113942000Y-117186400D01*
X113942000Y-117586400D01*
X114342000Y-117586400D01*
X114342000Y-117186400D01*
G37*
G36*
X125542000Y-115586400D02*
G01*
X125142000Y-115586400D01*
X125142000Y-115986400D01*
X125542000Y-115986400D01*
X125542000Y-115586400D01*
G37*
G36*
X115542000Y-120786400D02*
G01*
X115142000Y-120786400D01*
X115142000Y-121186400D01*
X115542000Y-121186400D01*
X115542000Y-120786400D01*
G37*
G36*
X125542000Y-122786400D02*
G01*
X125142000Y-122786400D01*
X125142000Y-123186400D01*
X125542000Y-123186400D01*
X125542000Y-122786400D01*
G37*
G36*
X126742000Y-113986400D02*
G01*
X126342000Y-113986400D01*
X126342000Y-114386400D01*
X126742000Y-114386400D01*
X126742000Y-113986400D01*
G37*
G36*
X119142000Y-116786400D02*
G01*
X118742000Y-116786400D01*
X118742000Y-117186400D01*
X119142000Y-117186400D01*
X119142000Y-116786400D01*
G37*
G36*
X119142000Y-124386400D02*
G01*
X118742000Y-124386400D01*
X118742000Y-124786400D01*
X119142000Y-124786400D01*
X119142000Y-124386400D01*
G37*
G36*
X125542000Y-124786400D02*
G01*
X125142000Y-124786400D01*
X125142000Y-125186400D01*
X125542000Y-125186400D01*
X125542000Y-124786400D01*
G37*
G36*
X118742000Y-113986400D02*
G01*
X118342000Y-113986400D01*
X118342000Y-114386400D01*
X118742000Y-114386400D01*
X118742000Y-113986400D01*
G37*
G36*
X117942000Y-125586400D02*
G01*
X117542000Y-125586400D01*
X117542000Y-125986400D01*
X117942000Y-125986400D01*
X117942000Y-125586400D01*
G37*
G36*
X113942000Y-118386400D02*
G01*
X113542000Y-118386400D01*
X113542000Y-118786400D01*
X113942000Y-118786400D01*
X113942000Y-118386400D01*
G37*
G36*
X125942000Y-113186400D02*
G01*
X125542000Y-113186400D01*
X125542000Y-113586400D01*
X125942000Y-113586400D01*
X125942000Y-113186400D01*
G37*
G36*
X122742000Y-115586400D02*
G01*
X122342000Y-115586400D01*
X122342000Y-115986400D01*
X122742000Y-115986400D01*
X122742000Y-115586400D01*
G37*
G36*
X122742000Y-125186400D02*
G01*
X122342000Y-125186400D01*
X122342000Y-125586400D01*
X122742000Y-125586400D01*
X122742000Y-125186400D01*
G37*
G36*
X125942000Y-117986400D02*
G01*
X125542000Y-117986400D01*
X125542000Y-118386400D01*
X125942000Y-118386400D01*
X125942000Y-117986400D01*
G37*
G36*
X121142000Y-125186400D02*
G01*
X120742000Y-125186400D01*
X120742000Y-125586400D01*
X121142000Y-125586400D01*
X121142000Y-125186400D01*
G37*
G36*
X126742000Y-119986400D02*
G01*
X126342000Y-119986400D01*
X126342000Y-120386400D01*
X126742000Y-120386400D01*
X126742000Y-119986400D01*
G37*
G36*
X117142000Y-125586400D02*
G01*
X116742000Y-125586400D01*
X116742000Y-125986400D01*
X117142000Y-125986400D01*
X117142000Y-125586400D01*
G37*
G36*
X123142000Y-123186400D02*
G01*
X122742000Y-123186400D01*
X122742000Y-123586400D01*
X123142000Y-123586400D01*
X123142000Y-123186400D01*
G37*
G36*
X119542000Y-119186400D02*
G01*
X119142000Y-119186400D01*
X119142000Y-119586400D01*
X119542000Y-119586400D01*
X119542000Y-119186400D01*
G37*
G36*
X120342000Y-115586400D02*
G01*
X119942000Y-115586400D01*
X119942000Y-115986400D01*
X120342000Y-115986400D01*
X120342000Y-115586400D01*
G37*
G36*
X115542000Y-124786400D02*
G01*
X115142000Y-124786400D01*
X115142000Y-125186400D01*
X115542000Y-125186400D01*
X115542000Y-124786400D01*
G37*
G36*
X125942000Y-125986400D02*
G01*
X125542000Y-125986400D01*
X125542000Y-126386400D01*
X125942000Y-126386400D01*
X125942000Y-125986400D01*
G37*
G36*
X125942000Y-113986400D02*
G01*
X125542000Y-113986400D01*
X125542000Y-114386400D01*
X125942000Y-114386400D01*
X125942000Y-113986400D01*
G37*
G36*
X124742000Y-120786400D02*
G01*
X124342000Y-120786400D01*
X124342000Y-121186400D01*
X124742000Y-121186400D01*
X124742000Y-120786400D01*
G37*
G36*
X114342000Y-122386400D02*
G01*
X113942000Y-122386400D01*
X113942000Y-122786400D01*
X114342000Y-122786400D01*
X114342000Y-122386400D01*
G37*
G36*
X122742000Y-125586400D02*
G01*
X122342000Y-125586400D01*
X122342000Y-125986400D01*
X122742000Y-125986400D01*
X122742000Y-125586400D01*
G37*
G36*
X120342000Y-123186400D02*
G01*
X119942000Y-123186400D01*
X119942000Y-123586400D01*
X120342000Y-123586400D01*
X120342000Y-123186400D01*
G37*
G36*
X118342000Y-115986400D02*
G01*
X117942000Y-115986400D01*
X117942000Y-116386400D01*
X118342000Y-116386400D01*
X118342000Y-115986400D01*
G37*
G36*
X125942000Y-114786400D02*
G01*
X125542000Y-114786400D01*
X125542000Y-115186400D01*
X125942000Y-115186400D01*
X125942000Y-114786400D01*
G37*
G36*
X125542000Y-117986400D02*
G01*
X125142000Y-117986400D01*
X125142000Y-118386400D01*
X125542000Y-118386400D01*
X125542000Y-117986400D01*
G37*
G36*
X120742000Y-118786400D02*
G01*
X120342000Y-118786400D01*
X120342000Y-119186400D01*
X120742000Y-119186400D01*
X120742000Y-118786400D01*
G37*
G36*
X116342000Y-120786400D02*
G01*
X115942000Y-120786400D01*
X115942000Y-121186400D01*
X116342000Y-121186400D01*
X116342000Y-120786400D01*
G37*
G36*
X121542000Y-117186400D02*
G01*
X121142000Y-117186400D01*
X121142000Y-117586400D01*
X121542000Y-117586400D01*
X121542000Y-117186400D01*
G37*
G36*
X126742000Y-124786400D02*
G01*
X126342000Y-124786400D01*
X126342000Y-125186400D01*
X126742000Y-125186400D01*
X126742000Y-124786400D01*
G37*
G36*
X122342000Y-124786400D02*
G01*
X121942000Y-124786400D01*
X121942000Y-125186400D01*
X122342000Y-125186400D01*
X122342000Y-124786400D01*
G37*
G36*
X118742000Y-122386400D02*
G01*
X118342000Y-122386400D01*
X118342000Y-122786400D01*
X118742000Y-122786400D01*
X118742000Y-122386400D01*
G37*
G36*
X121942000Y-114786400D02*
G01*
X121542000Y-114786400D01*
X121542000Y-115186400D01*
X121942000Y-115186400D01*
X121942000Y-114786400D01*
G37*
G36*
X124342000Y-125986400D02*
G01*
X123942000Y-125986400D01*
X123942000Y-126386400D01*
X124342000Y-126386400D01*
X124342000Y-125986400D01*
G37*
G36*
X124742000Y-121586400D02*
G01*
X124342000Y-121586400D01*
X124342000Y-121986400D01*
X124742000Y-121986400D01*
X124742000Y-121586400D01*
G37*
G36*
X120742000Y-120386400D02*
G01*
X120342000Y-120386400D01*
X120342000Y-120786400D01*
X120742000Y-120786400D01*
X120742000Y-120386400D01*
G37*
G36*
X118742000Y-120386400D02*
G01*
X118342000Y-120386400D01*
X118342000Y-120786400D01*
X118742000Y-120786400D01*
X118742000Y-120386400D01*
G37*
G36*
X126742000Y-122386400D02*
G01*
X126342000Y-122386400D01*
X126342000Y-122786400D01*
X126742000Y-122786400D01*
X126742000Y-122386400D01*
G37*
G36*
X114342000Y-117986400D02*
G01*
X113942000Y-117986400D01*
X113942000Y-118386400D01*
X114342000Y-118386400D01*
X114342000Y-117986400D01*
G37*
G36*
X118742000Y-114786400D02*
G01*
X118342000Y-114786400D01*
X118342000Y-115186400D01*
X118742000Y-115186400D01*
X118742000Y-114786400D01*
G37*
G36*
X119542000Y-113186400D02*
G01*
X119142000Y-113186400D01*
X119142000Y-113586400D01*
X119542000Y-113586400D01*
X119542000Y-113186400D01*
G37*
G36*
X117542000Y-123586400D02*
G01*
X117142000Y-123586400D01*
X117142000Y-123986400D01*
X117542000Y-123986400D01*
X117542000Y-123586400D01*
G37*
G36*
X124342000Y-122786400D02*
G01*
X123942000Y-122786400D01*
X123942000Y-123186400D01*
X124342000Y-123186400D01*
X124342000Y-122786400D01*
G37*
G36*
X118342000Y-121586400D02*
G01*
X117942000Y-121586400D01*
X117942000Y-121986400D01*
X118342000Y-121986400D01*
X118342000Y-121586400D01*
G37*
G36*
X115542000Y-118386400D02*
G01*
X115142000Y-118386400D01*
X115142000Y-118786400D01*
X115542000Y-118786400D01*
X115542000Y-118386400D01*
G37*
G36*
X117542000Y-123186400D02*
G01*
X117142000Y-123186400D01*
X117142000Y-123586400D01*
X117542000Y-123586400D01*
X117542000Y-123186400D01*
G37*
G36*
X122742000Y-116786400D02*
G01*
X122342000Y-116786400D01*
X122342000Y-117186400D01*
X122742000Y-117186400D01*
X122742000Y-116786400D01*
G37*
G36*
X121542000Y-119186400D02*
G01*
X121142000Y-119186400D01*
X121142000Y-119586400D01*
X121542000Y-119586400D01*
X121542000Y-119186400D01*
G37*
G36*
X125142000Y-125186400D02*
G01*
X124742000Y-125186400D01*
X124742000Y-125586400D01*
X125142000Y-125586400D01*
X125142000Y-125186400D01*
G37*
G36*
X125942000Y-119586400D02*
G01*
X125542000Y-119586400D01*
X125542000Y-119986400D01*
X125942000Y-119986400D01*
X125942000Y-119586400D01*
G37*
G36*
X126742000Y-120386400D02*
G01*
X126342000Y-120386400D01*
X126342000Y-120786400D01*
X126742000Y-120786400D01*
X126742000Y-120386400D01*
G37*
G36*
X123142000Y-116386400D02*
G01*
X122742000Y-116386400D01*
X122742000Y-116786400D01*
X123142000Y-116786400D01*
X123142000Y-116386400D01*
G37*
G36*
X126742000Y-121586400D02*
G01*
X126342000Y-121586400D01*
X126342000Y-121986400D01*
X126742000Y-121986400D01*
X126742000Y-121586400D01*
G37*
G36*
X117542000Y-122386400D02*
G01*
X117142000Y-122386400D01*
X117142000Y-122786400D01*
X117542000Y-122786400D01*
X117542000Y-122386400D01*
G37*
G36*
X123542000Y-117586400D02*
G01*
X123142000Y-117586400D01*
X123142000Y-117986400D01*
X123542000Y-117986400D01*
X123542000Y-117586400D01*
G37*
G36*
X117942000Y-125986400D02*
G01*
X117542000Y-125986400D01*
X117542000Y-126386400D01*
X117942000Y-126386400D01*
X117942000Y-125986400D01*
G37*
G36*
X126342000Y-118786400D02*
G01*
X125942000Y-118786400D01*
X125942000Y-119186400D01*
X126342000Y-119186400D01*
X126342000Y-118786400D01*
G37*
G36*
X123142000Y-125986400D02*
G01*
X122742000Y-125986400D01*
X122742000Y-126386400D01*
X123142000Y-126386400D01*
X123142000Y-125986400D01*
G37*
G36*
X118342000Y-124386400D02*
G01*
X117942000Y-124386400D01*
X117942000Y-124786400D01*
X118342000Y-124786400D01*
X118342000Y-124386400D01*
G37*
G36*
X125142000Y-113186400D02*
G01*
X124742000Y-113186400D01*
X124742000Y-113586400D01*
X125142000Y-113586400D01*
X125142000Y-113186400D01*
G37*
G36*
X115542000Y-122786400D02*
G01*
X115142000Y-122786400D01*
X115142000Y-123186400D01*
X115542000Y-123186400D01*
X115542000Y-122786400D01*
G37*
G36*
X116342000Y-115186400D02*
G01*
X115942000Y-115186400D01*
X115942000Y-115586400D01*
X116342000Y-115586400D01*
X116342000Y-115186400D01*
G37*
G36*
X121942000Y-124386400D02*
G01*
X121542000Y-124386400D01*
X121542000Y-124786400D01*
X121942000Y-124786400D01*
X121942000Y-124386400D01*
G37*
G36*
X126742000Y-125986400D02*
G01*
X126342000Y-125986400D01*
X126342000Y-126386400D01*
X126742000Y-126386400D01*
X126742000Y-125986400D01*
G37*
G36*
X119942000Y-123186400D02*
G01*
X119542000Y-123186400D01*
X119542000Y-123586400D01*
X119942000Y-123586400D01*
X119942000Y-123186400D01*
G37*
G36*
X115542000Y-120386400D02*
G01*
X115142000Y-120386400D01*
X115142000Y-120786400D01*
X115542000Y-120786400D01*
X115542000Y-120386400D01*
G37*
G36*
X123942000Y-119586400D02*
G01*
X123542000Y-119586400D01*
X123542000Y-119986400D01*
X123942000Y-119986400D01*
X123942000Y-119586400D01*
G37*
G36*
X115942000Y-125986400D02*
G01*
X115542000Y-125986400D01*
X115542000Y-126386400D01*
X115942000Y-126386400D01*
X115942000Y-125986400D01*
G37*
G36*
X121942000Y-113586400D02*
G01*
X121542000Y-113586400D01*
X121542000Y-113986400D01*
X121942000Y-113986400D01*
X121942000Y-113586400D01*
G37*
G36*
X120742000Y-125986400D02*
G01*
X120342000Y-125986400D01*
X120342000Y-126386400D01*
X120742000Y-126386400D01*
X120742000Y-125986400D01*
G37*
G36*
X119542000Y-121186400D02*
G01*
X119142000Y-121186400D01*
X119142000Y-121586400D01*
X119542000Y-121586400D01*
X119542000Y-121186400D01*
G37*
G36*
X116742000Y-121986400D02*
G01*
X116342000Y-121986400D01*
X116342000Y-122386400D01*
X116742000Y-122386400D01*
X116742000Y-121986400D01*
G37*
G36*
X117942000Y-119586400D02*
G01*
X117542000Y-119586400D01*
X117542000Y-119986400D01*
X117942000Y-119986400D01*
X117942000Y-119586400D01*
G37*
G36*
X122342000Y-114786400D02*
G01*
X121942000Y-114786400D01*
X121942000Y-115186400D01*
X122342000Y-115186400D01*
X122342000Y-114786400D01*
G37*
G36*
X122742000Y-118386400D02*
G01*
X122342000Y-118386400D01*
X122342000Y-118786400D01*
X122742000Y-118786400D01*
X122742000Y-118386400D01*
G37*
G36*
X121142000Y-113186400D02*
G01*
X120742000Y-113186400D01*
X120742000Y-113586400D01*
X121142000Y-113586400D01*
X121142000Y-113186400D01*
G37*
G36*
X114342000Y-120786400D02*
G01*
X113942000Y-120786400D01*
X113942000Y-121186400D01*
X114342000Y-121186400D01*
X114342000Y-120786400D01*
G37*
G36*
X122742000Y-124786400D02*
G01*
X122342000Y-124786400D01*
X122342000Y-125186400D01*
X122742000Y-125186400D01*
X122742000Y-124786400D01*
G37*
G36*
X124742000Y-116386400D02*
G01*
X124342000Y-116386400D01*
X124342000Y-116786400D01*
X124742000Y-116786400D01*
X124742000Y-116386400D01*
G37*
G36*
X120742000Y-125186400D02*
G01*
X120342000Y-125186400D01*
X120342000Y-125586400D01*
X120742000Y-125586400D01*
X120742000Y-125186400D01*
G37*
G36*
X118742000Y-116786400D02*
G01*
X118342000Y-116786400D01*
X118342000Y-117186400D01*
X118742000Y-117186400D01*
X118742000Y-116786400D01*
G37*
G36*
X120342000Y-122786400D02*
G01*
X119942000Y-122786400D01*
X119942000Y-123186400D01*
X120342000Y-123186400D01*
X120342000Y-122786400D01*
G37*
G36*
X117542000Y-119986400D02*
G01*
X117142000Y-119986400D01*
X117142000Y-120386400D01*
X117542000Y-120386400D01*
X117542000Y-119986400D01*
G37*
G36*
X122742000Y-123986400D02*
G01*
X122342000Y-123986400D01*
X122342000Y-124386400D01*
X122742000Y-124386400D01*
X122742000Y-123986400D01*
G37*
G36*
X117942000Y-122786400D02*
G01*
X117542000Y-122786400D01*
X117542000Y-123186400D01*
X117942000Y-123186400D01*
X117942000Y-122786400D01*
G37*
G36*
X121542000Y-123586400D02*
G01*
X121142000Y-123586400D01*
X121142000Y-123986400D01*
X121542000Y-123986400D01*
X121542000Y-123586400D01*
G37*
G36*
X113942000Y-116786400D02*
G01*
X113542000Y-116786400D01*
X113542000Y-117186400D01*
X113942000Y-117186400D01*
X113942000Y-116786400D01*
G37*
G36*
X121542000Y-120786400D02*
G01*
X121142000Y-120786400D01*
X121142000Y-121186400D01*
X121542000Y-121186400D01*
X121542000Y-120786400D01*
G37*
G36*
X124742000Y-125986400D02*
G01*
X124342000Y-125986400D01*
X124342000Y-126386400D01*
X124742000Y-126386400D01*
X124742000Y-125986400D01*
G37*
G36*
X116342000Y-119986400D02*
G01*
X115942000Y-119986400D01*
X115942000Y-120386400D01*
X116342000Y-120386400D01*
X116342000Y-119986400D01*
G37*
G36*
X117542000Y-115186400D02*
G01*
X117142000Y-115186400D01*
X117142000Y-115586400D01*
X117542000Y-115586400D01*
X117542000Y-115186400D01*
G37*
G36*
X124742000Y-117586400D02*
G01*
X124342000Y-117586400D01*
X124342000Y-117986400D01*
X124742000Y-117986400D01*
X124742000Y-117586400D01*
G37*
G36*
X116742000Y-122386400D02*
G01*
X116342000Y-122386400D01*
X116342000Y-122786400D01*
X116742000Y-122786400D01*
X116742000Y-122386400D01*
G37*
G36*
X123142000Y-120386400D02*
G01*
X122742000Y-120386400D01*
X122742000Y-120786400D01*
X123142000Y-120786400D01*
X123142000Y-120386400D01*
G37*
G36*
X122742000Y-124386400D02*
G01*
X122342000Y-124386400D01*
X122342000Y-124786400D01*
X122742000Y-124786400D01*
X122742000Y-124386400D01*
G37*
G36*
X121942000Y-118786400D02*
G01*
X121542000Y-118786400D01*
X121542000Y-119186400D01*
X121942000Y-119186400D01*
X121942000Y-118786400D01*
G37*
G36*
X120342000Y-118786400D02*
G01*
X119942000Y-118786400D01*
X119942000Y-119186400D01*
X120342000Y-119186400D01*
X120342000Y-118786400D01*
G37*
G36*
X115542000Y-117586400D02*
G01*
X115142000Y-117586400D01*
X115142000Y-117986400D01*
X115542000Y-117986400D01*
X115542000Y-117586400D01*
G37*
G36*
X114742000Y-120786400D02*
G01*
X114342000Y-120786400D01*
X114342000Y-121186400D01*
X114742000Y-121186400D01*
X114742000Y-120786400D01*
G37*
G36*
X124342000Y-124386400D02*
G01*
X123942000Y-124386400D01*
X123942000Y-124786400D01*
X124342000Y-124786400D01*
X124342000Y-124386400D01*
G37*
G36*
X121142000Y-122786400D02*
G01*
X120742000Y-122786400D01*
X120742000Y-123186400D01*
X121142000Y-123186400D01*
X121142000Y-122786400D01*
G37*
G36*
X118742000Y-121586400D02*
G01*
X118342000Y-121586400D01*
X118342000Y-121986400D01*
X118742000Y-121986400D01*
X118742000Y-121586400D01*
G37*
G36*
X114742000Y-113986400D02*
G01*
X114342000Y-113986400D01*
X114342000Y-114386400D01*
X114742000Y-114386400D01*
X114742000Y-113986400D01*
G37*
G36*
X116342000Y-121186400D02*
G01*
X115942000Y-121186400D01*
X115942000Y-121586400D01*
X116342000Y-121586400D01*
X116342000Y-121186400D01*
G37*
G36*
X125542000Y-125986400D02*
G01*
X125142000Y-125986400D01*
X125142000Y-126386400D01*
X125542000Y-126386400D01*
X125542000Y-125986400D01*
G37*
G36*
X120342000Y-117986400D02*
G01*
X119942000Y-117986400D01*
X119942000Y-118386400D01*
X120342000Y-118386400D01*
X120342000Y-117986400D01*
G37*
G36*
X118742000Y-123586400D02*
G01*
X118342000Y-123586400D01*
X118342000Y-123986400D01*
X118742000Y-123986400D01*
X118742000Y-123586400D01*
G37*
G36*
X114742000Y-118386400D02*
G01*
X114342000Y-118386400D01*
X114342000Y-118786400D01*
X114742000Y-118786400D01*
X114742000Y-118386400D01*
G37*
G36*
X120342000Y-114786400D02*
G01*
X119942000Y-114786400D01*
X119942000Y-115186400D01*
X120342000Y-115186400D01*
X120342000Y-114786400D01*
G37*
G36*
X116342000Y-114386400D02*
G01*
X115942000Y-114386400D01*
X115942000Y-114786400D01*
X116342000Y-114786400D01*
X116342000Y-114386400D01*
G37*
G36*
X114742000Y-117586400D02*
G01*
X114342000Y-117586400D01*
X114342000Y-117986400D01*
X114742000Y-117986400D01*
X114742000Y-117586400D01*
G37*
G36*
X115142000Y-116386400D02*
G01*
X114742000Y-116386400D01*
X114742000Y-116786400D01*
X115142000Y-116786400D01*
X115142000Y-116386400D01*
G37*
G36*
X116342000Y-113186400D02*
G01*
X115942000Y-113186400D01*
X115942000Y-113586400D01*
X116342000Y-113586400D01*
X116342000Y-113186400D01*
G37*
G36*
X123142000Y-125186400D02*
G01*
X122742000Y-125186400D01*
X122742000Y-125586400D01*
X123142000Y-125586400D01*
X123142000Y-125186400D01*
G37*
G36*
X125142000Y-121586400D02*
G01*
X124742000Y-121586400D01*
X124742000Y-121986400D01*
X125142000Y-121986400D01*
X125142000Y-121586400D01*
G37*
G36*
X115142000Y-121586400D02*
G01*
X114742000Y-121586400D01*
X114742000Y-121986400D01*
X115142000Y-121986400D01*
X115142000Y-121586400D01*
G37*
G36*
X117942000Y-113986400D02*
G01*
X117542000Y-113986400D01*
X117542000Y-114386400D01*
X117942000Y-114386400D01*
X117942000Y-113986400D01*
G37*
G36*
X115542000Y-113186400D02*
G01*
X115142000Y-113186400D01*
X115142000Y-113586400D01*
X115542000Y-113586400D01*
X115542000Y-113186400D01*
G37*
G36*
X123142000Y-115186400D02*
G01*
X122742000Y-115186400D01*
X122742000Y-115586400D01*
X123142000Y-115586400D01*
X123142000Y-115186400D01*
G37*
G36*
X117142000Y-123186400D02*
G01*
X116742000Y-123186400D01*
X116742000Y-123586400D01*
X117142000Y-123586400D01*
X117142000Y-123186400D01*
G37*
G36*
X125942000Y-124386400D02*
G01*
X125542000Y-124386400D01*
X125542000Y-124786400D01*
X125942000Y-124786400D01*
X125942000Y-124386400D01*
G37*
G36*
X122742000Y-122386400D02*
G01*
X122342000Y-122386400D01*
X122342000Y-122786400D01*
X122742000Y-122786400D01*
X122742000Y-122386400D01*
G37*
G36*
X119542000Y-120386400D02*
G01*
X119142000Y-120386400D01*
X119142000Y-120786400D01*
X119542000Y-120786400D01*
X119542000Y-120386400D01*
G37*
G36*
X120742000Y-114386400D02*
G01*
X120342000Y-114386400D01*
X120342000Y-114786400D01*
X120742000Y-114786400D01*
X120742000Y-114386400D01*
G37*
G36*
X126342000Y-121586400D02*
G01*
X125942000Y-121586400D01*
X125942000Y-121986400D01*
X126342000Y-121986400D01*
X126342000Y-121586400D01*
G37*
G36*
X113942000Y-124786400D02*
G01*
X113542000Y-124786400D01*
X113542000Y-125186400D01*
X113942000Y-125186400D01*
X113942000Y-124786400D01*
G37*
G36*
X121542000Y-116786400D02*
G01*
X121142000Y-116786400D01*
X121142000Y-117186400D01*
X121542000Y-117186400D01*
X121542000Y-116786400D01*
G37*
G36*
X124342000Y-115186400D02*
G01*
X123942000Y-115186400D01*
X123942000Y-115586400D01*
X124342000Y-115586400D01*
X124342000Y-115186400D01*
G37*
G36*
X118742000Y-115986400D02*
G01*
X118342000Y-115986400D01*
X118342000Y-116386400D01*
X118742000Y-116386400D01*
X118742000Y-115986400D01*
G37*
G36*
X115942000Y-125186400D02*
G01*
X115542000Y-125186400D01*
X115542000Y-125586400D01*
X115942000Y-125586400D01*
X115942000Y-125186400D01*
G37*
G36*
X121142000Y-120386400D02*
G01*
X120742000Y-120386400D01*
X120742000Y-120786400D01*
X121142000Y-120786400D01*
X121142000Y-120386400D01*
G37*
G36*
X119942000Y-123986400D02*
G01*
X119542000Y-123986400D01*
X119542000Y-124386400D01*
X119942000Y-124386400D01*
X119942000Y-123986400D01*
G37*
G36*
X126742000Y-118386400D02*
G01*
X126342000Y-118386400D01*
X126342000Y-118786400D01*
X126742000Y-118786400D01*
X126742000Y-118386400D01*
G37*
G36*
X117142000Y-123586400D02*
G01*
X116742000Y-123586400D01*
X116742000Y-123986400D01*
X117142000Y-123986400D01*
X117142000Y-123586400D01*
G37*
G36*
X120342000Y-115986400D02*
G01*
X119942000Y-115986400D01*
X119942000Y-116386400D01*
X120342000Y-116386400D01*
X120342000Y-115986400D01*
G37*
G36*
X119542000Y-124786400D02*
G01*
X119142000Y-124786400D01*
X119142000Y-125186400D01*
X119542000Y-125186400D01*
X119542000Y-124786400D01*
G37*
G36*
X125142000Y-125986400D02*
G01*
X124742000Y-125986400D01*
X124742000Y-126386400D01*
X125142000Y-126386400D01*
X125142000Y-125986400D01*
G37*
G36*
X125542000Y-114786400D02*
G01*
X125142000Y-114786400D01*
X125142000Y-115186400D01*
X125542000Y-115186400D01*
X125542000Y-114786400D01*
G37*
G36*
X124342000Y-120386400D02*
G01*
X123942000Y-120386400D01*
X123942000Y-120786400D01*
X124342000Y-120786400D01*
X124342000Y-120386400D01*
G37*
G36*
X116342000Y-116386400D02*
G01*
X115942000Y-116386400D01*
X115942000Y-116786400D01*
X116342000Y-116786400D01*
X116342000Y-116386400D01*
G37*
G36*
X125142000Y-120386400D02*
G01*
X124742000Y-120386400D01*
X124742000Y-120786400D01*
X125142000Y-120786400D01*
X125142000Y-120386400D01*
G37*
G36*
X125142000Y-114386400D02*
G01*
X124742000Y-114386400D01*
X124742000Y-114786400D01*
X125142000Y-114786400D01*
X125142000Y-114386400D01*
G37*
G36*
X124342000Y-113986400D02*
G01*
X123942000Y-113986400D01*
X123942000Y-114386400D01*
X124342000Y-114386400D01*
X124342000Y-113986400D01*
G37*
G36*
X115142000Y-113986400D02*
G01*
X114742000Y-113986400D01*
X114742000Y-114386400D01*
X115142000Y-114386400D01*
X115142000Y-113986400D01*
G37*
G36*
X121542000Y-125586400D02*
G01*
X121142000Y-125586400D01*
X121142000Y-125986400D01*
X121542000Y-125986400D01*
X121542000Y-125586400D01*
G37*
G36*
X119542000Y-113586400D02*
G01*
X119142000Y-113586400D01*
X119142000Y-113986400D01*
X119542000Y-113986400D01*
X119542000Y-113586400D01*
G37*
G36*
X118342000Y-114786400D02*
G01*
X117942000Y-114786400D01*
X117942000Y-115186400D01*
X118342000Y-115186400D01*
X118342000Y-114786400D01*
G37*
G36*
X126742000Y-115186400D02*
G01*
X126342000Y-115186400D01*
X126342000Y-115586400D01*
X126742000Y-115586400D01*
X126742000Y-115186400D01*
G37*
G36*
X120742000Y-119586400D02*
G01*
X120342000Y-119586400D01*
X120342000Y-119986400D01*
X120742000Y-119986400D01*
X120742000Y-119586400D01*
G37*
G36*
X117142000Y-121186400D02*
G01*
X116742000Y-121186400D01*
X116742000Y-121586400D01*
X117142000Y-121586400D01*
X117142000Y-121186400D01*
G37*
G36*
X116342000Y-118786400D02*
G01*
X115942000Y-118786400D01*
X115942000Y-119186400D01*
X116342000Y-119186400D01*
X116342000Y-118786400D01*
G37*
G36*
X115142000Y-125586400D02*
G01*
X114742000Y-125586400D01*
X114742000Y-125986400D01*
X115142000Y-125986400D01*
X115142000Y-125586400D01*
G37*
G36*
X115142000Y-116786400D02*
G01*
X114742000Y-116786400D01*
X114742000Y-117186400D01*
X115142000Y-117186400D01*
X115142000Y-116786400D01*
G37*
G36*
X125142000Y-115586400D02*
G01*
X124742000Y-115586400D01*
X124742000Y-115986400D01*
X125142000Y-115986400D01*
X125142000Y-115586400D01*
G37*
G36*
X125142000Y-119186400D02*
G01*
X124742000Y-119186400D01*
X124742000Y-119586400D01*
X125142000Y-119586400D01*
X125142000Y-119186400D01*
G37*
G36*
X123542000Y-122786400D02*
G01*
X123142000Y-122786400D01*
X123142000Y-123186400D01*
X123542000Y-123186400D01*
X123542000Y-122786400D01*
G37*
G36*
X125142000Y-117986400D02*
G01*
X124742000Y-117986400D01*
X124742000Y-118386400D01*
X125142000Y-118386400D01*
X125142000Y-117986400D01*
G37*
G36*
X126342000Y-119186400D02*
G01*
X125942000Y-119186400D01*
X125942000Y-119586400D01*
X126342000Y-119586400D01*
X126342000Y-119186400D01*
G37*
G36*
X117142000Y-125986400D02*
G01*
X116742000Y-125986400D01*
X116742000Y-126386400D01*
X117142000Y-126386400D01*
X117142000Y-125986400D01*
G37*
G36*
X117942000Y-123586400D02*
G01*
X117542000Y-123586400D01*
X117542000Y-123986400D01*
X117942000Y-123986400D01*
X117942000Y-123586400D01*
G37*
G36*
X116342000Y-120386400D02*
G01*
X115942000Y-120386400D01*
X115942000Y-120786400D01*
X116342000Y-120786400D01*
X116342000Y-120386400D01*
G37*
G36*
X126342000Y-117986400D02*
G01*
X125942000Y-117986400D01*
X125942000Y-118386400D01*
X126342000Y-118386400D01*
X126342000Y-117986400D01*
G37*
G36*
X123942000Y-120786400D02*
G01*
X123542000Y-120786400D01*
X123542000Y-121186400D01*
X123942000Y-121186400D01*
X123942000Y-120786400D01*
G37*
G36*
X118342000Y-113186400D02*
G01*
X117942000Y-113186400D01*
X117942000Y-113586400D01*
X118342000Y-113586400D01*
X118342000Y-113186400D01*
G37*
G36*
X125942000Y-115586400D02*
G01*
X125542000Y-115586400D01*
X125542000Y-115986400D01*
X125942000Y-115986400D01*
X125942000Y-115586400D01*
G37*
G36*
X117542000Y-123986400D02*
G01*
X117142000Y-123986400D01*
X117142000Y-124386400D01*
X117542000Y-124386400D01*
X117542000Y-123986400D01*
G37*
G36*
X115942000Y-120786400D02*
G01*
X115542000Y-120786400D01*
X115542000Y-121186400D01*
X115942000Y-121186400D01*
X115942000Y-120786400D01*
G37*
G36*
X124342000Y-114786400D02*
G01*
X123942000Y-114786400D01*
X123942000Y-115186400D01*
X124342000Y-115186400D01*
X124342000Y-114786400D01*
G37*
G36*
X114742000Y-124786400D02*
G01*
X114342000Y-124786400D01*
X114342000Y-125186400D01*
X114742000Y-125186400D01*
X114742000Y-124786400D01*
G37*
G36*
X114742000Y-121986400D02*
G01*
X114342000Y-121986400D01*
X114342000Y-122386400D01*
X114742000Y-122386400D01*
X114742000Y-121986400D01*
G37*
G36*
X115142000Y-125986400D02*
G01*
X114742000Y-125986400D01*
X114742000Y-126386400D01*
X115142000Y-126386400D01*
X115142000Y-125986400D01*
G37*
G36*
X114342000Y-122786400D02*
G01*
X113942000Y-122786400D01*
X113942000Y-123186400D01*
X114342000Y-123186400D01*
X114342000Y-122786400D01*
G37*
G36*
X114342000Y-120386400D02*
G01*
X113942000Y-120386400D01*
X113942000Y-120786400D01*
X114342000Y-120786400D01*
X114342000Y-120386400D01*
G37*
G36*
X126342000Y-117586400D02*
G01*
X125942000Y-117586400D01*
X125942000Y-117986400D01*
X126342000Y-117986400D01*
X126342000Y-117586400D01*
G37*
G36*
X118342000Y-120786400D02*
G01*
X117942000Y-120786400D01*
X117942000Y-121186400D01*
X118342000Y-121186400D01*
X118342000Y-120786400D01*
G37*
G36*
X119542000Y-115586400D02*
G01*
X119142000Y-115586400D01*
X119142000Y-115986400D01*
X119542000Y-115986400D01*
X119542000Y-115586400D01*
G37*
G36*
X120742000Y-113586400D02*
G01*
X120342000Y-113586400D01*
X120342000Y-113986400D01*
X120742000Y-113986400D01*
X120742000Y-113586400D01*
G37*
G36*
X121142000Y-113986400D02*
G01*
X120742000Y-113986400D01*
X120742000Y-114386400D01*
X121142000Y-114386400D01*
X121142000Y-113986400D01*
G37*
G36*
X122742000Y-123586400D02*
G01*
X122342000Y-123586400D01*
X122342000Y-123986400D01*
X122742000Y-123986400D01*
X122742000Y-123586400D01*
G37*
G36*
X125942000Y-122786400D02*
G01*
X125542000Y-122786400D01*
X125542000Y-123186400D01*
X125942000Y-123186400D01*
X125942000Y-122786400D01*
G37*
G36*
X115942000Y-119586400D02*
G01*
X115542000Y-119586400D01*
X115542000Y-119986400D01*
X115942000Y-119986400D01*
X115942000Y-119586400D01*
G37*
G36*
X116742000Y-119186400D02*
G01*
X116342000Y-119186400D01*
X116342000Y-119586400D01*
X116742000Y-119586400D01*
X116742000Y-119186400D01*
G37*
G36*
X125142000Y-118386400D02*
G01*
X124742000Y-118386400D01*
X124742000Y-118786400D01*
X125142000Y-118786400D01*
X125142000Y-118386400D01*
G37*
G36*
X125942000Y-117586400D02*
G01*
X125542000Y-117586400D01*
X125542000Y-117986400D01*
X125942000Y-117986400D01*
X125942000Y-117586400D01*
G37*
G36*
X118742000Y-120786400D02*
G01*
X118342000Y-120786400D01*
X118342000Y-121186400D01*
X118742000Y-121186400D01*
X118742000Y-120786400D01*
G37*
G36*
X119542000Y-119986400D02*
G01*
X119142000Y-119986400D01*
X119142000Y-120386400D01*
X119542000Y-120386400D01*
X119542000Y-119986400D01*
G37*
G36*
X117942000Y-118786400D02*
G01*
X117542000Y-118786400D01*
X117542000Y-119186400D01*
X117942000Y-119186400D01*
X117942000Y-118786400D01*
G37*
G36*
X123942000Y-120386400D02*
G01*
X123542000Y-120386400D01*
X123542000Y-120786400D01*
X123942000Y-120786400D01*
X123942000Y-120386400D01*
G37*
G36*
X114342000Y-115586400D02*
G01*
X113942000Y-115586400D01*
X113942000Y-115986400D01*
X114342000Y-115986400D01*
X114342000Y-115586400D01*
G37*
G36*
X126742000Y-113186400D02*
G01*
X126342000Y-113186400D01*
X126342000Y-113586400D01*
X126742000Y-113586400D01*
X126742000Y-113186400D01*
G37*
G36*
X126742000Y-125186400D02*
G01*
X126342000Y-125186400D01*
X126342000Y-125586400D01*
X126742000Y-125586400D01*
X126742000Y-125186400D01*
G37*
G36*
X113942000Y-113986400D02*
G01*
X113542000Y-113986400D01*
X113542000Y-114386400D01*
X113942000Y-114386400D01*
X113942000Y-113986400D01*
G37*
G36*
X121942000Y-120386400D02*
G01*
X121542000Y-120386400D01*
X121542000Y-120786400D01*
X121942000Y-120786400D01*
X121942000Y-120386400D01*
G37*
G36*
X115942000Y-116386400D02*
G01*
X115542000Y-116386400D01*
X115542000Y-116786400D01*
X115942000Y-116786400D01*
X115942000Y-116386400D01*
G37*
G36*
X121142000Y-121586400D02*
G01*
X120742000Y-121586400D01*
X120742000Y-121986400D01*
X121142000Y-121986400D01*
X121142000Y-121586400D01*
G37*
G36*
X120742000Y-121586400D02*
G01*
X120342000Y-121586400D01*
X120342000Y-121986400D01*
X120742000Y-121986400D01*
X120742000Y-121586400D01*
G37*
G36*
X122342000Y-123586400D02*
G01*
X121942000Y-123586400D01*
X121942000Y-123986400D01*
X122342000Y-123986400D01*
X122342000Y-123586400D01*
G37*
G36*
X117542000Y-122786400D02*
G01*
X117142000Y-122786400D01*
X117142000Y-123186400D01*
X117542000Y-123186400D01*
X117542000Y-122786400D01*
G37*
G36*
X119142000Y-121186400D02*
G01*
X118742000Y-121186400D01*
X118742000Y-121586400D01*
X119142000Y-121586400D01*
X119142000Y-121186400D01*
G37*
G36*
X117142000Y-121986400D02*
G01*
X116742000Y-121986400D01*
X116742000Y-122386400D01*
X117142000Y-122386400D01*
X117142000Y-121986400D01*
G37*
G36*
X120742000Y-118386400D02*
G01*
X120342000Y-118386400D01*
X120342000Y-118786400D01*
X120742000Y-118786400D01*
X120742000Y-118386400D01*
G37*
G36*
X126742000Y-124386400D02*
G01*
X126342000Y-124386400D01*
X126342000Y-124786400D01*
X126742000Y-124786400D01*
X126742000Y-124386400D01*
G37*
G36*
X114342000Y-123586400D02*
G01*
X113942000Y-123586400D01*
X113942000Y-123986400D01*
X114342000Y-123986400D01*
X114342000Y-123586400D01*
G37*
G36*
X117942000Y-114786400D02*
G01*
X117542000Y-114786400D01*
X117542000Y-115186400D01*
X117942000Y-115186400D01*
X117942000Y-114786400D01*
G37*
G36*
X119142000Y-120786400D02*
G01*
X118742000Y-120786400D01*
X118742000Y-121186400D01*
X119142000Y-121186400D01*
X119142000Y-120786400D01*
G37*
G36*
X121142000Y-123986400D02*
G01*
X120742000Y-123986400D01*
X120742000Y-124386400D01*
X121142000Y-124386400D01*
X121142000Y-123986400D01*
G37*
G36*
X115542000Y-116386400D02*
G01*
X115142000Y-116386400D01*
X115142000Y-116786400D01*
X115542000Y-116786400D01*
X115542000Y-116386400D01*
G37*
G36*
X123942000Y-121986400D02*
G01*
X123542000Y-121986400D01*
X123542000Y-122386400D01*
X123942000Y-122386400D01*
X123942000Y-121986400D01*
G37*
G36*
X119142000Y-116386400D02*
G01*
X118742000Y-116386400D01*
X118742000Y-116786400D01*
X119142000Y-116786400D01*
X119142000Y-116386400D01*
G37*
G36*
X123942000Y-117986400D02*
G01*
X123542000Y-117986400D01*
X123542000Y-118386400D01*
X123942000Y-118386400D01*
X123942000Y-117986400D01*
G37*
G36*
X117942000Y-120786400D02*
G01*
X117542000Y-120786400D01*
X117542000Y-121186400D01*
X117942000Y-121186400D01*
X117942000Y-120786400D01*
G37*
G36*
X123542000Y-115186400D02*
G01*
X123142000Y-115186400D01*
X123142000Y-115586400D01*
X123542000Y-115586400D01*
X123542000Y-115186400D01*
G37*
G36*
X117942000Y-124386400D02*
G01*
X117542000Y-124386400D01*
X117542000Y-124786400D01*
X117942000Y-124786400D01*
X117942000Y-124386400D01*
G37*
G36*
X123542000Y-115986400D02*
G01*
X123142000Y-115986400D01*
X123142000Y-116386400D01*
X123542000Y-116386400D01*
X123542000Y-115986400D01*
G37*
G36*
X117142000Y-114386400D02*
G01*
X116742000Y-114386400D01*
X116742000Y-114786400D01*
X117142000Y-114786400D01*
X117142000Y-114386400D01*
G37*
G36*
X118742000Y-116386400D02*
G01*
X118342000Y-116386400D01*
X118342000Y-116786400D01*
X118742000Y-116786400D01*
X118742000Y-116386400D01*
G37*
G36*
X123542000Y-121186400D02*
G01*
X123142000Y-121186400D01*
X123142000Y-121586400D01*
X123542000Y-121586400D01*
X123542000Y-121186400D01*
G37*
G36*
X121542000Y-124786400D02*
G01*
X121142000Y-124786400D01*
X121142000Y-125186400D01*
X121542000Y-125186400D01*
X121542000Y-124786400D01*
G37*
G36*
X115942000Y-121986400D02*
G01*
X115542000Y-121986400D01*
X115542000Y-122386400D01*
X115942000Y-122386400D01*
X115942000Y-121986400D01*
G37*
G36*
X115942000Y-117986400D02*
G01*
X115542000Y-117986400D01*
X115542000Y-118386400D01*
X115942000Y-118386400D01*
X115942000Y-117986400D01*
G37*
G36*
X123142000Y-114386400D02*
G01*
X122742000Y-114386400D01*
X122742000Y-114786400D01*
X123142000Y-114786400D01*
X123142000Y-114386400D01*
G37*
G36*
X125942000Y-118386400D02*
G01*
X125542000Y-118386400D01*
X125542000Y-118786400D01*
X125942000Y-118786400D01*
X125942000Y-118386400D01*
G37*
G36*
X125942000Y-119986400D02*
G01*
X125542000Y-119986400D01*
X125542000Y-120386400D01*
X125942000Y-120386400D01*
X125942000Y-119986400D01*
G37*
G36*
X125142000Y-119986400D02*
G01*
X124742000Y-119986400D01*
X124742000Y-120386400D01*
X125142000Y-120386400D01*
X125142000Y-119986400D01*
G37*
G36*
X116342000Y-115586400D02*
G01*
X115942000Y-115586400D01*
X115942000Y-115986400D01*
X116342000Y-115986400D01*
X116342000Y-115586400D01*
G37*
G36*
X124742000Y-122786400D02*
G01*
X124342000Y-122786400D01*
X124342000Y-123186400D01*
X124742000Y-123186400D01*
X124742000Y-122786400D01*
G37*
G36*
X118742000Y-124386400D02*
G01*
X118342000Y-124386400D01*
X118342000Y-124786400D01*
X118742000Y-124786400D01*
X118742000Y-124386400D01*
G37*
G36*
X126342000Y-125986400D02*
G01*
X125942000Y-125986400D01*
X125942000Y-126386400D01*
X126342000Y-126386400D01*
X126342000Y-125986400D01*
G37*
G36*
X115542000Y-124386400D02*
G01*
X115142000Y-124386400D01*
X115142000Y-124786400D01*
X115542000Y-124786400D01*
X115542000Y-124386400D01*
G37*
G36*
X121542000Y-117586400D02*
G01*
X121142000Y-117586400D01*
X121142000Y-117986400D01*
X121542000Y-117986400D01*
X121542000Y-117586400D01*
G37*
G36*
X115142000Y-119186400D02*
G01*
X114742000Y-119186400D01*
X114742000Y-119586400D01*
X115142000Y-119586400D01*
X115142000Y-119186400D01*
G37*
G36*
X117542000Y-117986400D02*
G01*
X117142000Y-117986400D01*
X117142000Y-118386400D01*
X117542000Y-118386400D01*
X117542000Y-117986400D01*
G37*
G36*
X115542000Y-119186400D02*
G01*
X115142000Y-119186400D01*
X115142000Y-119586400D01*
X115542000Y-119586400D01*
X115542000Y-119186400D01*
G37*
G36*
X124342000Y-117986400D02*
G01*
X123942000Y-117986400D01*
X123942000Y-118386400D01*
X124342000Y-118386400D01*
X124342000Y-117986400D01*
G37*
G36*
X120342000Y-120386400D02*
G01*
X119942000Y-120386400D01*
X119942000Y-120786400D01*
X120342000Y-120786400D01*
X120342000Y-120386400D01*
G37*
G36*
X126742000Y-114786400D02*
G01*
X126342000Y-114786400D01*
X126342000Y-115186400D01*
X126742000Y-115186400D01*
X126742000Y-114786400D01*
G37*
G36*
X118342000Y-113586400D02*
G01*
X117942000Y-113586400D01*
X117942000Y-113986400D01*
X118342000Y-113986400D01*
X118342000Y-113586400D01*
G37*
G36*
X118742000Y-119986400D02*
G01*
X118342000Y-119986400D01*
X118342000Y-120386400D01*
X118742000Y-120386400D01*
X118742000Y-119986400D01*
G37*
G36*
X121542000Y-121186400D02*
G01*
X121142000Y-121186400D01*
X121142000Y-121586400D01*
X121542000Y-121586400D01*
X121542000Y-121186400D01*
G37*
G36*
X122342000Y-118386400D02*
G01*
X121942000Y-118386400D01*
X121942000Y-118786400D01*
X122342000Y-118786400D01*
X122342000Y-118386400D01*
G37*
G36*
X116742000Y-124786400D02*
G01*
X116342000Y-124786400D01*
X116342000Y-125186400D01*
X116742000Y-125186400D01*
X116742000Y-124786400D01*
G37*
G36*
X117142000Y-119586400D02*
G01*
X116742000Y-119586400D01*
X116742000Y-119986400D01*
X117142000Y-119986400D01*
X117142000Y-119586400D01*
G37*
G36*
X116342000Y-119186400D02*
G01*
X115942000Y-119186400D01*
X115942000Y-119586400D01*
X116342000Y-119586400D01*
X116342000Y-119186400D01*
G37*
G36*
X122742000Y-121186400D02*
G01*
X122342000Y-121186400D01*
X122342000Y-121586400D01*
X122742000Y-121586400D01*
X122742000Y-121186400D01*
G37*
G36*
X112982400Y-79301600D02*
G01*
X112582400Y-79301600D01*
X112582400Y-79701600D01*
X112982400Y-79701600D01*
X112982400Y-79301600D01*
G37*
G36*
X119382400Y-76101600D02*
G01*
X118982400Y-76101600D01*
X118982400Y-76501600D01*
X119382400Y-76501600D01*
X119382400Y-76101600D01*
G37*
G36*
X111782400Y-74501600D02*
G01*
X111382400Y-74501600D01*
X111382400Y-74901600D01*
X111782400Y-74901600D01*
X111782400Y-74501600D01*
G37*
G36*
X113782400Y-79301600D02*
G01*
X113382400Y-79301600D01*
X113382400Y-79701600D01*
X113782400Y-79701600D01*
X113782400Y-79301600D01*
G37*
G36*
X114182400Y-69701600D02*
G01*
X113782400Y-69701600D01*
X113782400Y-70101600D01*
X114182400Y-70101600D01*
X114182400Y-69701600D01*
G37*
G36*
X110982400Y-72501600D02*
G01*
X110582400Y-72501600D01*
X110582400Y-72901600D01*
X110982400Y-72901600D01*
X110982400Y-72501600D01*
G37*
G36*
X118982400Y-81301600D02*
G01*
X118582400Y-81301600D01*
X118582400Y-81701600D01*
X118982400Y-81701600D01*
X118982400Y-81301600D01*
G37*
G36*
X114982400Y-78901600D02*
G01*
X114582400Y-78901600D01*
X114582400Y-79301600D01*
X114982400Y-79301600D01*
X114982400Y-78901600D01*
G37*
G36*
X112582400Y-82101600D02*
G01*
X112182400Y-82101600D01*
X112182400Y-82501600D01*
X112582400Y-82501600D01*
X112582400Y-82101600D01*
G37*
G36*
X118982400Y-81701600D02*
G01*
X118582400Y-81701600D01*
X118582400Y-82101600D01*
X118982400Y-82101600D01*
X118982400Y-81701600D01*
G37*
G36*
X118182400Y-76901600D02*
G01*
X117782400Y-76901600D01*
X117782400Y-77301600D01*
X118182400Y-77301600D01*
X118182400Y-76901600D01*
G37*
G36*
X118582400Y-80901600D02*
G01*
X118182400Y-80901600D01*
X118182400Y-81301600D01*
X118582400Y-81301600D01*
X118582400Y-80901600D01*
G37*
G36*
X109382400Y-80101600D02*
G01*
X108982400Y-80101600D01*
X108982400Y-80501600D01*
X109382400Y-80501600D01*
X109382400Y-80101600D01*
G37*
G36*
X108182400Y-73701600D02*
G01*
X107782400Y-73701600D01*
X107782400Y-74101600D01*
X108182400Y-74101600D01*
X108182400Y-73701600D01*
G37*
G36*
X111782400Y-77701600D02*
G01*
X111382400Y-77701600D01*
X111382400Y-78101600D01*
X111782400Y-78101600D01*
X111782400Y-77701600D01*
G37*
G36*
X116982400Y-73301600D02*
G01*
X116582400Y-73301600D01*
X116582400Y-73701600D01*
X116982400Y-73701600D01*
X116982400Y-73301600D01*
G37*
G36*
X108582400Y-70501600D02*
G01*
X108182400Y-70501600D01*
X108182400Y-70901600D01*
X108582400Y-70901600D01*
X108582400Y-70501600D01*
G37*
G36*
X117782400Y-74901600D02*
G01*
X117382400Y-74901600D01*
X117382400Y-75301600D01*
X117782400Y-75301600D01*
X117782400Y-74901600D01*
G37*
G36*
X118982400Y-74501600D02*
G01*
X118582400Y-74501600D01*
X118582400Y-74901600D01*
X118982400Y-74901600D01*
X118982400Y-74501600D01*
G37*
G36*
X108982400Y-81301600D02*
G01*
X108582400Y-81301600D01*
X108582400Y-81701600D01*
X108982400Y-81701600D01*
X108982400Y-81301600D01*
G37*
G36*
X109382400Y-70901600D02*
G01*
X108982400Y-70901600D01*
X108982400Y-71301600D01*
X109382400Y-71301600D01*
X109382400Y-70901600D01*
G37*
G36*
X107782400Y-79701600D02*
G01*
X107382400Y-79701600D01*
X107382400Y-80101600D01*
X107782400Y-80101600D01*
X107782400Y-79701600D01*
G37*
G36*
X114582400Y-69701600D02*
G01*
X114182400Y-69701600D01*
X114182400Y-70101600D01*
X114582400Y-70101600D01*
X114582400Y-69701600D01*
G37*
G36*
X113782400Y-80501600D02*
G01*
X113382400Y-80501600D01*
X113382400Y-80901600D01*
X113782400Y-80901600D01*
X113782400Y-80501600D01*
G37*
G36*
X118582400Y-70901600D02*
G01*
X118182400Y-70901600D01*
X118182400Y-71301600D01*
X118582400Y-71301600D01*
X118582400Y-70901600D01*
G37*
G36*
X109782400Y-72901600D02*
G01*
X109382400Y-72901600D01*
X109382400Y-73301600D01*
X109782400Y-73301600D01*
X109782400Y-72901600D01*
G37*
G36*
X111782400Y-80901600D02*
G01*
X111382400Y-80901600D01*
X111382400Y-81301600D01*
X111782400Y-81301600D01*
X111782400Y-80901600D01*
G37*
G36*
X115382400Y-74501600D02*
G01*
X114982400Y-74501600D01*
X114982400Y-74901600D01*
X115382400Y-74901600D01*
X115382400Y-74501600D01*
G37*
G36*
X116582400Y-73701600D02*
G01*
X116182400Y-73701600D01*
X116182400Y-74101600D01*
X116582400Y-74101600D01*
X116582400Y-73701600D01*
G37*
G36*
X111782400Y-78501600D02*
G01*
X111382400Y-78501600D01*
X111382400Y-78901600D01*
X111782400Y-78901600D01*
X111782400Y-78501600D01*
G37*
G36*
X108182400Y-80101600D02*
G01*
X107782400Y-80101600D01*
X107782400Y-80501600D01*
X108182400Y-80501600D01*
X108182400Y-80101600D01*
G37*
G36*
X112982400Y-76101600D02*
G01*
X112582400Y-76101600D01*
X112582400Y-76501600D01*
X112982400Y-76501600D01*
X112982400Y-76101600D01*
G37*
G36*
X108582400Y-79301600D02*
G01*
X108182400Y-79301600D01*
X108182400Y-79701600D01*
X108582400Y-79701600D01*
X108582400Y-79301600D01*
G37*
G36*
X114582400Y-74901600D02*
G01*
X114182400Y-74901600D01*
X114182400Y-75301600D01*
X114582400Y-75301600D01*
X114582400Y-74901600D01*
G37*
G36*
X116182400Y-70501600D02*
G01*
X115782400Y-70501600D01*
X115782400Y-70901600D01*
X116182400Y-70901600D01*
X116182400Y-70501600D01*
G37*
G36*
X108582400Y-81301600D02*
G01*
X108182400Y-81301600D01*
X108182400Y-81701600D01*
X108582400Y-81701600D01*
X108582400Y-81301600D01*
G37*
G36*
X113382400Y-82101600D02*
G01*
X112982400Y-82101600D01*
X112982400Y-82501600D01*
X113382400Y-82501600D01*
X113382400Y-82101600D01*
G37*
G36*
X108982400Y-72901600D02*
G01*
X108582400Y-72901600D01*
X108582400Y-73301600D01*
X108982400Y-73301600D01*
X108982400Y-72901600D01*
G37*
G36*
X108182400Y-76901600D02*
G01*
X107782400Y-76901600D01*
X107782400Y-77301600D01*
X108182400Y-77301600D01*
X108182400Y-76901600D01*
G37*
G36*
X112982400Y-80101600D02*
G01*
X112582400Y-80101600D01*
X112582400Y-80501600D01*
X112982400Y-80501600D01*
X112982400Y-80101600D01*
G37*
G36*
X106982400Y-74101600D02*
G01*
X106582400Y-74101600D01*
X106582400Y-74501600D01*
X106982400Y-74501600D01*
X106982400Y-74101600D01*
G37*
G36*
X113782400Y-74501600D02*
G01*
X113382400Y-74501600D01*
X113382400Y-74901600D01*
X113782400Y-74901600D01*
X113782400Y-74501600D01*
G37*
G36*
X110182400Y-76501600D02*
G01*
X109782400Y-76501600D01*
X109782400Y-76901600D01*
X110182400Y-76901600D01*
X110182400Y-76501600D01*
G37*
G36*
X110582400Y-76501600D02*
G01*
X110182400Y-76501600D01*
X110182400Y-76901600D01*
X110582400Y-76901600D01*
X110582400Y-76501600D01*
G37*
G36*
X107382400Y-75301600D02*
G01*
X106982400Y-75301600D01*
X106982400Y-75701600D01*
X107382400Y-75701600D01*
X107382400Y-75301600D01*
G37*
G36*
X109382400Y-81701600D02*
G01*
X108982400Y-81701600D01*
X108982400Y-82101600D01*
X109382400Y-82101600D01*
X109382400Y-81701600D01*
G37*
G36*
X106982400Y-72901600D02*
G01*
X106582400Y-72901600D01*
X106582400Y-73301600D01*
X106982400Y-73301600D01*
X106982400Y-72901600D01*
G37*
G36*
X114582400Y-78901600D02*
G01*
X114182400Y-78901600D01*
X114182400Y-79301600D01*
X114582400Y-79301600D01*
X114582400Y-78901600D01*
G37*
G36*
X115382400Y-69701600D02*
G01*
X114982400Y-69701600D01*
X114982400Y-70101600D01*
X115382400Y-70101600D01*
X115382400Y-69701600D01*
G37*
G36*
X116982400Y-73701600D02*
G01*
X116582400Y-73701600D01*
X116582400Y-74101600D01*
X116982400Y-74101600D01*
X116982400Y-73701600D01*
G37*
G36*
X113782400Y-81701600D02*
G01*
X113382400Y-81701600D01*
X113382400Y-82101600D01*
X113782400Y-82101600D01*
X113782400Y-81701600D01*
G37*
G36*
X108182400Y-79301600D02*
G01*
X107782400Y-79301600D01*
X107782400Y-79701600D01*
X108182400Y-79701600D01*
X108182400Y-79301600D01*
G37*
G36*
X109782400Y-77301600D02*
G01*
X109382400Y-77301600D01*
X109382400Y-77701600D01*
X109782400Y-77701600D01*
X109782400Y-77301600D01*
G37*
G36*
X110582400Y-78901600D02*
G01*
X110182400Y-78901600D01*
X110182400Y-79301600D01*
X110582400Y-79301600D01*
X110582400Y-78901600D01*
G37*
G36*
X119782400Y-70901600D02*
G01*
X119382400Y-70901600D01*
X119382400Y-71301600D01*
X119782400Y-71301600D01*
X119782400Y-70901600D01*
G37*
G36*
X106982400Y-70501600D02*
G01*
X106582400Y-70501600D01*
X106582400Y-70901600D01*
X106982400Y-70901600D01*
X106982400Y-70501600D01*
G37*
G36*
X113782400Y-73701600D02*
G01*
X113382400Y-73701600D01*
X113382400Y-74101600D01*
X113782400Y-74101600D01*
X113782400Y-73701600D01*
G37*
G36*
X118182400Y-70901600D02*
G01*
X117782400Y-70901600D01*
X117782400Y-71301600D01*
X118182400Y-71301600D01*
X118182400Y-70901600D01*
G37*
G36*
X111382400Y-78101600D02*
G01*
X110982400Y-78101600D01*
X110982400Y-78501600D01*
X111382400Y-78501600D01*
X111382400Y-78101600D01*
G37*
G36*
X116582400Y-76501600D02*
G01*
X116182400Y-76501600D01*
X116182400Y-76901600D01*
X116582400Y-76901600D01*
X116582400Y-76501600D01*
G37*
G36*
X111382400Y-78901600D02*
G01*
X110982400Y-78901600D01*
X110982400Y-79301600D01*
X111382400Y-79301600D01*
X111382400Y-78901600D01*
G37*
G36*
X111782400Y-82501600D02*
G01*
X111382400Y-82501600D01*
X111382400Y-82901600D01*
X111782400Y-82901600D01*
X111782400Y-82501600D01*
G37*
G36*
X107782400Y-73301600D02*
G01*
X107382400Y-73301600D01*
X107382400Y-73701600D01*
X107782400Y-73701600D01*
X107782400Y-73301600D01*
G37*
G36*
X118982400Y-69701600D02*
G01*
X118582400Y-69701600D01*
X118582400Y-70101600D01*
X118982400Y-70101600D01*
X118982400Y-69701600D01*
G37*
G36*
X108982400Y-80901600D02*
G01*
X108582400Y-80901600D01*
X108582400Y-81301600D01*
X108982400Y-81301600D01*
X108982400Y-80901600D01*
G37*
G36*
X110582400Y-81301600D02*
G01*
X110182400Y-81301600D01*
X110182400Y-81701600D01*
X110582400Y-81701600D01*
X110582400Y-81301600D01*
G37*
G36*
X111782400Y-70501600D02*
G01*
X111382400Y-70501600D01*
X111382400Y-70901600D01*
X111782400Y-70901600D01*
X111782400Y-70501600D01*
G37*
G36*
X116982400Y-72901600D02*
G01*
X116582400Y-72901600D01*
X116582400Y-73301600D01*
X116982400Y-73301600D01*
X116982400Y-72901600D01*
G37*
G36*
X119782400Y-73701600D02*
G01*
X119382400Y-73701600D01*
X119382400Y-74101600D01*
X119782400Y-74101600D01*
X119782400Y-73701600D01*
G37*
G36*
X114582400Y-71701600D02*
G01*
X114182400Y-71701600D01*
X114182400Y-72101600D01*
X114582400Y-72101600D01*
X114582400Y-71701600D01*
G37*
G36*
X117382400Y-78501600D02*
G01*
X116982400Y-78501600D01*
X116982400Y-78901600D01*
X117382400Y-78901600D01*
X117382400Y-78501600D01*
G37*
G36*
X113782400Y-72901600D02*
G01*
X113382400Y-72901600D01*
X113382400Y-73301600D01*
X113782400Y-73301600D01*
X113782400Y-72901600D01*
G37*
G36*
X109382400Y-73701600D02*
G01*
X108982400Y-73701600D01*
X108982400Y-74101600D01*
X109382400Y-74101600D01*
X109382400Y-73701600D01*
G37*
G36*
X108182400Y-74901600D02*
G01*
X107782400Y-74901600D01*
X107782400Y-75301600D01*
X108182400Y-75301600D01*
X108182400Y-74901600D01*
G37*
G36*
X112182400Y-77701600D02*
G01*
X111782400Y-77701600D01*
X111782400Y-78101600D01*
X112182400Y-78101600D01*
X112182400Y-77701600D01*
G37*
G36*
X114982400Y-82101600D02*
G01*
X114582400Y-82101600D01*
X114582400Y-82501600D01*
X114982400Y-82501600D01*
X114982400Y-82101600D01*
G37*
G36*
X110182400Y-72501600D02*
G01*
X109782400Y-72501600D01*
X109782400Y-72901600D01*
X110182400Y-72901600D01*
X110182400Y-72501600D01*
G37*
G36*
X108982400Y-79301600D02*
G01*
X108582400Y-79301600D01*
X108582400Y-79701600D01*
X108982400Y-79701600D01*
X108982400Y-79301600D01*
G37*
G36*
X115782400Y-71301600D02*
G01*
X115382400Y-71301600D01*
X115382400Y-71701600D01*
X115782400Y-71701600D01*
X115782400Y-71301600D01*
G37*
G36*
X117382400Y-71701600D02*
G01*
X116982400Y-71701600D01*
X116982400Y-72101600D01*
X117382400Y-72101600D01*
X117382400Y-71701600D01*
G37*
G36*
X119382400Y-72101600D02*
G01*
X118982400Y-72101600D01*
X118982400Y-72501600D01*
X119382400Y-72501600D01*
X119382400Y-72101600D01*
G37*
G36*
X116182400Y-80501600D02*
G01*
X115782400Y-80501600D01*
X115782400Y-80901600D01*
X116182400Y-80901600D01*
X116182400Y-80501600D01*
G37*
G36*
X112582400Y-70901600D02*
G01*
X112182400Y-70901600D01*
X112182400Y-71301600D01*
X112582400Y-71301600D01*
X112582400Y-70901600D01*
G37*
G36*
X112982400Y-72501600D02*
G01*
X112582400Y-72501600D01*
X112582400Y-72901600D01*
X112982400Y-72901600D01*
X112982400Y-72501600D01*
G37*
G36*
X107382400Y-80101600D02*
G01*
X106982400Y-80101600D01*
X106982400Y-80501600D01*
X107382400Y-80501600D01*
X107382400Y-80101600D01*
G37*
G36*
X108582400Y-80501600D02*
G01*
X108182400Y-80501600D01*
X108182400Y-80901600D01*
X108582400Y-80901600D01*
X108582400Y-80501600D01*
G37*
G36*
X118582400Y-69701600D02*
G01*
X118182400Y-69701600D01*
X118182400Y-70101600D01*
X118582400Y-70101600D01*
X118582400Y-69701600D01*
G37*
G36*
X113382400Y-78101600D02*
G01*
X112982400Y-78101600D01*
X112982400Y-78501600D01*
X113382400Y-78501600D01*
X113382400Y-78101600D01*
G37*
G36*
X115782400Y-72101600D02*
G01*
X115382400Y-72101600D01*
X115382400Y-72501600D01*
X115782400Y-72501600D01*
X115782400Y-72101600D01*
G37*
G36*
X116582400Y-77701600D02*
G01*
X116182400Y-77701600D01*
X116182400Y-78101600D01*
X116582400Y-78101600D01*
X116582400Y-77701600D01*
G37*
G36*
X115382400Y-76901600D02*
G01*
X114982400Y-76901600D01*
X114982400Y-77301600D01*
X115382400Y-77301600D01*
X115382400Y-76901600D01*
G37*
G36*
X118982400Y-70901600D02*
G01*
X118582400Y-70901600D01*
X118582400Y-71301600D01*
X118982400Y-71301600D01*
X118982400Y-70901600D01*
G37*
G36*
X119782400Y-80101600D02*
G01*
X119382400Y-80101600D01*
X119382400Y-80501600D01*
X119782400Y-80501600D01*
X119782400Y-80101600D01*
G37*
G36*
X113382400Y-75701600D02*
G01*
X112982400Y-75701600D01*
X112982400Y-76101600D01*
X113382400Y-76101600D01*
X113382400Y-75701600D01*
G37*
G36*
X110582400Y-73301600D02*
G01*
X110182400Y-73301600D01*
X110182400Y-73701600D01*
X110582400Y-73701600D01*
X110582400Y-73301600D01*
G37*
G36*
X108182400Y-72901600D02*
G01*
X107782400Y-72901600D01*
X107782400Y-73301600D01*
X108182400Y-73301600D01*
X108182400Y-72901600D01*
G37*
G36*
X117782400Y-78101600D02*
G01*
X117382400Y-78101600D01*
X117382400Y-78501600D01*
X117782400Y-78501600D01*
X117782400Y-78101600D01*
G37*
G36*
X108582400Y-76101600D02*
G01*
X108182400Y-76101600D01*
X108182400Y-76501600D01*
X108582400Y-76501600D01*
X108582400Y-76101600D01*
G37*
G36*
X114182400Y-76901600D02*
G01*
X113782400Y-76901600D01*
X113782400Y-77301600D01*
X114182400Y-77301600D01*
X114182400Y-76901600D01*
G37*
G36*
X108582400Y-72901600D02*
G01*
X108182400Y-72901600D01*
X108182400Y-73301600D01*
X108582400Y-73301600D01*
X108582400Y-72901600D01*
G37*
G36*
X119782400Y-73301600D02*
G01*
X119382400Y-73301600D01*
X119382400Y-73701600D01*
X119782400Y-73701600D01*
X119782400Y-73301600D01*
G37*
G36*
X110582400Y-78101600D02*
G01*
X110182400Y-78101600D01*
X110182400Y-78501600D01*
X110582400Y-78501600D01*
X110582400Y-78101600D01*
G37*
G36*
X108182400Y-80901600D02*
G01*
X107782400Y-80901600D01*
X107782400Y-81301600D01*
X108182400Y-81301600D01*
X108182400Y-80901600D01*
G37*
G36*
X112582400Y-76501600D02*
G01*
X112182400Y-76501600D01*
X112182400Y-76901600D01*
X112582400Y-76901600D01*
X112582400Y-76501600D01*
G37*
G36*
X119782400Y-70501600D02*
G01*
X119382400Y-70501600D01*
X119382400Y-70901600D01*
X119782400Y-70901600D01*
X119782400Y-70501600D01*
G37*
G36*
X115382400Y-75301600D02*
G01*
X114982400Y-75301600D01*
X114982400Y-75701600D01*
X115382400Y-75701600D01*
X115382400Y-75301600D01*
G37*
G36*
X106982400Y-80901600D02*
G01*
X106582400Y-80901600D01*
X106582400Y-81301600D01*
X106982400Y-81301600D01*
X106982400Y-80901600D01*
G37*
G36*
X111782400Y-70901600D02*
G01*
X111382400Y-70901600D01*
X111382400Y-71301600D01*
X111782400Y-71301600D01*
X111782400Y-70901600D01*
G37*
G36*
X108182400Y-74501600D02*
G01*
X107782400Y-74501600D01*
X107782400Y-74901600D01*
X108182400Y-74901600D01*
X108182400Y-74501600D01*
G37*
G36*
X114582400Y-74101600D02*
G01*
X114182400Y-74101600D01*
X114182400Y-74501600D01*
X114582400Y-74501600D01*
X114582400Y-74101600D01*
G37*
G36*
X114982400Y-79701600D02*
G01*
X114582400Y-79701600D01*
X114582400Y-80101600D01*
X114982400Y-80101600D01*
X114982400Y-79701600D01*
G37*
G36*
X114982400Y-73701600D02*
G01*
X114582400Y-73701600D01*
X114582400Y-74101600D01*
X114982400Y-74101600D01*
X114982400Y-73701600D01*
G37*
G36*
X108182400Y-82101600D02*
G01*
X107782400Y-82101600D01*
X107782400Y-82501600D01*
X108182400Y-82501600D01*
X108182400Y-82101600D01*
G37*
G36*
X115382400Y-74901600D02*
G01*
X114982400Y-74901600D01*
X114982400Y-75301600D01*
X115382400Y-75301600D01*
X115382400Y-74901600D01*
G37*
G36*
X113382400Y-73301600D02*
G01*
X112982400Y-73301600D01*
X112982400Y-73701600D01*
X113382400Y-73701600D01*
X113382400Y-73301600D01*
G37*
G36*
X110982400Y-78901600D02*
G01*
X110582400Y-78901600D01*
X110582400Y-79301600D01*
X110982400Y-79301600D01*
X110982400Y-78901600D01*
G37*
G36*
X111782400Y-75701600D02*
G01*
X111382400Y-75701600D01*
X111382400Y-76101600D01*
X111782400Y-76101600D01*
X111782400Y-75701600D01*
G37*
G36*
X119782400Y-81701600D02*
G01*
X119382400Y-81701600D01*
X119382400Y-82101600D01*
X119782400Y-82101600D01*
X119782400Y-81701600D01*
G37*
G36*
X116982400Y-79301600D02*
G01*
X116582400Y-79301600D01*
X116582400Y-79701600D01*
X116982400Y-79701600D01*
X116982400Y-79301600D01*
G37*
G36*
X112582400Y-73301600D02*
G01*
X112182400Y-73301600D01*
X112182400Y-73701600D01*
X112582400Y-73701600D01*
X112582400Y-73301600D01*
G37*
G36*
X113382400Y-76501600D02*
G01*
X112982400Y-76501600D01*
X112982400Y-76901600D01*
X113382400Y-76901600D01*
X113382400Y-76501600D01*
G37*
G36*
X114582400Y-73701600D02*
G01*
X114182400Y-73701600D01*
X114182400Y-74101600D01*
X114582400Y-74101600D01*
X114582400Y-73701600D01*
G37*
G36*
X119782400Y-81301600D02*
G01*
X119382400Y-81301600D01*
X119382400Y-81701600D01*
X119782400Y-81701600D01*
X119782400Y-81301600D01*
G37*
G36*
X111382400Y-79301600D02*
G01*
X110982400Y-79301600D01*
X110982400Y-79701600D01*
X111382400Y-79701600D01*
X111382400Y-79301600D01*
G37*
G36*
X108582400Y-75701600D02*
G01*
X108182400Y-75701600D01*
X108182400Y-76101600D01*
X108582400Y-76101600D01*
X108582400Y-75701600D01*
G37*
G36*
X114182400Y-76101600D02*
G01*
X113782400Y-76101600D01*
X113782400Y-76501600D01*
X114182400Y-76501600D01*
X114182400Y-76101600D01*
G37*
G36*
X115782400Y-77301600D02*
G01*
X115382400Y-77301600D01*
X115382400Y-77701600D01*
X115782400Y-77701600D01*
X115782400Y-77301600D01*
G37*
G36*
X108582400Y-72101600D02*
G01*
X108182400Y-72101600D01*
X108182400Y-72501600D01*
X108582400Y-72501600D01*
X108582400Y-72101600D01*
G37*
G36*
X108582400Y-80101600D02*
G01*
X108182400Y-80101600D01*
X108182400Y-80501600D01*
X108582400Y-80501600D01*
X108582400Y-80101600D01*
G37*
G36*
X108182400Y-75301600D02*
G01*
X107782400Y-75301600D01*
X107782400Y-75701600D01*
X108182400Y-75701600D01*
X108182400Y-75301600D01*
G37*
G36*
X114182400Y-82501600D02*
G01*
X113782400Y-82501600D01*
X113782400Y-82901600D01*
X114182400Y-82901600D01*
X114182400Y-82501600D01*
G37*
G36*
X106982400Y-71301600D02*
G01*
X106582400Y-71301600D01*
X106582400Y-71701600D01*
X106982400Y-71701600D01*
X106982400Y-71301600D01*
G37*
G36*
X107382400Y-76101600D02*
G01*
X106982400Y-76101600D01*
X106982400Y-76501600D01*
X107382400Y-76501600D01*
X107382400Y-76101600D01*
G37*
G36*
X110982400Y-82101600D02*
G01*
X110582400Y-82101600D01*
X110582400Y-82501600D01*
X110982400Y-82501600D01*
X110982400Y-82101600D01*
G37*
G36*
X110982400Y-79301600D02*
G01*
X110582400Y-79301600D01*
X110582400Y-79701600D01*
X110982400Y-79701600D01*
X110982400Y-79301600D01*
G37*
G36*
X115782400Y-82101600D02*
G01*
X115382400Y-82101600D01*
X115382400Y-82501600D01*
X115782400Y-82501600D01*
X115782400Y-82101600D01*
G37*
G36*
X112582400Y-70101600D02*
G01*
X112182400Y-70101600D01*
X112182400Y-70501600D01*
X112582400Y-70501600D01*
X112582400Y-70101600D01*
G37*
G36*
X115782400Y-76101600D02*
G01*
X115382400Y-76101600D01*
X115382400Y-76501600D01*
X115782400Y-76501600D01*
X115782400Y-76101600D01*
G37*
G36*
X113782400Y-82101600D02*
G01*
X113382400Y-82101600D01*
X113382400Y-82501600D01*
X113782400Y-82501600D01*
X113782400Y-82101600D01*
G37*
G36*
X117382400Y-70501600D02*
G01*
X116982400Y-70501600D01*
X116982400Y-70901600D01*
X117382400Y-70901600D01*
X117382400Y-70501600D01*
G37*
G36*
X109382400Y-71701600D02*
G01*
X108982400Y-71701600D01*
X108982400Y-72101600D01*
X109382400Y-72101600D01*
X109382400Y-71701600D01*
G37*
G36*
X110582400Y-79701600D02*
G01*
X110182400Y-79701600D01*
X110182400Y-80101600D01*
X110582400Y-80101600D01*
X110582400Y-79701600D01*
G37*
G36*
X118982400Y-73301600D02*
G01*
X118582400Y-73301600D01*
X118582400Y-73701600D01*
X118982400Y-73701600D01*
X118982400Y-73301600D01*
G37*
G36*
X114182400Y-74901600D02*
G01*
X113782400Y-74901600D01*
X113782400Y-75301600D01*
X114182400Y-75301600D01*
X114182400Y-74901600D01*
G37*
G36*
X108182400Y-76101600D02*
G01*
X107782400Y-76101600D01*
X107782400Y-76501600D01*
X108182400Y-76501600D01*
X108182400Y-76101600D01*
G37*
G36*
X110582400Y-82101600D02*
G01*
X110182400Y-82101600D01*
X110182400Y-82501600D01*
X110582400Y-82501600D01*
X110582400Y-82101600D01*
G37*
G36*
X110982400Y-79701600D02*
G01*
X110582400Y-79701600D01*
X110582400Y-80101600D01*
X110982400Y-80101600D01*
X110982400Y-79701600D01*
G37*
G36*
X108582400Y-70901600D02*
G01*
X108182400Y-70901600D01*
X108182400Y-71301600D01*
X108582400Y-71301600D01*
X108582400Y-70901600D01*
G37*
G36*
X118582400Y-82501600D02*
G01*
X118182400Y-82501600D01*
X118182400Y-82901600D01*
X118582400Y-82901600D01*
X118582400Y-82501600D01*
G37*
G36*
X110182400Y-71301600D02*
G01*
X109782400Y-71301600D01*
X109782400Y-71701600D01*
X110182400Y-71701600D01*
X110182400Y-71301600D01*
G37*
G36*
X110182400Y-75301600D02*
G01*
X109782400Y-75301600D01*
X109782400Y-75701600D01*
X110182400Y-75701600D01*
X110182400Y-75301600D01*
G37*
G36*
X110582400Y-75301600D02*
G01*
X110182400Y-75301600D01*
X110182400Y-75701600D01*
X110582400Y-75701600D01*
X110582400Y-75301600D01*
G37*
G36*
X115382400Y-73701600D02*
G01*
X114982400Y-73701600D01*
X114982400Y-74101600D01*
X115382400Y-74101600D01*
X115382400Y-73701600D01*
G37*
G36*
X112582400Y-70501600D02*
G01*
X112182400Y-70501600D01*
X112182400Y-70901600D01*
X112582400Y-70901600D01*
X112582400Y-70501600D01*
G37*
G36*
X109382400Y-78901600D02*
G01*
X108982400Y-78901600D01*
X108982400Y-79301600D01*
X109382400Y-79301600D01*
X109382400Y-78901600D01*
G37*
G36*
X118982400Y-80901600D02*
G01*
X118582400Y-80901600D01*
X118582400Y-81301600D01*
X118982400Y-81301600D01*
X118982400Y-80901600D01*
G37*
G36*
X110982400Y-74101600D02*
G01*
X110582400Y-74101600D01*
X110582400Y-74501600D01*
X110982400Y-74501600D01*
X110982400Y-74101600D01*
G37*
G36*
X108182400Y-76501600D02*
G01*
X107782400Y-76501600D01*
X107782400Y-76901600D01*
X108182400Y-76901600D01*
X108182400Y-76501600D01*
G37*
G36*
X112982400Y-80901600D02*
G01*
X112582400Y-80901600D01*
X112582400Y-81301600D01*
X112982400Y-81301600D01*
X112982400Y-80901600D01*
G37*
G36*
X119382400Y-74901600D02*
G01*
X118982400Y-74901600D01*
X118982400Y-75301600D01*
X119382400Y-75301600D01*
X119382400Y-74901600D01*
G37*
G36*
X119382400Y-76501600D02*
G01*
X118982400Y-76501600D01*
X118982400Y-76901600D01*
X119382400Y-76901600D01*
X119382400Y-76501600D01*
G37*
G36*
X118982400Y-75301600D02*
G01*
X118582400Y-75301600D01*
X118582400Y-75701600D01*
X118982400Y-75701600D01*
X118982400Y-75301600D01*
G37*
G36*
X119782400Y-71701600D02*
G01*
X119382400Y-71701600D01*
X119382400Y-72101600D01*
X119782400Y-72101600D01*
X119782400Y-71701600D01*
G37*
G36*
X110582400Y-75701600D02*
G01*
X110182400Y-75701600D01*
X110182400Y-76101600D01*
X110582400Y-76101600D01*
X110582400Y-75701600D01*
G37*
G36*
X117382400Y-76901600D02*
G01*
X116982400Y-76901600D01*
X116982400Y-77301600D01*
X117382400Y-77301600D01*
X117382400Y-76901600D01*
G37*
G36*
X112582400Y-80501600D02*
G01*
X112182400Y-80501600D01*
X112182400Y-80901600D01*
X112582400Y-80901600D01*
X112582400Y-80501600D01*
G37*
G36*
X118582400Y-77301600D02*
G01*
X118182400Y-77301600D01*
X118182400Y-77701600D01*
X118582400Y-77701600D01*
X118582400Y-77301600D01*
G37*
G36*
X112582400Y-78901600D02*
G01*
X112182400Y-78901600D01*
X112182400Y-79301600D01*
X112582400Y-79301600D01*
X112582400Y-78901600D01*
G37*
G36*
X119782400Y-69701600D02*
G01*
X119382400Y-69701600D01*
X119382400Y-70101600D01*
X119782400Y-70101600D01*
X119782400Y-69701600D01*
G37*
G36*
X109782400Y-73701600D02*
G01*
X109382400Y-73701600D01*
X109382400Y-74101600D01*
X109782400Y-74101600D01*
X109782400Y-73701600D01*
G37*
G36*
X114582400Y-80901600D02*
G01*
X114182400Y-80901600D01*
X114182400Y-81301600D01*
X114582400Y-81301600D01*
X114582400Y-80901600D01*
G37*
G36*
X107382400Y-76501600D02*
G01*
X106982400Y-76501600D01*
X106982400Y-76901600D01*
X107382400Y-76901600D01*
X107382400Y-76501600D01*
G37*
G36*
X115382400Y-73301600D02*
G01*
X114982400Y-73301600D01*
X114982400Y-73701600D01*
X115382400Y-73701600D01*
X115382400Y-73301600D01*
G37*
G36*
X116582400Y-72101600D02*
G01*
X116182400Y-72101600D01*
X116182400Y-72501600D01*
X116582400Y-72501600D01*
X116582400Y-72101600D01*
G37*
G36*
X115782400Y-72501600D02*
G01*
X115382400Y-72501600D01*
X115382400Y-72901600D01*
X115782400Y-72901600D01*
X115782400Y-72501600D01*
G37*
G36*
X108982400Y-78501600D02*
G01*
X108582400Y-78501600D01*
X108582400Y-78901600D01*
X108982400Y-78901600D01*
X108982400Y-78501600D01*
G37*
G36*
X112982400Y-77701600D02*
G01*
X112582400Y-77701600D01*
X112582400Y-78101600D01*
X112982400Y-78101600D01*
X112982400Y-77701600D01*
G37*
G36*
X116582400Y-71701600D02*
G01*
X116182400Y-71701600D01*
X116182400Y-72101600D01*
X116582400Y-72101600D01*
X116582400Y-71701600D01*
G37*
G36*
X113782400Y-79701600D02*
G01*
X113382400Y-79701600D01*
X113382400Y-80101600D01*
X113782400Y-80101600D01*
X113782400Y-79701600D01*
G37*
G36*
X108982400Y-72101600D02*
G01*
X108582400Y-72101600D01*
X108582400Y-72501600D01*
X108982400Y-72501600D01*
X108982400Y-72101600D01*
G37*
G36*
X112182400Y-77301600D02*
G01*
X111782400Y-77301600D01*
X111782400Y-77701600D01*
X112182400Y-77701600D01*
X112182400Y-77301600D01*
G37*
G36*
X113382400Y-74501600D02*
G01*
X112982400Y-74501600D01*
X112982400Y-74901600D01*
X113382400Y-74901600D01*
X113382400Y-74501600D01*
G37*
G36*
X116182400Y-81301600D02*
G01*
X115782400Y-81301600D01*
X115782400Y-81701600D01*
X116182400Y-81701600D01*
X116182400Y-81301600D01*
G37*
G36*
X112582400Y-72901600D02*
G01*
X112182400Y-72901600D01*
X112182400Y-73301600D01*
X112582400Y-73301600D01*
X112582400Y-72901600D01*
G37*
G36*
X111382400Y-82501600D02*
G01*
X110982400Y-82501600D01*
X110982400Y-82901600D01*
X111382400Y-82901600D01*
X111382400Y-82501600D01*
G37*
G36*
X110982400Y-75301600D02*
G01*
X110582400Y-75301600D01*
X110582400Y-75701600D01*
X110982400Y-75701600D01*
X110982400Y-75301600D01*
G37*
G36*
X114982400Y-82501600D02*
G01*
X114582400Y-82501600D01*
X114582400Y-82901600D01*
X114982400Y-82901600D01*
X114982400Y-82501600D01*
G37*
G36*
X106982400Y-70901600D02*
G01*
X106582400Y-70901600D01*
X106582400Y-71301600D01*
X106982400Y-71301600D01*
X106982400Y-70901600D01*
G37*
G36*
X114182400Y-78501600D02*
G01*
X113782400Y-78501600D01*
X113782400Y-78901600D01*
X114182400Y-78901600D01*
X114182400Y-78501600D01*
G37*
G36*
X117382400Y-80901600D02*
G01*
X116982400Y-80901600D01*
X116982400Y-81301600D01*
X117382400Y-81301600D01*
X117382400Y-80901600D01*
G37*
G36*
X107382400Y-69701600D02*
G01*
X106982400Y-69701600D01*
X106982400Y-70101600D01*
X107382400Y-70101600D01*
X107382400Y-69701600D01*
G37*
G36*
X118582400Y-78101600D02*
G01*
X118182400Y-78101600D01*
X118182400Y-78501600D01*
X118582400Y-78501600D01*
X118582400Y-78101600D01*
G37*
G36*
X112982400Y-70501600D02*
G01*
X112582400Y-70501600D01*
X112582400Y-70901600D01*
X112982400Y-70901600D01*
X112982400Y-70501600D01*
G37*
G36*
X112982400Y-71701600D02*
G01*
X112582400Y-71701600D01*
X112582400Y-72101600D01*
X112982400Y-72101600D01*
X112982400Y-71701600D01*
G37*
G36*
X108182400Y-70901600D02*
G01*
X107782400Y-70901600D01*
X107782400Y-71301600D01*
X108182400Y-71301600D01*
X108182400Y-70901600D01*
G37*
G36*
X107382400Y-74101600D02*
G01*
X106982400Y-74101600D01*
X106982400Y-74501600D01*
X107382400Y-74501600D01*
X107382400Y-74101600D01*
G37*
G36*
X116582400Y-74901600D02*
G01*
X116182400Y-74901600D01*
X116182400Y-75301600D01*
X116582400Y-75301600D01*
X116582400Y-74901600D01*
G37*
G36*
X107382400Y-79701600D02*
G01*
X106982400Y-79701600D01*
X106982400Y-80101600D01*
X107382400Y-80101600D01*
X107382400Y-79701600D01*
G37*
G36*
X114982400Y-77301600D02*
G01*
X114582400Y-77301600D01*
X114582400Y-77701600D01*
X114982400Y-77701600D01*
X114982400Y-77301600D01*
G37*
G36*
X116582400Y-72501600D02*
G01*
X116182400Y-72501600D01*
X116182400Y-72901600D01*
X116582400Y-72901600D01*
X116582400Y-72501600D01*
G37*
G36*
X107782400Y-69701600D02*
G01*
X107382400Y-69701600D01*
X107382400Y-70101600D01*
X107782400Y-70101600D01*
X107782400Y-69701600D01*
G37*
G36*
X111782400Y-80101600D02*
G01*
X111382400Y-80101600D01*
X111382400Y-80501600D01*
X111782400Y-80501600D01*
X111782400Y-80101600D01*
G37*
G36*
X111782400Y-76101600D02*
G01*
X111382400Y-76101600D01*
X111382400Y-76501600D01*
X111782400Y-76501600D01*
X111782400Y-76101600D01*
G37*
G36*
X117382400Y-80101600D02*
G01*
X116982400Y-80101600D01*
X116982400Y-80501600D01*
X117382400Y-80501600D01*
X117382400Y-80101600D01*
G37*
G36*
X110182400Y-74101600D02*
G01*
X109782400Y-74101600D01*
X109782400Y-74501600D01*
X110182400Y-74501600D01*
X110182400Y-74101600D01*
G37*
G36*
X116182400Y-79701600D02*
G01*
X115782400Y-79701600D01*
X115782400Y-80101600D01*
X116182400Y-80101600D01*
X116182400Y-79701600D01*
G37*
G36*
X116182400Y-76501600D02*
G01*
X115782400Y-76501600D01*
X115782400Y-76901600D01*
X116182400Y-76901600D01*
X116182400Y-76501600D01*
G37*
G36*
X110582400Y-79301600D02*
G01*
X110182400Y-79301600D01*
X110182400Y-79701600D01*
X110582400Y-79701600D01*
X110582400Y-79301600D01*
G37*
G36*
X116182400Y-71701600D02*
G01*
X115782400Y-71701600D01*
X115782400Y-72101600D01*
X116182400Y-72101600D01*
X116182400Y-71701600D01*
G37*
G36*
X115382400Y-78901600D02*
G01*
X114982400Y-78901600D01*
X114982400Y-79301600D01*
X115382400Y-79301600D01*
X115382400Y-78901600D01*
G37*
G36*
X111382400Y-81701600D02*
G01*
X110982400Y-81701600D01*
X110982400Y-82101600D01*
X111382400Y-82101600D01*
X111382400Y-81701600D01*
G37*
G36*
X119782400Y-72101600D02*
G01*
X119382400Y-72101600D01*
X119382400Y-72501600D01*
X119782400Y-72501600D01*
X119782400Y-72101600D01*
G37*
G36*
X110182400Y-79301600D02*
G01*
X109782400Y-79301600D01*
X109782400Y-79701600D01*
X110182400Y-79701600D01*
X110182400Y-79301600D01*
G37*
G36*
X111382400Y-75701600D02*
G01*
X110982400Y-75701600D01*
X110982400Y-76101600D01*
X111382400Y-76101600D01*
X111382400Y-75701600D01*
G37*
G36*
X119782400Y-76101600D02*
G01*
X119382400Y-76101600D01*
X119382400Y-76501600D01*
X119782400Y-76501600D01*
X119782400Y-76101600D01*
G37*
G36*
X118582400Y-78901600D02*
G01*
X118182400Y-78901600D01*
X118182400Y-79301600D01*
X118582400Y-79301600D01*
X118582400Y-78901600D01*
G37*
G36*
X116182400Y-82501600D02*
G01*
X115782400Y-82501600D01*
X115782400Y-82901600D01*
X116182400Y-82901600D01*
X116182400Y-82501600D01*
G37*
G36*
X113782400Y-77701600D02*
G01*
X113382400Y-77701600D01*
X113382400Y-78101600D01*
X113782400Y-78101600D01*
X113782400Y-77701600D01*
G37*
G36*
X116982400Y-78101600D02*
G01*
X116582400Y-78101600D01*
X116582400Y-78501600D01*
X116982400Y-78501600D01*
X116982400Y-78101600D01*
G37*
G36*
X110582400Y-76901600D02*
G01*
X110182400Y-76901600D01*
X110182400Y-77301600D01*
X110582400Y-77301600D01*
X110582400Y-76901600D01*
G37*
G36*
X117382400Y-81301600D02*
G01*
X116982400Y-81301600D01*
X116982400Y-81701600D01*
X117382400Y-81701600D01*
X117382400Y-81301600D01*
G37*
G36*
X114182400Y-79701600D02*
G01*
X113782400Y-79701600D01*
X113782400Y-80101600D01*
X114182400Y-80101600D01*
X114182400Y-79701600D01*
G37*
G36*
X113782400Y-80901600D02*
G01*
X113382400Y-80901600D01*
X113382400Y-81301600D01*
X113782400Y-81301600D01*
X113782400Y-80901600D01*
G37*
G36*
X115382400Y-78501600D02*
G01*
X114982400Y-78501600D01*
X114982400Y-78901600D01*
X115382400Y-78901600D01*
X115382400Y-78501600D01*
G37*
G36*
X113382400Y-71301600D02*
G01*
X112982400Y-71301600D01*
X112982400Y-71701600D01*
X113382400Y-71701600D01*
X113382400Y-71301600D01*
G37*
G36*
X116182400Y-73701600D02*
G01*
X115782400Y-73701600D01*
X115782400Y-74101600D01*
X116182400Y-74101600D01*
X116182400Y-73701600D01*
G37*
G36*
X110982400Y-77301600D02*
G01*
X110582400Y-77301600D01*
X110582400Y-77701600D01*
X110982400Y-77701600D01*
X110982400Y-77301600D01*
G37*
G36*
X119782400Y-82501600D02*
G01*
X119382400Y-82501600D01*
X119382400Y-82901600D01*
X119782400Y-82901600D01*
X119782400Y-82501600D01*
G37*
G36*
X111382400Y-72501600D02*
G01*
X110982400Y-72501600D01*
X110982400Y-72901600D01*
X111382400Y-72901600D01*
X111382400Y-72501600D01*
G37*
G36*
X110182400Y-82101600D02*
G01*
X109782400Y-82101600D01*
X109782400Y-82501600D01*
X110182400Y-82501600D01*
X110182400Y-82101600D01*
G37*
G36*
X117382400Y-80501600D02*
G01*
X116982400Y-80501600D01*
X116982400Y-80901600D01*
X117382400Y-80901600D01*
X117382400Y-80501600D01*
G37*
G36*
X109382400Y-75301600D02*
G01*
X108982400Y-75301600D01*
X108982400Y-75701600D01*
X109382400Y-75701600D01*
X109382400Y-75301600D01*
G37*
G36*
X115382400Y-77701600D02*
G01*
X114982400Y-77701600D01*
X114982400Y-78101600D01*
X115382400Y-78101600D01*
X115382400Y-77701600D01*
G37*
G36*
X112182400Y-70101600D02*
G01*
X111782400Y-70101600D01*
X111782400Y-70501600D01*
X112182400Y-70501600D01*
X112182400Y-70101600D01*
G37*
G36*
X107382400Y-72101600D02*
G01*
X106982400Y-72101600D01*
X106982400Y-72501600D01*
X107382400Y-72501600D01*
X107382400Y-72101600D01*
G37*
G36*
X119782400Y-71301600D02*
G01*
X119382400Y-71301600D01*
X119382400Y-71701600D01*
X119782400Y-71701600D01*
X119782400Y-71301600D01*
G37*
G36*
X117782400Y-77701600D02*
G01*
X117382400Y-77701600D01*
X117382400Y-78101600D01*
X117782400Y-78101600D01*
X117782400Y-77701600D01*
G37*
G36*
X118982400Y-76501600D02*
G01*
X118582400Y-76501600D01*
X118582400Y-76901600D01*
X118982400Y-76901600D01*
X118982400Y-76501600D01*
G37*
G36*
X109782400Y-73301600D02*
G01*
X109382400Y-73301600D01*
X109382400Y-73701600D01*
X109782400Y-73701600D01*
X109782400Y-73301600D01*
G37*
G36*
X106982400Y-72101600D02*
G01*
X106582400Y-72101600D01*
X106582400Y-72501600D01*
X106982400Y-72501600D01*
X106982400Y-72101600D01*
G37*
G36*
X108182400Y-75701600D02*
G01*
X107782400Y-75701600D01*
X107782400Y-76101600D01*
X108182400Y-76101600D01*
X108182400Y-75701600D01*
G37*
G36*
X116182400Y-80101600D02*
G01*
X115782400Y-80101600D01*
X115782400Y-80501600D01*
X116182400Y-80501600D01*
X116182400Y-80101600D01*
G37*
G36*
X107782400Y-70901600D02*
G01*
X107382400Y-70901600D01*
X107382400Y-71301600D01*
X107782400Y-71301600D01*
X107782400Y-70901600D01*
G37*
G36*
X117782400Y-76901600D02*
G01*
X117382400Y-76901600D01*
X117382400Y-77301600D01*
X117782400Y-77301600D01*
X117782400Y-76901600D01*
G37*
G36*
X116582400Y-77301600D02*
G01*
X116182400Y-77301600D01*
X116182400Y-77701600D01*
X116582400Y-77701600D01*
X116582400Y-77301600D01*
G37*
G36*
X107782400Y-72101600D02*
G01*
X107382400Y-72101600D01*
X107382400Y-72501600D01*
X107782400Y-72501600D01*
X107782400Y-72101600D01*
G37*
G36*
X111382400Y-70501600D02*
G01*
X110982400Y-70501600D01*
X110982400Y-70901600D01*
X111382400Y-70901600D01*
X111382400Y-70501600D01*
G37*
G36*
X112982400Y-70101600D02*
G01*
X112582400Y-70101600D01*
X112582400Y-70501600D01*
X112982400Y-70501600D01*
X112982400Y-70101600D01*
G37*
G36*
X107782400Y-71301600D02*
G01*
X107382400Y-71301600D01*
X107382400Y-71701600D01*
X107782400Y-71701600D01*
X107782400Y-71301600D01*
G37*
G36*
X118582400Y-76101600D02*
G01*
X118182400Y-76101600D01*
X118182400Y-76501600D01*
X118582400Y-76501600D01*
X118582400Y-76101600D01*
G37*
G36*
X110582400Y-72501600D02*
G01*
X110182400Y-72501600D01*
X110182400Y-72901600D01*
X110582400Y-72901600D01*
X110582400Y-72501600D01*
G37*
G36*
X115382400Y-78101600D02*
G01*
X114982400Y-78101600D01*
X114982400Y-78501600D01*
X115382400Y-78501600D01*
X115382400Y-78101600D01*
G37*
G36*
X114182400Y-79301600D02*
G01*
X113782400Y-79301600D01*
X113782400Y-79701600D01*
X114182400Y-79701600D01*
X114182400Y-79301600D01*
G37*
G36*
X118182400Y-78501600D02*
G01*
X117782400Y-78501600D01*
X117782400Y-78901600D01*
X118182400Y-78901600D01*
X118182400Y-78501600D01*
G37*
G36*
X109382400Y-80901600D02*
G01*
X108982400Y-80901600D01*
X108982400Y-81301600D01*
X109382400Y-81301600D01*
X109382400Y-80901600D01*
G37*
G36*
X113782400Y-75301600D02*
G01*
X113382400Y-75301600D01*
X113382400Y-75701600D01*
X113782400Y-75701600D01*
X113782400Y-75301600D01*
G37*
G36*
X110582400Y-71301600D02*
G01*
X110182400Y-71301600D01*
X110182400Y-71701600D01*
X110582400Y-71701600D01*
X110582400Y-71301600D01*
G37*
G36*
X118182400Y-81701600D02*
G01*
X117782400Y-81701600D01*
X117782400Y-82101600D01*
X118182400Y-82101600D01*
X118182400Y-81701600D01*
G37*
G36*
X112982400Y-81301600D02*
G01*
X112582400Y-81301600D01*
X112582400Y-81701600D01*
X112982400Y-81701600D01*
X112982400Y-81301600D01*
G37*
G36*
X112982400Y-78901600D02*
G01*
X112582400Y-78901600D01*
X112582400Y-79301600D01*
X112982400Y-79301600D01*
X112982400Y-78901600D01*
G37*
G36*
X114582400Y-79301600D02*
G01*
X114182400Y-79301600D01*
X114182400Y-79701600D01*
X114582400Y-79701600D01*
X114582400Y-79301600D01*
G37*
G36*
X111382400Y-74901600D02*
G01*
X110982400Y-74901600D01*
X110982400Y-75301600D01*
X111382400Y-75301600D01*
X111382400Y-74901600D01*
G37*
G36*
X115382400Y-71301600D02*
G01*
X114982400Y-71301600D01*
X114982400Y-71701600D01*
X115382400Y-71701600D01*
X115382400Y-71301600D01*
G37*
G36*
X117782400Y-76501600D02*
G01*
X117382400Y-76501600D01*
X117382400Y-76901600D01*
X117782400Y-76901600D01*
X117782400Y-76501600D01*
G37*
G36*
X110982400Y-74501600D02*
G01*
X110582400Y-74501600D01*
X110582400Y-74901600D01*
X110982400Y-74901600D01*
X110982400Y-74501600D01*
G37*
G36*
X117782400Y-73301600D02*
G01*
X117382400Y-73301600D01*
X117382400Y-73701600D01*
X117782400Y-73701600D01*
X117782400Y-73301600D01*
G37*
G36*
X118982400Y-72101600D02*
G01*
X118582400Y-72101600D01*
X118582400Y-72501600D01*
X118982400Y-72501600D01*
X118982400Y-72101600D01*
G37*
G36*
X113782400Y-75701600D02*
G01*
X113382400Y-75701600D01*
X113382400Y-76101600D01*
X113782400Y-76101600D01*
X113782400Y-75701600D01*
G37*
G36*
X108182400Y-69701600D02*
G01*
X107782400Y-69701600D01*
X107782400Y-70101600D01*
X108182400Y-70101600D01*
X108182400Y-69701600D01*
G37*
G36*
X107782400Y-74901600D02*
G01*
X107382400Y-74901600D01*
X107382400Y-75301600D01*
X107782400Y-75301600D01*
X107782400Y-74901600D01*
G37*
G36*
X117382400Y-75301600D02*
G01*
X116982400Y-75301600D01*
X116982400Y-75701600D01*
X117382400Y-75701600D01*
X117382400Y-75301600D01*
G37*
G36*
X116582400Y-80101600D02*
G01*
X116182400Y-80101600D01*
X116182400Y-80501600D01*
X116582400Y-80501600D01*
X116582400Y-80101600D01*
G37*
G36*
X108582400Y-74501600D02*
G01*
X108182400Y-74501600D01*
X108182400Y-74901600D01*
X108582400Y-74901600D01*
X108582400Y-74501600D01*
G37*
G36*
X116182400Y-75301600D02*
G01*
X115782400Y-75301600D01*
X115782400Y-75701600D01*
X116182400Y-75701600D01*
X116182400Y-75301600D01*
G37*
G36*
X108582400Y-75301600D02*
G01*
X108182400Y-75301600D01*
X108182400Y-75701600D01*
X108582400Y-75701600D01*
X108582400Y-75301600D01*
G37*
G36*
X110182400Y-78901600D02*
G01*
X109782400Y-78901600D01*
X109782400Y-79301600D01*
X110182400Y-79301600D01*
X110182400Y-78901600D01*
G37*
G36*
X119382400Y-79301600D02*
G01*
X118982400Y-79301600D01*
X118982400Y-79701600D01*
X119382400Y-79701600D01*
X119382400Y-79301600D01*
G37*
G36*
X112582400Y-72501600D02*
G01*
X112182400Y-72501600D01*
X112182400Y-72901600D01*
X112582400Y-72901600D01*
X112582400Y-72501600D01*
G37*
G36*
X111382400Y-69701600D02*
G01*
X110982400Y-69701600D01*
X110982400Y-70101600D01*
X111382400Y-70101600D01*
X111382400Y-69701600D01*
G37*
G36*
X113382400Y-70101600D02*
G01*
X112982400Y-70101600D01*
X112982400Y-70501600D01*
X113382400Y-70501600D01*
X113382400Y-70101600D01*
G37*
G36*
X115382400Y-76501600D02*
G01*
X114982400Y-76501600D01*
X114982400Y-76901600D01*
X115382400Y-76901600D01*
X115382400Y-76501600D01*
G37*
G36*
X113782400Y-76901600D02*
G01*
X113382400Y-76901600D01*
X113382400Y-77301600D01*
X113782400Y-77301600D01*
X113782400Y-76901600D01*
G37*
G36*
X115782400Y-71701600D02*
G01*
X115382400Y-71701600D01*
X115382400Y-72101600D01*
X115782400Y-72101600D01*
X115782400Y-71701600D01*
G37*
G36*
X116582400Y-78501600D02*
G01*
X116182400Y-78501600D01*
X116182400Y-78901600D01*
X116582400Y-78901600D01*
X116582400Y-78501600D01*
G37*
G36*
X112582400Y-71701600D02*
G01*
X112182400Y-71701600D01*
X112182400Y-72101600D01*
X112582400Y-72101600D01*
X112582400Y-71701600D01*
G37*
G36*
X111382400Y-77301600D02*
G01*
X110982400Y-77301600D01*
X110982400Y-77701600D01*
X111382400Y-77701600D01*
X111382400Y-77301600D01*
G37*
G36*
X112182400Y-80901600D02*
G01*
X111782400Y-80901600D01*
X111782400Y-81301600D01*
X112182400Y-81301600D01*
X112182400Y-80901600D01*
G37*
G36*
X108182400Y-72101600D02*
G01*
X107782400Y-72101600D01*
X107782400Y-72501600D01*
X108182400Y-72501600D01*
X108182400Y-72101600D01*
G37*
G36*
X107782400Y-81301600D02*
G01*
X107382400Y-81301600D01*
X107382400Y-81701600D01*
X107782400Y-81701600D01*
X107782400Y-81301600D01*
G37*
G36*
X109382400Y-79301600D02*
G01*
X108982400Y-79301600D01*
X108982400Y-79701600D01*
X109382400Y-79701600D01*
X109382400Y-79301600D01*
G37*
G36*
X109782400Y-78901600D02*
G01*
X109382400Y-78901600D01*
X109382400Y-79301600D01*
X109782400Y-79301600D01*
X109782400Y-78901600D01*
G37*
G36*
X112982400Y-74901600D02*
G01*
X112582400Y-74901600D01*
X112582400Y-75301600D01*
X112982400Y-75301600D01*
X112982400Y-74901600D01*
G37*
G36*
X111382400Y-80101600D02*
G01*
X110982400Y-80101600D01*
X110982400Y-80501600D01*
X111382400Y-80501600D01*
X111382400Y-80101600D01*
G37*
G36*
X109382400Y-69701600D02*
G01*
X108982400Y-69701600D01*
X108982400Y-70101600D01*
X109382400Y-70101600D01*
X109382400Y-69701600D01*
G37*
G36*
X114182400Y-73701600D02*
G01*
X113782400Y-73701600D01*
X113782400Y-74101600D01*
X114182400Y-74101600D01*
X114182400Y-73701600D01*
G37*
G36*
X117382400Y-79301600D02*
G01*
X116982400Y-79301600D01*
X116982400Y-79701600D01*
X117382400Y-79701600D01*
X117382400Y-79301600D01*
G37*
G36*
X110582400Y-70501600D02*
G01*
X110182400Y-70501600D01*
X110182400Y-70901600D01*
X110582400Y-70901600D01*
X110582400Y-70501600D01*
G37*
G36*
X111782400Y-72101600D02*
G01*
X111382400Y-72101600D01*
X111382400Y-72501600D01*
X111782400Y-72501600D01*
X111782400Y-72101600D01*
G37*
G36*
X119782400Y-78101600D02*
G01*
X119382400Y-78101600D01*
X119382400Y-78501600D01*
X119782400Y-78501600D01*
X119782400Y-78101600D01*
G37*
G36*
X110582400Y-70901600D02*
G01*
X110182400Y-70901600D01*
X110182400Y-71301600D01*
X110582400Y-71301600D01*
X110582400Y-70901600D01*
G37*
G36*
X117782400Y-80101600D02*
G01*
X117382400Y-80101600D01*
X117382400Y-80501600D01*
X117782400Y-80501600D01*
X117782400Y-80101600D01*
G37*
G36*
X107382400Y-79301600D02*
G01*
X106982400Y-79301600D01*
X106982400Y-79701600D01*
X107382400Y-79701600D01*
X107382400Y-79301600D01*
G37*
G36*
X112982400Y-80501600D02*
G01*
X112582400Y-80501600D01*
X112582400Y-80901600D01*
X112982400Y-80901600D01*
X112982400Y-80501600D01*
G37*
G36*
X118582400Y-72101600D02*
G01*
X118182400Y-72101600D01*
X118182400Y-72501600D01*
X118582400Y-72501600D01*
X118582400Y-72101600D01*
G37*
G36*
X116182400Y-82101600D02*
G01*
X115782400Y-82101600D01*
X115782400Y-82501600D01*
X116182400Y-82501600D01*
X116182400Y-82101600D01*
G37*
G36*
X108182400Y-73301600D02*
G01*
X107782400Y-73301600D01*
X107782400Y-73701600D01*
X108182400Y-73701600D01*
X108182400Y-73301600D01*
G37*
G36*
X111382400Y-74101600D02*
G01*
X110982400Y-74101600D01*
X110982400Y-74501600D01*
X111382400Y-74501600D01*
X111382400Y-74101600D01*
G37*
G36*
X117382400Y-74501600D02*
G01*
X116982400Y-74501600D01*
X116982400Y-74901600D01*
X117382400Y-74901600D01*
X117382400Y-74501600D01*
G37*
G36*
X117782400Y-69701600D02*
G01*
X117382400Y-69701600D01*
X117382400Y-70101600D01*
X117782400Y-70101600D01*
X117782400Y-69701600D01*
G37*
G36*
X110182400Y-72101600D02*
G01*
X109782400Y-72101600D01*
X109782400Y-72501600D01*
X110182400Y-72501600D01*
X110182400Y-72101600D01*
G37*
G36*
X115782400Y-74101600D02*
G01*
X115382400Y-74101600D01*
X115382400Y-74501600D01*
X115782400Y-74501600D01*
X115782400Y-74101600D01*
G37*
G36*
X107782400Y-76501600D02*
G01*
X107382400Y-76501600D01*
X107382400Y-76901600D01*
X107782400Y-76901600D01*
X107782400Y-76501600D01*
G37*
G36*
X119782400Y-72901600D02*
G01*
X119382400Y-72901600D01*
X119382400Y-73301600D01*
X119782400Y-73301600D01*
X119782400Y-72901600D01*
G37*
G36*
X109782400Y-81701600D02*
G01*
X109382400Y-81701600D01*
X109382400Y-82101600D01*
X109782400Y-82101600D01*
X109782400Y-81701600D01*
G37*
G36*
X114982400Y-75701600D02*
G01*
X114582400Y-75701600D01*
X114582400Y-76101600D01*
X114982400Y-76101600D01*
X114982400Y-75701600D01*
G37*
G36*
X109382400Y-77701600D02*
G01*
X108982400Y-77701600D01*
X108982400Y-78101600D01*
X109382400Y-78101600D01*
X109382400Y-77701600D01*
G37*
G36*
X119782400Y-82101600D02*
G01*
X119382400Y-82101600D01*
X119382400Y-82501600D01*
X119782400Y-82501600D01*
X119782400Y-82101600D01*
G37*
G36*
X108982400Y-69701600D02*
G01*
X108582400Y-69701600D01*
X108582400Y-70101600D01*
X108982400Y-70101600D01*
X108982400Y-69701600D01*
G37*
G36*
X108182400Y-82501600D02*
G01*
X107782400Y-82501600D01*
X107782400Y-82901600D01*
X108182400Y-82901600D01*
X108182400Y-82501600D01*
G37*
G36*
X117782400Y-72101600D02*
G01*
X117382400Y-72101600D01*
X117382400Y-72501600D01*
X117782400Y-72501600D01*
X117782400Y-72101600D01*
G37*
G36*
X118182400Y-69701600D02*
G01*
X117782400Y-69701600D01*
X117782400Y-70101600D01*
X118182400Y-70101600D01*
X118182400Y-69701600D01*
G37*
G36*
X117382400Y-82501600D02*
G01*
X116982400Y-82501600D01*
X116982400Y-82901600D01*
X117382400Y-82901600D01*
X117382400Y-82501600D01*
G37*
G36*
X115782400Y-74901600D02*
G01*
X115382400Y-74901600D01*
X115382400Y-75301600D01*
X115782400Y-75301600D01*
X115782400Y-74901600D01*
G37*
G36*
X110982400Y-76101600D02*
G01*
X110582400Y-76101600D01*
X110582400Y-76501600D01*
X110982400Y-76501600D01*
X110982400Y-76101600D01*
G37*
G36*
X108582400Y-81701600D02*
G01*
X108182400Y-81701600D01*
X108182400Y-82101600D01*
X108582400Y-82101600D01*
X108582400Y-81701600D01*
G37*
G36*
X114582400Y-78101600D02*
G01*
X114182400Y-78101600D01*
X114182400Y-78501600D01*
X114582400Y-78501600D01*
X114582400Y-78101600D01*
G37*
G36*
X116182400Y-70101600D02*
G01*
X115782400Y-70101600D01*
X115782400Y-70501600D01*
X116182400Y-70501600D01*
X116182400Y-70101600D01*
G37*
G36*
X118182400Y-80901600D02*
G01*
X117782400Y-80901600D01*
X117782400Y-81301600D01*
X118182400Y-81301600D01*
X118182400Y-80901600D01*
G37*
G36*
X118182400Y-72901600D02*
G01*
X117782400Y-72901600D01*
X117782400Y-73301600D01*
X118182400Y-73301600D01*
X118182400Y-72901600D01*
G37*
G36*
X110182400Y-70101600D02*
G01*
X109782400Y-70101600D01*
X109782400Y-70501600D01*
X110182400Y-70501600D01*
X110182400Y-70101600D01*
G37*
G36*
X115782400Y-80901600D02*
G01*
X115382400Y-80901600D01*
X115382400Y-81301600D01*
X115782400Y-81301600D01*
X115782400Y-80901600D01*
G37*
G36*
X119382400Y-74501600D02*
G01*
X118982400Y-74501600D01*
X118982400Y-74901600D01*
X119382400Y-74901600D01*
X119382400Y-74501600D01*
G37*
G36*
X118582400Y-78501600D02*
G01*
X118182400Y-78501600D01*
X118182400Y-78901600D01*
X118582400Y-78901600D01*
X118582400Y-78501600D01*
G37*
G36*
X111782400Y-81301600D02*
G01*
X111382400Y-81301600D01*
X111382400Y-81701600D01*
X111782400Y-81701600D01*
X111782400Y-81301600D01*
G37*
G36*
X114182400Y-75301600D02*
G01*
X113782400Y-75301600D01*
X113782400Y-75701600D01*
X114182400Y-75701600D01*
X114182400Y-75301600D01*
G37*
G36*
X117382400Y-69701600D02*
G01*
X116982400Y-69701600D01*
X116982400Y-70101600D01*
X117382400Y-70101600D01*
X117382400Y-69701600D01*
G37*
G36*
X112182400Y-82501600D02*
G01*
X111782400Y-82501600D01*
X111782400Y-82901600D01*
X112182400Y-82901600D01*
X112182400Y-82501600D01*
G37*
G36*
X112182400Y-71701600D02*
G01*
X111782400Y-71701600D01*
X111782400Y-72101600D01*
X112182400Y-72101600D01*
X112182400Y-71701600D01*
G37*
G36*
X109382400Y-70501600D02*
G01*
X108982400Y-70501600D01*
X108982400Y-70901600D01*
X109382400Y-70901600D01*
X109382400Y-70501600D01*
G37*
G36*
X114582400Y-80501600D02*
G01*
X114182400Y-80501600D01*
X114182400Y-80901600D01*
X114582400Y-80901600D01*
X114582400Y-80501600D01*
G37*
G36*
X118982400Y-82501600D02*
G01*
X118582400Y-82501600D01*
X118582400Y-82901600D01*
X118982400Y-82901600D01*
X118982400Y-82501600D01*
G37*
G36*
X111382400Y-72901600D02*
G01*
X110982400Y-72901600D01*
X110982400Y-73301600D01*
X111382400Y-73301600D01*
X111382400Y-72901600D01*
G37*
G36*
X118982400Y-78101600D02*
G01*
X118582400Y-78101600D01*
X118582400Y-78501600D01*
X118982400Y-78501600D01*
X118982400Y-78101600D01*
G37*
G36*
X116182400Y-75701600D02*
G01*
X115782400Y-75701600D01*
X115782400Y-76101600D01*
X116182400Y-76101600D01*
X116182400Y-75701600D01*
G37*
G36*
X118582400Y-81701600D02*
G01*
X118182400Y-81701600D01*
X118182400Y-82101600D01*
X118582400Y-82101600D01*
X118582400Y-81701600D01*
G37*
G36*
X106982400Y-82501600D02*
G01*
X106582400Y-82501600D01*
X106582400Y-82901600D01*
X106982400Y-82901600D01*
X106982400Y-82501600D01*
G37*
G36*
X108582400Y-80901600D02*
G01*
X108182400Y-80901600D01*
X108182400Y-81301600D01*
X108582400Y-81301600D01*
X108582400Y-80901600D01*
G37*
G36*
X119782400Y-77701600D02*
G01*
X119382400Y-77701600D01*
X119382400Y-78101600D01*
X119782400Y-78101600D01*
X119782400Y-77701600D01*
G37*
G36*
X108982400Y-77301600D02*
G01*
X108582400Y-77301600D01*
X108582400Y-77701600D01*
X108982400Y-77701600D01*
X108982400Y-77301600D01*
G37*
G36*
X112582400Y-81701600D02*
G01*
X112182400Y-81701600D01*
X112182400Y-82101600D01*
X112582400Y-82101600D01*
X112582400Y-81701600D01*
G37*
G36*
X118582400Y-73701600D02*
G01*
X118182400Y-73701600D01*
X118182400Y-74101600D01*
X118582400Y-74101600D01*
X118582400Y-73701600D01*
G37*
G36*
X114982400Y-76101600D02*
G01*
X114582400Y-76101600D01*
X114582400Y-76501600D01*
X114982400Y-76501600D01*
X114982400Y-76101600D01*
G37*
G36*
X117382400Y-77701600D02*
G01*
X116982400Y-77701600D01*
X116982400Y-78101600D01*
X117382400Y-78101600D01*
X117382400Y-77701600D01*
G37*
G36*
X108982400Y-76901600D02*
G01*
X108582400Y-76901600D01*
X108582400Y-77301600D01*
X108982400Y-77301600D01*
X108982400Y-76901600D01*
G37*
G36*
X115782400Y-76501600D02*
G01*
X115382400Y-76501600D01*
X115382400Y-76901600D01*
X115782400Y-76901600D01*
X115782400Y-76501600D01*
G37*
G36*
X113782400Y-73301600D02*
G01*
X113382400Y-73301600D01*
X113382400Y-73701600D01*
X113782400Y-73701600D01*
X113782400Y-73301600D01*
G37*
G36*
X118582400Y-76501600D02*
G01*
X118182400Y-76501600D01*
X118182400Y-76901600D01*
X118582400Y-76901600D01*
X118582400Y-76501600D01*
G37*
G36*
X114582400Y-82101600D02*
G01*
X114182400Y-82101600D01*
X114182400Y-82501600D01*
X114582400Y-82501600D01*
X114582400Y-82101600D01*
G37*
G36*
X118182400Y-74901600D02*
G01*
X117782400Y-74901600D01*
X117782400Y-75301600D01*
X118182400Y-75301600D01*
X118182400Y-74901600D01*
G37*
G36*
X111382400Y-80501600D02*
G01*
X110982400Y-80501600D01*
X110982400Y-80901600D01*
X111382400Y-80901600D01*
X111382400Y-80501600D01*
G37*
G36*
X117382400Y-72901600D02*
G01*
X116982400Y-72901600D01*
X116982400Y-73301600D01*
X117382400Y-73301600D01*
X117382400Y-72901600D01*
G37*
G36*
X108982400Y-77701600D02*
G01*
X108582400Y-77701600D01*
X108582400Y-78101600D01*
X108982400Y-78101600D01*
X108982400Y-77701600D01*
G37*
G36*
X113382400Y-72101600D02*
G01*
X112982400Y-72101600D01*
X112982400Y-72501600D01*
X113382400Y-72501600D01*
X113382400Y-72101600D01*
G37*
G36*
X107382400Y-78501600D02*
G01*
X106982400Y-78501600D01*
X106982400Y-78901600D01*
X107382400Y-78901600D01*
X107382400Y-78501600D01*
G37*
G36*
X113382400Y-78501600D02*
G01*
X112982400Y-78501600D01*
X112982400Y-78901600D01*
X113382400Y-78901600D01*
X113382400Y-78501600D01*
G37*
G36*
X110182400Y-77301600D02*
G01*
X109782400Y-77301600D01*
X109782400Y-77701600D01*
X110182400Y-77701600D01*
X110182400Y-77301600D01*
G37*
G36*
X117782400Y-77301600D02*
G01*
X117382400Y-77301600D01*
X117382400Y-77701600D01*
X117782400Y-77701600D01*
X117782400Y-77301600D01*
G37*
G36*
X114982400Y-74101600D02*
G01*
X114582400Y-74101600D01*
X114582400Y-74501600D01*
X114982400Y-74501600D01*
X114982400Y-74101600D01*
G37*
G36*
X110982400Y-80101600D02*
G01*
X110582400Y-80101600D01*
X110582400Y-80501600D01*
X110982400Y-80501600D01*
X110982400Y-80101600D01*
G37*
G36*
X112982400Y-75701600D02*
G01*
X112582400Y-75701600D01*
X112582400Y-76101600D01*
X112982400Y-76101600D01*
X112982400Y-75701600D01*
G37*
G36*
X118182400Y-71301600D02*
G01*
X117782400Y-71301600D01*
X117782400Y-71701600D01*
X118182400Y-71701600D01*
X118182400Y-71301600D01*
G37*
G36*
X109382400Y-82501600D02*
G01*
X108982400Y-82501600D01*
X108982400Y-82901600D01*
X109382400Y-82901600D01*
X109382400Y-82501600D01*
G37*
G36*
X119382400Y-82501600D02*
G01*
X118982400Y-82501600D01*
X118982400Y-82901600D01*
X119382400Y-82901600D01*
X119382400Y-82501600D01*
G37*
G36*
X117382400Y-72101600D02*
G01*
X116982400Y-72101600D01*
X116982400Y-72501600D01*
X117382400Y-72501600D01*
X117382400Y-72101600D01*
G37*
G36*
X110982400Y-80901600D02*
G01*
X110582400Y-80901600D01*
X110582400Y-81301600D01*
X110982400Y-81301600D01*
X110982400Y-80901600D01*
G37*
G36*
X118182400Y-81301600D02*
G01*
X117782400Y-81301600D01*
X117782400Y-81701600D01*
X118182400Y-81701600D01*
X118182400Y-81301600D01*
G37*
G36*
X116182400Y-77301600D02*
G01*
X115782400Y-77301600D01*
X115782400Y-77701600D01*
X116182400Y-77701600D01*
X116182400Y-77301600D01*
G37*
G36*
X111382400Y-74501600D02*
G01*
X110982400Y-74501600D01*
X110982400Y-74901600D01*
X111382400Y-74901600D01*
X111382400Y-74501600D01*
G37*
G36*
X117782400Y-74501600D02*
G01*
X117382400Y-74501600D01*
X117382400Y-74901600D01*
X117782400Y-74901600D01*
X117782400Y-74501600D01*
G37*
G36*
X108182400Y-78901600D02*
G01*
X107782400Y-78901600D01*
X107782400Y-79301600D01*
X108182400Y-79301600D01*
X108182400Y-78901600D01*
G37*
G36*
X114982400Y-70501600D02*
G01*
X114582400Y-70501600D01*
X114582400Y-70901600D01*
X114982400Y-70901600D01*
X114982400Y-70501600D01*
G37*
G36*
X108182400Y-70501600D02*
G01*
X107782400Y-70501600D01*
X107782400Y-70901600D01*
X108182400Y-70901600D01*
X108182400Y-70501600D01*
G37*
G36*
X111382400Y-76501600D02*
G01*
X110982400Y-76501600D01*
X110982400Y-76901600D01*
X111382400Y-76901600D01*
X111382400Y-76501600D01*
G37*
G36*
X116582400Y-71301600D02*
G01*
X116182400Y-71301600D01*
X116182400Y-71701600D01*
X116582400Y-71701600D01*
X116582400Y-71301600D01*
G37*
G36*
X118182400Y-73701600D02*
G01*
X117782400Y-73701600D01*
X117782400Y-74101600D01*
X118182400Y-74101600D01*
X118182400Y-73701600D01*
G37*
G36*
X116182400Y-74901600D02*
G01*
X115782400Y-74901600D01*
X115782400Y-75301600D01*
X116182400Y-75301600D01*
X116182400Y-74901600D01*
G37*
G36*
X114982400Y-72101600D02*
G01*
X114582400Y-72101600D01*
X114582400Y-72501600D01*
X114982400Y-72501600D01*
X114982400Y-72101600D01*
G37*
G36*
X107782400Y-70501600D02*
G01*
X107382400Y-70501600D01*
X107382400Y-70901600D01*
X107782400Y-70901600D01*
X107782400Y-70501600D01*
G37*
G36*
X112582400Y-72101600D02*
G01*
X112182400Y-72101600D01*
X112182400Y-72501600D01*
X112582400Y-72501600D01*
X112582400Y-72101600D01*
G37*
G36*
X112582400Y-75301600D02*
G01*
X112182400Y-75301600D01*
X112182400Y-75701600D01*
X112582400Y-75701600D01*
X112582400Y-75301600D01*
G37*
G36*
X114582400Y-77301600D02*
G01*
X114182400Y-77301600D01*
X114182400Y-77701600D01*
X114582400Y-77701600D01*
X114582400Y-77301600D01*
G37*
G36*
X118182400Y-82501600D02*
G01*
X117782400Y-82501600D01*
X117782400Y-82901600D01*
X118182400Y-82901600D01*
X118182400Y-82501600D01*
G37*
G36*
X111382400Y-71701600D02*
G01*
X110982400Y-71701600D01*
X110982400Y-72101600D01*
X111382400Y-72101600D01*
X111382400Y-71701600D01*
G37*
G36*
X118182400Y-80101600D02*
G01*
X117782400Y-80101600D01*
X117782400Y-80501600D01*
X118182400Y-80501600D01*
X118182400Y-80101600D01*
G37*
G36*
X114582400Y-71301600D02*
G01*
X114182400Y-71301600D01*
X114182400Y-71701600D01*
X114582400Y-71701600D01*
X114582400Y-71301600D01*
G37*
G36*
X118582400Y-81301600D02*
G01*
X118182400Y-81301600D01*
X118182400Y-81701600D01*
X118582400Y-81701600D01*
X118582400Y-81301600D01*
G37*
G36*
X109782400Y-75301600D02*
G01*
X109382400Y-75301600D01*
X109382400Y-75701600D01*
X109782400Y-75701600D01*
X109782400Y-75301600D01*
G37*
G36*
X107382400Y-78101600D02*
G01*
X106982400Y-78101600D01*
X106982400Y-78501600D01*
X107382400Y-78501600D01*
X107382400Y-78101600D01*
G37*
G36*
X118982400Y-74101600D02*
G01*
X118582400Y-74101600D01*
X118582400Y-74501600D01*
X118982400Y-74501600D01*
X118982400Y-74101600D01*
G37*
G36*
X116182400Y-79301600D02*
G01*
X115782400Y-79301600D01*
X115782400Y-79701600D01*
X116182400Y-79701600D01*
X116182400Y-79301600D01*
G37*
G36*
X117782400Y-74101600D02*
G01*
X117382400Y-74101600D01*
X117382400Y-74501600D01*
X117782400Y-74501600D01*
X117782400Y-74101600D01*
G37*
G36*
X111782400Y-78901600D02*
G01*
X111382400Y-78901600D01*
X111382400Y-79301600D01*
X111782400Y-79301600D01*
X111782400Y-78901600D01*
G37*
G36*
X118582400Y-70501600D02*
G01*
X118182400Y-70501600D01*
X118182400Y-70901600D01*
X118582400Y-70901600D01*
X118582400Y-70501600D01*
G37*
G36*
X110182400Y-80101600D02*
G01*
X109782400Y-80101600D01*
X109782400Y-80501600D01*
X110182400Y-80501600D01*
X110182400Y-80101600D01*
G37*
G36*
X117382400Y-71301600D02*
G01*
X116982400Y-71301600D01*
X116982400Y-71701600D01*
X117382400Y-71701600D01*
X117382400Y-71301600D01*
G37*
G36*
X116182400Y-69701600D02*
G01*
X115782400Y-69701600D01*
X115782400Y-70101600D01*
X116182400Y-70101600D01*
X116182400Y-69701600D01*
G37*
G36*
X116182400Y-73301600D02*
G01*
X115782400Y-73301600D01*
X115782400Y-73701600D01*
X116182400Y-73701600D01*
X116182400Y-73301600D01*
G37*
G36*
X107782400Y-75301600D02*
G01*
X107382400Y-75301600D01*
X107382400Y-75701600D01*
X107782400Y-75701600D01*
X107782400Y-75301600D01*
G37*
G36*
X114982400Y-74901600D02*
G01*
X114582400Y-74901600D01*
X114582400Y-75301600D01*
X114982400Y-75301600D01*
X114982400Y-74901600D01*
G37*
G36*
X114982400Y-72901600D02*
G01*
X114582400Y-72901600D01*
X114582400Y-73301600D01*
X114982400Y-73301600D01*
X114982400Y-72901600D01*
G37*
G36*
X116182400Y-76101600D02*
G01*
X115782400Y-76101600D01*
X115782400Y-76501600D01*
X116182400Y-76501600D01*
X116182400Y-76101600D01*
G37*
G36*
X117382400Y-73701600D02*
G01*
X116982400Y-73701600D01*
X116982400Y-74101600D01*
X117382400Y-74101600D01*
X117382400Y-73701600D01*
G37*
G36*
X118982400Y-71301600D02*
G01*
X118582400Y-71301600D01*
X118582400Y-71701600D01*
X118982400Y-71701600D01*
X118982400Y-71301600D01*
G37*
G36*
X114182400Y-80901600D02*
G01*
X113782400Y-80901600D01*
X113782400Y-81301600D01*
X114182400Y-81301600D01*
X114182400Y-80901600D01*
G37*
G36*
X117382400Y-70101600D02*
G01*
X116982400Y-70101600D01*
X116982400Y-70501600D01*
X117382400Y-70501600D01*
X117382400Y-70101600D01*
G37*
G36*
X117782400Y-75301600D02*
G01*
X117382400Y-75301600D01*
X117382400Y-75701600D01*
X117782400Y-75701600D01*
X117782400Y-75301600D01*
G37*
G36*
X110582400Y-73701600D02*
G01*
X110182400Y-73701600D01*
X110182400Y-74101600D01*
X110582400Y-74101600D01*
X110582400Y-73701600D01*
G37*
G36*
X113782400Y-74101600D02*
G01*
X113382400Y-74101600D01*
X113382400Y-74501600D01*
X113782400Y-74501600D01*
X113782400Y-74101600D01*
G37*
G36*
X114982400Y-73301600D02*
G01*
X114582400Y-73301600D01*
X114582400Y-73701600D01*
X114982400Y-73701600D01*
X114982400Y-73301600D01*
G37*
G36*
X113782400Y-80101600D02*
G01*
X113382400Y-80101600D01*
X113382400Y-80501600D01*
X113782400Y-80501600D01*
X113782400Y-80101600D01*
G37*
G36*
X114982400Y-72501600D02*
G01*
X114582400Y-72501600D01*
X114582400Y-72901600D01*
X114982400Y-72901600D01*
X114982400Y-72501600D01*
G37*
G36*
X109382400Y-72901600D02*
G01*
X108982400Y-72901600D01*
X108982400Y-73301600D01*
X109382400Y-73301600D01*
X109382400Y-72901600D01*
G37*
G36*
X113782400Y-71701600D02*
G01*
X113382400Y-71701600D01*
X113382400Y-72101600D01*
X113782400Y-72101600D01*
X113782400Y-71701600D01*
G37*
G36*
X110582400Y-76101600D02*
G01*
X110182400Y-76101600D01*
X110182400Y-76501600D01*
X110582400Y-76501600D01*
X110582400Y-76101600D01*
G37*
G36*
X114182400Y-73301600D02*
G01*
X113782400Y-73301600D01*
X113782400Y-73701600D01*
X114182400Y-73701600D01*
X114182400Y-73301600D01*
G37*
G36*
X116582400Y-70901600D02*
G01*
X116182400Y-70901600D01*
X116182400Y-71301600D01*
X116582400Y-71301600D01*
X116582400Y-70901600D01*
G37*
G36*
X110982400Y-70101600D02*
G01*
X110582400Y-70101600D01*
X110582400Y-70501600D01*
X110982400Y-70501600D01*
X110982400Y-70101600D01*
G37*
G36*
X109382400Y-70101600D02*
G01*
X108982400Y-70101600D01*
X108982400Y-70501600D01*
X109382400Y-70501600D01*
X109382400Y-70101600D01*
G37*
G36*
X112582400Y-79701600D02*
G01*
X112182400Y-79701600D01*
X112182400Y-80101600D01*
X112582400Y-80101600D01*
X112582400Y-79701600D01*
G37*
G36*
X118982400Y-74901600D02*
G01*
X118582400Y-74901600D01*
X118582400Y-75301600D01*
X118982400Y-75301600D01*
X118982400Y-74901600D01*
G37*
G36*
X112982400Y-82101600D02*
G01*
X112582400Y-82101600D01*
X112582400Y-82501600D01*
X112982400Y-82501600D01*
X112982400Y-82101600D01*
G37*
G36*
X119382400Y-80101600D02*
G01*
X118982400Y-80101600D01*
X118982400Y-80501600D01*
X119382400Y-80501600D01*
X119382400Y-80101600D01*
G37*
G36*
X110582400Y-82501600D02*
G01*
X110182400Y-82501600D01*
X110182400Y-82901600D01*
X110582400Y-82901600D01*
X110582400Y-82501600D01*
G37*
G36*
X109382400Y-71301600D02*
G01*
X108982400Y-71301600D01*
X108982400Y-71701600D01*
X109382400Y-71701600D01*
X109382400Y-71301600D01*
G37*
G36*
X110182400Y-76901600D02*
G01*
X109782400Y-76901600D01*
X109782400Y-77301600D01*
X110182400Y-77301600D01*
X110182400Y-76901600D01*
G37*
G36*
X111382400Y-75301600D02*
G01*
X110982400Y-75301600D01*
X110982400Y-75701600D01*
X111382400Y-75701600D01*
X111382400Y-75301600D01*
G37*
G36*
X109782400Y-75701600D02*
G01*
X109382400Y-75701600D01*
X109382400Y-76101600D01*
X109782400Y-76101600D01*
X109782400Y-75701600D01*
G37*
G36*
X107382400Y-80501600D02*
G01*
X106982400Y-80501600D01*
X106982400Y-80901600D01*
X107382400Y-80901600D01*
X107382400Y-80501600D01*
G37*
G36*
X110982400Y-81301600D02*
G01*
X110582400Y-81301600D01*
X110582400Y-81701600D01*
X110982400Y-81701600D01*
X110982400Y-81301600D01*
G37*
G36*
X117382400Y-76101600D02*
G01*
X116982400Y-76101600D01*
X116982400Y-76501600D01*
X117382400Y-76501600D01*
X117382400Y-76101600D01*
G37*
G36*
X111782400Y-72901600D02*
G01*
X111382400Y-72901600D01*
X111382400Y-73301600D01*
X111782400Y-73301600D01*
X111782400Y-72901600D01*
G37*
G36*
X119782400Y-80901600D02*
G01*
X119382400Y-80901600D01*
X119382400Y-81301600D01*
X119782400Y-81301600D01*
X119782400Y-80901600D01*
G37*
G36*
X111382400Y-76901600D02*
G01*
X110982400Y-76901600D01*
X110982400Y-77301600D01*
X111382400Y-77301600D01*
X111382400Y-76901600D01*
G37*
G36*
X114582400Y-76901600D02*
G01*
X114182400Y-76901600D01*
X114182400Y-77301600D01*
X114582400Y-77301600D01*
X114582400Y-76901600D01*
G37*
G36*
X112982400Y-72901600D02*
G01*
X112582400Y-72901600D01*
X112582400Y-73301600D01*
X112982400Y-73301600D01*
X112982400Y-72901600D01*
G37*
G36*
X112582400Y-74901600D02*
G01*
X112182400Y-74901600D01*
X112182400Y-75301600D01*
X112582400Y-75301600D01*
X112582400Y-74901600D01*
G37*
G36*
X109382400Y-76101600D02*
G01*
X108982400Y-76101600D01*
X108982400Y-76501600D01*
X109382400Y-76501600D01*
X109382400Y-76101600D01*
G37*
G36*
X106982400Y-70101600D02*
G01*
X106582400Y-70101600D01*
X106582400Y-70501600D01*
X106982400Y-70501600D01*
X106982400Y-70101600D01*
G37*
G36*
X110182400Y-80501600D02*
G01*
X109782400Y-80501600D01*
X109782400Y-80901600D01*
X110182400Y-80901600D01*
X110182400Y-80501600D01*
G37*
G36*
X117382400Y-81701600D02*
G01*
X116982400Y-81701600D01*
X116982400Y-82101600D01*
X117382400Y-82101600D01*
X117382400Y-81701600D01*
G37*
G36*
X116582400Y-75301600D02*
G01*
X116182400Y-75301600D01*
X116182400Y-75701600D01*
X116582400Y-75701600D01*
X116582400Y-75301600D01*
G37*
G36*
X114182400Y-75701600D02*
G01*
X113782400Y-75701600D01*
X113782400Y-76101600D01*
X114182400Y-76101600D01*
X114182400Y-75701600D01*
G37*
G36*
X112582400Y-76901600D02*
G01*
X112182400Y-76901600D01*
X112182400Y-77301600D01*
X112582400Y-77301600D01*
X112582400Y-76901600D01*
G37*
G36*
X108582400Y-71301600D02*
G01*
X108182400Y-71301600D01*
X108182400Y-71701600D01*
X108582400Y-71701600D01*
X108582400Y-71301600D01*
G37*
G36*
X115382400Y-82501600D02*
G01*
X114982400Y-82501600D01*
X114982400Y-82901600D01*
X115382400Y-82901600D01*
X115382400Y-82501600D01*
G37*
G36*
X119382400Y-77701600D02*
G01*
X118982400Y-77701600D01*
X118982400Y-78101600D01*
X119382400Y-78101600D01*
X119382400Y-77701600D01*
G37*
G36*
X110182400Y-77701600D02*
G01*
X109782400Y-77701600D01*
X109782400Y-78101600D01*
X110182400Y-78101600D01*
X110182400Y-77701600D01*
G37*
G36*
X110582400Y-69701600D02*
G01*
X110182400Y-69701600D01*
X110182400Y-70101600D01*
X110582400Y-70101600D01*
X110582400Y-69701600D01*
G37*
G36*
X106982400Y-69701600D02*
G01*
X106582400Y-69701600D01*
X106582400Y-70101600D01*
X106982400Y-70101600D01*
X106982400Y-69701600D01*
G37*
G36*
X118582400Y-71301600D02*
G01*
X118182400Y-71301600D01*
X118182400Y-71701600D01*
X118582400Y-71701600D01*
X118582400Y-71301600D01*
G37*
G36*
X111782400Y-79301600D02*
G01*
X111382400Y-79301600D01*
X111382400Y-79701600D01*
X111782400Y-79701600D01*
X111782400Y-79301600D01*
G37*
G36*
X118182400Y-75301600D02*
G01*
X117782400Y-75301600D01*
X117782400Y-75701600D01*
X118182400Y-75701600D01*
X118182400Y-75301600D01*
G37*
G36*
X108982400Y-81701600D02*
G01*
X108582400Y-81701600D01*
X108582400Y-82101600D01*
X108982400Y-82101600D01*
X108982400Y-81701600D01*
G37*
G36*
X114182400Y-70501600D02*
G01*
X113782400Y-70501600D01*
X113782400Y-70901600D01*
X114182400Y-70901600D01*
X114182400Y-70501600D01*
G37*
G36*
X114182400Y-81701600D02*
G01*
X113782400Y-81701600D01*
X113782400Y-82101600D01*
X114182400Y-82101600D01*
X114182400Y-81701600D01*
G37*
G36*
X112982400Y-76501600D02*
G01*
X112582400Y-76501600D01*
X112582400Y-76901600D01*
X112982400Y-76901600D01*
X112982400Y-76501600D01*
G37*
G36*
X110982400Y-69701600D02*
G01*
X110582400Y-69701600D01*
X110582400Y-70101600D01*
X110982400Y-70101600D01*
X110982400Y-69701600D01*
G37*
G36*
X115782400Y-75301600D02*
G01*
X115382400Y-75301600D01*
X115382400Y-75701600D01*
X115782400Y-75701600D01*
X115782400Y-75301600D01*
G37*
G36*
X111782400Y-74101600D02*
G01*
X111382400Y-74101600D01*
X111382400Y-74501600D01*
X111782400Y-74501600D01*
X111782400Y-74101600D01*
G37*
G36*
X113782400Y-69701600D02*
G01*
X113382400Y-69701600D01*
X113382400Y-70101600D01*
X113782400Y-70101600D01*
X113782400Y-69701600D01*
G37*
G36*
X109382400Y-77301600D02*
G01*
X108982400Y-77301600D01*
X108982400Y-77701600D01*
X109382400Y-77701600D01*
X109382400Y-77301600D01*
G37*
G36*
X111382400Y-76101600D02*
G01*
X110982400Y-76101600D01*
X110982400Y-76501600D01*
X111382400Y-76501600D01*
X111382400Y-76101600D01*
G37*
G36*
X116182400Y-70901600D02*
G01*
X115782400Y-70901600D01*
X115782400Y-71301600D01*
X116182400Y-71301600D01*
X116182400Y-70901600D01*
G37*
G36*
X109782400Y-80901600D02*
G01*
X109382400Y-80901600D01*
X109382400Y-81301600D01*
X109782400Y-81301600D01*
X109782400Y-80901600D01*
G37*
G36*
X113382400Y-70901600D02*
G01*
X112982400Y-70901600D01*
X112982400Y-71301600D01*
X113382400Y-71301600D01*
X113382400Y-70901600D01*
G37*
G36*
X110982400Y-82501600D02*
G01*
X110582400Y-82501600D01*
X110582400Y-82901600D01*
X110982400Y-82901600D01*
X110982400Y-82501600D01*
G37*
G36*
X108182400Y-81701600D02*
G01*
X107782400Y-81701600D01*
X107782400Y-82101600D01*
X108182400Y-82101600D01*
X108182400Y-81701600D01*
G37*
G36*
X114982400Y-81701600D02*
G01*
X114582400Y-81701600D01*
X114582400Y-82101600D01*
X114982400Y-82101600D01*
X114982400Y-81701600D01*
G37*
G36*
X112982400Y-73701600D02*
G01*
X112582400Y-73701600D01*
X112582400Y-74101600D01*
X112982400Y-74101600D01*
X112982400Y-73701600D01*
G37*
G36*
X115782400Y-78901600D02*
G01*
X115382400Y-78901600D01*
X115382400Y-79301600D01*
X115782400Y-79301600D01*
X115782400Y-78901600D01*
G37*
G36*
X109782400Y-78501600D02*
G01*
X109382400Y-78501600D01*
X109382400Y-78901600D01*
X109782400Y-78901600D01*
X109782400Y-78501600D01*
G37*
G36*
X110582400Y-74501600D02*
G01*
X110182400Y-74501600D01*
X110182400Y-74901600D01*
X110582400Y-74901600D01*
X110582400Y-74501600D01*
G37*
G36*
X114582400Y-75701600D02*
G01*
X114182400Y-75701600D01*
X114182400Y-76101600D01*
X114582400Y-76101600D01*
X114582400Y-75701600D01*
G37*
G36*
X110182400Y-80901600D02*
G01*
X109782400Y-80901600D01*
X109782400Y-81301600D01*
X110182400Y-81301600D01*
X110182400Y-80901600D01*
G37*
G36*
X119782400Y-74501600D02*
G01*
X119382400Y-74501600D01*
X119382400Y-74901600D01*
X119782400Y-74901600D01*
X119782400Y-74501600D01*
G37*
G36*
X116182400Y-78901600D02*
G01*
X115782400Y-78901600D01*
X115782400Y-79301600D01*
X116182400Y-79301600D01*
X116182400Y-78901600D01*
G37*
G36*
X110182400Y-82501600D02*
G01*
X109782400Y-82501600D01*
X109782400Y-82901600D01*
X110182400Y-82901600D01*
X110182400Y-82501600D01*
G37*
G36*
X119782400Y-76901600D02*
G01*
X119382400Y-76901600D01*
X119382400Y-77301600D01*
X119782400Y-77301600D01*
X119782400Y-76901600D01*
G37*
G36*
X110182400Y-71701600D02*
G01*
X109782400Y-71701600D01*
X109782400Y-72101600D01*
X110182400Y-72101600D01*
X110182400Y-71701600D01*
G37*
G36*
X116182400Y-74501600D02*
G01*
X115782400Y-74501600D01*
X115782400Y-74901600D01*
X116182400Y-74901600D01*
X116182400Y-74501600D01*
G37*
G36*
X108182400Y-77701600D02*
G01*
X107782400Y-77701600D01*
X107782400Y-78101600D01*
X108182400Y-78101600D01*
X108182400Y-77701600D01*
G37*
G36*
X114582400Y-76501600D02*
G01*
X114182400Y-76501600D01*
X114182400Y-76901600D01*
X114582400Y-76901600D01*
X114582400Y-76501600D01*
G37*
G36*
X117782400Y-82501600D02*
G01*
X117382400Y-82501600D01*
X117382400Y-82901600D01*
X117782400Y-82901600D01*
X117782400Y-82501600D01*
G37*
G36*
X108182400Y-71301600D02*
G01*
X107782400Y-71301600D01*
X107782400Y-71701600D01*
X108182400Y-71701600D01*
X108182400Y-71301600D01*
G37*
G36*
X108182400Y-81301600D02*
G01*
X107782400Y-81301600D01*
X107782400Y-81701600D01*
X108182400Y-81701600D01*
X108182400Y-81301600D01*
G37*
G36*
X116582400Y-79701600D02*
G01*
X116182400Y-79701600D01*
X116182400Y-80101600D01*
X116582400Y-80101600D01*
X116582400Y-79701600D01*
G37*
G36*
X119782400Y-76501600D02*
G01*
X119382400Y-76501600D01*
X119382400Y-76901600D01*
X119782400Y-76901600D01*
X119782400Y-76501600D01*
G37*
G36*
X106982400Y-71701600D02*
G01*
X106582400Y-71701600D01*
X106582400Y-72101600D01*
X106982400Y-72101600D01*
X106982400Y-71701600D01*
G37*
G36*
X112582400Y-78101600D02*
G01*
X112182400Y-78101600D01*
X112182400Y-78501600D01*
X112582400Y-78501600D01*
X112582400Y-78101600D01*
G37*
G36*
X108982400Y-75301600D02*
G01*
X108582400Y-75301600D01*
X108582400Y-75701600D01*
X108982400Y-75701600D01*
X108982400Y-75301600D01*
G37*
G36*
X109382400Y-75701600D02*
G01*
X108982400Y-75701600D01*
X108982400Y-76101600D01*
X109382400Y-76101600D01*
X109382400Y-75701600D01*
G37*
G36*
X119782400Y-70101600D02*
G01*
X119382400Y-70101600D01*
X119382400Y-70501600D01*
X119782400Y-70501600D01*
X119782400Y-70101600D01*
G37*
G36*
X112982400Y-82501600D02*
G01*
X112582400Y-82501600D01*
X112582400Y-82901600D01*
X112982400Y-82901600D01*
X112982400Y-82501600D01*
G37*
G36*
X118582400Y-74501600D02*
G01*
X118182400Y-74501600D01*
X118182400Y-74901600D01*
X118582400Y-74901600D01*
X118582400Y-74501600D01*
G37*
G36*
X116982400Y-78501600D02*
G01*
X116582400Y-78501600D01*
X116582400Y-78901600D01*
X116982400Y-78901600D01*
X116982400Y-78501600D01*
G37*
G36*
X118582400Y-80101600D02*
G01*
X118182400Y-80101600D01*
X118182400Y-80501600D01*
X118582400Y-80501600D01*
X118582400Y-80101600D01*
G37*
G36*
X115382400Y-70901600D02*
G01*
X114982400Y-70901600D01*
X114982400Y-71301600D01*
X115382400Y-71301600D01*
X115382400Y-70901600D01*
G37*
G36*
X114582400Y-74501600D02*
G01*
X114182400Y-74501600D01*
X114182400Y-74901600D01*
X114582400Y-74901600D01*
X114582400Y-74501600D01*
G37*
G36*
X112182400Y-76101600D02*
G01*
X111782400Y-76101600D01*
X111782400Y-76501600D01*
X112182400Y-76501600D01*
X112182400Y-76101600D01*
G37*
G36*
X110582400Y-74901600D02*
G01*
X110182400Y-74901600D01*
X110182400Y-75301600D01*
X110582400Y-75301600D01*
X110582400Y-74901600D01*
G37*
G36*
X115382400Y-77301600D02*
G01*
X114982400Y-77301600D01*
X114982400Y-77701600D01*
X115382400Y-77701600D01*
X115382400Y-77301600D01*
G37*
G36*
X115382400Y-71701600D02*
G01*
X114982400Y-71701600D01*
X114982400Y-72101600D01*
X115382400Y-72101600D01*
X115382400Y-71701600D01*
G37*
G36*
X109782400Y-82501600D02*
G01*
X109382400Y-82501600D01*
X109382400Y-82901600D01*
X109782400Y-82901600D01*
X109782400Y-82501600D01*
G37*
G36*
X116182400Y-76901600D02*
G01*
X115782400Y-76901600D01*
X115782400Y-77301600D01*
X116182400Y-77301600D01*
X116182400Y-76901600D01*
G37*
G36*
X116582400Y-69701600D02*
G01*
X116182400Y-69701600D01*
X116182400Y-70101600D01*
X116582400Y-70101600D01*
X116582400Y-69701600D01*
G37*
G36*
X109382400Y-74501600D02*
G01*
X108982400Y-74501600D01*
X108982400Y-74901600D01*
X109382400Y-74901600D01*
X109382400Y-74501600D01*
G37*
G36*
X108582400Y-69701600D02*
G01*
X108182400Y-69701600D01*
X108182400Y-70101600D01*
X108582400Y-70101600D01*
X108582400Y-69701600D01*
G37*
G36*
X114182400Y-81301600D02*
G01*
X113782400Y-81301600D01*
X113782400Y-81701600D01*
X114182400Y-81701600D01*
X114182400Y-81301600D01*
G37*
G36*
X119782400Y-80501600D02*
G01*
X119382400Y-80501600D01*
X119382400Y-80901600D01*
X119782400Y-80901600D01*
X119782400Y-80501600D01*
G37*
G36*
X117382400Y-70901600D02*
G01*
X116982400Y-70901600D01*
X116982400Y-71301600D01*
X117382400Y-71301600D01*
X117382400Y-70901600D01*
G37*
G36*
X115382400Y-80501600D02*
G01*
X114982400Y-80501600D01*
X114982400Y-80901600D01*
X115382400Y-80901600D01*
X115382400Y-80501600D01*
G37*
G36*
X109382400Y-72101600D02*
G01*
X108982400Y-72101600D01*
X108982400Y-72501600D01*
X109382400Y-72501600D01*
X109382400Y-72101600D01*
G37*
G36*
X114982400Y-80101600D02*
G01*
X114582400Y-80101600D01*
X114582400Y-80501600D01*
X114982400Y-80501600D01*
X114982400Y-80101600D01*
G37*
G36*
X108582400Y-78901600D02*
G01*
X108182400Y-78901600D01*
X108182400Y-79301600D01*
X108582400Y-79301600D01*
X108582400Y-78901600D01*
G37*
G36*
X110982400Y-72901600D02*
G01*
X110582400Y-72901600D01*
X110582400Y-73301600D01*
X110982400Y-73301600D01*
X110982400Y-72901600D01*
G37*
G36*
X116182400Y-78501600D02*
G01*
X115782400Y-78501600D01*
X115782400Y-78901600D01*
X116182400Y-78901600D01*
X116182400Y-78501600D01*
G37*
G36*
X108582400Y-77701600D02*
G01*
X108182400Y-77701600D01*
X108182400Y-78101600D01*
X108582400Y-78101600D01*
X108582400Y-77701600D01*
G37*
G36*
X116982400Y-74101600D02*
G01*
X116582400Y-74101600D01*
X116582400Y-74501600D01*
X116982400Y-74501600D01*
X116982400Y-74101600D01*
G37*
G36*
X119782400Y-79301600D02*
G01*
X119382400Y-79301600D01*
X119382400Y-79701600D01*
X119782400Y-79701600D01*
X119782400Y-79301600D01*
G37*
G36*
X118982400Y-80101600D02*
G01*
X118582400Y-80101600D01*
X118582400Y-80501600D01*
X118982400Y-80501600D01*
X118982400Y-80101600D01*
G37*
G36*
X109782400Y-74101600D02*
G01*
X109382400Y-74101600D01*
X109382400Y-74501600D01*
X109782400Y-74501600D01*
X109782400Y-74101600D01*
G37*
G36*
X109782400Y-79301600D02*
G01*
X109382400Y-79301600D01*
X109382400Y-79701600D01*
X109782400Y-79701600D01*
X109782400Y-79301600D01*
G37*
G36*
X109382400Y-81301600D02*
G01*
X108982400Y-81301600D01*
X108982400Y-81701600D01*
X109382400Y-81701600D01*
X109382400Y-81301600D01*
G37*
G36*
X111382400Y-80901600D02*
G01*
X110982400Y-80901600D01*
X110982400Y-81301600D01*
X111382400Y-81301600D01*
X111382400Y-80901600D01*
G37*
G36*
X110582400Y-78501600D02*
G01*
X110182400Y-78501600D01*
X110182400Y-78901600D01*
X110582400Y-78901600D01*
X110582400Y-78501600D01*
G37*
G36*
X111382400Y-77701600D02*
G01*
X110982400Y-77701600D01*
X110982400Y-78101600D01*
X111382400Y-78101600D01*
X111382400Y-77701600D01*
G37*
G36*
X118182400Y-70501600D02*
G01*
X117782400Y-70501600D01*
X117782400Y-70901600D01*
X118182400Y-70901600D01*
X118182400Y-70501600D01*
G37*
G36*
X111382400Y-82101600D02*
G01*
X110982400Y-82101600D01*
X110982400Y-82501600D01*
X111382400Y-82501600D01*
X111382400Y-82101600D01*
G37*
G36*
X114582400Y-82501600D02*
G01*
X114182400Y-82501600D01*
X114182400Y-82901600D01*
X114582400Y-82901600D01*
X114582400Y-82501600D01*
G37*
G36*
X110982400Y-72101600D02*
G01*
X110582400Y-72101600D01*
X110582400Y-72501600D01*
X110982400Y-72501600D01*
X110982400Y-72101600D01*
G37*
G36*
X114982400Y-80901600D02*
G01*
X114582400Y-80901600D01*
X114582400Y-81301600D01*
X114982400Y-81301600D01*
X114982400Y-80901600D01*
G37*
G36*
X117382400Y-82101600D02*
G01*
X116982400Y-82101600D01*
X116982400Y-82501600D01*
X117382400Y-82501600D01*
X117382400Y-82101600D01*
G37*
G36*
X118982400Y-70501600D02*
G01*
X118582400Y-70501600D01*
X118582400Y-70901600D01*
X118982400Y-70901600D01*
X118982400Y-70501600D01*
G37*
G36*
X115382400Y-81701600D02*
G01*
X114982400Y-81701600D01*
X114982400Y-82101600D01*
X115382400Y-82101600D01*
X115382400Y-81701600D01*
G37*
G36*
X114182400Y-72101600D02*
G01*
X113782400Y-72101600D01*
X113782400Y-72501600D01*
X114182400Y-72501600D01*
X114182400Y-72101600D01*
G37*
G36*
X112982400Y-74101600D02*
G01*
X112582400Y-74101600D01*
X112582400Y-74501600D01*
X112982400Y-74501600D01*
X112982400Y-74101600D01*
G37*
G36*
X119382400Y-69701600D02*
G01*
X118982400Y-69701600D01*
X118982400Y-70101600D01*
X119382400Y-70101600D01*
X119382400Y-69701600D01*
G37*
G36*
X116182400Y-74101600D02*
G01*
X115782400Y-74101600D01*
X115782400Y-74501600D01*
X116182400Y-74501600D01*
X116182400Y-74101600D01*
G37*
G36*
X114182400Y-70101600D02*
G01*
X113782400Y-70101600D01*
X113782400Y-70501600D01*
X114182400Y-70501600D01*
X114182400Y-70101600D01*
G37*
G36*
X119782400Y-74101600D02*
G01*
X119382400Y-74101600D01*
X119382400Y-74501600D01*
X119782400Y-74501600D01*
X119782400Y-74101600D01*
G37*
G36*
X118182400Y-72101600D02*
G01*
X117782400Y-72101600D01*
X117782400Y-72501600D01*
X118182400Y-72501600D01*
X118182400Y-72101600D01*
G37*
G36*
X119782400Y-75301600D02*
G01*
X119382400Y-75301600D01*
X119382400Y-75701600D01*
X119782400Y-75701600D01*
X119782400Y-75301600D01*
G37*
G36*
X107382400Y-78901600D02*
G01*
X106982400Y-78901600D01*
X106982400Y-79301600D01*
X107382400Y-79301600D01*
X107382400Y-78901600D01*
G37*
G36*
X110982400Y-77701600D02*
G01*
X110582400Y-77701600D01*
X110582400Y-78101600D01*
X110982400Y-78101600D01*
X110982400Y-77701600D01*
G37*
G36*
X114582400Y-70101600D02*
G01*
X114182400Y-70101600D01*
X114182400Y-70501600D01*
X114582400Y-70501600D01*
X114582400Y-70101600D01*
G37*
G36*
X110182400Y-76101600D02*
G01*
X109782400Y-76101600D01*
X109782400Y-76501600D01*
X110182400Y-76501600D01*
X110182400Y-76101600D01*
G37*
G36*
X112982400Y-74501600D02*
G01*
X112582400Y-74501600D01*
X112582400Y-74901600D01*
X112982400Y-74901600D01*
X112982400Y-74501600D01*
G37*
G36*
X113782400Y-76501600D02*
G01*
X113382400Y-76501600D01*
X113382400Y-76901600D01*
X113782400Y-76901600D01*
X113782400Y-76501600D01*
G37*
G36*
X113382400Y-69701600D02*
G01*
X112982400Y-69701600D01*
X112982400Y-70101600D01*
X113382400Y-70101600D01*
X113382400Y-69701600D01*
G37*
G36*
X115382400Y-80901600D02*
G01*
X114982400Y-80901600D01*
X114982400Y-81301600D01*
X115382400Y-81301600D01*
X115382400Y-80901600D01*
G37*
G36*
X112982400Y-77301600D02*
G01*
X112582400Y-77301600D01*
X112582400Y-77701600D01*
X112982400Y-77701600D01*
X112982400Y-77301600D01*
G37*
G36*
X116582400Y-82501600D02*
G01*
X116182400Y-82501600D01*
X116182400Y-82901600D01*
X116582400Y-82901600D01*
X116582400Y-82501600D01*
G37*
G36*
X113782400Y-82501600D02*
G01*
X113382400Y-82501600D01*
X113382400Y-82901600D01*
X113782400Y-82901600D01*
X113782400Y-82501600D01*
G37*
G36*
X110182400Y-79701600D02*
G01*
X109782400Y-79701600D01*
X109782400Y-80101600D01*
X110182400Y-80101600D01*
X110182400Y-79701600D01*
G37*
G36*
X116582400Y-72901600D02*
G01*
X116182400Y-72901600D01*
X116182400Y-73301600D01*
X116582400Y-73301600D01*
X116582400Y-72901600D01*
G37*
G36*
X118182400Y-77301600D02*
G01*
X117782400Y-77301600D01*
X117782400Y-77701600D01*
X118182400Y-77701600D01*
X118182400Y-77301600D01*
G37*
G36*
X108582400Y-79701600D02*
G01*
X108182400Y-79701600D01*
X108182400Y-80101600D01*
X108582400Y-80101600D01*
X108582400Y-79701600D01*
G37*
G36*
X116582400Y-78901600D02*
G01*
X116182400Y-78901600D01*
X116182400Y-79301600D01*
X116582400Y-79301600D01*
X116582400Y-78901600D01*
G37*
G36*
X116582400Y-80901600D02*
G01*
X116182400Y-80901600D01*
X116182400Y-81301600D01*
X116582400Y-81301600D01*
X116582400Y-80901600D01*
G37*
G36*
X112982400Y-76901600D02*
G01*
X112582400Y-76901600D01*
X112582400Y-77301600D01*
X112982400Y-77301600D01*
X112982400Y-76901600D01*
G37*
%LPC*%
D11*
X136056500Y-121651000D03*
D12*
X136056500Y-119111000D03*
X136056500Y-116571000D03*
D13*
X129921000Y-124751250D03*
D14*
X129921000Y-122251250D03*
X129921000Y-119751250D03*
X129921000Y-117251250D03*
X129921000Y-114751250D03*
D15*
X93353000Y-100437500D03*
X93353000Y-95587500D03*
D16*
X90323000Y-95287500D03*
X90323000Y-100737500D03*
D12*
X119923000Y-97428400D03*
D11*
X119923000Y-94888400D03*
D12*
X119923000Y-92348400D03*
D11*
X98921000Y-121651000D03*
D12*
X98921000Y-119111000D03*
X98921000Y-116571000D03*
D11*
X93575000Y-75173750D03*
D12*
X93575000Y-72633750D03*
X93575000Y-70093750D03*
D11*
X104267000Y-121651000D03*
D12*
X104267000Y-119111000D03*
X104267000Y-116571000D03*
D11*
X135056500Y-83830400D03*
D12*
X135056500Y-81290400D03*
X135056500Y-78750400D03*
D17*
X137000000Y-53000000D03*
D18*
X135636000Y-60833000D03*
D19*
X130556000Y-60833000D03*
D17*
X137000000Y-127000000D03*
X103000000Y-53000000D03*
X103000000Y-127000000D03*
D18*
X125476000Y-60833000D03*
D19*
X120396000Y-60833000D03*
D13*
X124104400Y-81273750D03*
D14*
X124104400Y-78773750D03*
X124104400Y-76273750D03*
X124104400Y-73773750D03*
X124104400Y-71273750D03*
D11*
X130200400Y-75173750D03*
D12*
X130200400Y-72633750D03*
X130200400Y-70093750D03*
D11*
X93575000Y-121651000D03*
D12*
X93575000Y-119111000D03*
X93575000Y-116571000D03*
D13*
X101329000Y-81273750D03*
D14*
X101329000Y-78773750D03*
X101329000Y-76273750D03*
X101329000Y-73773750D03*
X101329000Y-71273750D03*
D13*
X109140000Y-124751250D03*
D14*
X109140000Y-122251250D03*
X109140000Y-119751250D03*
X109140000Y-117251250D03*
X109140000Y-114751250D03*
M02*
