G04 #@! TF.GenerationSoftware,KiCad,Pcbnew,6.0.7+dfsg-1build1*
G04 #@! TF.CreationDate,2023-03-30T21:09:48-07:00*
G04 #@! TF.ProjectId,moduleDriver,6d6f6475-6c65-4447-9269-7665722e6b69,rev?*
G04 #@! TF.SameCoordinates,Original*
G04 #@! TF.FileFunction,Copper,L2,Bot*
G04 #@! TF.FilePolarity,Positive*
%FSLAX46Y46*%
G04 Gerber Fmt 4.6, Leading zero omitted, Abs format (unit mm)*
G04 Created by KiCad (PCBNEW 6.0.7+dfsg-1build1) date 2023-03-30 21:09:48*
%MOMM*%
%LPD*%
G01*
G04 APERTURE LIST*
G04 Aperture macros list*
%AMRoundRect*
0 Rectangle with rounded corners*
0 $1 Rounding radius*
0 $2 $3 $4 $5 $6 $7 $8 $9 X,Y pos of 4 corners*
0 Add a 4 corners polygon primitive as box body*
4,1,4,$2,$3,$4,$5,$6,$7,$8,$9,$2,$3,0*
0 Add four circle primitives for the rounded corners*
1,1,$1+$1,$2,$3*
1,1,$1+$1,$4,$5*
1,1,$1+$1,$6,$7*
1,1,$1+$1,$8,$9*
0 Add four rect primitives between the rounded corners*
20,1,$1+$1,$2,$3,$4,$5,0*
20,1,$1+$1,$4,$5,$6,$7,0*
20,1,$1+$1,$6,$7,$8,$9,0*
20,1,$1+$1,$8,$9,$2,$3,0*%
G04 Aperture macros list end*
G04 #@! TA.AperFunction,ComponentPad*
%ADD10R,1.700000X1.700000*%
G04 #@! TD*
G04 #@! TA.AperFunction,ComponentPad*
%ADD11O,1.700000X1.700000*%
G04 #@! TD*
G04 #@! TA.AperFunction,ComponentPad*
%ADD12RoundRect,0.250000X0.725000X-0.600000X0.725000X0.600000X-0.725000X0.600000X-0.725000X-0.600000X0*%
G04 #@! TD*
G04 #@! TA.AperFunction,ComponentPad*
%ADD13O,1.950000X1.700000*%
G04 #@! TD*
G04 #@! TA.AperFunction,ComponentPad*
%ADD14R,2.500000X2.500000*%
G04 #@! TD*
G04 #@! TA.AperFunction,ComponentPad*
%ADD15C,2.500000*%
G04 #@! TD*
G04 #@! TA.AperFunction,ViaPad*
%ADD16C,0.800000*%
G04 #@! TD*
G04 #@! TA.AperFunction,Conductor*
%ADD17C,0.550000*%
G04 #@! TD*
G04 #@! TA.AperFunction,Conductor*
%ADD18C,0.250000*%
G04 #@! TD*
G04 APERTURE END LIST*
D10*
X136056500Y-121651000D03*
D11*
X136056500Y-119111000D03*
X136056500Y-116571000D03*
D12*
X129921000Y-124751250D03*
D13*
X129921000Y-122251250D03*
X129921000Y-119751250D03*
X129921000Y-117251250D03*
X129921000Y-114751250D03*
D11*
X119923000Y-97428400D03*
D10*
X119923000Y-94888400D03*
D11*
X119923000Y-92348400D03*
D10*
X98921000Y-121651000D03*
D11*
X98921000Y-119111000D03*
X98921000Y-116571000D03*
D10*
X93575000Y-75173750D03*
D11*
X93575000Y-72633750D03*
X93575000Y-70093750D03*
D10*
X104267000Y-121651000D03*
D11*
X104267000Y-119111000D03*
X104267000Y-116571000D03*
D10*
X135056500Y-83830400D03*
D11*
X135056500Y-81290400D03*
X135056500Y-78750400D03*
D14*
X135636000Y-60833000D03*
D15*
X130556000Y-60833000D03*
D14*
X125476000Y-60833000D03*
D15*
X120396000Y-60833000D03*
D12*
X124104400Y-81273750D03*
D13*
X124104400Y-78773750D03*
X124104400Y-76273750D03*
X124104400Y-73773750D03*
X124104400Y-71273750D03*
D10*
X130200400Y-75173750D03*
D11*
X130200400Y-72633750D03*
X130200400Y-70093750D03*
D10*
X93575000Y-121651000D03*
D11*
X93575000Y-119111000D03*
X93575000Y-116571000D03*
D12*
X101329000Y-81273750D03*
D13*
X101329000Y-78773750D03*
X101329000Y-76273750D03*
X101329000Y-73773750D03*
X101329000Y-71273750D03*
D12*
X109140000Y-124751250D03*
D13*
X109140000Y-122251250D03*
X109140000Y-119751250D03*
X109140000Y-117251250D03*
X109140000Y-114751250D03*
D16*
X128524000Y-85423000D03*
X127000000Y-104535500D03*
X128524000Y-90932000D03*
X127000000Y-111052000D03*
X93535800Y-55054200D03*
X95491000Y-55054200D03*
X95273000Y-85575000D03*
X90932000Y-65509602D03*
X120650000Y-110490000D03*
X120142000Y-119761000D03*
X121310400Y-91033600D03*
X95491000Y-52832000D03*
X108000800Y-105308400D03*
X114423200Y-113478800D03*
X133350000Y-85852000D03*
X98145600Y-62737998D03*
X98145600Y-64137997D03*
X118341250Y-79502000D03*
X98145600Y-61337999D03*
X132384800Y-119786400D03*
X95402400Y-58775600D03*
X93729166Y-66700400D03*
X93735734Y-58826400D03*
X113729000Y-114935000D03*
X105156000Y-60674300D03*
X110236000Y-65024000D03*
X93535800Y-52832000D03*
X97069067Y-58775600D03*
X107950000Y-91033600D03*
X120650000Y-105359200D03*
X95250000Y-105308400D03*
X133350000Y-110490000D03*
X90932000Y-59909603D03*
X98145600Y-59938000D03*
X90932000Y-64109600D03*
X92156000Y-125633200D03*
X102157491Y-60663422D03*
X97062499Y-66649600D03*
X91440000Y-91998800D03*
X99009200Y-127711200D03*
X114046000Y-65024000D03*
X120650000Y-85814500D03*
X107950000Y-110490000D03*
X95250000Y-110490000D03*
X98145600Y-65537999D03*
X95395832Y-66649600D03*
X90932000Y-62709601D03*
X119380000Y-81048750D03*
X107950000Y-85598000D03*
X92062500Y-66700400D03*
X91440000Y-103530400D03*
X90932000Y-61309602D03*
X92069068Y-58826400D03*
X119380000Y-68072000D03*
X117489750Y-68072000D03*
X91440000Y-105410000D03*
X91449928Y-110236000D03*
X98806000Y-67056000D03*
X98806000Y-68946500D03*
X95560625Y-72079375D03*
X130050173Y-110154175D03*
X95913500Y-83058000D03*
X129563012Y-105624702D03*
X98044000Y-83058000D03*
X96093635Y-114980365D03*
X98207363Y-113984237D03*
X95204635Y-114091365D03*
X97496163Y-113273037D03*
D17*
X127000000Y-104535500D02*
X127000000Y-111052000D01*
X128524000Y-85423000D02*
X128524000Y-90932000D01*
X91449928Y-105419928D02*
X91440000Y-105410000D01*
X91449928Y-110236000D02*
X91449928Y-105419928D01*
X117489750Y-68072000D02*
X119380000Y-68072000D01*
D18*
X98806000Y-68946500D02*
X98806000Y-67056000D01*
X95560625Y-72079375D02*
X93575000Y-70093750D01*
D17*
X95913500Y-83058000D02*
X98044000Y-83058000D01*
X129563012Y-109667014D02*
X130050173Y-110154175D01*
X129563012Y-105624702D02*
X129563012Y-109667014D01*
D18*
X97211235Y-114980365D02*
X98207363Y-113984237D01*
X96093635Y-114980365D02*
X97211235Y-114980365D01*
X96677835Y-114091365D02*
X95204635Y-114091365D01*
X97496163Y-113273037D02*
X96677835Y-114091365D01*
G04 #@! TA.AperFunction,Conductor*
G36*
X137970018Y-50510000D02*
G01*
X137984851Y-50512310D01*
X137984855Y-50512310D01*
X137993724Y-50513691D01*
X138008981Y-50511696D01*
X138034302Y-50510953D01*
X138203285Y-50523039D01*
X138221064Y-50525596D01*
X138411392Y-50566999D01*
X138428641Y-50572063D01*
X138611150Y-50640136D01*
X138627502Y-50647604D01*
X138798458Y-50740952D01*
X138813582Y-50750672D01*
X138969514Y-50867402D01*
X138983100Y-50879175D01*
X139120825Y-51016900D01*
X139132598Y-51030486D01*
X139249328Y-51186418D01*
X139259048Y-51201542D01*
X139352396Y-51372498D01*
X139359864Y-51388850D01*
X139427937Y-51571359D01*
X139433001Y-51588607D01*
X139474404Y-51778936D01*
X139476962Y-51796721D01*
X139488540Y-51958601D01*
X139487793Y-51976565D01*
X139487692Y-51984845D01*
X139486309Y-51993724D01*
X139487474Y-52002630D01*
X139490436Y-52025283D01*
X139491500Y-52041621D01*
X139491500Y-90365500D01*
X139471498Y-90433621D01*
X139417842Y-90480114D01*
X139365500Y-90491500D01*
X131008623Y-90491500D01*
X131007853Y-90491498D01*
X131007037Y-90491493D01*
X130930279Y-90491024D01*
X130907918Y-90497415D01*
X130901847Y-90499150D01*
X130885085Y-90502728D01*
X130855813Y-90506920D01*
X130847645Y-90510634D01*
X130847644Y-90510634D01*
X130832438Y-90517548D01*
X130814914Y-90523996D01*
X130790229Y-90531051D01*
X130782635Y-90535843D01*
X130782632Y-90535844D01*
X130765220Y-90546830D01*
X130750137Y-90554969D01*
X130723218Y-90567208D01*
X130716416Y-90573069D01*
X130703765Y-90583970D01*
X130688761Y-90595073D01*
X130667042Y-90608776D01*
X130661103Y-90615501D01*
X130661099Y-90615504D01*
X130647468Y-90630938D01*
X130635276Y-90642982D01*
X130619673Y-90656427D01*
X130619671Y-90656430D01*
X130612873Y-90662287D01*
X130607993Y-90669816D01*
X130607992Y-90669817D01*
X130598906Y-90683835D01*
X130587615Y-90698709D01*
X130576569Y-90711217D01*
X130570622Y-90717951D01*
X130562245Y-90735794D01*
X130558058Y-90744711D01*
X130549737Y-90759691D01*
X130538529Y-90776983D01*
X130538527Y-90776988D01*
X130533648Y-90784515D01*
X130531078Y-90793108D01*
X130531076Y-90793113D01*
X130526289Y-90809120D01*
X130519628Y-90826564D01*
X130508719Y-90849800D01*
X130507338Y-90858667D01*
X130507338Y-90858668D01*
X130504170Y-90879015D01*
X130500387Y-90895732D01*
X130494485Y-90915466D01*
X130494484Y-90915472D01*
X130491914Y-90924066D01*
X130491859Y-90933037D01*
X130491859Y-90933038D01*
X130491704Y-90958497D01*
X130491671Y-90959289D01*
X130491500Y-90960386D01*
X130491500Y-90991377D01*
X130491498Y-90992147D01*
X130491024Y-91069721D01*
X130491408Y-91071065D01*
X130491500Y-91072410D01*
X130491500Y-104969921D01*
X130471498Y-105038042D01*
X130417842Y-105084535D01*
X130347568Y-105094639D01*
X130282988Y-105065145D01*
X130271864Y-105054231D01*
X130263309Y-105044729D01*
X130174265Y-104945836D01*
X130067337Y-104868148D01*
X130025106Y-104837465D01*
X130025105Y-104837464D01*
X130019764Y-104833584D01*
X130013736Y-104830900D01*
X130013734Y-104830899D01*
X129851331Y-104758593D01*
X129851330Y-104758593D01*
X129845300Y-104755908D01*
X129751852Y-104736045D01*
X129664956Y-104717574D01*
X129664951Y-104717574D01*
X129658499Y-104716202D01*
X129467525Y-104716202D01*
X129461073Y-104717574D01*
X129461068Y-104717574D01*
X129374172Y-104736045D01*
X129280724Y-104755908D01*
X129274694Y-104758593D01*
X129274693Y-104758593D01*
X129112290Y-104830899D01*
X129112288Y-104830900D01*
X129106260Y-104833584D01*
X129100919Y-104837464D01*
X129100918Y-104837465D01*
X129058687Y-104868148D01*
X128951759Y-104945836D01*
X128947338Y-104950746D01*
X128947337Y-104950747D01*
X128840213Y-105069721D01*
X128823972Y-105087758D01*
X128728485Y-105253146D01*
X128669470Y-105434774D01*
X128668780Y-105441335D01*
X128668780Y-105441337D01*
X128652802Y-105593365D01*
X128649508Y-105624702D01*
X128669470Y-105814630D01*
X128728485Y-105996258D01*
X128731788Y-106001980D01*
X128731789Y-106001981D01*
X128762631Y-106055400D01*
X128779512Y-106118400D01*
X128779512Y-109658013D01*
X128779505Y-109659333D01*
X128778590Y-109746692D01*
X128780079Y-109753577D01*
X128780079Y-109753580D01*
X128787426Y-109787559D01*
X128789487Y-109800142D01*
X128794148Y-109841696D01*
X128796466Y-109848351D01*
X128796467Y-109848357D01*
X128804756Y-109872160D01*
X128808919Y-109886969D01*
X128814248Y-109911615D01*
X128815737Y-109918500D01*
X128833414Y-109956409D01*
X128838196Y-109968185D01*
X128851955Y-110007695D01*
X128869049Y-110035051D01*
X128876389Y-110048570D01*
X128878285Y-110052635D01*
X128890023Y-110077808D01*
X128894336Y-110083368D01*
X128894337Y-110083370D01*
X128915652Y-110110849D01*
X128922941Y-110121297D01*
X128945103Y-110156763D01*
X128971762Y-110183610D01*
X128972831Y-110184686D01*
X128973385Y-110185278D01*
X128973889Y-110185927D01*
X128999041Y-110211079D01*
X129068961Y-110281489D01*
X129069971Y-110282130D01*
X129071150Y-110283188D01*
X129147065Y-110359103D01*
X129177802Y-110409261D01*
X129215646Y-110525731D01*
X129311133Y-110691119D01*
X129438920Y-110833041D01*
X129593421Y-110945293D01*
X129599449Y-110947977D01*
X129599451Y-110947978D01*
X129761854Y-111020284D01*
X129767885Y-111022969D01*
X129861286Y-111042822D01*
X129948229Y-111061303D01*
X129948234Y-111061303D01*
X129954686Y-111062675D01*
X130145660Y-111062675D01*
X130152112Y-111061303D01*
X130152117Y-111061303D01*
X130239061Y-111042822D01*
X130332461Y-111022969D01*
X130338492Y-111020284D01*
X130500895Y-110947978D01*
X130500897Y-110947977D01*
X130506925Y-110945293D01*
X130661426Y-110833041D01*
X130789213Y-110691119D01*
X130884700Y-110525731D01*
X130943715Y-110344103D01*
X130950207Y-110282340D01*
X130962987Y-110160740D01*
X130963677Y-110154175D01*
X130943715Y-109964247D01*
X130884700Y-109782619D01*
X130863958Y-109746692D01*
X130847487Y-109718165D01*
X130789213Y-109617231D01*
X130661426Y-109475309D01*
X130506925Y-109363057D01*
X130500897Y-109360373D01*
X130500895Y-109360372D01*
X130421263Y-109324918D01*
X130367167Y-109278938D01*
X130346512Y-109209811D01*
X130346512Y-106118400D01*
X130363393Y-106055400D01*
X130394235Y-106001981D01*
X130394236Y-106001980D01*
X130397539Y-105996258D01*
X130456554Y-105814630D01*
X130476516Y-105624702D01*
X130473222Y-105593365D01*
X130463599Y-105501802D01*
X130476371Y-105431964D01*
X130524873Y-105380117D01*
X130593706Y-105362723D01*
X130660594Y-105385163D01*
X130662287Y-105387127D01*
X130668511Y-105391161D01*
X130683835Y-105401094D01*
X130698709Y-105412385D01*
X130711217Y-105423431D01*
X130717951Y-105429378D01*
X130744711Y-105441942D01*
X130759691Y-105450263D01*
X130776983Y-105461471D01*
X130776988Y-105461473D01*
X130784515Y-105466352D01*
X130793108Y-105468922D01*
X130793113Y-105468924D01*
X130809120Y-105473711D01*
X130826564Y-105480372D01*
X130841676Y-105487467D01*
X130841678Y-105487468D01*
X130849800Y-105491281D01*
X130858667Y-105492662D01*
X130858668Y-105492662D01*
X130868310Y-105494163D01*
X130879017Y-105495830D01*
X130895732Y-105499613D01*
X130915466Y-105505515D01*
X130915472Y-105505516D01*
X130924066Y-105508086D01*
X130933037Y-105508141D01*
X130933038Y-105508141D01*
X130943097Y-105508202D01*
X130958506Y-105508296D01*
X130959289Y-105508329D01*
X130960386Y-105508500D01*
X130991377Y-105508500D01*
X130992147Y-105508502D01*
X131065785Y-105508952D01*
X131065786Y-105508952D01*
X131069721Y-105508976D01*
X131071065Y-105508592D01*
X131072410Y-105508500D01*
X139365500Y-105508500D01*
X139433621Y-105528502D01*
X139480114Y-105582158D01*
X139491500Y-105634500D01*
X139491500Y-127950633D01*
X139490000Y-127970018D01*
X139487690Y-127984851D01*
X139487690Y-127984855D01*
X139486309Y-127993724D01*
X139488136Y-128007693D01*
X139488304Y-128008976D01*
X139489047Y-128034305D01*
X139476962Y-128203279D01*
X139474404Y-128221064D01*
X139472986Y-128227586D01*
X139433001Y-128411392D01*
X139427937Y-128428641D01*
X139359864Y-128611150D01*
X139352396Y-128627502D01*
X139259048Y-128798458D01*
X139249328Y-128813582D01*
X139132598Y-128969514D01*
X139120825Y-128983100D01*
X138983100Y-129120825D01*
X138969514Y-129132598D01*
X138813582Y-129249328D01*
X138798458Y-129259048D01*
X138627502Y-129352396D01*
X138611150Y-129359864D01*
X138428641Y-129427937D01*
X138411393Y-129433001D01*
X138221064Y-129474404D01*
X138203285Y-129476961D01*
X138041395Y-129488540D01*
X138023435Y-129487793D01*
X138015155Y-129487692D01*
X138006276Y-129486309D01*
X137974714Y-129490436D01*
X137958379Y-129491500D01*
X90695367Y-129491500D01*
X90675982Y-129490000D01*
X90661149Y-129487690D01*
X90661145Y-129487690D01*
X90652276Y-129486309D01*
X90637019Y-129488304D01*
X90611698Y-129489047D01*
X90442715Y-129476961D01*
X90424936Y-129474404D01*
X90234607Y-129433001D01*
X90217359Y-129427937D01*
X90034850Y-129359864D01*
X90018498Y-129352396D01*
X89847542Y-129259048D01*
X89832418Y-129249328D01*
X89676486Y-129132598D01*
X89662900Y-129120825D01*
X89525175Y-128983100D01*
X89513402Y-128969514D01*
X89396672Y-128813582D01*
X89386952Y-128798458D01*
X89293604Y-128627502D01*
X89286136Y-128611150D01*
X89218063Y-128428641D01*
X89212999Y-128411392D01*
X89173014Y-128227586D01*
X89171596Y-128221064D01*
X89169038Y-128203278D01*
X89157719Y-128045012D01*
X89158805Y-128022245D01*
X89158334Y-128022203D01*
X89158770Y-128017345D01*
X89159576Y-128012552D01*
X89159729Y-128000000D01*
X89155773Y-127972376D01*
X89154500Y-127954514D01*
X89154500Y-127132703D01*
X100890743Y-127132703D01*
X100928268Y-127417734D01*
X101004129Y-127695036D01*
X101005813Y-127698984D01*
X101114807Y-127954514D01*
X101116923Y-127959476D01*
X101264561Y-128206161D01*
X101444313Y-128430528D01*
X101652851Y-128628423D01*
X101886317Y-128796186D01*
X101890112Y-128798195D01*
X101890113Y-128798196D01*
X101911869Y-128809715D01*
X102140392Y-128930712D01*
X102410373Y-129029511D01*
X102691264Y-129090755D01*
X102719841Y-129093004D01*
X102914282Y-129108307D01*
X102914291Y-129108307D01*
X102916739Y-129108500D01*
X103072271Y-129108500D01*
X103074407Y-129108354D01*
X103074418Y-129108354D01*
X103282548Y-129094165D01*
X103282554Y-129094164D01*
X103286825Y-129093873D01*
X103291020Y-129093004D01*
X103291022Y-129093004D01*
X103427584Y-129064723D01*
X103568342Y-129035574D01*
X103839343Y-128939607D01*
X104094812Y-128807750D01*
X104098313Y-128805289D01*
X104098317Y-128805287D01*
X104212418Y-128725095D01*
X104330023Y-128642441D01*
X104540622Y-128446740D01*
X104722713Y-128224268D01*
X104872927Y-127979142D01*
X104988483Y-127715898D01*
X105067244Y-127439406D01*
X105107751Y-127154784D01*
X105107845Y-127136951D01*
X105107867Y-127132703D01*
X134890743Y-127132703D01*
X134928268Y-127417734D01*
X135004129Y-127695036D01*
X135005813Y-127698984D01*
X135114807Y-127954514D01*
X135116923Y-127959476D01*
X135264561Y-128206161D01*
X135444313Y-128430528D01*
X135652851Y-128628423D01*
X135886317Y-128796186D01*
X135890112Y-128798195D01*
X135890113Y-128798196D01*
X135911869Y-128809715D01*
X136140392Y-128930712D01*
X136410373Y-129029511D01*
X136691264Y-129090755D01*
X136719841Y-129093004D01*
X136914282Y-129108307D01*
X136914291Y-129108307D01*
X136916739Y-129108500D01*
X137072271Y-129108500D01*
X137074407Y-129108354D01*
X137074418Y-129108354D01*
X137282548Y-129094165D01*
X137282554Y-129094164D01*
X137286825Y-129093873D01*
X137291020Y-129093004D01*
X137291022Y-129093004D01*
X137427584Y-129064723D01*
X137568342Y-129035574D01*
X137839343Y-128939607D01*
X138094812Y-128807750D01*
X138098313Y-128805289D01*
X138098317Y-128805287D01*
X138212418Y-128725095D01*
X138330023Y-128642441D01*
X138540622Y-128446740D01*
X138722713Y-128224268D01*
X138872927Y-127979142D01*
X138988483Y-127715898D01*
X139067244Y-127439406D01*
X139107751Y-127154784D01*
X139107845Y-127136951D01*
X139109235Y-126871583D01*
X139109235Y-126871576D01*
X139109257Y-126867297D01*
X139071732Y-126582266D01*
X138995871Y-126304964D01*
X138912461Y-126109413D01*
X138884763Y-126044476D01*
X138884761Y-126044472D01*
X138883077Y-126040524D01*
X138808527Y-125915960D01*
X138737643Y-125797521D01*
X138737640Y-125797517D01*
X138735439Y-125793839D01*
X138555687Y-125569472D01*
X138382264Y-125404900D01*
X138350258Y-125374527D01*
X138350255Y-125374525D01*
X138347149Y-125371577D01*
X138113683Y-125203814D01*
X138091843Y-125192250D01*
X138068654Y-125179972D01*
X137859608Y-125069288D01*
X137589627Y-124970489D01*
X137308736Y-124909245D01*
X137277685Y-124906801D01*
X137085718Y-124891693D01*
X137085709Y-124891693D01*
X137083261Y-124891500D01*
X136927729Y-124891500D01*
X136925593Y-124891646D01*
X136925582Y-124891646D01*
X136717452Y-124905835D01*
X136717446Y-124905836D01*
X136713175Y-124906127D01*
X136708980Y-124906996D01*
X136708978Y-124906996D01*
X136572417Y-124935276D01*
X136431658Y-124964426D01*
X136160657Y-125060393D01*
X135905188Y-125192250D01*
X135901687Y-125194711D01*
X135901683Y-125194713D01*
X135891594Y-125201804D01*
X135669977Y-125357559D01*
X135459378Y-125553260D01*
X135277287Y-125775732D01*
X135127073Y-126020858D01*
X135011517Y-126284102D01*
X134932756Y-126560594D01*
X134892249Y-126845216D01*
X134892227Y-126849505D01*
X134892226Y-126849512D01*
X134890765Y-127128417D01*
X134890743Y-127132703D01*
X105107867Y-127132703D01*
X105109235Y-126871583D01*
X105109235Y-126871576D01*
X105109257Y-126867297D01*
X105071732Y-126582266D01*
X104995871Y-126304964D01*
X104912461Y-126109413D01*
X104884763Y-126044476D01*
X104884761Y-126044472D01*
X104883077Y-126040524D01*
X104808527Y-125915960D01*
X104737643Y-125797521D01*
X104737640Y-125797517D01*
X104735439Y-125793839D01*
X104555687Y-125569472D01*
X104382264Y-125404900D01*
X104350258Y-125374527D01*
X104350255Y-125374525D01*
X104347149Y-125371577D01*
X104113683Y-125203814D01*
X104091843Y-125192250D01*
X104068654Y-125179972D01*
X103859608Y-125069288D01*
X103589627Y-124970489D01*
X103308736Y-124909245D01*
X103277685Y-124906801D01*
X103085718Y-124891693D01*
X103085709Y-124891693D01*
X103083261Y-124891500D01*
X102927729Y-124891500D01*
X102925593Y-124891646D01*
X102925582Y-124891646D01*
X102717452Y-124905835D01*
X102717446Y-124905836D01*
X102713175Y-124906127D01*
X102708980Y-124906996D01*
X102708978Y-124906996D01*
X102572417Y-124935276D01*
X102431658Y-124964426D01*
X102160657Y-125060393D01*
X101905188Y-125192250D01*
X101901687Y-125194711D01*
X101901683Y-125194713D01*
X101891594Y-125201804D01*
X101669977Y-125357559D01*
X101459378Y-125553260D01*
X101277287Y-125775732D01*
X101127073Y-126020858D01*
X101011517Y-126284102D01*
X100932756Y-126560594D01*
X100892249Y-126845216D01*
X100892227Y-126849505D01*
X100892226Y-126849512D01*
X100890765Y-127128417D01*
X100890743Y-127132703D01*
X89154500Y-127132703D01*
X89154500Y-122545669D01*
X92217001Y-122545669D01*
X92217371Y-122552490D01*
X92222895Y-122603352D01*
X92226521Y-122618604D01*
X92271676Y-122739054D01*
X92280214Y-122754649D01*
X92356715Y-122856724D01*
X92369276Y-122869285D01*
X92471351Y-122945786D01*
X92486946Y-122954324D01*
X92607394Y-122999478D01*
X92622649Y-123003105D01*
X92673514Y-123008631D01*
X92680328Y-123009000D01*
X93302885Y-123009000D01*
X93318124Y-123004525D01*
X93319329Y-123003135D01*
X93321000Y-122995452D01*
X93321000Y-122990884D01*
X93829000Y-122990884D01*
X93833475Y-123006123D01*
X93834865Y-123007328D01*
X93842548Y-123008999D01*
X94469669Y-123008999D01*
X94476490Y-123008629D01*
X94527352Y-123003105D01*
X94542604Y-122999479D01*
X94663054Y-122954324D01*
X94678649Y-122945786D01*
X94780724Y-122869285D01*
X94793285Y-122856724D01*
X94869786Y-122754649D01*
X94878324Y-122739054D01*
X94923478Y-122618606D01*
X94927105Y-122603351D01*
X94932631Y-122552486D01*
X94933000Y-122545672D01*
X94933000Y-122545669D01*
X97563001Y-122545669D01*
X97563371Y-122552490D01*
X97568895Y-122603352D01*
X97572521Y-122618604D01*
X97617676Y-122739054D01*
X97626214Y-122754649D01*
X97702715Y-122856724D01*
X97715276Y-122869285D01*
X97817351Y-122945786D01*
X97832946Y-122954324D01*
X97953394Y-122999478D01*
X97968649Y-123003105D01*
X98019514Y-123008631D01*
X98026328Y-123009000D01*
X98648885Y-123009000D01*
X98664124Y-123004525D01*
X98665329Y-123003135D01*
X98667000Y-122995452D01*
X98667000Y-122990884D01*
X99175000Y-122990884D01*
X99179475Y-123006123D01*
X99180865Y-123007328D01*
X99188548Y-123008999D01*
X99815669Y-123008999D01*
X99822490Y-123008629D01*
X99873352Y-123003105D01*
X99888604Y-122999479D01*
X100009054Y-122954324D01*
X100024649Y-122945786D01*
X100126724Y-122869285D01*
X100139285Y-122856724D01*
X100215786Y-122754649D01*
X100224324Y-122739054D01*
X100269478Y-122618606D01*
X100273105Y-122603351D01*
X100278631Y-122552486D01*
X100279000Y-122545672D01*
X100279000Y-122545669D01*
X102909001Y-122545669D01*
X102909371Y-122552490D01*
X102914895Y-122603352D01*
X102918521Y-122618604D01*
X102963676Y-122739054D01*
X102972214Y-122754649D01*
X103048715Y-122856724D01*
X103061276Y-122869285D01*
X103163351Y-122945786D01*
X103178946Y-122954324D01*
X103299394Y-122999478D01*
X103314649Y-123003105D01*
X103365514Y-123008631D01*
X103372328Y-123009000D01*
X103994885Y-123009000D01*
X104010124Y-123004525D01*
X104011329Y-123003135D01*
X104013000Y-122995452D01*
X104013000Y-122990884D01*
X104521000Y-122990884D01*
X104525475Y-123006123D01*
X104526865Y-123007328D01*
X104534548Y-123008999D01*
X105161669Y-123008999D01*
X105168490Y-123008629D01*
X105219352Y-123003105D01*
X105234604Y-122999479D01*
X105355054Y-122954324D01*
X105370649Y-122945786D01*
X105472724Y-122869285D01*
X105485285Y-122856724D01*
X105561786Y-122754649D01*
X105570324Y-122739054D01*
X105615478Y-122618606D01*
X105619105Y-122603351D01*
X105624631Y-122552486D01*
X105625000Y-122545672D01*
X105625000Y-122187024D01*
X107653102Y-122187024D01*
X107661751Y-122417408D01*
X107709093Y-122643041D01*
X107711051Y-122648000D01*
X107711052Y-122648002D01*
X107747011Y-122739054D01*
X107793776Y-122857471D01*
X107913377Y-123054567D01*
X107916874Y-123058597D01*
X108003438Y-123158353D01*
X108064477Y-123228695D01*
X108100120Y-123257920D01*
X108140114Y-123316579D01*
X108142046Y-123387549D01*
X108105302Y-123448298D01*
X108086532Y-123462498D01*
X107955579Y-123543535D01*
X107940652Y-123552772D01*
X107815695Y-123677947D01*
X107722885Y-123828512D01*
X107667203Y-123996389D01*
X107656500Y-124100850D01*
X107656500Y-125401650D01*
X107667474Y-125507416D01*
X107669655Y-125513952D01*
X107669655Y-125513954D01*
X107713728Y-125646056D01*
X107723450Y-125675196D01*
X107816522Y-125825598D01*
X107941697Y-125950555D01*
X107947927Y-125954395D01*
X107947928Y-125954396D01*
X108085090Y-126038944D01*
X108092262Y-126043365D01*
X108172005Y-126069814D01*
X108253611Y-126096882D01*
X108253613Y-126096882D01*
X108260139Y-126099047D01*
X108266975Y-126099747D01*
X108266978Y-126099748D01*
X108310031Y-126104159D01*
X108364600Y-126109750D01*
X109915400Y-126109750D01*
X109918646Y-126109413D01*
X109918650Y-126109413D01*
X110014308Y-126099488D01*
X110014312Y-126099487D01*
X110021166Y-126098776D01*
X110027702Y-126096595D01*
X110027704Y-126096595D01*
X110159806Y-126052522D01*
X110188946Y-126042800D01*
X110339348Y-125949728D01*
X110464305Y-125824553D01*
X110480968Y-125797521D01*
X110553275Y-125680218D01*
X110553276Y-125680216D01*
X110557115Y-125673988D01*
X110596058Y-125556579D01*
X110610632Y-125512639D01*
X110610632Y-125512637D01*
X110612797Y-125506111D01*
X110623500Y-125401650D01*
X110623500Y-124100850D01*
X110612526Y-123995084D01*
X110556550Y-123827304D01*
X110463478Y-123676902D01*
X110338303Y-123551945D01*
X110192660Y-123462169D01*
X110145168Y-123409398D01*
X110133744Y-123339326D01*
X110162018Y-123274202D01*
X110171805Y-123263740D01*
X110282278Y-123158353D01*
X110286135Y-123154674D01*
X110423754Y-122969708D01*
X110528240Y-122764199D01*
X110531206Y-122754649D01*
X110595024Y-122549121D01*
X110596607Y-122544023D01*
X110597308Y-122538734D01*
X110626198Y-122320761D01*
X110626198Y-122320756D01*
X110626898Y-122315476D01*
X110622076Y-122187024D01*
X128434102Y-122187024D01*
X128442751Y-122417408D01*
X128490093Y-122643041D01*
X128492051Y-122648000D01*
X128492052Y-122648002D01*
X128528011Y-122739054D01*
X128574776Y-122857471D01*
X128694377Y-123054567D01*
X128697874Y-123058597D01*
X128784438Y-123158353D01*
X128845477Y-123228695D01*
X128881120Y-123257920D01*
X128921114Y-123316579D01*
X128923046Y-123387549D01*
X128886302Y-123448298D01*
X128867532Y-123462498D01*
X128736579Y-123543535D01*
X128721652Y-123552772D01*
X128596695Y-123677947D01*
X128503885Y-123828512D01*
X128448203Y-123996389D01*
X128437500Y-124100850D01*
X128437500Y-125401650D01*
X128448474Y-125507416D01*
X128450655Y-125513952D01*
X128450655Y-125513954D01*
X128494728Y-125646056D01*
X128504450Y-125675196D01*
X128597522Y-125825598D01*
X128722697Y-125950555D01*
X128728927Y-125954395D01*
X128728928Y-125954396D01*
X128866090Y-126038944D01*
X128873262Y-126043365D01*
X128953005Y-126069814D01*
X129034611Y-126096882D01*
X129034613Y-126096882D01*
X129041139Y-126099047D01*
X129047975Y-126099747D01*
X129047978Y-126099748D01*
X129091031Y-126104159D01*
X129145600Y-126109750D01*
X130696400Y-126109750D01*
X130699646Y-126109413D01*
X130699650Y-126109413D01*
X130795308Y-126099488D01*
X130795312Y-126099487D01*
X130802166Y-126098776D01*
X130808702Y-126096595D01*
X130808704Y-126096595D01*
X130940806Y-126052522D01*
X130969946Y-126042800D01*
X131120348Y-125949728D01*
X131245305Y-125824553D01*
X131261968Y-125797521D01*
X131334275Y-125680218D01*
X131334276Y-125680216D01*
X131338115Y-125673988D01*
X131377058Y-125556579D01*
X131391632Y-125512639D01*
X131391632Y-125512637D01*
X131393797Y-125506111D01*
X131404500Y-125401650D01*
X131404500Y-124100850D01*
X131393526Y-123995084D01*
X131337550Y-123827304D01*
X131244478Y-123676902D01*
X131119303Y-123551945D01*
X130973660Y-123462169D01*
X130926168Y-123409398D01*
X130914744Y-123339326D01*
X130943018Y-123274202D01*
X130952805Y-123263740D01*
X131063278Y-123158353D01*
X131067135Y-123154674D01*
X131204754Y-122969708D01*
X131309240Y-122764199D01*
X131312206Y-122754649D01*
X131376024Y-122549121D01*
X131377096Y-122545669D01*
X134698501Y-122545669D01*
X134698871Y-122552490D01*
X134704395Y-122603352D01*
X134708021Y-122618604D01*
X134753176Y-122739054D01*
X134761714Y-122754649D01*
X134838215Y-122856724D01*
X134850776Y-122869285D01*
X134952851Y-122945786D01*
X134968446Y-122954324D01*
X135088894Y-122999478D01*
X135104149Y-123003105D01*
X135155014Y-123008631D01*
X135161828Y-123009000D01*
X135784385Y-123009000D01*
X135799624Y-123004525D01*
X135800829Y-123003135D01*
X135802500Y-122995452D01*
X135802500Y-122990884D01*
X136310500Y-122990884D01*
X136314975Y-123006123D01*
X136316365Y-123007328D01*
X136324048Y-123008999D01*
X136951169Y-123008999D01*
X136957990Y-123008629D01*
X137008852Y-123003105D01*
X137024104Y-122999479D01*
X137144554Y-122954324D01*
X137160149Y-122945786D01*
X137262224Y-122869285D01*
X137274785Y-122856724D01*
X137351286Y-122754649D01*
X137359824Y-122739054D01*
X137404978Y-122618606D01*
X137408605Y-122603351D01*
X137414131Y-122552486D01*
X137414500Y-122545672D01*
X137414500Y-121923115D01*
X137410025Y-121907876D01*
X137408635Y-121906671D01*
X137400952Y-121905000D01*
X136328615Y-121905000D01*
X136313376Y-121909475D01*
X136312171Y-121910865D01*
X136310500Y-121918548D01*
X136310500Y-122990884D01*
X135802500Y-122990884D01*
X135802500Y-121923115D01*
X135798025Y-121907876D01*
X135796635Y-121906671D01*
X135788952Y-121905000D01*
X134716616Y-121905000D01*
X134701377Y-121909475D01*
X134700172Y-121910865D01*
X134698501Y-121918548D01*
X134698501Y-122545669D01*
X131377096Y-122545669D01*
X131377607Y-122544023D01*
X131378308Y-122538734D01*
X131407198Y-122320761D01*
X131407198Y-122320756D01*
X131407898Y-122315476D01*
X131399249Y-122085092D01*
X131351907Y-121859459D01*
X131267224Y-121645029D01*
X131147623Y-121447933D01*
X131099543Y-121392525D01*
X131000023Y-121277838D01*
X131000021Y-121277836D01*
X130996523Y-121273805D01*
X130954970Y-121239734D01*
X130822373Y-121131010D01*
X130822367Y-121131006D01*
X130818245Y-121127626D01*
X130786750Y-121109698D01*
X130737445Y-121058618D01*
X130723583Y-120988988D01*
X130749566Y-120922917D01*
X130778716Y-120895677D01*
X130814642Y-120871490D01*
X130900319Y-120813809D01*
X130960575Y-120756328D01*
X131021038Y-120698648D01*
X131067135Y-120654674D01*
X131204754Y-120469708D01*
X131309240Y-120264199D01*
X131320595Y-120227632D01*
X131376024Y-120049121D01*
X131377607Y-120044023D01*
X131384728Y-119990292D01*
X131407198Y-119820761D01*
X131407198Y-119820756D01*
X131407898Y-119815476D01*
X131399249Y-119585092D01*
X131351907Y-119359459D01*
X131302181Y-119233546D01*
X131269185Y-119149994D01*
X131269184Y-119149992D01*
X131267224Y-119145029D01*
X131244540Y-119107646D01*
X131226365Y-119077695D01*
X134693751Y-119077695D01*
X134694048Y-119082848D01*
X134694048Y-119082851D01*
X134699511Y-119177590D01*
X134706610Y-119300715D01*
X134707747Y-119305761D01*
X134707748Y-119305767D01*
X134721025Y-119364678D01*
X134755722Y-119518639D01*
X134793961Y-119612811D01*
X134824096Y-119687024D01*
X134839766Y-119725616D01*
X134956487Y-119916088D01*
X135102750Y-120084938D01*
X135106725Y-120088238D01*
X135106731Y-120088244D01*
X135111925Y-120092556D01*
X135151559Y-120151460D01*
X135153055Y-120222441D01*
X135115939Y-120282962D01*
X135075668Y-120307480D01*
X134968446Y-120347676D01*
X134952851Y-120356214D01*
X134850776Y-120432715D01*
X134838215Y-120445276D01*
X134761714Y-120547351D01*
X134753176Y-120562946D01*
X134708022Y-120683394D01*
X134704395Y-120698649D01*
X134698869Y-120749514D01*
X134698500Y-120756328D01*
X134698500Y-121378885D01*
X134702975Y-121394124D01*
X134704365Y-121395329D01*
X134712048Y-121397000D01*
X137396384Y-121397000D01*
X137411623Y-121392525D01*
X137412828Y-121391135D01*
X137414499Y-121383452D01*
X137414499Y-120756331D01*
X137414129Y-120749510D01*
X137408605Y-120698648D01*
X137404979Y-120683396D01*
X137359824Y-120562946D01*
X137351286Y-120547351D01*
X137274785Y-120445276D01*
X137262224Y-120432715D01*
X137160149Y-120356214D01*
X137144554Y-120347676D01*
X137034313Y-120306348D01*
X136977549Y-120263706D01*
X136952849Y-120197145D01*
X136968057Y-120127796D01*
X136989604Y-120099115D01*
X137090930Y-119998144D01*
X137090940Y-119998132D01*
X137094596Y-119994489D01*
X137154094Y-119911689D01*
X137221935Y-119817277D01*
X137224953Y-119813077D01*
X137323930Y-119612811D01*
X137356400Y-119505940D01*
X137387365Y-119404023D01*
X137387365Y-119404021D01*
X137388870Y-119399069D01*
X137418029Y-119177590D01*
X137419656Y-119111000D01*
X137401352Y-118888361D01*
X137346931Y-118671702D01*
X137257854Y-118466840D01*
X137158854Y-118313809D01*
X137139322Y-118283617D01*
X137139320Y-118283614D01*
X137136514Y-118279277D01*
X136986170Y-118114051D01*
X136982119Y-118110852D01*
X136982115Y-118110848D01*
X136814914Y-117978800D01*
X136814910Y-117978798D01*
X136810859Y-117975598D01*
X136769553Y-117952796D01*
X136719584Y-117902364D01*
X136704812Y-117832921D01*
X136729928Y-117766516D01*
X136757280Y-117739909D01*
X136801103Y-117708650D01*
X136936360Y-117612173D01*
X137094596Y-117454489D01*
X137154094Y-117371689D01*
X137221935Y-117277277D01*
X137224953Y-117273077D01*
X137317861Y-117085092D01*
X137321636Y-117077453D01*
X137321637Y-117077451D01*
X137323930Y-117072811D01*
X137388870Y-116859069D01*
X137418029Y-116637590D01*
X137419656Y-116571000D01*
X137401352Y-116348361D01*
X137346931Y-116131702D01*
X137257854Y-115926840D01*
X137218406Y-115865862D01*
X137139322Y-115743617D01*
X137139320Y-115743614D01*
X137136514Y-115739277D01*
X136986170Y-115574051D01*
X136982119Y-115570852D01*
X136982115Y-115570848D01*
X136814914Y-115438800D01*
X136814910Y-115438798D01*
X136810859Y-115435598D01*
X136615289Y-115327638D01*
X136610420Y-115325914D01*
X136610416Y-115325912D01*
X136409587Y-115254795D01*
X136409583Y-115254794D01*
X136404712Y-115253069D01*
X136399619Y-115252162D01*
X136399616Y-115252161D01*
X136189873Y-115214800D01*
X136189867Y-115214799D01*
X136184784Y-115213894D01*
X136110952Y-115212992D01*
X135966581Y-115211228D01*
X135966579Y-115211228D01*
X135961411Y-115211165D01*
X135740591Y-115244955D01*
X135528256Y-115314357D01*
X135497943Y-115330137D01*
X135358002Y-115402986D01*
X135330107Y-115417507D01*
X135325974Y-115420610D01*
X135325971Y-115420612D01*
X135157144Y-115547371D01*
X135151465Y-115551635D01*
X135135259Y-115568594D01*
X135052999Y-115654674D01*
X134997129Y-115713138D01*
X134871243Y-115897680D01*
X134855503Y-115931590D01*
X134795926Y-116059938D01*
X134777188Y-116100305D01*
X134717489Y-116315570D01*
X134693751Y-116537695D01*
X134694048Y-116542848D01*
X134694048Y-116542851D01*
X134706312Y-116755547D01*
X134706610Y-116760715D01*
X134707747Y-116765761D01*
X134707748Y-116765767D01*
X134727619Y-116853939D01*
X134755722Y-116978639D01*
X134839766Y-117185616D01*
X134956487Y-117376088D01*
X135102750Y-117544938D01*
X135274626Y-117687632D01*
X135345095Y-117728811D01*
X135347945Y-117730476D01*
X135396669Y-117782114D01*
X135409740Y-117851897D01*
X135383009Y-117917669D01*
X135342555Y-117951027D01*
X135330107Y-117957507D01*
X135325974Y-117960610D01*
X135325971Y-117960612D01*
X135155600Y-118088530D01*
X135151465Y-118091635D01*
X135147893Y-118095373D01*
X135017251Y-118232082D01*
X134997129Y-118253138D01*
X134871243Y-118437680D01*
X134836043Y-118513512D01*
X134781503Y-118631010D01*
X134777188Y-118640305D01*
X134717489Y-118855570D01*
X134693751Y-119077695D01*
X131226365Y-119077695D01*
X131150390Y-118952493D01*
X131147623Y-118947933D01*
X131091574Y-118883342D01*
X131000023Y-118777838D01*
X131000021Y-118777836D01*
X130996523Y-118773805D01*
X130954970Y-118739734D01*
X130822373Y-118631010D01*
X130822367Y-118631006D01*
X130818245Y-118627626D01*
X130786750Y-118609698D01*
X130737445Y-118558618D01*
X130723583Y-118488988D01*
X130749566Y-118422917D01*
X130778716Y-118395677D01*
X130814642Y-118371490D01*
X130900319Y-118313809D01*
X131067135Y-118154674D01*
X131204754Y-117969708D01*
X131210958Y-117957507D01*
X131290866Y-117800338D01*
X131309240Y-117764199D01*
X131316166Y-117741896D01*
X131376024Y-117549121D01*
X131377607Y-117544023D01*
X131390030Y-117450292D01*
X131407198Y-117320761D01*
X131407198Y-117320756D01*
X131407898Y-117315476D01*
X131399249Y-117085092D01*
X131351907Y-116859459D01*
X131267224Y-116645029D01*
X131147623Y-116447933D01*
X131060755Y-116347826D01*
X131000023Y-116277838D01*
X131000021Y-116277836D01*
X130996523Y-116273805D01*
X130954970Y-116239734D01*
X130822373Y-116131010D01*
X130822367Y-116131006D01*
X130818245Y-116127626D01*
X130786750Y-116109698D01*
X130737445Y-116058618D01*
X130723583Y-115988988D01*
X130749566Y-115922917D01*
X130778716Y-115895677D01*
X130814642Y-115871490D01*
X130900319Y-115813809D01*
X130941874Y-115774168D01*
X131009766Y-115709401D01*
X131067135Y-115654674D01*
X131204754Y-115469708D01*
X131210837Y-115457745D01*
X131276986Y-115327638D01*
X131309240Y-115264199D01*
X131314717Y-115246562D01*
X131376024Y-115049121D01*
X131377607Y-115044023D01*
X131392767Y-114929641D01*
X131407198Y-114820761D01*
X131407198Y-114820756D01*
X131407898Y-114815476D01*
X131406200Y-114770231D01*
X131399449Y-114590423D01*
X131399249Y-114585092D01*
X131351907Y-114359459D01*
X131281210Y-114180443D01*
X131269185Y-114149994D01*
X131269184Y-114149992D01*
X131267224Y-114145029D01*
X131147623Y-113947933D01*
X131060755Y-113847826D01*
X131000023Y-113777838D01*
X131000021Y-113777836D01*
X130996523Y-113773805D01*
X130930670Y-113719809D01*
X130822373Y-113631010D01*
X130822367Y-113631006D01*
X130818245Y-113627626D01*
X130813609Y-113624987D01*
X130813606Y-113624985D01*
X130622529Y-113516218D01*
X130617886Y-113513575D01*
X130401175Y-113434913D01*
X130395926Y-113433964D01*
X130395923Y-113433963D01*
X130178392Y-113394627D01*
X130178385Y-113394626D01*
X130174308Y-113393889D01*
X130156586Y-113393053D01*
X130151644Y-113392820D01*
X130151637Y-113392820D01*
X130150156Y-113392750D01*
X129738110Y-113392750D01*
X129671191Y-113398428D01*
X129571591Y-113406879D01*
X129571587Y-113406880D01*
X129566280Y-113407330D01*
X129561125Y-113408668D01*
X129561119Y-113408669D01*
X129348297Y-113463907D01*
X129348293Y-113463908D01*
X129343128Y-113465249D01*
X129338262Y-113467441D01*
X129338259Y-113467442D01*
X129229980Y-113516218D01*
X129132925Y-113559938D01*
X128941681Y-113688691D01*
X128774865Y-113847826D01*
X128637246Y-114032792D01*
X128532760Y-114238301D01*
X128531178Y-114243395D01*
X128531177Y-114243398D01*
X128469115Y-114443270D01*
X128464393Y-114458477D01*
X128463692Y-114463766D01*
X128436758Y-114666986D01*
X128434102Y-114687024D01*
X128434302Y-114692353D01*
X128434302Y-114692355D01*
X128437418Y-114775355D01*
X128442751Y-114917408D01*
X128490093Y-115143041D01*
X128492051Y-115148000D01*
X128492052Y-115148002D01*
X128562313Y-115325912D01*
X128574776Y-115357471D01*
X128577543Y-115362030D01*
X128577544Y-115362033D01*
X128665763Y-115507413D01*
X128694377Y-115554567D01*
X128697874Y-115558597D01*
X128828735Y-115709401D01*
X128845477Y-115728695D01*
X128849608Y-115732082D01*
X129019627Y-115871490D01*
X129019633Y-115871494D01*
X129023755Y-115874874D01*
X129055250Y-115892802D01*
X129104555Y-115943882D01*
X129118417Y-116013512D01*
X129092434Y-116079583D01*
X129063284Y-116106823D01*
X128941681Y-116188691D01*
X128774865Y-116347826D01*
X128637246Y-116532792D01*
X128634830Y-116537543D01*
X128634828Y-116537547D01*
X128619525Y-116567646D01*
X128532760Y-116738301D01*
X128531178Y-116743395D01*
X128531177Y-116743398D01*
X128469115Y-116943270D01*
X128464393Y-116958477D01*
X128463692Y-116963766D01*
X128448304Y-117079873D01*
X128434102Y-117187024D01*
X128442751Y-117417408D01*
X128490093Y-117643041D01*
X128492051Y-117648000D01*
X128492052Y-117648002D01*
X128572575Y-117851897D01*
X128574776Y-117857471D01*
X128694377Y-118054567D01*
X128697874Y-118058597D01*
X128784438Y-118158353D01*
X128845477Y-118228695D01*
X128849608Y-118232082D01*
X129019627Y-118371490D01*
X129019633Y-118371494D01*
X129023755Y-118374874D01*
X129055250Y-118392802D01*
X129104555Y-118443882D01*
X129118417Y-118513512D01*
X129092434Y-118579583D01*
X129063284Y-118606823D01*
X128941681Y-118688691D01*
X128774865Y-118847826D01*
X128637246Y-119032792D01*
X128634830Y-119037543D01*
X128634828Y-119037547D01*
X128599188Y-119107646D01*
X128532760Y-119238301D01*
X128531178Y-119243395D01*
X128531177Y-119243398D01*
X128469115Y-119443270D01*
X128464393Y-119458477D01*
X128463692Y-119463766D01*
X128443323Y-119617453D01*
X128434102Y-119687024D01*
X128442751Y-119917408D01*
X128490093Y-120143041D01*
X128574776Y-120357471D01*
X128577543Y-120362030D01*
X128577544Y-120362033D01*
X128639998Y-120464953D01*
X128694377Y-120554567D01*
X128697874Y-120558597D01*
X128819405Y-120698649D01*
X128845477Y-120728695D01*
X128849608Y-120732082D01*
X129019627Y-120871490D01*
X129019633Y-120871494D01*
X129023755Y-120874874D01*
X129055250Y-120892802D01*
X129104555Y-120943882D01*
X129118417Y-121013512D01*
X129092434Y-121079583D01*
X129063284Y-121106823D01*
X128941681Y-121188691D01*
X128774865Y-121347826D01*
X128637246Y-121532792D01*
X128532760Y-121738301D01*
X128531178Y-121743395D01*
X128531177Y-121743398D01*
X128480998Y-121905000D01*
X128464393Y-121958477D01*
X128463692Y-121963766D01*
X128448304Y-122079873D01*
X128434102Y-122187024D01*
X110622076Y-122187024D01*
X110618249Y-122085092D01*
X110570907Y-121859459D01*
X110486224Y-121645029D01*
X110366623Y-121447933D01*
X110318543Y-121392525D01*
X110219023Y-121277838D01*
X110219021Y-121277836D01*
X110215523Y-121273805D01*
X110173970Y-121239734D01*
X110041373Y-121131010D01*
X110041367Y-121131006D01*
X110037245Y-121127626D01*
X110005750Y-121109698D01*
X109956445Y-121058618D01*
X109942583Y-120988988D01*
X109968566Y-120922917D01*
X109997716Y-120895677D01*
X110033642Y-120871490D01*
X110119319Y-120813809D01*
X110179575Y-120756328D01*
X110240038Y-120698648D01*
X110286135Y-120654674D01*
X110423754Y-120469708D01*
X110528240Y-120264199D01*
X110539595Y-120227632D01*
X110595024Y-120049121D01*
X110596607Y-120044023D01*
X110603728Y-119990292D01*
X110626198Y-119820761D01*
X110626198Y-119820756D01*
X110626898Y-119815476D01*
X110618249Y-119585092D01*
X110570907Y-119359459D01*
X110521181Y-119233546D01*
X110488185Y-119149994D01*
X110488184Y-119149992D01*
X110486224Y-119145029D01*
X110463540Y-119107646D01*
X110369390Y-118952493D01*
X110366623Y-118947933D01*
X110310574Y-118883342D01*
X110219023Y-118777838D01*
X110219021Y-118777836D01*
X110215523Y-118773805D01*
X110173970Y-118739734D01*
X110041373Y-118631010D01*
X110041367Y-118631006D01*
X110037245Y-118627626D01*
X110005750Y-118609698D01*
X109956445Y-118558618D01*
X109942583Y-118488988D01*
X109968566Y-118422917D01*
X109997716Y-118395677D01*
X110033642Y-118371490D01*
X110119319Y-118313809D01*
X110286135Y-118154674D01*
X110423754Y-117969708D01*
X110429958Y-117957507D01*
X110509866Y-117800338D01*
X110528240Y-117764199D01*
X110535166Y-117741896D01*
X110595024Y-117549121D01*
X110596607Y-117544023D01*
X110609030Y-117450292D01*
X110626198Y-117320761D01*
X110626198Y-117320756D01*
X110626898Y-117315476D01*
X110618249Y-117085092D01*
X110570907Y-116859459D01*
X110486224Y-116645029D01*
X110366623Y-116447933D01*
X110279755Y-116347826D01*
X110219023Y-116277838D01*
X110219021Y-116277836D01*
X110215523Y-116273805D01*
X110173970Y-116239734D01*
X110041373Y-116131010D01*
X110041367Y-116131006D01*
X110037245Y-116127626D01*
X110005750Y-116109698D01*
X109956445Y-116058618D01*
X109942583Y-115988988D01*
X109968566Y-115922917D01*
X109997716Y-115895677D01*
X110033642Y-115871490D01*
X110119319Y-115813809D01*
X110160874Y-115774168D01*
X110228766Y-115709401D01*
X110286135Y-115654674D01*
X110423754Y-115469708D01*
X110429837Y-115457745D01*
X110495986Y-115327638D01*
X110528240Y-115264199D01*
X110533717Y-115246562D01*
X110595024Y-115049121D01*
X110596607Y-115044023D01*
X110611767Y-114929641D01*
X110626198Y-114820761D01*
X110626198Y-114820756D01*
X110626898Y-114815476D01*
X110625200Y-114770231D01*
X110618449Y-114590423D01*
X110618249Y-114585092D01*
X110570907Y-114359459D01*
X110500210Y-114180443D01*
X110488185Y-114149994D01*
X110488184Y-114149992D01*
X110486224Y-114145029D01*
X110366623Y-113947933D01*
X110279755Y-113847826D01*
X110219023Y-113777838D01*
X110219021Y-113777836D01*
X110215523Y-113773805D01*
X110149670Y-113719809D01*
X110041373Y-113631010D01*
X110041367Y-113631006D01*
X110037245Y-113627626D01*
X110032609Y-113624987D01*
X110032606Y-113624985D01*
X109841529Y-113516218D01*
X109836886Y-113513575D01*
X109620175Y-113434913D01*
X109614926Y-113433964D01*
X109614923Y-113433963D01*
X109397392Y-113394627D01*
X109397385Y-113394626D01*
X109393308Y-113393889D01*
X109375586Y-113393053D01*
X109370644Y-113392820D01*
X109370637Y-113392820D01*
X109369156Y-113392750D01*
X108957110Y-113392750D01*
X108890191Y-113398428D01*
X108790591Y-113406879D01*
X108790587Y-113406880D01*
X108785280Y-113407330D01*
X108780125Y-113408668D01*
X108780119Y-113408669D01*
X108567297Y-113463907D01*
X108567293Y-113463908D01*
X108562128Y-113465249D01*
X108557262Y-113467441D01*
X108557259Y-113467442D01*
X108448980Y-113516218D01*
X108351925Y-113559938D01*
X108160681Y-113688691D01*
X107993865Y-113847826D01*
X107856246Y-114032792D01*
X107751760Y-114238301D01*
X107750178Y-114243395D01*
X107750177Y-114243398D01*
X107688115Y-114443270D01*
X107683393Y-114458477D01*
X107682692Y-114463766D01*
X107655758Y-114666986D01*
X107653102Y-114687024D01*
X107653302Y-114692353D01*
X107653302Y-114692355D01*
X107656418Y-114775355D01*
X107661751Y-114917408D01*
X107709093Y-115143041D01*
X107711051Y-115148000D01*
X107711052Y-115148002D01*
X107781313Y-115325912D01*
X107793776Y-115357471D01*
X107796543Y-115362030D01*
X107796544Y-115362033D01*
X107884763Y-115507413D01*
X107913377Y-115554567D01*
X107916874Y-115558597D01*
X108047735Y-115709401D01*
X108064477Y-115728695D01*
X108068608Y-115732082D01*
X108238627Y-115871490D01*
X108238633Y-115871494D01*
X108242755Y-115874874D01*
X108274250Y-115892802D01*
X108323555Y-115943882D01*
X108337417Y-116013512D01*
X108311434Y-116079583D01*
X108282284Y-116106823D01*
X108160681Y-116188691D01*
X107993865Y-116347826D01*
X107856246Y-116532792D01*
X107853830Y-116537543D01*
X107853828Y-116537547D01*
X107838525Y-116567646D01*
X107751760Y-116738301D01*
X107750178Y-116743395D01*
X107750177Y-116743398D01*
X107688115Y-116943270D01*
X107683393Y-116958477D01*
X107682692Y-116963766D01*
X107667304Y-117079873D01*
X107653102Y-117187024D01*
X107661751Y-117417408D01*
X107709093Y-117643041D01*
X107711051Y-117648000D01*
X107711052Y-117648002D01*
X107791575Y-117851897D01*
X107793776Y-117857471D01*
X107913377Y-118054567D01*
X107916874Y-118058597D01*
X108003438Y-118158353D01*
X108064477Y-118228695D01*
X108068608Y-118232082D01*
X108238627Y-118371490D01*
X108238633Y-118371494D01*
X108242755Y-118374874D01*
X108274250Y-118392802D01*
X108323555Y-118443882D01*
X108337417Y-118513512D01*
X108311434Y-118579583D01*
X108282284Y-118606823D01*
X108160681Y-118688691D01*
X107993865Y-118847826D01*
X107856246Y-119032792D01*
X107853830Y-119037543D01*
X107853828Y-119037547D01*
X107818188Y-119107646D01*
X107751760Y-119238301D01*
X107750178Y-119243395D01*
X107750177Y-119243398D01*
X107688115Y-119443270D01*
X107683393Y-119458477D01*
X107682692Y-119463766D01*
X107662323Y-119617453D01*
X107653102Y-119687024D01*
X107661751Y-119917408D01*
X107709093Y-120143041D01*
X107793776Y-120357471D01*
X107796543Y-120362030D01*
X107796544Y-120362033D01*
X107858998Y-120464953D01*
X107913377Y-120554567D01*
X107916874Y-120558597D01*
X108038405Y-120698649D01*
X108064477Y-120728695D01*
X108068608Y-120732082D01*
X108238627Y-120871490D01*
X108238633Y-120871494D01*
X108242755Y-120874874D01*
X108274250Y-120892802D01*
X108323555Y-120943882D01*
X108337417Y-121013512D01*
X108311434Y-121079583D01*
X108282284Y-121106823D01*
X108160681Y-121188691D01*
X107993865Y-121347826D01*
X107856246Y-121532792D01*
X107751760Y-121738301D01*
X107750178Y-121743395D01*
X107750177Y-121743398D01*
X107699998Y-121905000D01*
X107683393Y-121958477D01*
X107682692Y-121963766D01*
X107667304Y-122079873D01*
X107653102Y-122187024D01*
X105625000Y-122187024D01*
X105625000Y-121923115D01*
X105620525Y-121907876D01*
X105619135Y-121906671D01*
X105611452Y-121905000D01*
X104539115Y-121905000D01*
X104523876Y-121909475D01*
X104522671Y-121910865D01*
X104521000Y-121918548D01*
X104521000Y-122990884D01*
X104013000Y-122990884D01*
X104013000Y-121923115D01*
X104008525Y-121907876D01*
X104007135Y-121906671D01*
X103999452Y-121905000D01*
X102927116Y-121905000D01*
X102911877Y-121909475D01*
X102910672Y-121910865D01*
X102909001Y-121918548D01*
X102909001Y-122545669D01*
X100279000Y-122545669D01*
X100279000Y-121923115D01*
X100274525Y-121907876D01*
X100273135Y-121906671D01*
X100265452Y-121905000D01*
X99193115Y-121905000D01*
X99177876Y-121909475D01*
X99176671Y-121910865D01*
X99175000Y-121918548D01*
X99175000Y-122990884D01*
X98667000Y-122990884D01*
X98667000Y-121923115D01*
X98662525Y-121907876D01*
X98661135Y-121906671D01*
X98653452Y-121905000D01*
X97581116Y-121905000D01*
X97565877Y-121909475D01*
X97564672Y-121910865D01*
X97563001Y-121918548D01*
X97563001Y-122545669D01*
X94933000Y-122545669D01*
X94933000Y-121923115D01*
X94928525Y-121907876D01*
X94927135Y-121906671D01*
X94919452Y-121905000D01*
X93847115Y-121905000D01*
X93831876Y-121909475D01*
X93830671Y-121910865D01*
X93829000Y-121918548D01*
X93829000Y-122990884D01*
X93321000Y-122990884D01*
X93321000Y-121923115D01*
X93316525Y-121907876D01*
X93315135Y-121906671D01*
X93307452Y-121905000D01*
X92235116Y-121905000D01*
X92219877Y-121909475D01*
X92218672Y-121910865D01*
X92217001Y-121918548D01*
X92217001Y-122545669D01*
X89154500Y-122545669D01*
X89154500Y-119077695D01*
X92212251Y-119077695D01*
X92212548Y-119082848D01*
X92212548Y-119082851D01*
X92218011Y-119177590D01*
X92225110Y-119300715D01*
X92226247Y-119305761D01*
X92226248Y-119305767D01*
X92239525Y-119364678D01*
X92274222Y-119518639D01*
X92312461Y-119612811D01*
X92342596Y-119687024D01*
X92358266Y-119725616D01*
X92474987Y-119916088D01*
X92621250Y-120084938D01*
X92625225Y-120088238D01*
X92625231Y-120088244D01*
X92630425Y-120092556D01*
X92670059Y-120151460D01*
X92671555Y-120222441D01*
X92634439Y-120282962D01*
X92594168Y-120307480D01*
X92486946Y-120347676D01*
X92471351Y-120356214D01*
X92369276Y-120432715D01*
X92356715Y-120445276D01*
X92280214Y-120547351D01*
X92271676Y-120562946D01*
X92226522Y-120683394D01*
X92222895Y-120698649D01*
X92217369Y-120749514D01*
X92217000Y-120756328D01*
X92217000Y-121378885D01*
X92221475Y-121394124D01*
X92222865Y-121395329D01*
X92230548Y-121397000D01*
X94914884Y-121397000D01*
X94930123Y-121392525D01*
X94931328Y-121391135D01*
X94932999Y-121383452D01*
X94932999Y-120756331D01*
X94932629Y-120749510D01*
X94927105Y-120698648D01*
X94923479Y-120683396D01*
X94878324Y-120562946D01*
X94869786Y-120547351D01*
X94793285Y-120445276D01*
X94780724Y-120432715D01*
X94678649Y-120356214D01*
X94663054Y-120347676D01*
X94552813Y-120306348D01*
X94496049Y-120263706D01*
X94471349Y-120197145D01*
X94486557Y-120127796D01*
X94508104Y-120099115D01*
X94609430Y-119998144D01*
X94609440Y-119998132D01*
X94613096Y-119994489D01*
X94672594Y-119911689D01*
X94740435Y-119817277D01*
X94743453Y-119813077D01*
X94842430Y-119612811D01*
X94874900Y-119505940D01*
X94905865Y-119404023D01*
X94905865Y-119404021D01*
X94907370Y-119399069D01*
X94936529Y-119177590D01*
X94938156Y-119111000D01*
X94935418Y-119077695D01*
X97558251Y-119077695D01*
X97558548Y-119082848D01*
X97558548Y-119082851D01*
X97564011Y-119177590D01*
X97571110Y-119300715D01*
X97572247Y-119305761D01*
X97572248Y-119305767D01*
X97585525Y-119364678D01*
X97620222Y-119518639D01*
X97658461Y-119612811D01*
X97688596Y-119687024D01*
X97704266Y-119725616D01*
X97820987Y-119916088D01*
X97967250Y-120084938D01*
X97971225Y-120088238D01*
X97971231Y-120088244D01*
X97976425Y-120092556D01*
X98016059Y-120151460D01*
X98017555Y-120222441D01*
X97980439Y-120282962D01*
X97940168Y-120307480D01*
X97832946Y-120347676D01*
X97817351Y-120356214D01*
X97715276Y-120432715D01*
X97702715Y-120445276D01*
X97626214Y-120547351D01*
X97617676Y-120562946D01*
X97572522Y-120683394D01*
X97568895Y-120698649D01*
X97563369Y-120749514D01*
X97563000Y-120756328D01*
X97563000Y-121378885D01*
X97567475Y-121394124D01*
X97568865Y-121395329D01*
X97576548Y-121397000D01*
X100260884Y-121397000D01*
X100276123Y-121392525D01*
X100277328Y-121391135D01*
X100278999Y-121383452D01*
X100278999Y-120756331D01*
X100278629Y-120749510D01*
X100273105Y-120698648D01*
X100269479Y-120683396D01*
X100224324Y-120562946D01*
X100215786Y-120547351D01*
X100139285Y-120445276D01*
X100126724Y-120432715D01*
X100024649Y-120356214D01*
X100009054Y-120347676D01*
X99898813Y-120306348D01*
X99842049Y-120263706D01*
X99817349Y-120197145D01*
X99832557Y-120127796D01*
X99854104Y-120099115D01*
X99955430Y-119998144D01*
X99955440Y-119998132D01*
X99959096Y-119994489D01*
X100018594Y-119911689D01*
X100086435Y-119817277D01*
X100089453Y-119813077D01*
X100188430Y-119612811D01*
X100220900Y-119505940D01*
X100251865Y-119404023D01*
X100251865Y-119404021D01*
X100253370Y-119399069D01*
X100282529Y-119177590D01*
X100284156Y-119111000D01*
X100281418Y-119077695D01*
X102904251Y-119077695D01*
X102904548Y-119082848D01*
X102904548Y-119082851D01*
X102910011Y-119177590D01*
X102917110Y-119300715D01*
X102918247Y-119305761D01*
X102918248Y-119305767D01*
X102931525Y-119364678D01*
X102966222Y-119518639D01*
X103004461Y-119612811D01*
X103034596Y-119687024D01*
X103050266Y-119725616D01*
X103166987Y-119916088D01*
X103313250Y-120084938D01*
X103317225Y-120088238D01*
X103317231Y-120088244D01*
X103322425Y-120092556D01*
X103362059Y-120151460D01*
X103363555Y-120222441D01*
X103326439Y-120282962D01*
X103286168Y-120307480D01*
X103178946Y-120347676D01*
X103163351Y-120356214D01*
X103061276Y-120432715D01*
X103048715Y-120445276D01*
X102972214Y-120547351D01*
X102963676Y-120562946D01*
X102918522Y-120683394D01*
X102914895Y-120698649D01*
X102909369Y-120749514D01*
X102909000Y-120756328D01*
X102909000Y-121378885D01*
X102913475Y-121394124D01*
X102914865Y-121395329D01*
X102922548Y-121397000D01*
X105606884Y-121397000D01*
X105622123Y-121392525D01*
X105623328Y-121391135D01*
X105624999Y-121383452D01*
X105624999Y-120756331D01*
X105624629Y-120749510D01*
X105619105Y-120698648D01*
X105615479Y-120683396D01*
X105570324Y-120562946D01*
X105561786Y-120547351D01*
X105485285Y-120445276D01*
X105472724Y-120432715D01*
X105370649Y-120356214D01*
X105355054Y-120347676D01*
X105244813Y-120306348D01*
X105188049Y-120263706D01*
X105163349Y-120197145D01*
X105178557Y-120127796D01*
X105200104Y-120099115D01*
X105301430Y-119998144D01*
X105301440Y-119998132D01*
X105305096Y-119994489D01*
X105364594Y-119911689D01*
X105432435Y-119817277D01*
X105435453Y-119813077D01*
X105534430Y-119612811D01*
X105566900Y-119505940D01*
X105597865Y-119404023D01*
X105597865Y-119404021D01*
X105599370Y-119399069D01*
X105628529Y-119177590D01*
X105630156Y-119111000D01*
X105611852Y-118888361D01*
X105557431Y-118671702D01*
X105468354Y-118466840D01*
X105369354Y-118313809D01*
X105349822Y-118283617D01*
X105349820Y-118283614D01*
X105347014Y-118279277D01*
X105196670Y-118114051D01*
X105192619Y-118110852D01*
X105192615Y-118110848D01*
X105025414Y-117978800D01*
X105025410Y-117978798D01*
X105021359Y-117975598D01*
X104980053Y-117952796D01*
X104930084Y-117902364D01*
X104915312Y-117832921D01*
X104940428Y-117766516D01*
X104967780Y-117739909D01*
X105011603Y-117708650D01*
X105146860Y-117612173D01*
X105305096Y-117454489D01*
X105364594Y-117371689D01*
X105432435Y-117277277D01*
X105435453Y-117273077D01*
X105528361Y-117085092D01*
X105532136Y-117077453D01*
X105532137Y-117077451D01*
X105534430Y-117072811D01*
X105599370Y-116859069D01*
X105628529Y-116637590D01*
X105630156Y-116571000D01*
X105611852Y-116348361D01*
X105557431Y-116131702D01*
X105468354Y-115926840D01*
X105428906Y-115865862D01*
X105349822Y-115743617D01*
X105349820Y-115743614D01*
X105347014Y-115739277D01*
X105196670Y-115574051D01*
X105192619Y-115570852D01*
X105192615Y-115570848D01*
X105025414Y-115438800D01*
X105025410Y-115438798D01*
X105021359Y-115435598D01*
X104825789Y-115327638D01*
X104820920Y-115325914D01*
X104820916Y-115325912D01*
X104620087Y-115254795D01*
X104620083Y-115254794D01*
X104615212Y-115253069D01*
X104610119Y-115252162D01*
X104610116Y-115252161D01*
X104400373Y-115214800D01*
X104400367Y-115214799D01*
X104395284Y-115213894D01*
X104321452Y-115212992D01*
X104177081Y-115211228D01*
X104177079Y-115211228D01*
X104171911Y-115211165D01*
X103951091Y-115244955D01*
X103738756Y-115314357D01*
X103708443Y-115330137D01*
X103568502Y-115402986D01*
X103540607Y-115417507D01*
X103536474Y-115420610D01*
X103536471Y-115420612D01*
X103367644Y-115547371D01*
X103361965Y-115551635D01*
X103345759Y-115568594D01*
X103263499Y-115654674D01*
X103207629Y-115713138D01*
X103081743Y-115897680D01*
X103066003Y-115931590D01*
X103006426Y-116059938D01*
X102987688Y-116100305D01*
X102927989Y-116315570D01*
X102904251Y-116537695D01*
X102904548Y-116542848D01*
X102904548Y-116542851D01*
X102916812Y-116755547D01*
X102917110Y-116760715D01*
X102918247Y-116765761D01*
X102918248Y-116765767D01*
X102938119Y-116853939D01*
X102966222Y-116978639D01*
X103050266Y-117185616D01*
X103166987Y-117376088D01*
X103313250Y-117544938D01*
X103485126Y-117687632D01*
X103555595Y-117728811D01*
X103558445Y-117730476D01*
X103607169Y-117782114D01*
X103620240Y-117851897D01*
X103593509Y-117917669D01*
X103553055Y-117951027D01*
X103540607Y-117957507D01*
X103536474Y-117960610D01*
X103536471Y-117960612D01*
X103366100Y-118088530D01*
X103361965Y-118091635D01*
X103358393Y-118095373D01*
X103227751Y-118232082D01*
X103207629Y-118253138D01*
X103081743Y-118437680D01*
X103046543Y-118513512D01*
X102992003Y-118631010D01*
X102987688Y-118640305D01*
X102927989Y-118855570D01*
X102904251Y-119077695D01*
X100281418Y-119077695D01*
X100265852Y-118888361D01*
X100211431Y-118671702D01*
X100122354Y-118466840D01*
X100023354Y-118313809D01*
X100003822Y-118283617D01*
X100003820Y-118283614D01*
X100001014Y-118279277D01*
X99850670Y-118114051D01*
X99846619Y-118110852D01*
X99846615Y-118110848D01*
X99679414Y-117978800D01*
X99679410Y-117978798D01*
X99675359Y-117975598D01*
X99634053Y-117952796D01*
X99584084Y-117902364D01*
X99569312Y-117832921D01*
X99594428Y-117766516D01*
X99621780Y-117739909D01*
X99665603Y-117708650D01*
X99800860Y-117612173D01*
X99959096Y-117454489D01*
X100018594Y-117371689D01*
X100086435Y-117277277D01*
X100089453Y-117273077D01*
X100182361Y-117085092D01*
X100186136Y-117077453D01*
X100186137Y-117077451D01*
X100188430Y-117072811D01*
X100253370Y-116859069D01*
X100282529Y-116637590D01*
X100284156Y-116571000D01*
X100265852Y-116348361D01*
X100211431Y-116131702D01*
X100122354Y-115926840D01*
X100082906Y-115865862D01*
X100003822Y-115743617D01*
X100003820Y-115743614D01*
X100001014Y-115739277D01*
X99850670Y-115574051D01*
X99846619Y-115570852D01*
X99846615Y-115570848D01*
X99679414Y-115438800D01*
X99679410Y-115438798D01*
X99675359Y-115435598D01*
X99479789Y-115327638D01*
X99474920Y-115325914D01*
X99474916Y-115325912D01*
X99274087Y-115254795D01*
X99274083Y-115254794D01*
X99269212Y-115253069D01*
X99264119Y-115252162D01*
X99264116Y-115252161D01*
X99054373Y-115214800D01*
X99054367Y-115214799D01*
X99049284Y-115213894D01*
X98975452Y-115212992D01*
X98831081Y-115211228D01*
X98831079Y-115211228D01*
X98825911Y-115211165D01*
X98605091Y-115244955D01*
X98392756Y-115314357D01*
X98362443Y-115330137D01*
X98222502Y-115402986D01*
X98194607Y-115417507D01*
X98190474Y-115420610D01*
X98190471Y-115420612D01*
X98021644Y-115547371D01*
X98015965Y-115551635D01*
X97999759Y-115568594D01*
X97917499Y-115654674D01*
X97861629Y-115713138D01*
X97735743Y-115897680D01*
X97720003Y-115931590D01*
X97660426Y-116059938D01*
X97641688Y-116100305D01*
X97581989Y-116315570D01*
X97558251Y-116537695D01*
X97558548Y-116542848D01*
X97558548Y-116542851D01*
X97570812Y-116755547D01*
X97571110Y-116760715D01*
X97572247Y-116765761D01*
X97572248Y-116765767D01*
X97592119Y-116853939D01*
X97620222Y-116978639D01*
X97704266Y-117185616D01*
X97820987Y-117376088D01*
X97967250Y-117544938D01*
X98139126Y-117687632D01*
X98209595Y-117728811D01*
X98212445Y-117730476D01*
X98261169Y-117782114D01*
X98274240Y-117851897D01*
X98247509Y-117917669D01*
X98207055Y-117951027D01*
X98194607Y-117957507D01*
X98190474Y-117960610D01*
X98190471Y-117960612D01*
X98020100Y-118088530D01*
X98015965Y-118091635D01*
X98012393Y-118095373D01*
X97881751Y-118232082D01*
X97861629Y-118253138D01*
X97735743Y-118437680D01*
X97700543Y-118513512D01*
X97646003Y-118631010D01*
X97641688Y-118640305D01*
X97581989Y-118855570D01*
X97558251Y-119077695D01*
X94935418Y-119077695D01*
X94919852Y-118888361D01*
X94865431Y-118671702D01*
X94776354Y-118466840D01*
X94677354Y-118313809D01*
X94657822Y-118283617D01*
X94657820Y-118283614D01*
X94655014Y-118279277D01*
X94504670Y-118114051D01*
X94500619Y-118110852D01*
X94500615Y-118110848D01*
X94333414Y-117978800D01*
X94333410Y-117978798D01*
X94329359Y-117975598D01*
X94288053Y-117952796D01*
X94238084Y-117902364D01*
X94223312Y-117832921D01*
X94248428Y-117766516D01*
X94275780Y-117739909D01*
X94319603Y-117708650D01*
X94454860Y-117612173D01*
X94613096Y-117454489D01*
X94672594Y-117371689D01*
X94740435Y-117277277D01*
X94743453Y-117273077D01*
X94836361Y-117085092D01*
X94840136Y-117077453D01*
X94840137Y-117077451D01*
X94842430Y-117072811D01*
X94907370Y-116859069D01*
X94936529Y-116637590D01*
X94938156Y-116571000D01*
X94919852Y-116348361D01*
X94865431Y-116131702D01*
X94776354Y-115926840D01*
X94736906Y-115865862D01*
X94657822Y-115743617D01*
X94657820Y-115743614D01*
X94655014Y-115739277D01*
X94504670Y-115574051D01*
X94500619Y-115570852D01*
X94500615Y-115570848D01*
X94333414Y-115438800D01*
X94333410Y-115438798D01*
X94329359Y-115435598D01*
X94133789Y-115327638D01*
X94128920Y-115325914D01*
X94128916Y-115325912D01*
X93928087Y-115254795D01*
X93928083Y-115254794D01*
X93923212Y-115253069D01*
X93918119Y-115252162D01*
X93918116Y-115252161D01*
X93708373Y-115214800D01*
X93708367Y-115214799D01*
X93703284Y-115213894D01*
X93629452Y-115212992D01*
X93485081Y-115211228D01*
X93485079Y-115211228D01*
X93479911Y-115211165D01*
X93259091Y-115244955D01*
X93046756Y-115314357D01*
X93016443Y-115330137D01*
X92876502Y-115402986D01*
X92848607Y-115417507D01*
X92844474Y-115420610D01*
X92844471Y-115420612D01*
X92675644Y-115547371D01*
X92669965Y-115551635D01*
X92653759Y-115568594D01*
X92571499Y-115654674D01*
X92515629Y-115713138D01*
X92389743Y-115897680D01*
X92374003Y-115931590D01*
X92314426Y-116059938D01*
X92295688Y-116100305D01*
X92235989Y-116315570D01*
X92212251Y-116537695D01*
X92212548Y-116542848D01*
X92212548Y-116542851D01*
X92224812Y-116755547D01*
X92225110Y-116760715D01*
X92226247Y-116765761D01*
X92226248Y-116765767D01*
X92246119Y-116853939D01*
X92274222Y-116978639D01*
X92358266Y-117185616D01*
X92474987Y-117376088D01*
X92621250Y-117544938D01*
X92793126Y-117687632D01*
X92863595Y-117728811D01*
X92866445Y-117730476D01*
X92915169Y-117782114D01*
X92928240Y-117851897D01*
X92901509Y-117917669D01*
X92861055Y-117951027D01*
X92848607Y-117957507D01*
X92844474Y-117960610D01*
X92844471Y-117960612D01*
X92674100Y-118088530D01*
X92669965Y-118091635D01*
X92666393Y-118095373D01*
X92535751Y-118232082D01*
X92515629Y-118253138D01*
X92389743Y-118437680D01*
X92354543Y-118513512D01*
X92300003Y-118631010D01*
X92295688Y-118640305D01*
X92235989Y-118855570D01*
X92212251Y-119077695D01*
X89154500Y-119077695D01*
X89154500Y-114091365D01*
X94291131Y-114091365D01*
X94291821Y-114097930D01*
X94306075Y-114233546D01*
X94311093Y-114281293D01*
X94370108Y-114462921D01*
X94465595Y-114628309D01*
X94470013Y-114633216D01*
X94470014Y-114633217D01*
X94518462Y-114687024D01*
X94593382Y-114770231D01*
X94747883Y-114882483D01*
X94753911Y-114885167D01*
X94753913Y-114885168D01*
X94826326Y-114917408D01*
X94922347Y-114960159D01*
X95094307Y-114996710D01*
X95156779Y-115030438D01*
X95191101Y-115092588D01*
X95193418Y-115106781D01*
X95200093Y-115170293D01*
X95259108Y-115351921D01*
X95354595Y-115517309D01*
X95359013Y-115522216D01*
X95359014Y-115522217D01*
X95441087Y-115613368D01*
X95482382Y-115659231D01*
X95636883Y-115771483D01*
X95642911Y-115774167D01*
X95642913Y-115774168D01*
X95731949Y-115813809D01*
X95811347Y-115849159D01*
X95904747Y-115869012D01*
X95991691Y-115887493D01*
X95991696Y-115887493D01*
X95998148Y-115888865D01*
X96189122Y-115888865D01*
X96195574Y-115887493D01*
X96195579Y-115887493D01*
X96282523Y-115869012D01*
X96375923Y-115849159D01*
X96455321Y-115813809D01*
X96544357Y-115774168D01*
X96544359Y-115774167D01*
X96550387Y-115771483D01*
X96599973Y-115735457D01*
X96683306Y-115674911D01*
X96704888Y-115659231D01*
X96709303Y-115654328D01*
X96714215Y-115649905D01*
X96715340Y-115651154D01*
X96768649Y-115618314D01*
X96801835Y-115613865D01*
X97132468Y-115613865D01*
X97143651Y-115614392D01*
X97151144Y-115616067D01*
X97159070Y-115615818D01*
X97159071Y-115615818D01*
X97219221Y-115613927D01*
X97223180Y-115613865D01*
X97251091Y-115613865D01*
X97255026Y-115613368D01*
X97255091Y-115613360D01*
X97266928Y-115612427D01*
X97299186Y-115611413D01*
X97303205Y-115611287D01*
X97311124Y-115611038D01*
X97330578Y-115605386D01*
X97349935Y-115601378D01*
X97362165Y-115599833D01*
X97362166Y-115599833D01*
X97370032Y-115598839D01*
X97377403Y-115595920D01*
X97377405Y-115595920D01*
X97411147Y-115582561D01*
X97422377Y-115578716D01*
X97457218Y-115568594D01*
X97457219Y-115568594D01*
X97464828Y-115566383D01*
X97471647Y-115562350D01*
X97471652Y-115562348D01*
X97482263Y-115556072D01*
X97500011Y-115547377D01*
X97518852Y-115539917D01*
X97554622Y-115513929D01*
X97564542Y-115507413D01*
X97595770Y-115488945D01*
X97595773Y-115488943D01*
X97602597Y-115484907D01*
X97616918Y-115470586D01*
X97631952Y-115457745D01*
X97641929Y-115450496D01*
X97648342Y-115445837D01*
X97653392Y-115439733D01*
X97653397Y-115439728D01*
X97676528Y-115411767D01*
X97684518Y-115402986D01*
X98157864Y-114929641D01*
X98220176Y-114895616D01*
X98246959Y-114892737D01*
X98302850Y-114892737D01*
X98309302Y-114891365D01*
X98309307Y-114891365D01*
X98396251Y-114872884D01*
X98489651Y-114853031D01*
X98562131Y-114820761D01*
X98658085Y-114778040D01*
X98658087Y-114778039D01*
X98664115Y-114775355D01*
X98818616Y-114663103D01*
X98823038Y-114658192D01*
X98941984Y-114526089D01*
X98941985Y-114526088D01*
X98946403Y-114521181D01*
X99041890Y-114355793D01*
X99100905Y-114174165D01*
X99103446Y-114149994D01*
X99120177Y-113990802D01*
X99120867Y-113984237D01*
X99112854Y-113908000D01*
X99101595Y-113800872D01*
X99101595Y-113800870D01*
X99100905Y-113794309D01*
X99041890Y-113612681D01*
X98946403Y-113447293D01*
X98915075Y-113412499D01*
X98823038Y-113310282D01*
X98823037Y-113310281D01*
X98818616Y-113305371D01*
X98664115Y-113193119D01*
X98658087Y-113190435D01*
X98658085Y-113190434D01*
X98495682Y-113118128D01*
X98495681Y-113118128D01*
X98489651Y-113115443D01*
X98483199Y-113114071D01*
X98483194Y-113114070D01*
X98464731Y-113110146D01*
X98402257Y-113076417D01*
X98371095Y-113025835D01*
X98332732Y-112907766D01*
X98330690Y-112901481D01*
X98235203Y-112736093D01*
X98107416Y-112594171D01*
X97952915Y-112481919D01*
X97946887Y-112479235D01*
X97946885Y-112479234D01*
X97784482Y-112406928D01*
X97784481Y-112406928D01*
X97778451Y-112404243D01*
X97685051Y-112384390D01*
X97598107Y-112365909D01*
X97598102Y-112365909D01*
X97591650Y-112364537D01*
X97400676Y-112364537D01*
X97394224Y-112365909D01*
X97394219Y-112365909D01*
X97307275Y-112384390D01*
X97213875Y-112404243D01*
X97207845Y-112406928D01*
X97207844Y-112406928D01*
X97045441Y-112479234D01*
X97045439Y-112479235D01*
X97039411Y-112481919D01*
X96884910Y-112594171D01*
X96757123Y-112736093D01*
X96661636Y-112901481D01*
X96602621Y-113083109D01*
X96601931Y-113089670D01*
X96601931Y-113089672D01*
X96585256Y-113248329D01*
X96558243Y-113313986D01*
X96549041Y-113324255D01*
X96452334Y-113420961D01*
X96390022Y-113454986D01*
X96363239Y-113457865D01*
X95912835Y-113457865D01*
X95844714Y-113437863D01*
X95825488Y-113421522D01*
X95825215Y-113421825D01*
X95820303Y-113417402D01*
X95815888Y-113412499D01*
X95661387Y-113300247D01*
X95655359Y-113297563D01*
X95655357Y-113297562D01*
X95492954Y-113225256D01*
X95492953Y-113225256D01*
X95486923Y-113222571D01*
X95366622Y-113197000D01*
X95306579Y-113184237D01*
X95306574Y-113184237D01*
X95300122Y-113182865D01*
X95109148Y-113182865D01*
X95102696Y-113184237D01*
X95102691Y-113184237D01*
X95042648Y-113197000D01*
X94922347Y-113222571D01*
X94916317Y-113225256D01*
X94916316Y-113225256D01*
X94753913Y-113297562D01*
X94753911Y-113297563D01*
X94747883Y-113300247D01*
X94593382Y-113412499D01*
X94588961Y-113417409D01*
X94588960Y-113417410D01*
X94555127Y-113454986D01*
X94465595Y-113554421D01*
X94435263Y-113606958D01*
X94389795Y-113685711D01*
X94370108Y-113719809D01*
X94311093Y-113901437D01*
X94291131Y-114091365D01*
X89154500Y-114091365D01*
X89154500Y-105410000D01*
X90526496Y-105410000D01*
X90527186Y-105416565D01*
X90535915Y-105499613D01*
X90546458Y-105599928D01*
X90605473Y-105781556D01*
X90608776Y-105787278D01*
X90608777Y-105787279D01*
X90649547Y-105857894D01*
X90666428Y-105920894D01*
X90666428Y-109742302D01*
X90649547Y-109805301D01*
X90615401Y-109864444D01*
X90556386Y-110046072D01*
X90536424Y-110236000D01*
X90537114Y-110242565D01*
X90551611Y-110380493D01*
X90556386Y-110425928D01*
X90615401Y-110607556D01*
X90710888Y-110772944D01*
X90715306Y-110777851D01*
X90715307Y-110777852D01*
X90768496Y-110836924D01*
X90838675Y-110914866D01*
X90993176Y-111027118D01*
X90999204Y-111029802D01*
X90999206Y-111029803D01*
X91161609Y-111102109D01*
X91167640Y-111104794D01*
X91261040Y-111124647D01*
X91347984Y-111143128D01*
X91347989Y-111143128D01*
X91354441Y-111144500D01*
X91545415Y-111144500D01*
X91551867Y-111143128D01*
X91551872Y-111143128D01*
X91638816Y-111124647D01*
X91732216Y-111104794D01*
X91738247Y-111102109D01*
X91850794Y-111052000D01*
X126086496Y-111052000D01*
X126106458Y-111241928D01*
X126165473Y-111423556D01*
X126260960Y-111588944D01*
X126388747Y-111730866D01*
X126543248Y-111843118D01*
X126549276Y-111845802D01*
X126549278Y-111845803D01*
X126711681Y-111918109D01*
X126717712Y-111920794D01*
X126811113Y-111940647D01*
X126898056Y-111959128D01*
X126898061Y-111959128D01*
X126904513Y-111960500D01*
X127095487Y-111960500D01*
X127101939Y-111959128D01*
X127101944Y-111959128D01*
X127188888Y-111940647D01*
X127282288Y-111920794D01*
X127288319Y-111918109D01*
X127450722Y-111845803D01*
X127450724Y-111845802D01*
X127456752Y-111843118D01*
X127611253Y-111730866D01*
X127739040Y-111588944D01*
X127834527Y-111423556D01*
X127893542Y-111241928D01*
X127913504Y-111052000D01*
X127893542Y-110862072D01*
X127834527Y-110680444D01*
X127800381Y-110621301D01*
X127783500Y-110558302D01*
X127783500Y-105029198D01*
X127800381Y-104966198D01*
X127831223Y-104912779D01*
X127831224Y-104912778D01*
X127834527Y-104907056D01*
X127893542Y-104725428D01*
X127894368Y-104717574D01*
X127912814Y-104542065D01*
X127913504Y-104535500D01*
X127910072Y-104502848D01*
X127894232Y-104352135D01*
X127894232Y-104352133D01*
X127893542Y-104345572D01*
X127834527Y-104163944D01*
X127739040Y-103998556D01*
X127611253Y-103856634D01*
X127456752Y-103744382D01*
X127450724Y-103741698D01*
X127450722Y-103741697D01*
X127288319Y-103669391D01*
X127288318Y-103669391D01*
X127282288Y-103666706D01*
X127188887Y-103646853D01*
X127101944Y-103628372D01*
X127101939Y-103628372D01*
X127095487Y-103627000D01*
X126904513Y-103627000D01*
X126898061Y-103628372D01*
X126898056Y-103628372D01*
X126811112Y-103646853D01*
X126717712Y-103666706D01*
X126711682Y-103669391D01*
X126711681Y-103669391D01*
X126549278Y-103741697D01*
X126549276Y-103741698D01*
X126543248Y-103744382D01*
X126388747Y-103856634D01*
X126260960Y-103998556D01*
X126165473Y-104163944D01*
X126106458Y-104345572D01*
X126105768Y-104352133D01*
X126105768Y-104352135D01*
X126089928Y-104502848D01*
X126086496Y-104535500D01*
X126087186Y-104542065D01*
X126105633Y-104717574D01*
X126106458Y-104725428D01*
X126165473Y-104907056D01*
X126168776Y-104912778D01*
X126168777Y-104912779D01*
X126199619Y-104966198D01*
X126216500Y-105029198D01*
X126216500Y-110558302D01*
X126199619Y-110621301D01*
X126165473Y-110680444D01*
X126106458Y-110862072D01*
X126086496Y-111052000D01*
X91850794Y-111052000D01*
X91900650Y-111029803D01*
X91900652Y-111029802D01*
X91906680Y-111027118D01*
X92061181Y-110914866D01*
X92131360Y-110836924D01*
X92184549Y-110777852D01*
X92184550Y-110777851D01*
X92188968Y-110772944D01*
X92284455Y-110607556D01*
X92343470Y-110425928D01*
X92348246Y-110380493D01*
X92362742Y-110242565D01*
X92363432Y-110236000D01*
X92343470Y-110046072D01*
X92284455Y-109864444D01*
X92250309Y-109805301D01*
X92233428Y-109742302D01*
X92233428Y-105886502D01*
X92250308Y-105823504D01*
X92274527Y-105781556D01*
X92333542Y-105599928D01*
X92344086Y-105499613D01*
X92352814Y-105416565D01*
X92353504Y-105410000D01*
X92342292Y-105303326D01*
X92334232Y-105226635D01*
X92334232Y-105226633D01*
X92333542Y-105220072D01*
X92274527Y-105038444D01*
X92179040Y-104873056D01*
X92163515Y-104855813D01*
X92055675Y-104736045D01*
X92055674Y-104736044D01*
X92051253Y-104731134D01*
X91896752Y-104618882D01*
X91890724Y-104616198D01*
X91890722Y-104616197D01*
X91728319Y-104543891D01*
X91728318Y-104543891D01*
X91722288Y-104541206D01*
X91628887Y-104521353D01*
X91541944Y-104502872D01*
X91541939Y-104502872D01*
X91535487Y-104501500D01*
X91344513Y-104501500D01*
X91338061Y-104502872D01*
X91338056Y-104502872D01*
X91251112Y-104521353D01*
X91157712Y-104541206D01*
X91151682Y-104543891D01*
X91151681Y-104543891D01*
X90989278Y-104616197D01*
X90989276Y-104616198D01*
X90983248Y-104618882D01*
X90828747Y-104731134D01*
X90824326Y-104736044D01*
X90824325Y-104736045D01*
X90716486Y-104855813D01*
X90700960Y-104873056D01*
X90605473Y-105038444D01*
X90546458Y-105220072D01*
X90545768Y-105226633D01*
X90545768Y-105226635D01*
X90537708Y-105303326D01*
X90526496Y-105410000D01*
X89154500Y-105410000D01*
X89154500Y-101866509D01*
X89174502Y-101798388D01*
X89228158Y-101751895D01*
X89298432Y-101741791D01*
X89360984Y-101769565D01*
X89512349Y-101895230D01*
X89712322Y-102012084D01*
X89928694Y-102094709D01*
X89933760Y-102095740D01*
X89933761Y-102095740D01*
X89986846Y-102106540D01*
X90155656Y-102140885D01*
X90286324Y-102145676D01*
X90381949Y-102149183D01*
X90381953Y-102149183D01*
X90387113Y-102149372D01*
X90392233Y-102148716D01*
X90392235Y-102148716D01*
X90465270Y-102139360D01*
X90616847Y-102119942D01*
X90621795Y-102118457D01*
X90621802Y-102118456D01*
X90833747Y-102054869D01*
X90838690Y-102053386D01*
X90919236Y-102013927D01*
X91042049Y-101953762D01*
X91042052Y-101953760D01*
X91046684Y-101951491D01*
X91235243Y-101816994D01*
X91399303Y-101653505D01*
X91534458Y-101465417D01*
X91562634Y-101408408D01*
X91634784Y-101262422D01*
X91634785Y-101262420D01*
X91637078Y-101257780D01*
X91704408Y-101036171D01*
X91734640Y-100806541D01*
X91736327Y-100737500D01*
X91729248Y-100651394D01*
X91717773Y-100511818D01*
X91717772Y-100511812D01*
X91717349Y-100506667D01*
X91699975Y-100437500D01*
X92089693Y-100437500D01*
X92108885Y-100656871D01*
X92165880Y-100869576D01*
X92168205Y-100874561D01*
X92256618Y-101064166D01*
X92256621Y-101064171D01*
X92258944Y-101069153D01*
X92385251Y-101249538D01*
X92540962Y-101405249D01*
X92721346Y-101531556D01*
X92920924Y-101624620D01*
X93133629Y-101681615D01*
X93353000Y-101700807D01*
X93572371Y-101681615D01*
X93785076Y-101624620D01*
X93984654Y-101531556D01*
X94165038Y-101405249D01*
X94320749Y-101249538D01*
X94447056Y-101069153D01*
X94449379Y-101064171D01*
X94449382Y-101064166D01*
X94537795Y-100874561D01*
X94540120Y-100869576D01*
X94597115Y-100656871D01*
X94616307Y-100437500D01*
X94597115Y-100218129D01*
X94540120Y-100005424D01*
X94481405Y-99879509D01*
X94449382Y-99810834D01*
X94449379Y-99810829D01*
X94447056Y-99805847D01*
X94391328Y-99726259D01*
X94323908Y-99629973D01*
X94323906Y-99629970D01*
X94320749Y-99625462D01*
X94165038Y-99469751D01*
X94118260Y-99436996D01*
X94024096Y-99371062D01*
X93984654Y-99343444D01*
X93785076Y-99250380D01*
X93572371Y-99193385D01*
X93353000Y-99174193D01*
X93133629Y-99193385D01*
X92920924Y-99250380D01*
X92827562Y-99293915D01*
X92726334Y-99341118D01*
X92726329Y-99341121D01*
X92721347Y-99343444D01*
X92716840Y-99346600D01*
X92716838Y-99346601D01*
X92545473Y-99466592D01*
X92545470Y-99466594D01*
X92540962Y-99469751D01*
X92385251Y-99625462D01*
X92382094Y-99629970D01*
X92382092Y-99629973D01*
X92314672Y-99726259D01*
X92258944Y-99805847D01*
X92256621Y-99810829D01*
X92256618Y-99810834D01*
X92224595Y-99879509D01*
X92165880Y-100005424D01*
X92108885Y-100218129D01*
X92089693Y-100437500D01*
X91699975Y-100437500D01*
X91660925Y-100282033D01*
X91568570Y-100069631D01*
X91442764Y-99875165D01*
X91286887Y-99703858D01*
X91282836Y-99700659D01*
X91282832Y-99700655D01*
X91109177Y-99563511D01*
X91109172Y-99563508D01*
X91105123Y-99560310D01*
X91100607Y-99557817D01*
X91100604Y-99557815D01*
X90906879Y-99450873D01*
X90906875Y-99450871D01*
X90902355Y-99448376D01*
X90897486Y-99446652D01*
X90897482Y-99446650D01*
X90688903Y-99372788D01*
X90688899Y-99372787D01*
X90684028Y-99371062D01*
X90678935Y-99370155D01*
X90678932Y-99370154D01*
X90461095Y-99331351D01*
X90461089Y-99331350D01*
X90456006Y-99330445D01*
X90383096Y-99329554D01*
X90229581Y-99327679D01*
X90229579Y-99327679D01*
X90224411Y-99327616D01*
X89995464Y-99362650D01*
X89775314Y-99434606D01*
X89770726Y-99436994D01*
X89770722Y-99436996D01*
X89574461Y-99539163D01*
X89569872Y-99541552D01*
X89565739Y-99544655D01*
X89565736Y-99544657D01*
X89458114Y-99625462D01*
X89384655Y-99680617D01*
X89381084Y-99684354D01*
X89371595Y-99694284D01*
X89310072Y-99729715D01*
X89239159Y-99726259D01*
X89181372Y-99685014D01*
X89155058Y-99619074D01*
X89154500Y-99607234D01*
X89154500Y-97395095D01*
X118560251Y-97395095D01*
X118560548Y-97400248D01*
X118560548Y-97400251D01*
X118566011Y-97494990D01*
X118573110Y-97618115D01*
X118574247Y-97623161D01*
X118574248Y-97623167D01*
X118594119Y-97711339D01*
X118622222Y-97836039D01*
X118706266Y-98043016D01*
X118822987Y-98233488D01*
X118969250Y-98402338D01*
X119141126Y-98545032D01*
X119334000Y-98657738D01*
X119542692Y-98737430D01*
X119547760Y-98738461D01*
X119547763Y-98738462D01*
X119655017Y-98760283D01*
X119761597Y-98781967D01*
X119766772Y-98782157D01*
X119766774Y-98782157D01*
X119979673Y-98789964D01*
X119979677Y-98789964D01*
X119984837Y-98790153D01*
X119989957Y-98789497D01*
X119989959Y-98789497D01*
X120201288Y-98762425D01*
X120201289Y-98762425D01*
X120206416Y-98761768D01*
X120211366Y-98760283D01*
X120415429Y-98699061D01*
X120415434Y-98699059D01*
X120420384Y-98697574D01*
X120620994Y-98599296D01*
X120802860Y-98469573D01*
X120961096Y-98311889D01*
X121020594Y-98229089D01*
X121088435Y-98134677D01*
X121091453Y-98130477D01*
X121190430Y-97930211D01*
X121255370Y-97716469D01*
X121284529Y-97494990D01*
X121286156Y-97428400D01*
X121267852Y-97205761D01*
X121213431Y-96989102D01*
X121124354Y-96784240D01*
X121034754Y-96645740D01*
X121005822Y-96601017D01*
X121005820Y-96601014D01*
X121003014Y-96596677D01*
X120999540Y-96592859D01*
X120999533Y-96592850D01*
X120855435Y-96434488D01*
X120824383Y-96370642D01*
X120832779Y-96300144D01*
X120877956Y-96245376D01*
X120904400Y-96231707D01*
X121011052Y-96191725D01*
X121026649Y-96183186D01*
X121128724Y-96106685D01*
X121141285Y-96094124D01*
X121217786Y-95992049D01*
X121226324Y-95976454D01*
X121271478Y-95856006D01*
X121275105Y-95840751D01*
X121280631Y-95789886D01*
X121281000Y-95783072D01*
X121281000Y-95160515D01*
X121276525Y-95145276D01*
X121275135Y-95144071D01*
X121267452Y-95142400D01*
X118583116Y-95142400D01*
X118567877Y-95146875D01*
X118566672Y-95148265D01*
X118565001Y-95155948D01*
X118565001Y-95783069D01*
X118565371Y-95789890D01*
X118570895Y-95840752D01*
X118574521Y-95856004D01*
X118619676Y-95976454D01*
X118628214Y-95992049D01*
X118704715Y-96094124D01*
X118717276Y-96106685D01*
X118819351Y-96183186D01*
X118834946Y-96191724D01*
X118943827Y-96232542D01*
X119000591Y-96275184D01*
X119025291Y-96341745D01*
X119010083Y-96411094D01*
X118990691Y-96437575D01*
X118867200Y-96566801D01*
X118863629Y-96570538D01*
X118860715Y-96574810D01*
X118860714Y-96574811D01*
X118813033Y-96644709D01*
X118737743Y-96755080D01*
X118643688Y-96957705D01*
X118583989Y-97172970D01*
X118560251Y-97395095D01*
X89154500Y-97395095D01*
X89154500Y-96416509D01*
X89174502Y-96348388D01*
X89228158Y-96301895D01*
X89298432Y-96291791D01*
X89360984Y-96319565D01*
X89512349Y-96445230D01*
X89712322Y-96562084D01*
X89717147Y-96563926D01*
X89717148Y-96563927D01*
X89745650Y-96574811D01*
X89928694Y-96644709D01*
X89933760Y-96645740D01*
X89933761Y-96645740D01*
X89986846Y-96656540D01*
X90155656Y-96690885D01*
X90286324Y-96695676D01*
X90381949Y-96699183D01*
X90381953Y-96699183D01*
X90387113Y-96699372D01*
X90392233Y-96698716D01*
X90392235Y-96698716D01*
X90465270Y-96689360D01*
X90616847Y-96669942D01*
X90621795Y-96668457D01*
X90621802Y-96668456D01*
X90833747Y-96604869D01*
X90838690Y-96603386D01*
X90897019Y-96574811D01*
X91042049Y-96503762D01*
X91042052Y-96503760D01*
X91046684Y-96501491D01*
X91235243Y-96366994D01*
X91399303Y-96203505D01*
X91534458Y-96015417D01*
X91613244Y-95856006D01*
X91634784Y-95812422D01*
X91634785Y-95812420D01*
X91637078Y-95807780D01*
X91704004Y-95587500D01*
X92089693Y-95587500D01*
X92108885Y-95806871D01*
X92165880Y-96019576D01*
X92208264Y-96110469D01*
X92256618Y-96214166D01*
X92256621Y-96214171D01*
X92258944Y-96219153D01*
X92262100Y-96223660D01*
X92262101Y-96223662D01*
X92365018Y-96370642D01*
X92385251Y-96399538D01*
X92540962Y-96555249D01*
X92545471Y-96558406D01*
X92545473Y-96558408D01*
X92568899Y-96574811D01*
X92721346Y-96681556D01*
X92920924Y-96774620D01*
X93133629Y-96831615D01*
X93353000Y-96850807D01*
X93572371Y-96831615D01*
X93785076Y-96774620D01*
X93984654Y-96681556D01*
X94137101Y-96574811D01*
X94160527Y-96558408D01*
X94160529Y-96558406D01*
X94165038Y-96555249D01*
X94320749Y-96399538D01*
X94340983Y-96370642D01*
X94443899Y-96223662D01*
X94443900Y-96223660D01*
X94447056Y-96219153D01*
X94449379Y-96214171D01*
X94449382Y-96214166D01*
X94497736Y-96110469D01*
X94540120Y-96019576D01*
X94597115Y-95806871D01*
X94616307Y-95587500D01*
X94597115Y-95368129D01*
X94540120Y-95155424D01*
X94491732Y-95051656D01*
X94449382Y-94960834D01*
X94449379Y-94960829D01*
X94447056Y-94955847D01*
X94443899Y-94951338D01*
X94323908Y-94779973D01*
X94323906Y-94779970D01*
X94320749Y-94775462D01*
X94165038Y-94619751D01*
X94160089Y-94616285D01*
X93995279Y-94500884D01*
X93984654Y-94493444D01*
X93785076Y-94400380D01*
X93572371Y-94343385D01*
X93353000Y-94324193D01*
X93133629Y-94343385D01*
X92920924Y-94400380D01*
X92827562Y-94443915D01*
X92726334Y-94491118D01*
X92726329Y-94491121D01*
X92721347Y-94493444D01*
X92716840Y-94496600D01*
X92716838Y-94496601D01*
X92545473Y-94616592D01*
X92545470Y-94616594D01*
X92540962Y-94619751D01*
X92385251Y-94775462D01*
X92382094Y-94779970D01*
X92382092Y-94779973D01*
X92262101Y-94951338D01*
X92258944Y-94955847D01*
X92256621Y-94960829D01*
X92256618Y-94960834D01*
X92214268Y-95051656D01*
X92165880Y-95155424D01*
X92108885Y-95368129D01*
X92089693Y-95587500D01*
X91704004Y-95587500D01*
X91704408Y-95586171D01*
X91734640Y-95356541D01*
X91736327Y-95287500D01*
X91725887Y-95160515D01*
X91717773Y-95061818D01*
X91717772Y-95061812D01*
X91717349Y-95056667D01*
X91660925Y-94832033D01*
X91638289Y-94779973D01*
X91570630Y-94624368D01*
X91570628Y-94624365D01*
X91568570Y-94619631D01*
X91442764Y-94425165D01*
X91420212Y-94400380D01*
X91367914Y-94342906D01*
X91286887Y-94253858D01*
X91282836Y-94250659D01*
X91282832Y-94250655D01*
X91109177Y-94113511D01*
X91109172Y-94113508D01*
X91105123Y-94110310D01*
X91100607Y-94107817D01*
X91100604Y-94107815D01*
X90906879Y-94000873D01*
X90906875Y-94000871D01*
X90902355Y-93998376D01*
X90897486Y-93996652D01*
X90897482Y-93996650D01*
X90688903Y-93922788D01*
X90688899Y-93922787D01*
X90684028Y-93921062D01*
X90678935Y-93920155D01*
X90678932Y-93920154D01*
X90461095Y-93881351D01*
X90461089Y-93881350D01*
X90456006Y-93880445D01*
X90383096Y-93879554D01*
X90229581Y-93877679D01*
X90229579Y-93877679D01*
X90224411Y-93877616D01*
X89995464Y-93912650D01*
X89775314Y-93984606D01*
X89770726Y-93986994D01*
X89770722Y-93986996D01*
X89744065Y-94000873D01*
X89569872Y-94091552D01*
X89565739Y-94094655D01*
X89565736Y-94094657D01*
X89466622Y-94169074D01*
X89384655Y-94230617D01*
X89381084Y-94234354D01*
X89371595Y-94244284D01*
X89310072Y-94279715D01*
X89239159Y-94276259D01*
X89181372Y-94235014D01*
X89155058Y-94169074D01*
X89154500Y-94157234D01*
X89154500Y-92315095D01*
X118560251Y-92315095D01*
X118560548Y-92320248D01*
X118560548Y-92320251D01*
X118566011Y-92414990D01*
X118573110Y-92538115D01*
X118574247Y-92543161D01*
X118574248Y-92543167D01*
X118594119Y-92631339D01*
X118622222Y-92756039D01*
X118706266Y-92963016D01*
X118822987Y-93153488D01*
X118969250Y-93322338D01*
X118973225Y-93325638D01*
X118973231Y-93325644D01*
X118978425Y-93329956D01*
X119018059Y-93388860D01*
X119019555Y-93459841D01*
X118982439Y-93520362D01*
X118942168Y-93544880D01*
X118834946Y-93585076D01*
X118819351Y-93593614D01*
X118717276Y-93670115D01*
X118704715Y-93682676D01*
X118628214Y-93784751D01*
X118619676Y-93800346D01*
X118574522Y-93920794D01*
X118570895Y-93936049D01*
X118565369Y-93986914D01*
X118565000Y-93993728D01*
X118565000Y-94616285D01*
X118569475Y-94631524D01*
X118570865Y-94632729D01*
X118578548Y-94634400D01*
X121262884Y-94634400D01*
X121278123Y-94629925D01*
X121279328Y-94628535D01*
X121280999Y-94620852D01*
X121280999Y-93993731D01*
X121280629Y-93986910D01*
X121275105Y-93936048D01*
X121271479Y-93920796D01*
X121226324Y-93800346D01*
X121217786Y-93784751D01*
X121141285Y-93682676D01*
X121128724Y-93670115D01*
X121026649Y-93593614D01*
X121011054Y-93585076D01*
X120900813Y-93543748D01*
X120844049Y-93501106D01*
X120819349Y-93434545D01*
X120834557Y-93365196D01*
X120856104Y-93336515D01*
X120957430Y-93235544D01*
X120957440Y-93235532D01*
X120961096Y-93231889D01*
X121020594Y-93149089D01*
X121088435Y-93054677D01*
X121091453Y-93050477D01*
X121190430Y-92850211D01*
X121255370Y-92636469D01*
X121284529Y-92414990D01*
X121286156Y-92348400D01*
X121267852Y-92125761D01*
X121213431Y-91909102D01*
X121124354Y-91704240D01*
X121003014Y-91516677D01*
X120852670Y-91351451D01*
X120848619Y-91348252D01*
X120848615Y-91348248D01*
X120681414Y-91216200D01*
X120681410Y-91216198D01*
X120677359Y-91212998D01*
X120481789Y-91105038D01*
X120476920Y-91103314D01*
X120476916Y-91103312D01*
X120276087Y-91032195D01*
X120276083Y-91032194D01*
X120271212Y-91030469D01*
X120266119Y-91029562D01*
X120266116Y-91029561D01*
X120056373Y-90992200D01*
X120056367Y-90992199D01*
X120051284Y-90991294D01*
X119977452Y-90990392D01*
X119833081Y-90988628D01*
X119833079Y-90988628D01*
X119827911Y-90988565D01*
X119607091Y-91022355D01*
X119394756Y-91091757D01*
X119196607Y-91194907D01*
X119192474Y-91198010D01*
X119192471Y-91198012D01*
X119022100Y-91325930D01*
X119017965Y-91329035D01*
X119014393Y-91332773D01*
X118879575Y-91473852D01*
X118863629Y-91490538D01*
X118860715Y-91494810D01*
X118860714Y-91494811D01*
X118851376Y-91508500D01*
X118737743Y-91675080D01*
X118643688Y-91877705D01*
X118583989Y-92092970D01*
X118560251Y-92315095D01*
X89154500Y-92315095D01*
X89154500Y-90932000D01*
X127610496Y-90932000D01*
X127611186Y-90938565D01*
X127629467Y-91112496D01*
X127630458Y-91121928D01*
X127689473Y-91303556D01*
X127692776Y-91309278D01*
X127692777Y-91309279D01*
X127715276Y-91348248D01*
X127784960Y-91468944D01*
X127789378Y-91473851D01*
X127789379Y-91473852D01*
X127801038Y-91486801D01*
X127912747Y-91610866D01*
X127995240Y-91670801D01*
X128047803Y-91708990D01*
X128067248Y-91723118D01*
X128073276Y-91725802D01*
X128073278Y-91725803D01*
X128235681Y-91798109D01*
X128241712Y-91800794D01*
X128335112Y-91820647D01*
X128422056Y-91839128D01*
X128422061Y-91839128D01*
X128428513Y-91840500D01*
X128619487Y-91840500D01*
X128625939Y-91839128D01*
X128625944Y-91839128D01*
X128712887Y-91820647D01*
X128806288Y-91800794D01*
X128812319Y-91798109D01*
X128974722Y-91725803D01*
X128974724Y-91725802D01*
X128980752Y-91723118D01*
X129000198Y-91708990D01*
X129052760Y-91670801D01*
X129135253Y-91610866D01*
X129246962Y-91486801D01*
X129258621Y-91473852D01*
X129258622Y-91473851D01*
X129263040Y-91468944D01*
X129332724Y-91348248D01*
X129355223Y-91309279D01*
X129355224Y-91309278D01*
X129358527Y-91303556D01*
X129417542Y-91121928D01*
X129418534Y-91112496D01*
X129436814Y-90938565D01*
X129437504Y-90932000D01*
X129417542Y-90742072D01*
X129358527Y-90560444D01*
X129324381Y-90501301D01*
X129307500Y-90438302D01*
X129307500Y-85916698D01*
X129324381Y-85853698D01*
X129355223Y-85800279D01*
X129355224Y-85800278D01*
X129358527Y-85794556D01*
X129417542Y-85612928D01*
X129437504Y-85423000D01*
X129417542Y-85233072D01*
X129358527Y-85051444D01*
X129263040Y-84886056D01*
X129135253Y-84744134D01*
X129109012Y-84725069D01*
X133698501Y-84725069D01*
X133698871Y-84731890D01*
X133704395Y-84782752D01*
X133708021Y-84798004D01*
X133753176Y-84918454D01*
X133761714Y-84934049D01*
X133838215Y-85036124D01*
X133850776Y-85048685D01*
X133952851Y-85125186D01*
X133968446Y-85133724D01*
X134088894Y-85178878D01*
X134104149Y-85182505D01*
X134155014Y-85188031D01*
X134161828Y-85188400D01*
X134784385Y-85188400D01*
X134799624Y-85183925D01*
X134800829Y-85182535D01*
X134802500Y-85174852D01*
X134802500Y-85170284D01*
X135310500Y-85170284D01*
X135314975Y-85185523D01*
X135316365Y-85186728D01*
X135324048Y-85188399D01*
X135951169Y-85188399D01*
X135957990Y-85188029D01*
X136008852Y-85182505D01*
X136024104Y-85178879D01*
X136144554Y-85133724D01*
X136160149Y-85125186D01*
X136262224Y-85048685D01*
X136274785Y-85036124D01*
X136351286Y-84934049D01*
X136359824Y-84918454D01*
X136404978Y-84798006D01*
X136408605Y-84782751D01*
X136414131Y-84731886D01*
X136414500Y-84725072D01*
X136414500Y-84102515D01*
X136410025Y-84087276D01*
X136408635Y-84086071D01*
X136400952Y-84084400D01*
X135328615Y-84084400D01*
X135313376Y-84088875D01*
X135312171Y-84090265D01*
X135310500Y-84097948D01*
X135310500Y-85170284D01*
X134802500Y-85170284D01*
X134802500Y-84102515D01*
X134798025Y-84087276D01*
X134796635Y-84086071D01*
X134788952Y-84084400D01*
X133716616Y-84084400D01*
X133701377Y-84088875D01*
X133700172Y-84090265D01*
X133698501Y-84097948D01*
X133698501Y-84725069D01*
X129109012Y-84725069D01*
X128980752Y-84631882D01*
X128974724Y-84629198D01*
X128974722Y-84629197D01*
X128812319Y-84556891D01*
X128812318Y-84556891D01*
X128806288Y-84554206D01*
X128712887Y-84534353D01*
X128625944Y-84515872D01*
X128625939Y-84515872D01*
X128619487Y-84514500D01*
X128428513Y-84514500D01*
X128422061Y-84515872D01*
X128422056Y-84515872D01*
X128335113Y-84534353D01*
X128241712Y-84554206D01*
X128235682Y-84556891D01*
X128235681Y-84556891D01*
X128073278Y-84629197D01*
X128073276Y-84629198D01*
X128067248Y-84631882D01*
X127912747Y-84744134D01*
X127784960Y-84886056D01*
X127689473Y-85051444D01*
X127630458Y-85233072D01*
X127610496Y-85423000D01*
X127630458Y-85612928D01*
X127689473Y-85794556D01*
X127692776Y-85800278D01*
X127692777Y-85800279D01*
X127723619Y-85853698D01*
X127740500Y-85916698D01*
X127740500Y-90438302D01*
X127723619Y-90501301D01*
X127689473Y-90560444D01*
X127630458Y-90742072D01*
X127610496Y-90932000D01*
X89154500Y-90932000D01*
X89154500Y-83058000D01*
X94999996Y-83058000D01*
X95019958Y-83247928D01*
X95078973Y-83429556D01*
X95174460Y-83594944D01*
X95302247Y-83736866D01*
X95456748Y-83849118D01*
X95462776Y-83851802D01*
X95462778Y-83851803D01*
X95625181Y-83924109D01*
X95631212Y-83926794D01*
X95724612Y-83946647D01*
X95811556Y-83965128D01*
X95811561Y-83965128D01*
X95818013Y-83966500D01*
X96008987Y-83966500D01*
X96015439Y-83965128D01*
X96015444Y-83965128D01*
X96102388Y-83946647D01*
X96195788Y-83926794D01*
X96362896Y-83852393D01*
X96414145Y-83841500D01*
X97543355Y-83841500D01*
X97594604Y-83852393D01*
X97761712Y-83926794D01*
X97855112Y-83946647D01*
X97942056Y-83965128D01*
X97942061Y-83965128D01*
X97948513Y-83966500D01*
X98139487Y-83966500D01*
X98145939Y-83965128D01*
X98145944Y-83965128D01*
X98232888Y-83946647D01*
X98326288Y-83926794D01*
X98332319Y-83924109D01*
X98494722Y-83851803D01*
X98494724Y-83851802D01*
X98500752Y-83849118D01*
X98655253Y-83736866D01*
X98783040Y-83594944D01*
X98878527Y-83429556D01*
X98937542Y-83247928D01*
X98957504Y-83058000D01*
X98937542Y-82868072D01*
X98878527Y-82686444D01*
X98783040Y-82521056D01*
X98680373Y-82407032D01*
X98659675Y-82384045D01*
X98659674Y-82384044D01*
X98655253Y-82379134D01*
X98556157Y-82307136D01*
X98506094Y-82270763D01*
X98506093Y-82270762D01*
X98500752Y-82266882D01*
X98494724Y-82264198D01*
X98494722Y-82264197D01*
X98332319Y-82191891D01*
X98332318Y-82191891D01*
X98326288Y-82189206D01*
X98232888Y-82169353D01*
X98145944Y-82150872D01*
X98145939Y-82150872D01*
X98139487Y-82149500D01*
X97948513Y-82149500D01*
X97942061Y-82150872D01*
X97942056Y-82150872D01*
X97855112Y-82169353D01*
X97761712Y-82189206D01*
X97755682Y-82191891D01*
X97755681Y-82191891D01*
X97594604Y-82263607D01*
X97543355Y-82274500D01*
X96414145Y-82274500D01*
X96362896Y-82263607D01*
X96201819Y-82191891D01*
X96201818Y-82191891D01*
X96195788Y-82189206D01*
X96102388Y-82169353D01*
X96015444Y-82150872D01*
X96015439Y-82150872D01*
X96008987Y-82149500D01*
X95818013Y-82149500D01*
X95811561Y-82150872D01*
X95811556Y-82150872D01*
X95724612Y-82169353D01*
X95631212Y-82189206D01*
X95625182Y-82191891D01*
X95625181Y-82191891D01*
X95462778Y-82264197D01*
X95462776Y-82264198D01*
X95456748Y-82266882D01*
X95451407Y-82270762D01*
X95451406Y-82270763D01*
X95401343Y-82307136D01*
X95302247Y-82379134D01*
X95297826Y-82384044D01*
X95297825Y-82384045D01*
X95277128Y-82407032D01*
X95174460Y-82521056D01*
X95078973Y-82686444D01*
X95019958Y-82868072D01*
X94999996Y-83058000D01*
X89154500Y-83058000D01*
X89154500Y-78709524D01*
X99842102Y-78709524D01*
X99842302Y-78714853D01*
X99842302Y-78714855D01*
X99843763Y-78753765D01*
X99850751Y-78939908D01*
X99898093Y-79165541D01*
X99982776Y-79379971D01*
X100102377Y-79577067D01*
X100105874Y-79581097D01*
X100230172Y-79724338D01*
X100253477Y-79751195D01*
X100289120Y-79780420D01*
X100329114Y-79839079D01*
X100331046Y-79910049D01*
X100294302Y-79970798D01*
X100275532Y-79984998D01*
X100215420Y-80022197D01*
X100129652Y-80075272D01*
X100004695Y-80200447D01*
X100000855Y-80206677D01*
X100000854Y-80206678D01*
X99949341Y-80290248D01*
X99911885Y-80351012D01*
X99856203Y-80518889D01*
X99845500Y-80623350D01*
X99845500Y-81924150D01*
X99856474Y-82029916D01*
X99858655Y-82036452D01*
X99858655Y-82036454D01*
X99879652Y-82099390D01*
X99912450Y-82197696D01*
X100005522Y-82348098D01*
X100130697Y-82473055D01*
X100136927Y-82476895D01*
X100136928Y-82476896D01*
X100274090Y-82561444D01*
X100281262Y-82565865D01*
X100361005Y-82592314D01*
X100442611Y-82619382D01*
X100442613Y-82619382D01*
X100449139Y-82621547D01*
X100455975Y-82622247D01*
X100455978Y-82622248D01*
X100499031Y-82626659D01*
X100553600Y-82632250D01*
X102104400Y-82632250D01*
X102107646Y-82631913D01*
X102107650Y-82631913D01*
X102203308Y-82621988D01*
X102203312Y-82621987D01*
X102210166Y-82621276D01*
X102216702Y-82619095D01*
X102216704Y-82619095D01*
X102348806Y-82575022D01*
X102377946Y-82565300D01*
X102528348Y-82472228D01*
X102653305Y-82347053D01*
X102702254Y-82267644D01*
X102742275Y-82202718D01*
X102742276Y-82202716D01*
X102746115Y-82196488D01*
X102801797Y-82028611D01*
X102812500Y-81924150D01*
X102812500Y-80623350D01*
X102812163Y-80620100D01*
X102802238Y-80524442D01*
X102802237Y-80524438D01*
X102801526Y-80517584D01*
X102745550Y-80349804D01*
X102652478Y-80199402D01*
X102527303Y-80074445D01*
X102381660Y-79984669D01*
X102334168Y-79931898D01*
X102322744Y-79861826D01*
X102351018Y-79796702D01*
X102360805Y-79786240D01*
X102422233Y-79727640D01*
X102475135Y-79677174D01*
X102612754Y-79492208D01*
X102632955Y-79452477D01*
X102672342Y-79375006D01*
X102717240Y-79286699D01*
X102753321Y-79170502D01*
X102784024Y-79071621D01*
X102785607Y-79066523D01*
X102801691Y-78945167D01*
X102815198Y-78843261D01*
X102815198Y-78843256D01*
X102815898Y-78837976D01*
X102811076Y-78709524D01*
X122617502Y-78709524D01*
X122617702Y-78714853D01*
X122617702Y-78714855D01*
X122619163Y-78753765D01*
X122626151Y-78939908D01*
X122673493Y-79165541D01*
X122758176Y-79379971D01*
X122877777Y-79577067D01*
X122881274Y-79581097D01*
X123005572Y-79724338D01*
X123028877Y-79751195D01*
X123064520Y-79780420D01*
X123104514Y-79839079D01*
X123106446Y-79910049D01*
X123069702Y-79970798D01*
X123050932Y-79984998D01*
X122990820Y-80022197D01*
X122905052Y-80075272D01*
X122780095Y-80200447D01*
X122776255Y-80206677D01*
X122776254Y-80206678D01*
X122724741Y-80290248D01*
X122687285Y-80351012D01*
X122631603Y-80518889D01*
X122620900Y-80623350D01*
X122620900Y-81924150D01*
X122631874Y-82029916D01*
X122634055Y-82036452D01*
X122634055Y-82036454D01*
X122655052Y-82099390D01*
X122687850Y-82197696D01*
X122780922Y-82348098D01*
X122906097Y-82473055D01*
X122912327Y-82476895D01*
X122912328Y-82476896D01*
X123049490Y-82561444D01*
X123056662Y-82565865D01*
X123136405Y-82592314D01*
X123218011Y-82619382D01*
X123218013Y-82619382D01*
X123224539Y-82621547D01*
X123231375Y-82622247D01*
X123231378Y-82622248D01*
X123274431Y-82626659D01*
X123329000Y-82632250D01*
X124879800Y-82632250D01*
X124883046Y-82631913D01*
X124883050Y-82631913D01*
X124978708Y-82621988D01*
X124978712Y-82621987D01*
X124985566Y-82621276D01*
X124992102Y-82619095D01*
X124992104Y-82619095D01*
X125124206Y-82575022D01*
X125153346Y-82565300D01*
X125303748Y-82472228D01*
X125428705Y-82347053D01*
X125477654Y-82267644D01*
X125517675Y-82202718D01*
X125517676Y-82202716D01*
X125521515Y-82196488D01*
X125577197Y-82028611D01*
X125587900Y-81924150D01*
X125587900Y-81257095D01*
X133693751Y-81257095D01*
X133694048Y-81262248D01*
X133694048Y-81262251D01*
X133699511Y-81356990D01*
X133706610Y-81480115D01*
X133707747Y-81485161D01*
X133707748Y-81485167D01*
X133727619Y-81573339D01*
X133755722Y-81698039D01*
X133839766Y-81905016D01*
X133842465Y-81909420D01*
X133916305Y-82029916D01*
X133956487Y-82095488D01*
X134102750Y-82264338D01*
X134106725Y-82267638D01*
X134106731Y-82267644D01*
X134111925Y-82271956D01*
X134151559Y-82330860D01*
X134153055Y-82401841D01*
X134115939Y-82462362D01*
X134075668Y-82486880D01*
X133968446Y-82527076D01*
X133952851Y-82535614D01*
X133850776Y-82612115D01*
X133838215Y-82624676D01*
X133761714Y-82726751D01*
X133753176Y-82742346D01*
X133708022Y-82862794D01*
X133704395Y-82878049D01*
X133698869Y-82928914D01*
X133698500Y-82935728D01*
X133698500Y-83558285D01*
X133702975Y-83573524D01*
X133704365Y-83574729D01*
X133712048Y-83576400D01*
X136396384Y-83576400D01*
X136411623Y-83571925D01*
X136412828Y-83570535D01*
X136414499Y-83562852D01*
X136414499Y-82935731D01*
X136414129Y-82928910D01*
X136408605Y-82878048D01*
X136404979Y-82862796D01*
X136359824Y-82742346D01*
X136351286Y-82726751D01*
X136274785Y-82624676D01*
X136262224Y-82612115D01*
X136160149Y-82535614D01*
X136144554Y-82527076D01*
X136034313Y-82485748D01*
X135977549Y-82443106D01*
X135952849Y-82376545D01*
X135968057Y-82307196D01*
X135989604Y-82278515D01*
X136090930Y-82177544D01*
X136090940Y-82177532D01*
X136094596Y-82173889D01*
X136154094Y-82091089D01*
X136221935Y-81996677D01*
X136224953Y-81992477D01*
X136323930Y-81792211D01*
X136388870Y-81578469D01*
X136418029Y-81356990D01*
X136419656Y-81290400D01*
X136401352Y-81067761D01*
X136346931Y-80851102D01*
X136257854Y-80646240D01*
X136136514Y-80458677D01*
X135986170Y-80293451D01*
X135982119Y-80290252D01*
X135982115Y-80290248D01*
X135814914Y-80158200D01*
X135814910Y-80158198D01*
X135810859Y-80154998D01*
X135769553Y-80132196D01*
X135719584Y-80081764D01*
X135704812Y-80012321D01*
X135729928Y-79945916D01*
X135757280Y-79919309D01*
X135801103Y-79888050D01*
X135936360Y-79791573D01*
X135980927Y-79747162D01*
X136090935Y-79637537D01*
X136094596Y-79633889D01*
X136154094Y-79551089D01*
X136221935Y-79456677D01*
X136224953Y-79452477D01*
X136260788Y-79379971D01*
X136321636Y-79256853D01*
X136321637Y-79256851D01*
X136323930Y-79252211D01*
X136380347Y-79066523D01*
X136387365Y-79043423D01*
X136387365Y-79043421D01*
X136388870Y-79038469D01*
X136418029Y-78816990D01*
X136419656Y-78750400D01*
X136401352Y-78527761D01*
X136346931Y-78311102D01*
X136257854Y-78106240D01*
X136218406Y-78045262D01*
X136139322Y-77923017D01*
X136139320Y-77923014D01*
X136136514Y-77918677D01*
X135986170Y-77753451D01*
X135982119Y-77750252D01*
X135982115Y-77750248D01*
X135814914Y-77618200D01*
X135814910Y-77618198D01*
X135810859Y-77614998D01*
X135787464Y-77602083D01*
X135749485Y-77581118D01*
X135615289Y-77507038D01*
X135610420Y-77505314D01*
X135610416Y-77505312D01*
X135409587Y-77434195D01*
X135409583Y-77434194D01*
X135404712Y-77432469D01*
X135399619Y-77431562D01*
X135399616Y-77431561D01*
X135189873Y-77394200D01*
X135189867Y-77394199D01*
X135184784Y-77393294D01*
X135110952Y-77392392D01*
X134966581Y-77390628D01*
X134966579Y-77390628D01*
X134961411Y-77390565D01*
X134740591Y-77424355D01*
X134528256Y-77493757D01*
X134497943Y-77509537D01*
X134357902Y-77582438D01*
X134330107Y-77596907D01*
X134325974Y-77600010D01*
X134325971Y-77600012D01*
X134172992Y-77714872D01*
X134151465Y-77731035D01*
X133997129Y-77892538D01*
X133871243Y-78077080D01*
X133777188Y-78279705D01*
X133717489Y-78494970D01*
X133693751Y-78717095D01*
X133694048Y-78722248D01*
X133694048Y-78722251D01*
X133706291Y-78934577D01*
X133706610Y-78940115D01*
X133707747Y-78945161D01*
X133707748Y-78945167D01*
X133727619Y-79033339D01*
X133755722Y-79158039D01*
X133839766Y-79365016D01*
X133956487Y-79555488D01*
X134102750Y-79724338D01*
X134274626Y-79867032D01*
X134326550Y-79897374D01*
X134347945Y-79909876D01*
X134396669Y-79961514D01*
X134409740Y-80031297D01*
X134383009Y-80097069D01*
X134342555Y-80130427D01*
X134330107Y-80136907D01*
X134325974Y-80140010D01*
X134325971Y-80140012D01*
X134155600Y-80267930D01*
X134151465Y-80271035D01*
X133997129Y-80432538D01*
X133871243Y-80617080D01*
X133777188Y-80819705D01*
X133717489Y-81034970D01*
X133693751Y-81257095D01*
X125587900Y-81257095D01*
X125587900Y-80623350D01*
X125587563Y-80620100D01*
X125577638Y-80524442D01*
X125577637Y-80524438D01*
X125576926Y-80517584D01*
X125520950Y-80349804D01*
X125427878Y-80199402D01*
X125302703Y-80074445D01*
X125157060Y-79984669D01*
X125109568Y-79931898D01*
X125098144Y-79861826D01*
X125126418Y-79796702D01*
X125136205Y-79786240D01*
X125197633Y-79727640D01*
X125250535Y-79677174D01*
X125388154Y-79492208D01*
X125408355Y-79452477D01*
X125447742Y-79375006D01*
X125492640Y-79286699D01*
X125528721Y-79170502D01*
X125559424Y-79071621D01*
X125561007Y-79066523D01*
X125577091Y-78945167D01*
X125590598Y-78843261D01*
X125590598Y-78843256D01*
X125591298Y-78837976D01*
X125582649Y-78607592D01*
X125535307Y-78381959D01*
X125450624Y-78167529D01*
X125410795Y-78101892D01*
X125333790Y-77974993D01*
X125331023Y-77970433D01*
X125282797Y-77914857D01*
X125183423Y-77800338D01*
X125183421Y-77800336D01*
X125179923Y-77796305D01*
X125127659Y-77753451D01*
X125005773Y-77653510D01*
X125005767Y-77653506D01*
X125001645Y-77650126D01*
X124970150Y-77632198D01*
X124920845Y-77581118D01*
X124906983Y-77511488D01*
X124932966Y-77445417D01*
X124962116Y-77418177D01*
X124999076Y-77393294D01*
X125083719Y-77336309D01*
X125250535Y-77177174D01*
X125388154Y-76992208D01*
X125492640Y-76786699D01*
X125528721Y-76670502D01*
X125559424Y-76571621D01*
X125561007Y-76566523D01*
X125568017Y-76513634D01*
X125590598Y-76343261D01*
X125590598Y-76343256D01*
X125591298Y-76337976D01*
X125582649Y-76107592D01*
X125574430Y-76068419D01*
X128842401Y-76068419D01*
X128842771Y-76075240D01*
X128848295Y-76126102D01*
X128851921Y-76141354D01*
X128897076Y-76261804D01*
X128905614Y-76277399D01*
X128982115Y-76379474D01*
X128994676Y-76392035D01*
X129096751Y-76468536D01*
X129112346Y-76477074D01*
X129232794Y-76522228D01*
X129248049Y-76525855D01*
X129298914Y-76531381D01*
X129305728Y-76531750D01*
X129928285Y-76531750D01*
X129943524Y-76527275D01*
X129944729Y-76525885D01*
X129946400Y-76518202D01*
X129946400Y-76513634D01*
X130454400Y-76513634D01*
X130458875Y-76528873D01*
X130460265Y-76530078D01*
X130467948Y-76531749D01*
X131095069Y-76531749D01*
X131101890Y-76531379D01*
X131152752Y-76525855D01*
X131168004Y-76522229D01*
X131288454Y-76477074D01*
X131304049Y-76468536D01*
X131406124Y-76392035D01*
X131418685Y-76379474D01*
X131495186Y-76277399D01*
X131503724Y-76261804D01*
X131548878Y-76141356D01*
X131552505Y-76126101D01*
X131558031Y-76075236D01*
X131558400Y-76068422D01*
X131558400Y-75445865D01*
X131553925Y-75430626D01*
X131552535Y-75429421D01*
X131544852Y-75427750D01*
X130472515Y-75427750D01*
X130457276Y-75432225D01*
X130456071Y-75433615D01*
X130454400Y-75441298D01*
X130454400Y-76513634D01*
X129946400Y-76513634D01*
X129946400Y-75445865D01*
X129941925Y-75430626D01*
X129940535Y-75429421D01*
X129932852Y-75427750D01*
X128860516Y-75427750D01*
X128845277Y-75432225D01*
X128844072Y-75433615D01*
X128842401Y-75441298D01*
X128842401Y-76068419D01*
X125574430Y-76068419D01*
X125535307Y-75881959D01*
X125450624Y-75667529D01*
X125331023Y-75470433D01*
X125244155Y-75370326D01*
X125183423Y-75300338D01*
X125183421Y-75300336D01*
X125179923Y-75296305D01*
X125138370Y-75262234D01*
X125005773Y-75153510D01*
X125005767Y-75153506D01*
X125001645Y-75150126D01*
X124970150Y-75132198D01*
X124920845Y-75081118D01*
X124906983Y-75011488D01*
X124932966Y-74945417D01*
X124962116Y-74918177D01*
X124998042Y-74893990D01*
X125083719Y-74836309D01*
X125250535Y-74677174D01*
X125388154Y-74492208D01*
X125492640Y-74286699D01*
X125495006Y-74279081D01*
X125559424Y-74071621D01*
X125561007Y-74066523D01*
X125574182Y-73967118D01*
X125590598Y-73843261D01*
X125590598Y-73843256D01*
X125591298Y-73837976D01*
X125582649Y-73607592D01*
X125535307Y-73381959D01*
X125518747Y-73340027D01*
X125452585Y-73172494D01*
X125452584Y-73172492D01*
X125450624Y-73167529D01*
X125431226Y-73135561D01*
X125341607Y-72987875D01*
X125331023Y-72970433D01*
X125311703Y-72948169D01*
X125183423Y-72800338D01*
X125183421Y-72800336D01*
X125179923Y-72796305D01*
X125109316Y-72738411D01*
X125005773Y-72653510D01*
X125005767Y-72653506D01*
X125001645Y-72650126D01*
X124970150Y-72632198D01*
X124939500Y-72600445D01*
X128837651Y-72600445D01*
X128837948Y-72605598D01*
X128837948Y-72605601D01*
X128850212Y-72818297D01*
X128850510Y-72823465D01*
X128851647Y-72828511D01*
X128851648Y-72828517D01*
X128861108Y-72870493D01*
X128899622Y-73041389D01*
X128983666Y-73248366D01*
X128991286Y-73260801D01*
X129065532Y-73381959D01*
X129100387Y-73438838D01*
X129246650Y-73607688D01*
X129250625Y-73610988D01*
X129250631Y-73610994D01*
X129255825Y-73615306D01*
X129295459Y-73674210D01*
X129296955Y-73745191D01*
X129259839Y-73805712D01*
X129219568Y-73830230D01*
X129112346Y-73870426D01*
X129096751Y-73878964D01*
X128994676Y-73955465D01*
X128982115Y-73968026D01*
X128905614Y-74070101D01*
X128897076Y-74085696D01*
X128851922Y-74206144D01*
X128848295Y-74221399D01*
X128842769Y-74272264D01*
X128842400Y-74279078D01*
X128842400Y-74901635D01*
X128846875Y-74916874D01*
X128848265Y-74918079D01*
X128855948Y-74919750D01*
X131540284Y-74919750D01*
X131555523Y-74915275D01*
X131556728Y-74913885D01*
X131558399Y-74906202D01*
X131558399Y-74279081D01*
X131558029Y-74272260D01*
X131552505Y-74221398D01*
X131548879Y-74206146D01*
X131503724Y-74085696D01*
X131495186Y-74070101D01*
X131418685Y-73968026D01*
X131406124Y-73955465D01*
X131304049Y-73878964D01*
X131288454Y-73870426D01*
X131178213Y-73829098D01*
X131121449Y-73786456D01*
X131096749Y-73719895D01*
X131111957Y-73650546D01*
X131133504Y-73621865D01*
X131234830Y-73520894D01*
X131234840Y-73520882D01*
X131238496Y-73517239D01*
X131297994Y-73434439D01*
X131365835Y-73340027D01*
X131368853Y-73335827D01*
X131467830Y-73135561D01*
X131513117Y-72986503D01*
X131531265Y-72926773D01*
X131531265Y-72926771D01*
X131532770Y-72921819D01*
X131561929Y-72700340D01*
X131563156Y-72650126D01*
X131563474Y-72637115D01*
X131563474Y-72637111D01*
X131563556Y-72633750D01*
X131545252Y-72411111D01*
X131490831Y-72194452D01*
X131401754Y-71989590D01*
X131280414Y-71802027D01*
X131130070Y-71636801D01*
X131126019Y-71633602D01*
X131126015Y-71633598D01*
X130958814Y-71501550D01*
X130958810Y-71501548D01*
X130954759Y-71498348D01*
X130913453Y-71475546D01*
X130863484Y-71425114D01*
X130848712Y-71355671D01*
X130873828Y-71289266D01*
X130901180Y-71262659D01*
X130968199Y-71214855D01*
X131080260Y-71134923D01*
X131238496Y-70977239D01*
X131297994Y-70894439D01*
X131365835Y-70800027D01*
X131368853Y-70795827D01*
X131432262Y-70667529D01*
X131465536Y-70600203D01*
X131465537Y-70600201D01*
X131467830Y-70595561D01*
X131500889Y-70486750D01*
X131531265Y-70386773D01*
X131531266Y-70386768D01*
X131532770Y-70381819D01*
X131561929Y-70160340D01*
X131563556Y-70093750D01*
X131545252Y-69871111D01*
X131490831Y-69654452D01*
X131401754Y-69449590D01*
X131280414Y-69262027D01*
X131130070Y-69096801D01*
X131126019Y-69093602D01*
X131126015Y-69093598D01*
X130958814Y-68961550D01*
X130958810Y-68961548D01*
X130954759Y-68958348D01*
X130933297Y-68946500D01*
X130902536Y-68929519D01*
X130759189Y-68850388D01*
X130754320Y-68848664D01*
X130754316Y-68848662D01*
X130553487Y-68777545D01*
X130553483Y-68777544D01*
X130548612Y-68775819D01*
X130543519Y-68774912D01*
X130543516Y-68774911D01*
X130333773Y-68737550D01*
X130333767Y-68737549D01*
X130328684Y-68736644D01*
X130254852Y-68735742D01*
X130110481Y-68733978D01*
X130110479Y-68733978D01*
X130105311Y-68733915D01*
X129884491Y-68767705D01*
X129672156Y-68837107D01*
X129474007Y-68940257D01*
X129469874Y-68943360D01*
X129469871Y-68943362D01*
X129420408Y-68980500D01*
X129295365Y-69074385D01*
X129141029Y-69235888D01*
X129015143Y-69420430D01*
X128921088Y-69623055D01*
X128861389Y-69838320D01*
X128837651Y-70060445D01*
X128837948Y-70065598D01*
X128837948Y-70065601D01*
X128843411Y-70160340D01*
X128850510Y-70283465D01*
X128851647Y-70288511D01*
X128851648Y-70288517D01*
X128869256Y-70366647D01*
X128899622Y-70501389D01*
X128937861Y-70595561D01*
X128965232Y-70662967D01*
X128983666Y-70708366D01*
X128986365Y-70712770D01*
X129093242Y-70887178D01*
X129100387Y-70898838D01*
X129246650Y-71067688D01*
X129418526Y-71210382D01*
X129426181Y-71214855D01*
X129491845Y-71253226D01*
X129540569Y-71304864D01*
X129553640Y-71374647D01*
X129526909Y-71440419D01*
X129486455Y-71473777D01*
X129474007Y-71480257D01*
X129469874Y-71483360D01*
X129469871Y-71483362D01*
X129359111Y-71566523D01*
X129295365Y-71614385D01*
X129141029Y-71775888D01*
X129138115Y-71780160D01*
X129138114Y-71780161D01*
X129125804Y-71798207D01*
X129015143Y-71960430D01*
X128921088Y-72163055D01*
X128861389Y-72378320D01*
X128837651Y-72600445D01*
X124939500Y-72600445D01*
X124920845Y-72581118D01*
X124906983Y-72511488D01*
X124932966Y-72445417D01*
X124962116Y-72418177D01*
X125013687Y-72383457D01*
X125083719Y-72336309D01*
X125250535Y-72177174D01*
X125388154Y-71992208D01*
X125406487Y-71956151D01*
X125482640Y-71806367D01*
X125492640Y-71786699D01*
X125497158Y-71772151D01*
X125559424Y-71571621D01*
X125561007Y-71566523D01*
X125572029Y-71483362D01*
X125590598Y-71343261D01*
X125590598Y-71343256D01*
X125591298Y-71337976D01*
X125589432Y-71288257D01*
X125584274Y-71150873D01*
X125582649Y-71107592D01*
X125535307Y-70881959D01*
X125533348Y-70876998D01*
X125452585Y-70672494D01*
X125452584Y-70672492D01*
X125450624Y-70667529D01*
X125331023Y-70470433D01*
X125258427Y-70386773D01*
X125183423Y-70300338D01*
X125183421Y-70300336D01*
X125179923Y-70296305D01*
X125138370Y-70262234D01*
X125005773Y-70153510D01*
X125005767Y-70153506D01*
X125001645Y-70150126D01*
X124997009Y-70147487D01*
X124997006Y-70147485D01*
X124805929Y-70038718D01*
X124801286Y-70036075D01*
X124584575Y-69957413D01*
X124579326Y-69956464D01*
X124579323Y-69956463D01*
X124361792Y-69917127D01*
X124361785Y-69917126D01*
X124357708Y-69916389D01*
X124339986Y-69915553D01*
X124335044Y-69915320D01*
X124335037Y-69915320D01*
X124333556Y-69915250D01*
X123921510Y-69915250D01*
X123854591Y-69920928D01*
X123754991Y-69929379D01*
X123754987Y-69929380D01*
X123749680Y-69929830D01*
X123744525Y-69931168D01*
X123744519Y-69931169D01*
X123531697Y-69986407D01*
X123531693Y-69986408D01*
X123526528Y-69987749D01*
X123521662Y-69989941D01*
X123521659Y-69989942D01*
X123413380Y-70038718D01*
X123316325Y-70082438D01*
X123125081Y-70211191D01*
X122958265Y-70370326D01*
X122820646Y-70555292D01*
X122716160Y-70760801D01*
X122714578Y-70765895D01*
X122714577Y-70765898D01*
X122674664Y-70894439D01*
X122647793Y-70980977D01*
X122647092Y-70986266D01*
X122622443Y-71172247D01*
X122617502Y-71209524D01*
X122626151Y-71439908D01*
X122627246Y-71445127D01*
X122638413Y-71498348D01*
X122673493Y-71665541D01*
X122675451Y-71670500D01*
X122675452Y-71670502D01*
X122725886Y-71798207D01*
X122758176Y-71879971D01*
X122760943Y-71884530D01*
X122760944Y-71884533D01*
X122826283Y-71992208D01*
X122877777Y-72077067D01*
X122881274Y-72081097D01*
X122983993Y-72199470D01*
X123028877Y-72251195D01*
X123033008Y-72254582D01*
X123203027Y-72393990D01*
X123203033Y-72393994D01*
X123207155Y-72397374D01*
X123238650Y-72415302D01*
X123287955Y-72466382D01*
X123301817Y-72536012D01*
X123275834Y-72602083D01*
X123246684Y-72629323D01*
X123125081Y-72711191D01*
X122958265Y-72870326D01*
X122820646Y-73055292D01*
X122716160Y-73260801D01*
X122714578Y-73265895D01*
X122714577Y-73265898D01*
X122660878Y-73438838D01*
X122647793Y-73480977D01*
X122647092Y-73486266D01*
X122625319Y-73650546D01*
X122617502Y-73709524D01*
X122626151Y-73939908D01*
X122673493Y-74165541D01*
X122675451Y-74170500D01*
X122675452Y-74170502D01*
X122715639Y-74272260D01*
X122758176Y-74379971D01*
X122877777Y-74577067D01*
X122881274Y-74581097D01*
X122967838Y-74680853D01*
X123028877Y-74751195D01*
X123033008Y-74754582D01*
X123203027Y-74893990D01*
X123203033Y-74893994D01*
X123207155Y-74897374D01*
X123238650Y-74915302D01*
X123287955Y-74966382D01*
X123301817Y-75036012D01*
X123275834Y-75102083D01*
X123246684Y-75129323D01*
X123125081Y-75211191D01*
X122958265Y-75370326D01*
X122955082Y-75374604D01*
X122905460Y-75441298D01*
X122820646Y-75555292D01*
X122716160Y-75760801D01*
X122714578Y-75765895D01*
X122714577Y-75765898D01*
X122652515Y-75965770D01*
X122647793Y-75980977D01*
X122647092Y-75986266D01*
X122626537Y-76141356D01*
X122617502Y-76209524D01*
X122626151Y-76439908D01*
X122673493Y-76665541D01*
X122758176Y-76879971D01*
X122877777Y-77077067D01*
X122881274Y-77081097D01*
X122967838Y-77180853D01*
X123028877Y-77251195D01*
X123033008Y-77254582D01*
X123203027Y-77393990D01*
X123203033Y-77393994D01*
X123207155Y-77397374D01*
X123238650Y-77415302D01*
X123287955Y-77466382D01*
X123301817Y-77536012D01*
X123275834Y-77602083D01*
X123246684Y-77629323D01*
X123125081Y-77711191D01*
X122958265Y-77870326D01*
X122955082Y-77874604D01*
X122925133Y-77914857D01*
X122820646Y-78055292D01*
X122716160Y-78260801D01*
X122714578Y-78265895D01*
X122714577Y-78265898D01*
X122652515Y-78465770D01*
X122647793Y-78480977D01*
X122647092Y-78486266D01*
X122631704Y-78602373D01*
X122617502Y-78709524D01*
X102811076Y-78709524D01*
X102807249Y-78607592D01*
X102759907Y-78381959D01*
X102675224Y-78167529D01*
X102635395Y-78101892D01*
X102558390Y-77974993D01*
X102555623Y-77970433D01*
X102507397Y-77914857D01*
X102408023Y-77800338D01*
X102408021Y-77800336D01*
X102404523Y-77796305D01*
X102352259Y-77753451D01*
X102230373Y-77653510D01*
X102230367Y-77653506D01*
X102226245Y-77650126D01*
X102194750Y-77632198D01*
X102145445Y-77581118D01*
X102131583Y-77511488D01*
X102157566Y-77445417D01*
X102186716Y-77418177D01*
X102223676Y-77393294D01*
X102308319Y-77336309D01*
X102475135Y-77177174D01*
X102612754Y-76992208D01*
X102717240Y-76786699D01*
X102753321Y-76670502D01*
X102784024Y-76571621D01*
X102785607Y-76566523D01*
X102792617Y-76513634D01*
X102815198Y-76343261D01*
X102815198Y-76343256D01*
X102815898Y-76337976D01*
X102807249Y-76107592D01*
X102759907Y-75881959D01*
X102675224Y-75667529D01*
X102555623Y-75470433D01*
X102468755Y-75370326D01*
X102408023Y-75300338D01*
X102408021Y-75300336D01*
X102404523Y-75296305D01*
X102362970Y-75262234D01*
X102230373Y-75153510D01*
X102230367Y-75153506D01*
X102226245Y-75150126D01*
X102194750Y-75132198D01*
X102145445Y-75081118D01*
X102131583Y-75011488D01*
X102157566Y-74945417D01*
X102186716Y-74918177D01*
X102222642Y-74893990D01*
X102308319Y-74836309D01*
X102475135Y-74677174D01*
X102612754Y-74492208D01*
X102717240Y-74286699D01*
X102719606Y-74279081D01*
X102784024Y-74071621D01*
X102785607Y-74066523D01*
X102798782Y-73967118D01*
X102815198Y-73843261D01*
X102815198Y-73843256D01*
X102815898Y-73837976D01*
X102807249Y-73607592D01*
X102759907Y-73381959D01*
X102743347Y-73340027D01*
X102677185Y-73172494D01*
X102677184Y-73172492D01*
X102675224Y-73167529D01*
X102655826Y-73135561D01*
X102566207Y-72987875D01*
X102555623Y-72970433D01*
X102536303Y-72948169D01*
X102408023Y-72800338D01*
X102408021Y-72800336D01*
X102404523Y-72796305D01*
X102333916Y-72738411D01*
X102230373Y-72653510D01*
X102230367Y-72653506D01*
X102226245Y-72650126D01*
X102194750Y-72632198D01*
X102145445Y-72581118D01*
X102131583Y-72511488D01*
X102157566Y-72445417D01*
X102186716Y-72418177D01*
X102238287Y-72383457D01*
X102308319Y-72336309D01*
X102475135Y-72177174D01*
X102612754Y-71992208D01*
X102631087Y-71956151D01*
X102707240Y-71806367D01*
X102717240Y-71786699D01*
X102721758Y-71772151D01*
X102784024Y-71571621D01*
X102785607Y-71566523D01*
X102796629Y-71483362D01*
X102815198Y-71343261D01*
X102815198Y-71343256D01*
X102815898Y-71337976D01*
X102814032Y-71288257D01*
X102808874Y-71150873D01*
X102807249Y-71107592D01*
X102759907Y-70881959D01*
X102757948Y-70876998D01*
X102677185Y-70672494D01*
X102677184Y-70672492D01*
X102675224Y-70667529D01*
X102555623Y-70470433D01*
X102483027Y-70386773D01*
X102408023Y-70300338D01*
X102408021Y-70300336D01*
X102404523Y-70296305D01*
X102362970Y-70262234D01*
X102230373Y-70153510D01*
X102230367Y-70153506D01*
X102226245Y-70150126D01*
X102221609Y-70147487D01*
X102221606Y-70147485D01*
X102030529Y-70038718D01*
X102025886Y-70036075D01*
X101809175Y-69957413D01*
X101803926Y-69956464D01*
X101803923Y-69956463D01*
X101586392Y-69917127D01*
X101586385Y-69917126D01*
X101582308Y-69916389D01*
X101564586Y-69915553D01*
X101559644Y-69915320D01*
X101559637Y-69915320D01*
X101558156Y-69915250D01*
X101146110Y-69915250D01*
X101079191Y-69920928D01*
X100979591Y-69929379D01*
X100979587Y-69929380D01*
X100974280Y-69929830D01*
X100969125Y-69931168D01*
X100969119Y-69931169D01*
X100756297Y-69986407D01*
X100756293Y-69986408D01*
X100751128Y-69987749D01*
X100746262Y-69989941D01*
X100746259Y-69989942D01*
X100637980Y-70038718D01*
X100540925Y-70082438D01*
X100349681Y-70211191D01*
X100182865Y-70370326D01*
X100045246Y-70555292D01*
X99940760Y-70760801D01*
X99939178Y-70765895D01*
X99939177Y-70765898D01*
X99899264Y-70894439D01*
X99872393Y-70980977D01*
X99871692Y-70986266D01*
X99847043Y-71172247D01*
X99842102Y-71209524D01*
X99850751Y-71439908D01*
X99851846Y-71445127D01*
X99863013Y-71498348D01*
X99898093Y-71665541D01*
X99900051Y-71670500D01*
X99900052Y-71670502D01*
X99950486Y-71798207D01*
X99982776Y-71879971D01*
X99985543Y-71884530D01*
X99985544Y-71884533D01*
X100050883Y-71992208D01*
X100102377Y-72077067D01*
X100105874Y-72081097D01*
X100208593Y-72199470D01*
X100253477Y-72251195D01*
X100257608Y-72254582D01*
X100427627Y-72393990D01*
X100427633Y-72393994D01*
X100431755Y-72397374D01*
X100463250Y-72415302D01*
X100512555Y-72466382D01*
X100526417Y-72536012D01*
X100500434Y-72602083D01*
X100471284Y-72629323D01*
X100349681Y-72711191D01*
X100182865Y-72870326D01*
X100045246Y-73055292D01*
X99940760Y-73260801D01*
X99939178Y-73265895D01*
X99939177Y-73265898D01*
X99885478Y-73438838D01*
X99872393Y-73480977D01*
X99871692Y-73486266D01*
X99849919Y-73650546D01*
X99842102Y-73709524D01*
X99850751Y-73939908D01*
X99898093Y-74165541D01*
X99900051Y-74170500D01*
X99900052Y-74170502D01*
X99940239Y-74272260D01*
X99982776Y-74379971D01*
X100102377Y-74577067D01*
X100105874Y-74581097D01*
X100192438Y-74680853D01*
X100253477Y-74751195D01*
X100257608Y-74754582D01*
X100427627Y-74893990D01*
X100427633Y-74893994D01*
X100431755Y-74897374D01*
X100463250Y-74915302D01*
X100512555Y-74966382D01*
X100526417Y-75036012D01*
X100500434Y-75102083D01*
X100471284Y-75129323D01*
X100349681Y-75211191D01*
X100182865Y-75370326D01*
X100179682Y-75374604D01*
X100130060Y-75441298D01*
X100045246Y-75555292D01*
X99940760Y-75760801D01*
X99939178Y-75765895D01*
X99939177Y-75765898D01*
X99877115Y-75965770D01*
X99872393Y-75980977D01*
X99871692Y-75986266D01*
X99851137Y-76141356D01*
X99842102Y-76209524D01*
X99850751Y-76439908D01*
X99898093Y-76665541D01*
X99982776Y-76879971D01*
X100102377Y-77077067D01*
X100105874Y-77081097D01*
X100192438Y-77180853D01*
X100253477Y-77251195D01*
X100257608Y-77254582D01*
X100427627Y-77393990D01*
X100427633Y-77393994D01*
X100431755Y-77397374D01*
X100463250Y-77415302D01*
X100512555Y-77466382D01*
X100526417Y-77536012D01*
X100500434Y-77602083D01*
X100471284Y-77629323D01*
X100349681Y-77711191D01*
X100182865Y-77870326D01*
X100179682Y-77874604D01*
X100149733Y-77914857D01*
X100045246Y-78055292D01*
X99940760Y-78260801D01*
X99939178Y-78265895D01*
X99939177Y-78265898D01*
X99877115Y-78465770D01*
X99872393Y-78480977D01*
X99871692Y-78486266D01*
X99856304Y-78602373D01*
X99842102Y-78709524D01*
X89154500Y-78709524D01*
X89154500Y-76068419D01*
X92217001Y-76068419D01*
X92217371Y-76075240D01*
X92222895Y-76126102D01*
X92226521Y-76141354D01*
X92271676Y-76261804D01*
X92280214Y-76277399D01*
X92356715Y-76379474D01*
X92369276Y-76392035D01*
X92471351Y-76468536D01*
X92486946Y-76477074D01*
X92607394Y-76522228D01*
X92622649Y-76525855D01*
X92673514Y-76531381D01*
X92680328Y-76531750D01*
X93302885Y-76531750D01*
X93318124Y-76527275D01*
X93319329Y-76525885D01*
X93321000Y-76518202D01*
X93321000Y-76513634D01*
X93829000Y-76513634D01*
X93833475Y-76528873D01*
X93834865Y-76530078D01*
X93842548Y-76531749D01*
X94469669Y-76531749D01*
X94476490Y-76531379D01*
X94527352Y-76525855D01*
X94542604Y-76522229D01*
X94663054Y-76477074D01*
X94678649Y-76468536D01*
X94780724Y-76392035D01*
X94793285Y-76379474D01*
X94869786Y-76277399D01*
X94878324Y-76261804D01*
X94923478Y-76141356D01*
X94927105Y-76126101D01*
X94932631Y-76075236D01*
X94933000Y-76068422D01*
X94933000Y-75445865D01*
X94928525Y-75430626D01*
X94927135Y-75429421D01*
X94919452Y-75427750D01*
X93847115Y-75427750D01*
X93831876Y-75432225D01*
X93830671Y-75433615D01*
X93829000Y-75441298D01*
X93829000Y-76513634D01*
X93321000Y-76513634D01*
X93321000Y-75445865D01*
X93316525Y-75430626D01*
X93315135Y-75429421D01*
X93307452Y-75427750D01*
X92235116Y-75427750D01*
X92219877Y-75432225D01*
X92218672Y-75433615D01*
X92217001Y-75441298D01*
X92217001Y-76068419D01*
X89154500Y-76068419D01*
X89154500Y-72600445D01*
X92212251Y-72600445D01*
X92212548Y-72605598D01*
X92212548Y-72605601D01*
X92224812Y-72818297D01*
X92225110Y-72823465D01*
X92226247Y-72828511D01*
X92226248Y-72828517D01*
X92235708Y-72870493D01*
X92274222Y-73041389D01*
X92358266Y-73248366D01*
X92365886Y-73260801D01*
X92440132Y-73381959D01*
X92474987Y-73438838D01*
X92621250Y-73607688D01*
X92625225Y-73610988D01*
X92625231Y-73610994D01*
X92630425Y-73615306D01*
X92670059Y-73674210D01*
X92671555Y-73745191D01*
X92634439Y-73805712D01*
X92594168Y-73830230D01*
X92486946Y-73870426D01*
X92471351Y-73878964D01*
X92369276Y-73955465D01*
X92356715Y-73968026D01*
X92280214Y-74070101D01*
X92271676Y-74085696D01*
X92226522Y-74206144D01*
X92222895Y-74221399D01*
X92217369Y-74272264D01*
X92217000Y-74279078D01*
X92217000Y-74901635D01*
X92221475Y-74916874D01*
X92222865Y-74918079D01*
X92230548Y-74919750D01*
X94914884Y-74919750D01*
X94930123Y-74915275D01*
X94931328Y-74913885D01*
X94932999Y-74906202D01*
X94932999Y-74279081D01*
X94932629Y-74272260D01*
X94927105Y-74221398D01*
X94923479Y-74206146D01*
X94878324Y-74085696D01*
X94869786Y-74070101D01*
X94793285Y-73968026D01*
X94780724Y-73955465D01*
X94678649Y-73878964D01*
X94663054Y-73870426D01*
X94552813Y-73829098D01*
X94496049Y-73786456D01*
X94471349Y-73719895D01*
X94486557Y-73650546D01*
X94508104Y-73621865D01*
X94609430Y-73520894D01*
X94609440Y-73520882D01*
X94613096Y-73517239D01*
X94672594Y-73434439D01*
X94740435Y-73340027D01*
X94743453Y-73335827D01*
X94842430Y-73135561D01*
X94887717Y-72986503D01*
X94904231Y-72932151D01*
X94943172Y-72872787D01*
X95008026Y-72843900D01*
X95078202Y-72854661D01*
X95095090Y-72864625D01*
X95098531Y-72866612D01*
X95103873Y-72870493D01*
X95109901Y-72873177D01*
X95109903Y-72873178D01*
X95272306Y-72945484D01*
X95278337Y-72948169D01*
X95364121Y-72966403D01*
X95458681Y-72986503D01*
X95458686Y-72986503D01*
X95465138Y-72987875D01*
X95656112Y-72987875D01*
X95662564Y-72986503D01*
X95662569Y-72986503D01*
X95757129Y-72966403D01*
X95842913Y-72948169D01*
X95848944Y-72945484D01*
X96011347Y-72873178D01*
X96011349Y-72873177D01*
X96017377Y-72870493D01*
X96171878Y-72758241D01*
X96269225Y-72650126D01*
X96295246Y-72621227D01*
X96295247Y-72621226D01*
X96299665Y-72616319D01*
X96386231Y-72466382D01*
X96391848Y-72456654D01*
X96391849Y-72456653D01*
X96395152Y-72450931D01*
X96454167Y-72269303D01*
X96465828Y-72158360D01*
X96473439Y-72085940D01*
X96474129Y-72079375D01*
X96465192Y-71994340D01*
X96454857Y-71896010D01*
X96454857Y-71896008D01*
X96454167Y-71889447D01*
X96395152Y-71707819D01*
X96299665Y-71542431D01*
X96239443Y-71475547D01*
X96176300Y-71405420D01*
X96176299Y-71405419D01*
X96171878Y-71400509D01*
X96065318Y-71323088D01*
X96022719Y-71292138D01*
X96022718Y-71292137D01*
X96017377Y-71288257D01*
X96011349Y-71285573D01*
X96011347Y-71285572D01*
X95848944Y-71213266D01*
X95848943Y-71213266D01*
X95842913Y-71210581D01*
X95749512Y-71190728D01*
X95662569Y-71172247D01*
X95662564Y-71172247D01*
X95656112Y-71170875D01*
X95600220Y-71170875D01*
X95532099Y-71150873D01*
X95511124Y-71133970D01*
X94926217Y-70549062D01*
X94892192Y-70486750D01*
X94894755Y-70423340D01*
X94907370Y-70381819D01*
X94936529Y-70160340D01*
X94938156Y-70093750D01*
X94919852Y-69871111D01*
X94865431Y-69654452D01*
X94776354Y-69449590D01*
X94655014Y-69262027D01*
X94504670Y-69096801D01*
X94500619Y-69093602D01*
X94500615Y-69093598D01*
X94333414Y-68961550D01*
X94333410Y-68961548D01*
X94329359Y-68958348D01*
X94307897Y-68946500D01*
X97892496Y-68946500D01*
X97893186Y-68953065D01*
X97896070Y-68980500D01*
X97912458Y-69136428D01*
X97971473Y-69318056D01*
X98066960Y-69483444D01*
X98194747Y-69625366D01*
X98349248Y-69737618D01*
X98355276Y-69740302D01*
X98355278Y-69740303D01*
X98517681Y-69812609D01*
X98523712Y-69815294D01*
X98608602Y-69833338D01*
X98704056Y-69853628D01*
X98704061Y-69853628D01*
X98710513Y-69855000D01*
X98901487Y-69855000D01*
X98907939Y-69853628D01*
X98907944Y-69853628D01*
X99003398Y-69833338D01*
X99088288Y-69815294D01*
X99094319Y-69812609D01*
X99256722Y-69740303D01*
X99256724Y-69740302D01*
X99262752Y-69737618D01*
X99417253Y-69625366D01*
X99545040Y-69483444D01*
X99640527Y-69318056D01*
X99699542Y-69136428D01*
X99715931Y-68980500D01*
X99718814Y-68953065D01*
X99719504Y-68946500D01*
X99708258Y-68839497D01*
X99700232Y-68763135D01*
X99700232Y-68763133D01*
X99699542Y-68756572D01*
X99640527Y-68574944D01*
X99545040Y-68409556D01*
X99471863Y-68328285D01*
X99441147Y-68264279D01*
X99439500Y-68243976D01*
X99439500Y-68072000D01*
X116576246Y-68072000D01*
X116596208Y-68261928D01*
X116655223Y-68443556D01*
X116750710Y-68608944D01*
X116878497Y-68750866D01*
X116977593Y-68822864D01*
X117000487Y-68839497D01*
X117032998Y-68863118D01*
X117039026Y-68865802D01*
X117039028Y-68865803D01*
X117200890Y-68937868D01*
X117207462Y-68940794D01*
X117290047Y-68958348D01*
X117387806Y-68979128D01*
X117387811Y-68979128D01*
X117394263Y-68980500D01*
X117585237Y-68980500D01*
X117591689Y-68979128D01*
X117591694Y-68979128D01*
X117689453Y-68958348D01*
X117772038Y-68940794D01*
X117939146Y-68866393D01*
X117990395Y-68855500D01*
X118879355Y-68855500D01*
X118930604Y-68866393D01*
X119097712Y-68940794D01*
X119180297Y-68958348D01*
X119278056Y-68979128D01*
X119278061Y-68979128D01*
X119284513Y-68980500D01*
X119475487Y-68980500D01*
X119481939Y-68979128D01*
X119481944Y-68979128D01*
X119579703Y-68958348D01*
X119662288Y-68940794D01*
X119668860Y-68937868D01*
X119830722Y-68865803D01*
X119830724Y-68865802D01*
X119836752Y-68863118D01*
X119869264Y-68839497D01*
X119892157Y-68822864D01*
X119991253Y-68750866D01*
X120119040Y-68608944D01*
X120214527Y-68443556D01*
X120273542Y-68261928D01*
X120293504Y-68072000D01*
X120273542Y-67882072D01*
X120214527Y-67700444D01*
X120199383Y-67674213D01*
X120122341Y-67540774D01*
X120119040Y-67535056D01*
X119991253Y-67393134D01*
X119836752Y-67280882D01*
X119830724Y-67278198D01*
X119830722Y-67278197D01*
X119668319Y-67205891D01*
X119668318Y-67205891D01*
X119662288Y-67203206D01*
X119568888Y-67183353D01*
X119481944Y-67164872D01*
X119481939Y-67164872D01*
X119475487Y-67163500D01*
X119284513Y-67163500D01*
X119278061Y-67164872D01*
X119278056Y-67164872D01*
X119191112Y-67183353D01*
X119097712Y-67203206D01*
X119091682Y-67205891D01*
X119091681Y-67205891D01*
X118930604Y-67277607D01*
X118879355Y-67288500D01*
X117990395Y-67288500D01*
X117939146Y-67277607D01*
X117778069Y-67205891D01*
X117778068Y-67205891D01*
X117772038Y-67203206D01*
X117678638Y-67183353D01*
X117591694Y-67164872D01*
X117591689Y-67164872D01*
X117585237Y-67163500D01*
X117394263Y-67163500D01*
X117387811Y-67164872D01*
X117387806Y-67164872D01*
X117300862Y-67183353D01*
X117207462Y-67203206D01*
X117201432Y-67205891D01*
X117201431Y-67205891D01*
X117039028Y-67278197D01*
X117039026Y-67278198D01*
X117032998Y-67280882D01*
X116878497Y-67393134D01*
X116750710Y-67535056D01*
X116747409Y-67540774D01*
X116670368Y-67674213D01*
X116655223Y-67700444D01*
X116596208Y-67882072D01*
X116576246Y-68072000D01*
X99439500Y-68072000D01*
X99439500Y-67758524D01*
X99459502Y-67690403D01*
X99471858Y-67674221D01*
X99545040Y-67592944D01*
X99640527Y-67427556D01*
X99699542Y-67245928D01*
X99704177Y-67201834D01*
X99718814Y-67062565D01*
X99719504Y-67056000D01*
X99699542Y-66866072D01*
X99640527Y-66684444D01*
X99545040Y-66519056D01*
X99417253Y-66377134D01*
X99262752Y-66264882D01*
X99256724Y-66262198D01*
X99256722Y-66262197D01*
X99094319Y-66189891D01*
X99094318Y-66189891D01*
X99088288Y-66187206D01*
X98994887Y-66167353D01*
X98907944Y-66148872D01*
X98907939Y-66148872D01*
X98901487Y-66147500D01*
X98710513Y-66147500D01*
X98704061Y-66148872D01*
X98704056Y-66148872D01*
X98617113Y-66167353D01*
X98523712Y-66187206D01*
X98517682Y-66189891D01*
X98517681Y-66189891D01*
X98355278Y-66262197D01*
X98355276Y-66262198D01*
X98349248Y-66264882D01*
X98194747Y-66377134D01*
X98066960Y-66519056D01*
X97971473Y-66684444D01*
X97912458Y-66866072D01*
X97892496Y-67056000D01*
X97893186Y-67062565D01*
X97907824Y-67201834D01*
X97912458Y-67245928D01*
X97971473Y-67427556D01*
X98066960Y-67592944D01*
X98140137Y-67674215D01*
X98170853Y-67738221D01*
X98172500Y-67758524D01*
X98172500Y-68243976D01*
X98152498Y-68312097D01*
X98140142Y-68328279D01*
X98066960Y-68409556D01*
X97971473Y-68574944D01*
X97912458Y-68756572D01*
X97911768Y-68763133D01*
X97911768Y-68763135D01*
X97903742Y-68839497D01*
X97892496Y-68946500D01*
X94307897Y-68946500D01*
X94277136Y-68929519D01*
X94133789Y-68850388D01*
X94128920Y-68848664D01*
X94128916Y-68848662D01*
X93928087Y-68777545D01*
X93928083Y-68777544D01*
X93923212Y-68775819D01*
X93918119Y-68774912D01*
X93918116Y-68774911D01*
X93708373Y-68737550D01*
X93708367Y-68737549D01*
X93703284Y-68736644D01*
X93629452Y-68735742D01*
X93485081Y-68733978D01*
X93485079Y-68733978D01*
X93479911Y-68733915D01*
X93259091Y-68767705D01*
X93046756Y-68837107D01*
X92848607Y-68940257D01*
X92844474Y-68943360D01*
X92844471Y-68943362D01*
X92795008Y-68980500D01*
X92669965Y-69074385D01*
X92515629Y-69235888D01*
X92389743Y-69420430D01*
X92295688Y-69623055D01*
X92235989Y-69838320D01*
X92212251Y-70060445D01*
X92212548Y-70065598D01*
X92212548Y-70065601D01*
X92218011Y-70160340D01*
X92225110Y-70283465D01*
X92226247Y-70288511D01*
X92226248Y-70288517D01*
X92243856Y-70366647D01*
X92274222Y-70501389D01*
X92312461Y-70595561D01*
X92339832Y-70662967D01*
X92358266Y-70708366D01*
X92360965Y-70712770D01*
X92467842Y-70887178D01*
X92474987Y-70898838D01*
X92621250Y-71067688D01*
X92793126Y-71210382D01*
X92800781Y-71214855D01*
X92866445Y-71253226D01*
X92915169Y-71304864D01*
X92928240Y-71374647D01*
X92901509Y-71440419D01*
X92861055Y-71473777D01*
X92848607Y-71480257D01*
X92844474Y-71483360D01*
X92844471Y-71483362D01*
X92733711Y-71566523D01*
X92669965Y-71614385D01*
X92515629Y-71775888D01*
X92512715Y-71780160D01*
X92512714Y-71780161D01*
X92500404Y-71798207D01*
X92389743Y-71960430D01*
X92295688Y-72163055D01*
X92235989Y-72378320D01*
X92212251Y-72600445D01*
X89154500Y-72600445D01*
X89154500Y-60786839D01*
X118633173Y-60786839D01*
X118633397Y-60791505D01*
X118633397Y-60791511D01*
X118639443Y-60917373D01*
X118645713Y-61047908D01*
X118696704Y-61304256D01*
X118785026Y-61550252D01*
X118787242Y-61554376D01*
X118851753Y-61674437D01*
X118908737Y-61780491D01*
X118911532Y-61784234D01*
X118911534Y-61784237D01*
X119062330Y-61986177D01*
X119062335Y-61986183D01*
X119065122Y-61989915D01*
X119068431Y-61993195D01*
X119068436Y-61993201D01*
X119247426Y-62170635D01*
X119250743Y-62173923D01*
X119254505Y-62176681D01*
X119254508Y-62176684D01*
X119451404Y-62321054D01*
X119461524Y-62328474D01*
X119465667Y-62330654D01*
X119465669Y-62330655D01*
X119688684Y-62447989D01*
X119688689Y-62447991D01*
X119692834Y-62450172D01*
X119939590Y-62536344D01*
X119944183Y-62537216D01*
X120191785Y-62584224D01*
X120191788Y-62584224D01*
X120196374Y-62585095D01*
X120326959Y-62590226D01*
X120452875Y-62595174D01*
X120452881Y-62595174D01*
X120457543Y-62595357D01*
X120546651Y-62585598D01*
X120712707Y-62567412D01*
X120712712Y-62567411D01*
X120717360Y-62566902D01*
X120830116Y-62537216D01*
X120965594Y-62501548D01*
X120965596Y-62501547D01*
X120970117Y-62500357D01*
X121210262Y-62397182D01*
X121432519Y-62259646D01*
X121436082Y-62256629D01*
X121436087Y-62256626D01*
X121584323Y-62131134D01*
X123717500Y-62131134D01*
X123724255Y-62193316D01*
X123775385Y-62329705D01*
X123862739Y-62446261D01*
X123979295Y-62533615D01*
X124115684Y-62584745D01*
X124177866Y-62591500D01*
X126774134Y-62591500D01*
X126836316Y-62584745D01*
X126972705Y-62533615D01*
X127089261Y-62446261D01*
X127176615Y-62329705D01*
X127209444Y-62242133D01*
X129511612Y-62242133D01*
X129520325Y-62253653D01*
X129618018Y-62325284D01*
X129625928Y-62330227D01*
X129848890Y-62447533D01*
X129857453Y-62451256D01*
X130095304Y-62534318D01*
X130104313Y-62536732D01*
X130351842Y-62583727D01*
X130361098Y-62584781D01*
X130612857Y-62594673D01*
X130622171Y-62594347D01*
X130872615Y-62566920D01*
X130881792Y-62565219D01*
X131125431Y-62501074D01*
X131134251Y-62498037D01*
X131365736Y-62398583D01*
X131374008Y-62394276D01*
X131588249Y-62261700D01*
X131595188Y-62256658D01*
X131603518Y-62244019D01*
X131597456Y-62233666D01*
X131491459Y-62127669D01*
X133878001Y-62127669D01*
X133878371Y-62134490D01*
X133883895Y-62185352D01*
X133887521Y-62200604D01*
X133932676Y-62321054D01*
X133941214Y-62336649D01*
X134017715Y-62438724D01*
X134030276Y-62451285D01*
X134132351Y-62527786D01*
X134147946Y-62536324D01*
X134268394Y-62581478D01*
X134283649Y-62585105D01*
X134334514Y-62590631D01*
X134341328Y-62591000D01*
X135363885Y-62591000D01*
X135379124Y-62586525D01*
X135380329Y-62585135D01*
X135382000Y-62577452D01*
X135382000Y-62572884D01*
X135890000Y-62572884D01*
X135894475Y-62588123D01*
X135895865Y-62589328D01*
X135903548Y-62590999D01*
X136930669Y-62590999D01*
X136937490Y-62590629D01*
X136988352Y-62585105D01*
X137003604Y-62581479D01*
X137124054Y-62536324D01*
X137139649Y-62527786D01*
X137241724Y-62451285D01*
X137254285Y-62438724D01*
X137330786Y-62336649D01*
X137339324Y-62321054D01*
X137384478Y-62200606D01*
X137388105Y-62185351D01*
X137393631Y-62134486D01*
X137394000Y-62127672D01*
X137394000Y-61105115D01*
X137389525Y-61089876D01*
X137388135Y-61088671D01*
X137380452Y-61087000D01*
X135908115Y-61087000D01*
X135892876Y-61091475D01*
X135891671Y-61092865D01*
X135890000Y-61100548D01*
X135890000Y-62572884D01*
X135382000Y-62572884D01*
X135382000Y-61105115D01*
X135377525Y-61089876D01*
X135376135Y-61088671D01*
X135368452Y-61087000D01*
X133896116Y-61087000D01*
X133880877Y-61091475D01*
X133879672Y-61092865D01*
X133878001Y-61100548D01*
X133878001Y-62127669D01*
X131491459Y-62127669D01*
X130568812Y-61205022D01*
X130554868Y-61197408D01*
X130553035Y-61197539D01*
X130546420Y-61201790D01*
X129518270Y-62229940D01*
X129511612Y-62242133D01*
X127209444Y-62242133D01*
X127227745Y-62193316D01*
X127234500Y-62131134D01*
X127234500Y-60791523D01*
X128793898Y-60791523D01*
X128805987Y-61043175D01*
X128807124Y-61052435D01*
X128856274Y-61299535D01*
X128858768Y-61308528D01*
X128943900Y-61545639D01*
X128947700Y-61554174D01*
X129066946Y-61776101D01*
X129071957Y-61783968D01*
X129135446Y-61868990D01*
X129146704Y-61877439D01*
X129159123Y-61870667D01*
X130183978Y-60845812D01*
X130190356Y-60834132D01*
X130920408Y-60834132D01*
X130920539Y-60835965D01*
X130924790Y-60842580D01*
X131955913Y-61873703D01*
X131968293Y-61880463D01*
X131976634Y-61874219D01*
X132102765Y-61678127D01*
X132107212Y-61669936D01*
X132210691Y-61440222D01*
X132213882Y-61431455D01*
X132282269Y-61188976D01*
X132284129Y-61179834D01*
X132316116Y-60928396D01*
X132316597Y-60922108D01*
X132318847Y-60836160D01*
X132318696Y-60829851D01*
X132299912Y-60577074D01*
X132298536Y-60567868D01*
X132296956Y-60560885D01*
X133878000Y-60560885D01*
X133882475Y-60576124D01*
X133883865Y-60577329D01*
X133891548Y-60579000D01*
X135363885Y-60579000D01*
X135379124Y-60574525D01*
X135380329Y-60573135D01*
X135382000Y-60565452D01*
X135382000Y-60560885D01*
X135890000Y-60560885D01*
X135894475Y-60576124D01*
X135895865Y-60577329D01*
X135903548Y-60579000D01*
X137375884Y-60579000D01*
X137391123Y-60574525D01*
X137392328Y-60573135D01*
X137393999Y-60565452D01*
X137393999Y-59538331D01*
X137393629Y-59531510D01*
X137388105Y-59480648D01*
X137384479Y-59465396D01*
X137339324Y-59344946D01*
X137330786Y-59329351D01*
X137254285Y-59227276D01*
X137241724Y-59214715D01*
X137139649Y-59138214D01*
X137124054Y-59129676D01*
X137003606Y-59084522D01*
X136988351Y-59080895D01*
X136937486Y-59075369D01*
X136930672Y-59075000D01*
X135908115Y-59075000D01*
X135892876Y-59079475D01*
X135891671Y-59080865D01*
X135890000Y-59088548D01*
X135890000Y-60560885D01*
X135382000Y-60560885D01*
X135382000Y-59093116D01*
X135377525Y-59077877D01*
X135376135Y-59076672D01*
X135368452Y-59075001D01*
X134341331Y-59075001D01*
X134334510Y-59075371D01*
X134283648Y-59080895D01*
X134268396Y-59084521D01*
X134147946Y-59129676D01*
X134132351Y-59138214D01*
X134030276Y-59214715D01*
X134017715Y-59227276D01*
X133941214Y-59329351D01*
X133932676Y-59344946D01*
X133887522Y-59465394D01*
X133883895Y-59480649D01*
X133878369Y-59531514D01*
X133878000Y-59538328D01*
X133878000Y-60560885D01*
X132296956Y-60560885D01*
X132242929Y-60322126D01*
X132240205Y-60313215D01*
X132148888Y-60078392D01*
X132144877Y-60069983D01*
X132019854Y-59851240D01*
X132014643Y-59843514D01*
X131977391Y-59796261D01*
X131965466Y-59787790D01*
X131953934Y-59794276D01*
X130928022Y-60820188D01*
X130920408Y-60834132D01*
X130190356Y-60834132D01*
X130191592Y-60831868D01*
X130191461Y-60830035D01*
X130187210Y-60823420D01*
X129157321Y-59793531D01*
X129144013Y-59786264D01*
X129133974Y-59793386D01*
X129123761Y-59805666D01*
X129118346Y-59813258D01*
X128987646Y-60028646D01*
X128983408Y-60036963D01*
X128885981Y-60269299D01*
X128883020Y-60278149D01*
X128821006Y-60522331D01*
X128819384Y-60531528D01*
X128794143Y-60782198D01*
X128793898Y-60791523D01*
X127234500Y-60791523D01*
X127234500Y-59534866D01*
X127227745Y-59472684D01*
X127208671Y-59421803D01*
X129509216Y-59421803D01*
X129513789Y-59431579D01*
X130543188Y-60460978D01*
X130557132Y-60468592D01*
X130558965Y-60468461D01*
X130565580Y-60464210D01*
X131594419Y-59435371D01*
X131600803Y-59423681D01*
X131591391Y-59411570D01*
X131454593Y-59316670D01*
X131446565Y-59311942D01*
X131220593Y-59200505D01*
X131211960Y-59197017D01*
X130971998Y-59120205D01*
X130962938Y-59118029D01*
X130714260Y-59077529D01*
X130704973Y-59076717D01*
X130453053Y-59073419D01*
X130443742Y-59073989D01*
X130194097Y-59107964D01*
X130184978Y-59109902D01*
X129943098Y-59180404D01*
X129934367Y-59183667D01*
X129705558Y-59289151D01*
X129697406Y-59293670D01*
X129518353Y-59411062D01*
X129509216Y-59421803D01*
X127208671Y-59421803D01*
X127176615Y-59336295D01*
X127089261Y-59219739D01*
X126972705Y-59132385D01*
X126836316Y-59081255D01*
X126774134Y-59074500D01*
X124177866Y-59074500D01*
X124115684Y-59081255D01*
X123979295Y-59132385D01*
X123862739Y-59219739D01*
X123775385Y-59336295D01*
X123724255Y-59472684D01*
X123717500Y-59534866D01*
X123717500Y-62131134D01*
X121584323Y-62131134D01*
X121628439Y-62093787D01*
X121628440Y-62093786D01*
X121632005Y-62090768D01*
X121723729Y-61986177D01*
X121801257Y-61897774D01*
X121801261Y-61897769D01*
X121804339Y-61894259D01*
X121945733Y-61674437D01*
X122053083Y-61436129D01*
X122091607Y-61299535D01*
X122122760Y-61189076D01*
X122122761Y-61189073D01*
X122124030Y-61184572D01*
X122136230Y-61088671D01*
X122156616Y-60928421D01*
X122156616Y-60928417D01*
X122157014Y-60925291D01*
X122157098Y-60922108D01*
X122159348Y-60836160D01*
X122159431Y-60833000D01*
X122155655Y-60782185D01*
X122140407Y-60577000D01*
X122140406Y-60576996D01*
X122140061Y-60572348D01*
X122137468Y-60560885D01*
X122083408Y-60321980D01*
X122082377Y-60317423D01*
X121987647Y-60073823D01*
X121857951Y-59846902D01*
X121696138Y-59641643D01*
X121505763Y-59462557D01*
X121353437Y-59356884D01*
X121294851Y-59316241D01*
X121294848Y-59316239D01*
X121291009Y-59313576D01*
X121250644Y-59293670D01*
X121060781Y-59200040D01*
X121060778Y-59200039D01*
X121056593Y-59197975D01*
X121010449Y-59183204D01*
X120812123Y-59119720D01*
X120807665Y-59118293D01*
X120549693Y-59076279D01*
X120435942Y-59074790D01*
X120293022Y-59072919D01*
X120293019Y-59072919D01*
X120288345Y-59072858D01*
X120029362Y-59108104D01*
X119778433Y-59181243D01*
X119774180Y-59183203D01*
X119774179Y-59183204D01*
X119723888Y-59206389D01*
X119541072Y-59290668D01*
X119502067Y-59316241D01*
X119326404Y-59431410D01*
X119326399Y-59431414D01*
X119322491Y-59433976D01*
X119127494Y-59608018D01*
X118960363Y-59808970D01*
X118824771Y-60032419D01*
X118723697Y-60273455D01*
X118659359Y-60526783D01*
X118658891Y-60531434D01*
X118658890Y-60531438D01*
X118654552Y-60574525D01*
X118633173Y-60786839D01*
X89154500Y-60786839D01*
X89154500Y-53132703D01*
X100890743Y-53132703D01*
X100928268Y-53417734D01*
X101004129Y-53695036D01*
X101116923Y-53959476D01*
X101264561Y-54206161D01*
X101444313Y-54430528D01*
X101652851Y-54628423D01*
X101886317Y-54796186D01*
X101890112Y-54798195D01*
X101890113Y-54798196D01*
X101911869Y-54809715D01*
X102140392Y-54930712D01*
X102410373Y-55029511D01*
X102691264Y-55090755D01*
X102719841Y-55093004D01*
X102914282Y-55108307D01*
X102914291Y-55108307D01*
X102916739Y-55108500D01*
X103072271Y-55108500D01*
X103074407Y-55108354D01*
X103074418Y-55108354D01*
X103282548Y-55094165D01*
X103282554Y-55094164D01*
X103286825Y-55093873D01*
X103291020Y-55093004D01*
X103291022Y-55093004D01*
X103427584Y-55064723D01*
X103568342Y-55035574D01*
X103839343Y-54939607D01*
X104094812Y-54807750D01*
X104098313Y-54805289D01*
X104098317Y-54805287D01*
X104212417Y-54725096D01*
X104330023Y-54642441D01*
X104540622Y-54446740D01*
X104722713Y-54224268D01*
X104872927Y-53979142D01*
X104988483Y-53715898D01*
X105067244Y-53439406D01*
X105107751Y-53154784D01*
X105107845Y-53136951D01*
X105107867Y-53132703D01*
X134890743Y-53132703D01*
X134928268Y-53417734D01*
X135004129Y-53695036D01*
X135116923Y-53959476D01*
X135264561Y-54206161D01*
X135444313Y-54430528D01*
X135652851Y-54628423D01*
X135886317Y-54796186D01*
X135890112Y-54798195D01*
X135890113Y-54798196D01*
X135911869Y-54809715D01*
X136140392Y-54930712D01*
X136410373Y-55029511D01*
X136691264Y-55090755D01*
X136719841Y-55093004D01*
X136914282Y-55108307D01*
X136914291Y-55108307D01*
X136916739Y-55108500D01*
X137072271Y-55108500D01*
X137074407Y-55108354D01*
X137074418Y-55108354D01*
X137282548Y-55094165D01*
X137282554Y-55094164D01*
X137286825Y-55093873D01*
X137291020Y-55093004D01*
X137291022Y-55093004D01*
X137427584Y-55064723D01*
X137568342Y-55035574D01*
X137839343Y-54939607D01*
X138094812Y-54807750D01*
X138098313Y-54805289D01*
X138098317Y-54805287D01*
X138212417Y-54725096D01*
X138330023Y-54642441D01*
X138540622Y-54446740D01*
X138722713Y-54224268D01*
X138872927Y-53979142D01*
X138988483Y-53715898D01*
X139067244Y-53439406D01*
X139107751Y-53154784D01*
X139107845Y-53136951D01*
X139109235Y-52871583D01*
X139109235Y-52871576D01*
X139109257Y-52867297D01*
X139071732Y-52582266D01*
X138995871Y-52304964D01*
X138883077Y-52040524D01*
X138735439Y-51793839D01*
X138555687Y-51569472D01*
X138347149Y-51371577D01*
X138113683Y-51203814D01*
X138091843Y-51192250D01*
X138068654Y-51179972D01*
X137859608Y-51069288D01*
X137589627Y-50970489D01*
X137308736Y-50909245D01*
X137277685Y-50906801D01*
X137085718Y-50891693D01*
X137085709Y-50891693D01*
X137083261Y-50891500D01*
X136927729Y-50891500D01*
X136925593Y-50891646D01*
X136925582Y-50891646D01*
X136717452Y-50905835D01*
X136717446Y-50905836D01*
X136713175Y-50906127D01*
X136708980Y-50906996D01*
X136708978Y-50906996D01*
X136572416Y-50935277D01*
X136431658Y-50964426D01*
X136160657Y-51060393D01*
X135905188Y-51192250D01*
X135901687Y-51194711D01*
X135901683Y-51194713D01*
X135891594Y-51201804D01*
X135669977Y-51357559D01*
X135459378Y-51553260D01*
X135277287Y-51775732D01*
X135127073Y-52020858D01*
X135125347Y-52024791D01*
X135125346Y-52024792D01*
X135121559Y-52033420D01*
X135011517Y-52284102D01*
X134932756Y-52560594D01*
X134892249Y-52845216D01*
X134892227Y-52849505D01*
X134892226Y-52849512D01*
X134890765Y-53128417D01*
X134890743Y-53132703D01*
X105107867Y-53132703D01*
X105109235Y-52871583D01*
X105109235Y-52871576D01*
X105109257Y-52867297D01*
X105071732Y-52582266D01*
X104995871Y-52304964D01*
X104883077Y-52040524D01*
X104735439Y-51793839D01*
X104555687Y-51569472D01*
X104347149Y-51371577D01*
X104113683Y-51203814D01*
X104091843Y-51192250D01*
X104068654Y-51179972D01*
X103859608Y-51069288D01*
X103589627Y-50970489D01*
X103308736Y-50909245D01*
X103277685Y-50906801D01*
X103085718Y-50891693D01*
X103085709Y-50891693D01*
X103083261Y-50891500D01*
X102927729Y-50891500D01*
X102925593Y-50891646D01*
X102925582Y-50891646D01*
X102717452Y-50905835D01*
X102717446Y-50905836D01*
X102713175Y-50906127D01*
X102708980Y-50906996D01*
X102708978Y-50906996D01*
X102572416Y-50935277D01*
X102431658Y-50964426D01*
X102160657Y-51060393D01*
X101905188Y-51192250D01*
X101901687Y-51194711D01*
X101901683Y-51194713D01*
X101891594Y-51201804D01*
X101669977Y-51357559D01*
X101459378Y-51553260D01*
X101277287Y-51775732D01*
X101127073Y-52020858D01*
X101125347Y-52024791D01*
X101125346Y-52024792D01*
X101121559Y-52033420D01*
X101011517Y-52284102D01*
X100932756Y-52560594D01*
X100892249Y-52845216D01*
X100892227Y-52849505D01*
X100892226Y-52849512D01*
X100890765Y-53128417D01*
X100890743Y-53132703D01*
X89154500Y-53132703D01*
X89154500Y-52053250D01*
X89156246Y-52032345D01*
X89158770Y-52017344D01*
X89158770Y-52017341D01*
X89159576Y-52012552D01*
X89159729Y-52000000D01*
X89159040Y-51995186D01*
X89159039Y-51995176D01*
X89158157Y-51989017D01*
X89157206Y-51962172D01*
X89169038Y-51796723D01*
X89171596Y-51778934D01*
X89212999Y-51588607D01*
X89218063Y-51571359D01*
X89286136Y-51388850D01*
X89293604Y-51372498D01*
X89386952Y-51201542D01*
X89396672Y-51186418D01*
X89513402Y-51030486D01*
X89525175Y-51016900D01*
X89662900Y-50879175D01*
X89676486Y-50867402D01*
X89832418Y-50750672D01*
X89847542Y-50740952D01*
X90018498Y-50647604D01*
X90034850Y-50640136D01*
X90217359Y-50572063D01*
X90234608Y-50566999D01*
X90424936Y-50525596D01*
X90442715Y-50523039D01*
X90604605Y-50511460D01*
X90622565Y-50512207D01*
X90630845Y-50512308D01*
X90639724Y-50513691D01*
X90671286Y-50509564D01*
X90687621Y-50508500D01*
X137950633Y-50508500D01*
X137970018Y-50510000D01*
G37*
G04 #@! TD.AperFunction*
M02*
